<svg xmlns="http://www.w3.org/2000/svg" width="1010.645" height="631.305" viewBox="0 0 1010.645 631.305"><g transform="translate(-75.109 -242.454)"><g transform="translate(75.109 242.454)"><path d="M286.824,576.712c-.706-.472-1.408-.914-2.081-1.4a5.639,5.639,0,0,1-2.346-5.107c.1-3.6,3.866-5.235,6.7-4.434A9.635,9.635,0,0,1,292,567.385c4.735,3.481,9.445,6.987,14.47,10.054a10.971,10.971,0,0,1,2.391,2.341,3.015,3.015,0,0,1,.446,3.177,23.291,23.291,0,0,1-1.993,3.676,9.9,9.9,0,0,1-1.687,1.867,10.049,10.049,0,0,1-1.406.905c-4.239,2.742-8.419,5.556-11.865,9.318a27.551,27.551,0,0,1-2.463,2.151c-2.575-.451-3.994-1.681-4.135-3.476a7.555,7.555,0,0,1,.587-4.107c.756-1.5,1.484-3.017,2.242-4.563-.366-.275-.736-.788-1.111-.793a11.22,11.22,0,0,0-4.146.314,15.11,15.11,0,0,1-5.737.986c-7.585.065-15.17.21-22.6.323-.5.585-1.035.94-1.185,1.419-.585,1.863-.1,3.927-1.141,5.742-.728,1.273-.4,2.751-.42,4.143-.054,3.361.292,6.753-1.395,9.911a6.148,6.148,0,0,0-.331,2.476,22.876,22.876,0,0,1-1.542,8.213,4.324,4.324,0,0,0,3.08,5.17c1.674.169,3.359.262,5.044.3a8.211,8.211,0,0,0,6.2-2.084c2.486-2.357,5.709-3.491,9.006-5.151l8.579.295a5.9,5.9,0,0,1,3.5,2.757,15.639,15.639,0,0,1,3.145,7.68c.1,1.362.795,2.688.843,4.044.039,1.07-.6,2.146-.747,3.245a11.017,11.017,0,0,0,.141,2.506c.056.574,1.115,1.4,1.819,1.529a6.078,6.078,0,0,0,4.063-.576c2.736-1.423,5.5-2.8,8.419-4.278H309.7a17.685,17.685,0,0,1,2.283,2.244,5.176,5.176,0,0,1-1.581,7.332c-1.488.773-3.086,1.334-4.622,2.021-.611.273-.892.713-.7,1.1a.959.959,0,0,0,.674.468c1.395.089,2.794.132,4.191.152,1.717.024,3.063-1.657,4.8-1.25,1.616.381,3.112,1.194,4.852,1.2,2.679.009,4.774,1.553,6.773,3.041a35.828,35.828,0,0,1,3.916,3.851c1.546,2.573.73,5.356,2.159,7.617a6.31,6.31,0,0,1,.52,3.277,13.48,13.48,0,0,0,1.027,4.878,24.926,24.926,0,0,1,.76,5.077A15.069,15.069,0,0,1,336,679.943a9.278,9.278,0,0,0,4.7,4.626c1.748.873,3.548,1.646,5.647,2.61,3.866.414,8.085.061,12.294.124a3.7,3.7,0,0,0,1.666-.167c3.123-1.622,6.587-1.211,9.857-1.746,1.553-.71,3.106-1.356,4.6-2.12a10.7,10.7,0,0,1,3.175-1.018,36.3,36.3,0,0,0,12.612-4.21c2.192-1.247,4.312-2.614,6.515-3.959,2.69-.414,5.653.193,8.061-1.724,2.218-.23,4.473-.284,6.478-1.313l5.049,1.7c.9.745,1.969,1.657,3.067,2.53a26.573,26.573,0,0,1,8.317,11.425c1.02,2.606,1.531,5.365,2.723,7.9-.093,2.636,1.068,4.945,2.162,7.18,1.6,3.271,2.131,6.968,4.193,10.045a3.227,3.227,0,0,1,.13,3.236,11.217,11.217,0,0,0-1.219,4.826c-.065,1.986-3.08,9.448-4.672,11.536a55.872,55.872,0,0,0-4.245,7.221c-1.893,3.433-3.946,6.779-5.987,10.13-3.346,5.495-6.534,11.087-10.035,16.489a21.337,21.337,0,0,1-1.6,1.956,3.3,3.3,0,0,1-5.582-.572c-.4-1.046-.942-2.038-1.594-3.42v-5.634c5.192-5.841,9.3-12.512,13.32-19.246a14.834,14.834,0,0,1,1.882-2.772c3.387-3.509,4.977-8.027,7.178-12.224,1.538-2.933.905-5.4-.687-7.86-.908-1.4-2.071-2.632-3.184-4.024a12.222,12.222,0,0,1,.71-2.352c.414-.775.86-1.676.422-2.339-1.131-1.709-.938-3.829-1.913-5.523-.888-1.546-.751-3.255-1.146-4.869a31.538,31.538,0,0,0-2.12-6.322,13.112,13.112,0,0,0-5.012-5.566,1.939,1.939,0,0,0-1.583-.191,12.792,12.792,0,0,1-5.625,1.429c-2.04.065-3.606,1.464-5.41,2.2a9.037,9.037,0,0,1-3.119,1.146c-4.046.1-7.49,2.116-11.107,3.535a19.221,19.221,0,0,1-5.6,1.607c-3.641.277-7.041,1.683-10.583,2.461a18.724,18.724,0,0,1-3.258.73c-2.8.115-5.651-.069-8.2,1.458-2.242.113-4.488.154-6.721.351-4.334.385-8.246-1.1-12.187-2.558-5.434-2.006-9.859-5.124-12.725-10.362-1.061-1.941-2.872-3.47-3.06-5.874a11.922,11.922,0,0,1-1.395-7.338c.3-3.491-1.25-6.578-1.858-9.864-.13-.7-1.033-1.282-1.64-1.856a2.152,2.152,0,0,0-2.3-.626c-2.612,1.432-5.378,1.339-8.2,1.3-2.348-.028-4.167-1.549-6.387-1.988-1.258-.249-2.4-1.375-3.463-2.261s-1.971-2-2.978-2.98a13.791,13.791,0,0,0-1.315-1.014c-1.767-.533-3.27.364-4.841.868-1.462-.823-3.154-1.189-4.427-2.387-2.85-2.675-6.251-4.819-8.081-8.432a11.413,11.413,0,0,1,.8-5.8A7.907,7.907,0,0,0,277,635.6a4.351,4.351,0,0,0-1.115-3.084,2.165,2.165,0,0,0-2.235-.717,10.384,10.384,0,0,0-1.468.771,14.44,14.44,0,0,1-5.09,2.811,40.882,40.882,0,0,0-6.266,2.8H250.216c-5.311-1.9-9.892-4.477-13.156-9.469-.132-3.08-.277-6.426-.427-9.868.728-2.3,2.183-4.477,2.025-7.132a10.709,10.709,0,0,1,.827-4.089,11.955,11.955,0,0,0,.784-4.1c-.1-3.138,1.995-5.876,1.466-9.066-.182-1.1-.152-2.235-.227-3.355a2.3,2.3,0,0,0-1.843-1.46c-.557.02-1.248-.2-1.648.052-2.276,1.425-4.8,1.469-7.336,1.495-2.244.026-4.479-.048-6.6,1.011a6.186,6.186,0,0,1-2.467.323q-6.741.253-13.485.451c-1.85.056-3.262-.563-3.868-2.5-.247-.791-.782-1.5-.975-2.294a2.641,2.641,0,0,1,.321-1.579,4.467,4.467,0,0,1,1.027-1.317c.825-.756,1.711-1.447,2.749-2.313.977-.065,2.077-.184,3.18-.2,3.091-.052,6.184-.05,9.274-.091a13.774,13.774,0,0,0,5.768-.96,7.986,7.986,0,0,1,3.279-.593c2.32,0,4.314-1.2,6.5-1.568,2.2-.37,4.475-.286,6.7-.533a1.636,1.636,0,0,0,1.133-1.085c.221-2.794.414-5.6.4-8.4-.017-2.523-.312-5.044-.494-7.7-1.326-4.535-4.3-8.3-7.017-12.194-2.408-3.446-5.01-6.758-7.6-10.223a29.982,29.982,0,0,0-2.426-8.761c-1.319-3.037-2.788-6.1-2.922-9.549a5.575,5.575,0,0,0-.721-2.378,24.983,24.983,0,0,1-2.664-8.783,2.17,2.17,0,0,0-1.822-1.471c-3.65,0-7.3-.009-10.951.022a3.2,3.2,0,0,0-1.624.336c-2.3,1.475-4.88,1.079-7.375,1.239-1.958.126-3.92.069-5.759,1.02a5.931,5.931,0,0,1-2.441.479c-5.328.184-10.658.223-15.38.295-2.551-1.3-3.42-2.892-3.5-5.064-.1-2.82,1.648-5.025,4.308-5.114,2.807-.1,5.621-.076,8.43-.156a25.167,25.167,0,0,0,6.632-.856c2.1-.63,4.44-.446,6.673-.613a21.214,21.214,0,0,0,6.621-1.044,13.485,13.485,0,0,1,4.13-.609c3.078-.2,6.16-.3,9.374-.453A7.6,7.6,0,0,0,218,495.7c.169-4.213.232-8.43.29-12.645a13.934,13.934,0,0,1,.955-5.759,9.9,9.9,0,0,0,.494-3.292c.165-2.244.308-4.492.364-6.74a13.932,13.932,0,0,1,.99-4.88c.593-1.518.193-3.446.856-4.91a22.136,22.136,0,0,0,1.607-7.336,23.741,23.741,0,0,1,1.417-4.789c.938-2.928,1.5-5.95,2.257-8.921.691-2.7,1.746-5.3,2.66-7.938a39.844,39.844,0,0,0,1.65-4.726,13.416,13.416,0,0,1,2.274-4.46,5.137,5.137,0,0,0,.862-1.44c1.055-4.8,4.2-8.469,6.686-12.491a14.5,14.5,0,0,0,1.425-2.081c2.216-5.7,6.684-9.621,10.79-13.825,2.359-2.415,4.873-4.676,7.184-7.13,1.726-1.832,3.227-3.877,4.854-5.8a14.488,14.488,0,0,1,2.27-2.463c5-3.676,9.231-8.2,13.792-12.363,4.187-3.819,8.486-7.31,14.126-8.7,3.242-1.637,6.716-2.707,10.039-4.13,2.837-1.215,5.5-2.751,8.729-2.775.778-.006,1.536-.641,2.331-.9,3.448-1.139,6.842-2.577,10.381-3.275,3.275-.643,6.706-.477,10.069-.678a7.7,7.7,0,0,0,2.5-.249c3.225-1.386,6.576-1.243,9.95-1.077a23.4,23.4,0,0,0,2.521-.11c2-.117,3.53-1.683,5.6-1.7a10.224,10.224,0,0,0,4.938-.827,8.5,8.5,0,0,1,4.063-.886c1.967-.026,3.938-.087,5.9-.212a8.922,8.922,0,0,0,3.281-.522,13.411,13.411,0,0,1,5.737-1.072,11.664,11.664,0,0,0,5.7-1.191,5.4,5.4,0,0,1,2.447-.418c4.778-.11,9.558-.223,14.336-.232,2.809,0,5.618.18,8.428.292a8.469,8.469,0,0,1,1.674.178c.541.134,1.031.5,1.572.6a59.855,59.855,0,0,1,11.226,3.147c2.6,1.029,5.361,1.495,7.895,2.7,2.27,1.074,4.585,2.075,6.95,2.917,2.629.938,5.484,1.347,7.977,2.536,7.31,3.487,14.96,6.411,21.15,11.9,2.935,1.694,5.417,3.99,8.074,6.056.654.511,1.52.9,1.921,1.562,1.648,2.736,4.25,4.375,6.615,6.361a62.357,62.357,0,0,1,11.005,11.553c2.1,2.961,4.388,5.813,6.669,8.651a29.8,29.8,0,0,1,4.4,7.137c1.183,2.842,2.922,5.391,3.868,8.369a88.082,88.082,0,0,0,3.708,8.443,9.131,9.131,0,0,1,1.109,3.138c.063,2.595,1.871,4.717,1.772,7.31a13.483,13.483,0,0,0,.851,4.061c.723,2.694,2.268,5.127,2.508,7.96.238,2.8,2.1,5.224,1.891,8.131,1.479,2.835,1.588,5.919,1.564,9.006a25.432,25.432,0,0,0,1.087,5.727,57.037,57.037,0,0,1,.741,8.369c.152,2.227-.117,4.488.925,6.615a2.641,2.641,0,0,1-.23,2.422,3.966,3.966,0,0,0,.152,3.994,21.482,21.482,0,0,1,.873,2.315,4.436,4.436,0,0,0,1.5.6c5.062-.028,10.121-.093,15.181-.221a11.715,11.715,0,0,0,3.279-.563,27.842,27.842,0,0,1,3.281-.587c2.846-.576,5.493,1.733,8.2.687,2.5-.966,4.951-.765,7.466-.752a14.284,14.284,0,0,1,5.757,1.007,5.059,5.059,0,0,0,2.484.1,1.984,1.984,0,0,0,1.369-.749,1.713,1.713,0,0,0-.052-1.551c-1.54-1.986-3.353-3.751-4.325-6.164a4.373,4.373,0,0,1,1.371-5.254,36.4,36.4,0,0,1,3.608-2.058,9.213,9.213,0,0,1,5.088,2.677,57.135,57.135,0,0,1,5.077,5.594,54.142,54.142,0,0,0,5.67,6.214,16.373,16.373,0,0,1,3.639,4.6,7.646,7.646,0,0,1-2.993,5.757c-2.783,1.908-5.148,4.3-7.862,6.4-1.694,0-3.366.039-5.034-.011a2.432,2.432,0,0,1-2.272-2.092c-.262-1.076-.208-2.261-1.089-3.1-.4-.379-1.033-1.022-1.334-.914-2.66.955-5.478-1.425-8.053.429a17.933,17.933,0,0,1-9.918-.314,5.588,5.588,0,0,0-4.087-.236,12.3,12.3,0,0,1-4.906.949c-5.9.039-11.808.128-17.713.219-.836.013-1.672.141-2.5.236a3.97,3.97,0,0,0-2.307,2.292,11.287,11.287,0,0,0-.264,1.64q-.169,6.741-.288,13.487c-.05,2.813-.128,5.627-.072,8.436a63.537,63.537,0,0,0,.492,9.253c.416,2.454,1.144,4.884,1.711,7.329a94.689,94.689,0,0,0,3.19,9.526,5.424,5.424,0,0,0,.689,1.518c2.4,3.162,3.639,6.9,5.289,10.444a71.467,71.467,0,0,0,4.824,8.8c2.274,3.5,3.84,7.457,5.711,11.217.669,3.972,2.941,7.2,4.875,10.591,1.666,2.917,3.29,5.859,4.934,8.791.838,4.263,3.4,7.6,5.883,10.985a6.854,6.854,0,0,1,1.245,2.159c.877,3.32,2.987,5.982,4.492,8.96,2.783,5.508,6.047,10.726,9.116,16.054A84.209,84.209,0,0,0,592.9,652.852c2.127,2.229,4.377,4.315,5.963,7.057.964,1.666,2.636,2.9,3.873,4.429s2.268,3.18,3.47,4.715a3.414,3.414,0,0,0,2.963,1.332c2.775-.193,5.59.128,8.293-1.068a13.413,13.413,0,0,1,4.141-.565c1.956-.171,3.918-.169,5.768-1.031,1.087-.507,2.185.046,3.264.327a.721.721,0,0,0,.628-.314c.139-.5.383-1.157.175-1.516a9.411,9.411,0,0,0-1.672-1.874,5.546,5.546,0,0,1-1.384-5.447c.6-2.959,4.832-4.9,7.407-3.4a3.386,3.386,0,0,1,.734.409c3.972,4.068,9.237,6.272,13.758,9.549,1.133.819,2.322,1.568,3.407,2.443,2.012,1.624,2.086,3.381.069,4.806-2.961,2.092-5.281,4.964-8.43,6.814-1.206.708-2.378,1.477-3.6,2.164a3.06,3.06,0,0,1-3.2-.067c-2.162-1.28-4.288-2.616-6.682-4.087a22.906,22.906,0,0,1-3.767,1.053c-2.229.262-4.488.247-6.734.373-1.386.076-2.8-.171-4.135.459a.944.944,0,0,0-.568,1.349,8.277,8.277,0,0,0,1.289,2.068c2.835,3.108,6,5.922,8.185,9.595a14.429,14.429,0,0,0,2.235,2.521c5.313,5.443,9.29,11.947,14.083,17.8a32.24,32.24,0,0,1,1.633,2.92c1.221,1.878,2.506,3.717,3.79,5.553,1.765,2.526,3.552,5.034,5.326,7.54a18.662,18.662,0,0,0-1.488,4.8c-.362,3.8-2.46,5.109-6.407,4.38a4.893,4.893,0,0,1-.959-.457c-1.893-3.188-3.808-6.6-5.911-9.894s-4.4-6.487-6.615-9.723a15.863,15.863,0,0,0-1.434-2.068c-5.423-5.694-9.818-12.294-15.506-17.745-2.25-2.157-3.71-4.923-5.928-7.089-2.01-1.962-3.916-4.035-5.908-6.019-1.391-1.384-2.85-2.7-4.221-3.985-2.675.022-4.932,1.382-7.539,1.124a57.656,57.656,0,0,0-7.578.2q-3.795.13-7.587.253c-4.83,2.073-9.933,1.356-14.951,1.421-3.361.043-6.771-.381-9.889,1.36-1.956.093-3.912.184-5.534.26-1.726-.81-2.129-2.244-2.839-3.411a2.826,2.826,0,0,1,.557-3.795c1.018-.944,2.144-1.774,3.188-2.627,2.112-.082,4.076-.1,6.032-.253,2.5-.191,5.038.087,7.455-1.037a8.88,8.88,0,0,1,3.312-.327q7.167-.24,14.336-.422a22.391,22.391,0,0,0,5.783-.858c2.112-.617,4.425-.528,6.638-.827a1.02,1.02,0,0,0,.91-1.148,3.329,3.329,0,0,0-.091-.836,1.817,1.817,0,0,0-.442-.7c-4.735-4.442-8.343-9.846-12.5-14.78a75.842,75.842,0,0,1-9.9-14.559c-2.268-4.494-4.592-8.937-7.158-13.283-2.69-4.555-4.661-9.536-6.922-14.345-.232-.5-.115-1.232-.448-1.594-2.532-2.759-2.969-6.617-5.146-9.582a62.2,62.2,0,0,1-3.3-5.839c-1.12-1.934-1.824-4.12-3.5-5.72a2.784,2.784,0,0,1-.9-1.4c-.635-4.338-3.708-7.451-5.549-11.176q-2.6-5.266-5.244-10.511c-1.884-3.753-3.81-7.485-5.655-11.256a33.438,33.438,0,0,1-2.3-5.391,38.047,38.047,0,0,0-2.586-6.19c-.866-1.774-.771-3.816-1.863-5.551a6.965,6.965,0,0,1-.57-3.249c-.169-3.65-.229-7.306-.39-10.957a13.623,13.623,0,0,0-.477-3.29,16.119,16.119,0,0,1,.407-11.488,9.372,9.372,0,0,0,.427-3.309c.1-2.794-.223-5.623,1.059-8.285.295-.609-1.637-2.3-2.255-1.945-2.359,1.369-4.943.849-7.429,1-2.519.156-5.053.028-7.581.056a5.76,5.76,0,0,0-2.5.214c-3.727,1.995-7.706.988-11.176,1.276a8.723,8.723,0,0,1-4.483-2.948c-1.484-1.681-1.378-3.606-.775-5.551a2.606,2.606,0,0,1,1.079-1.217c.94-.611,1.956-1.1,3.132-1.75,7.682-.037,15.542-.056,23.4-.126a54.561,54.561,0,0,0,5.891-.329,3.756,3.756,0,0,0,3.117-2.409c0-3.429.011-6.792-.009-10.158a6.28,6.28,0,0,0-.2-2.506c-1.5-3.212-1.033-6.6-1.163-9.95-.087-2.246.113-4.624-.568-6.7-.882-2.684-1.035-5.491-1.912-8.139-.962-2.911-2.244-5.774-2.636-8.789-.368-2.818-2.227-5.209-2-8.122-.977-2.909-1.971-5.813-2.928-8.729a122.81,122.81,0,0,0-8.984-20.7,6.956,6.956,0,0,0-.942-1.388c-3.548-3.606-6-8.142-9.8-11.538a26.089,26.089,0,0,1-2.346-2.424c-7.953-9.235-17.548-16.48-27.78-22.956a69.112,69.112,0,0,0-16.606-7.9c-6.66-2.051-13.162-4.577-19.807-6.688-2.658-.845-5.634-.414-8.053-2.211-.578-.429-1.64-.273-2.478-.277q-10.968-.059-21.932-.059c-1.118,0-2.441-.132-3.314.39-2.6,1.551-5.421,1.261-8.2,1.406a12.357,12.357,0,0,0-4.046,1.027,22.262,22.262,0,0,1-3.377.806c-.934.871-1.954,1.822-2.972,2.772a5.606,5.606,0,0,1-1.557.55c-4.068.193-4.068.176-8.6-1.711-4.834,0-10.173-.009-15.512,0a11.476,11.476,0,0,0-4.912.936,7.583,7.583,0,0,1-3.268.563,18.7,18.7,0,0,0-8.189,1.438c-1.248.544-2.9.225-4.074.851-2.027,1.083-4.332,1.109-6.363,2.116-1.486.739-3.16,1.087-4.707,1.718a39.184,39.184,0,0,0-3.779,1.832c-1.486.8-3.195.8-4.724,1.666-3.905,2.216-7.854,4.3-11.085,7.511a66.968,66.968,0,0,1-6.359,5.493,44.831,44.831,0,0,0-9.424,9.582,14.086,14.086,0,0,1-4.7,4.739,18.615,18.615,0,0,0-5.579,5.04c-.895,1.074-1.57,2.333-2.482,3.39-2.2,2.551-4.483,5.034-6.734,7.544-2.865,5.454-6.433,10.518-9.043,16.114-1.884,4.044-3.6,8.185-5.1,12.363a82.435,82.435,0,0,0-3.723,12.872,57.967,57.967,0,0,0-1.38,7.388,6.431,6.431,0,0,1-.587,2.434,12,12,0,0,0-1.057,4.895c-.1,2.237-.106,4.494-1.276,6.545a3.841,3.841,0,0,0-.342,1.622c-.275,4.46.182,9-1.49,13.305-.039,3.935-.162,7.871-.058,11.8a3.369,3.369,0,0,0,1.9,2.651,6.894,6.894,0,0,0,1.579.375c4.5.024,9,.007,13.5-.026.24,0,.477-.279.808-.483-.236-2.216-2.034-3.732-2.749-5.74a4.734,4.734,0,0,1,1.479-4.59,14.887,14.887,0,0,1,3.381-2.411,3.056,3.056,0,0,1,2.393.184,11.767,11.767,0,0,1,2.59,2.125c2.207,2.164,4.338,4.408,6.563,6.554a29.1,29.1,0,0,0,8.161,5.872,15.042,15.042,0,0,1,5.27,4.05,3.825,3.825,0,0,1,.312,3.219,16.284,16.284,0,0,1-5.846,5.945,12.945,12.945,0,0,1-3.738,1.891c-3.065.678-5.7,2.318-8.573,3.394a9.677,9.677,0,0,1-3.3.279,2.084,2.084,0,0,1-1.869-1.456,4.737,4.737,0,0,1-.251-3.3c.325-1.022.747-2.014,1.118-3-.986-.832-2.136-.73-3.247-.775-3.076-.128-6.2.121-9.123-1.191h-5.982a2.342,2.342,0,0,0-1.267,1.876,15.012,15.012,0,0,0,.728,5.781c1.341,3.671,2.5,7.412,3.712,11.13a5.875,5.875,0,0,1,.373,1.622c.091,3.543,1.971,6.281,3.756,9.164a149.933,149.933,0,0,0,8.96,13.184,20.66,20.66,0,0,1,3.357,6.7,16.786,16.786,0,0,1,.884,4.05c.31,5.06.208,10.113.05,15.172a9.44,9.44,0,0,0,.39,2.434,1.016,1.016,0,0,0,.622.537,5.079,5.079,0,0,0,1.59.357c3.093.006,6.2-.23,9.274-.015,3.435.243,6.524-1.462,9.965-1.312a33.252,33.252,0,0,0,9.181-.6C286.452,577.236,286.586,576.961,286.824,576.712Z" transform="translate(36.603 -137.186)"/><path d="M232.784,536.608c1.458-2.727,3.766-4.412,5.662-6.465s4.473-3.433,5.737-6.084a6.57,6.57,0,0,0-1.629-.526c-5.055-.2-10.117-.266-15.166-.544-4.167-.229-8.436.791-12.5-.936a1.16,1.16,0,0,0-.832.007c-4.7,2.125-10.089.312-14.754,2.6-2.24.169-4.479.42-6.721.485-3.091.091-6.184.022-9.274.065a9.216,9.216,0,0,0-3.329.295c-2.716,1.152-5.519.849-8.306.862-2.506.011-4.995.264-7.442-.875-1.189-.557-2.753-.333-4.15-.414-2.523-.143-5.049-.279-7.574-.357a9.31,9.31,0,0,1-3.933-1.36,2.718,2.718,0,0,1-1.5-1.885,15.2,15.2,0,0,1-.253-1.665,4.72,4.72,0,0,1,1.843-4.442c.643-.533,1.369-.97,2.058-1.451a30.553,30.553,0,0,0,8.239,1.256,11.589,11.589,0,0,1,5.74.951,4.554,4.554,0,0,0,2.467.312c3.894-.5,7.89.578,11.709-.682a14.253,14.253,0,0,1,4.13-.557c4.208-.141,8.419-.225,12.623-.459,3.054-.171,6.095.1,9.164-.86,2.619-.821,5.534-.7,8.317-1,2.881-1.546,6.036-1.035,9.092-1.139,4.211-.141,8.427-.1,12.642-.175a1.184,1.184,0,0,0,.684-.459c.3-.353.219-.847-.2-1.388-.513-.667-1.1-1.282-1.557-1.986a4.143,4.143,0,0,1,.437-5.389,23.536,23.536,0,0,1,1.767-1.8,3.587,3.587,0,0,1,3.92-.741,23.649,23.649,0,0,1,4.362,2.482,21,21,0,0,1,2.445,2.313c1.822,1.752,3.546,3.63,5.5,5.215a66.974,66.974,0,0,0,5.6,3.68c.7.459,1.408.925,2.079,1.432,3.106,2.348,2.681,1.336,4.477,5.837a15.064,15.064,0,0,1-6.264,7.624c-3,2.043-6.207,3.717-9.077,6a45.6,45.6,0,0,0-6.862,6.149,15.436,15.436,0,0,1-2.417,2.339,4.837,4.837,0,0,1-4.029.667,4.308,4.308,0,0,1-2.915-3.747C232.728,538.673,232.784,537.551,232.784,536.608Z" transform="translate(8.45 57.244)"/><path d="M82.144,396.356c-1.228-.713-2.194-1.269-3.047-1.763a4.092,4.092,0,0,1,1.154-5.915,5,5,0,0,1,.749-.368c1.046-.36,2.1-.7,2.863-.953,3.955,1.371,7.646,2.547,11.657,2.534a23.912,23.912,0,0,1,8.315,1.011c.895.321,2.131-.47,3.19-.407,1.085.065,2.129.665,3.221.819a4.793,4.793,0,0,0,2.467-.225,13.765,13.765,0,0,1,5.753-.953c3.929.03,7.871.152,11.785-.126,3.106-.219,6.168.1,9.253.128a5.465,5.465,0,0,1,2.432.494,9.086,9.086,0,0,0,4.891.895c1.4-.071,2.8-.1,4.07-.152a2.58,2.58,0,0,0,.923-3.734c-1.28-2.151-3.164-3.916-3.84-6.463a4.027,4.027,0,0,1,.42-3.188,5.478,5.478,0,0,1,3.972-2.807,24.313,24.313,0,0,1,3.3-.193c2.246,1.319,4.375,2.651,6.58,3.842,1.973,1.068,3.808,2.346,5.714,3.5a46.109,46.109,0,0,0,9.025,4.369c1.048.355,2.025.916,3.063,1.31a13.736,13.736,0,0,1,7.455,6.773,9.9,9.9,0,0,1-.652,2.168,41.33,41.33,0,0,1-11.845,12.935,40.5,40.5,0,0,0-3.472,2.322,21.122,21.122,0,0,1-6.233,4.21c-2.138.884-3.556,2.718-5.748,3.751-.957,0-2.071.013-3.184,0a3.957,3.957,0,0,1-2.835-1.592,2.072,2.072,0,0,1-.613-2.274c.91-1.724,1.345-3.684,2.707-5.2a44.358,44.358,0,0,0,2.629-3.58c2.987-2.142,6.968-3.058,9.963-5.666.531-.461.591-.972.258-1.293a1.753,1.753,0,0,0-.719-.424,2.18,2.18,0,0,0-.838-.009c-3.028.4-6.166-.247-9.105,1.209-.921.455-2.209.2-3.331.212-5.9.041-11.793.089-17.689.08-2.512,0-5.016.028-7.412-1.113a8.651,8.651,0,0,0-3.312-.392c-3.929-.143-7.858-.247-11.789-.342-2.233-.056-4.442.069-6.638-.741a13.969,13.969,0,0,0-4.154-.386c-2.8-.11-5.616-.112-8.419-.266a24.306,24.306,0,0,1-5.77-.972A49.059,49.059,0,0,0,82.144,396.356Z" transform="translate(-71.394 -87.932)"/><path d="M480.534,369.762a15.438,15.438,0,0,1,5.527-4.908,11.981,11.981,0,0,0,2.476-2.2c.444-.433-.039-1.956-.591-2.17-2.079-.8-4.5-.186-6.441-1.562-.136-.1-.52.056-.73.186a8.452,8.452,0,0,1-4.891.84c-15.135-.446-30.271-.039-45.406.011-6.45.022-12.9.061-19.348.072-2.785,0-3.292-1.423-3.342-3.773a8.393,8.393,0,0,1,.009-.84c.074-.836.163-1.67.236-2.406,1.087-2.1,3.465-1.793,4.661-3.123l5.358.321c3.132,1.67,6.554,1.133,9.877,1.23,2.235.067,4.479-.123,6.719-.2,6-2.11,12.211-.769,18.319-1.118a10.8,10.8,0,0,1,4.891.936,3.9,3.9,0,0,0,3.268-.115,12,12,0,0,1,5.737-.951c4.767.03,9.532.087,14.3.061a12.193,12.193,0,0,0,2.567-.622,13.09,13.09,0,0,0-1.536-2.064c-2.016-1.776-2.166-3.769-.905-6.012.412-.732.795-1.479,1.284-2.4.81-1,2.311-1.161,3.522-1.912a9.025,9.025,0,0,1,3.79,1.427,9.668,9.668,0,0,1,2.471,2.255c3.422,4.247,7.977,6.942,12.7,9.422a38.547,38.547,0,0,1,3.652,2.049,7.533,7.533,0,0,1,1.722,1.811c1.141,1.536.936,4.447-.555,5.335a33.679,33.679,0,0,0-5.8,4.808,33.6,33.6,0,0,1-5.883,4.694c-1.884,1.124-3.374,2.922-5,4.464-1.211,1.15-1.995,2.727-3.641,3.613a33.4,33.4,0,0,1-7.368-.275,2.478,2.478,0,0,1-1.585-1.752,10.585,10.585,0,0,1-.225-1.657C480.376,372.125,480.469,371.007,480.534,369.762Z" transform="translate(312.754 -132.167)"/><path d="M293.4,314.384c-2.118.113-4.07.217-6.013.318A17.858,17.858,0,0,1,285.6,312.8a3.976,3.976,0,0,1-.154-4.726c1.089-1.6,2.45-3.028,3.693-4.531-.386-.305-.754-.843-1.159-.875-1.679-.126-3.366-.11-5.051-.128-3.9-.037-7.847.524-11.624-1.076a6.862,6.862,0,0,0-2.51-.16q-8.85-.072-17.7-.119c-10.955-.074-21.912-.206-32.867-.188-3.474.007-6.461-1.6-9.669-2.454a3.071,3.071,0,0,1-1.551-1.874,5.723,5.723,0,0,1,2.2-6.645,2.988,2.988,0,0,1,3.164-.526c2.3,1.438,4.793,1.4,7.312,1.523,2.224.113,4.486-.065,6.569,1.107a2.579,2.579,0,0,0,2.4-.273,3.144,3.144,0,0,1,3.195-.128,4.267,4.267,0,0,0,4.022.015c1.133-.481,2.118.784,3.2.466,5.491-1.614,11.1-1.113,16.69-1.046,2.528.03,5.053.078,7.581.111a13.409,13.409,0,0,1,4.945.78,15.555,15.555,0,0,0,3.3.492c1.659.264,3.045-1.5,4.793-.6a8.762,8.762,0,0,0,4.111.7,14.357,14.357,0,0,0,2.521-.1,2.3,2.3,0,0,0,1.083-.858c.071-.082-.16-.546-.355-.717a6.9,6.9,0,0,0-1.973-1.534c-2.192-.767-2.636-2.783-3.448-4.52a2.244,2.244,0,0,1,.128-1.609,10.3,10.3,0,0,1,1.291-2.157,5.082,5.082,0,0,1,4.332-2.179c.836.024,1.67.158,2.725.266,5.1,4.657,11.282,7.975,17.342,11.455a19.3,19.3,0,0,1,5.311,4.009,3.123,3.123,0,0,1-.208,3.862c-.955.962-2.532,1.3-2.855,2.891A57.41,57.41,0,0,1,293.4,314.384Z" transform="translate(78.289 -199.888)"/><path d="M277.89,470.318a21.963,21.963,0,0,1-2.27-1.936c-2.571-2.987-2.4-5.3.574-7.923a26.617,26.617,0,0,1,2.255-1.588A23.093,23.093,0,0,0,282.263,460a55.88,55.88,0,0,0,5.876.245,6.123,6.123,0,0,0,2.5-.154c4.3-1.913,8.854-1.076,13.268-1.165,5.6-.115,11.2-.4,16.8-.461a9.053,9.053,0,0,0,4.094-.732,3.478,3.478,0,0,1,3.214.173,2.714,2.714,0,0,0,2.411.214c2.086-1.1,4.321-1.07,6.556-1.135,2.521-.071,5.044-.089,7.566-.158,1.362-.039,2.3-1.183,1.614-2.19a8.656,8.656,0,0,1-1.219-6.426,8.84,8.84,0,0,1,.951-1.358c2.027-2.008,4.548-2.543,6.929-1.172,3.864,2.229,8.337,3.219,11.884,6.032,4.548.908,7.934,3.918,11.616,6.119,0,.84.225,1.551-.035,1.9a58.54,58.54,0,0,0-5.034,8.029c-2.192,1.232-4.15,3.262-6.721,4.451-2.075.962-3.474,2.811-5,4.429a12.315,12.315,0,0,1-5.666,3.333,6.365,6.365,0,0,1-3.108-2.71,3.064,3.064,0,0,1-.282-3.151c.775-1.482,1.3-3.093,2.493-4.349a15.357,15.357,0,0,0,1.382-1.98c-.321-.21-.552-.492-.791-.5-4.745-.134-9.482-.459-14.245-.173-4.191.253-8.406.141-12.61.214-2.781.05-5.594-.281-8.269.949a6.608,6.608,0,0,1-2.478.266c-5.6.173-11.2.366-16.807.461a12.87,12.87,0,0,0-5.74.9,5.814,5.814,0,0,1-2.452.4C286.755,470.337,282.553,470.318,277.89,470.318Z" transform="translate(156.567 -6.4)"/><path d="M221.969,321.1c4.037,1.722,6.158,4.873,9.22,6.81s6.023,4.07,8.921,6.045c.611,1.122,1.146,2.107,1.655,3.041a5.485,5.485,0,0,1-2.042,2.662,7.155,7.155,0,0,0-2.6,3.236,6.5,6.5,0,0,1-2.655,3.173c-4.6,3.19-9.019,6.61-13.429,10.05a12.984,12.984,0,0,1-5.807.509,3.677,3.677,0,0,1-3.093-2.515,3.634,3.634,0,0,1,.407-3.968c1.516-1.614,3.292-2.982,5.259-4.719a1.151,1.151,0,0,0-.97-.507c-4.767-.184-9.539-.308-14.308-.42a15.306,15.306,0,0,1-4.947-.769,10.753,10.753,0,0,0-4.133-.548c-4.453.251-8.967-.26-13.348,1.141a5.633,5.633,0,0,1-3.281-.288,10.25,10.25,0,0,0-7.379-.039,9.006,9.006,0,0,1-6.561-.11,8.649,8.649,0,0,0-6.558.015c-1.9.793-3.836.55-5.9.526-1.081-.862-2.248-1.651-3.24-2.619a4.411,4.411,0,0,1,.035-6.088,41.329,41.329,0,0,1,3.2-2.688c3.463-.126,6.753-.262,10.024,1.031a9.634,9.634,0,0,0,6.61.048,24.092,24.092,0,0,1,8.3-.99c11.791-.015,23.582.091,35.373.1a18.683,18.683,0,0,1,5.75,1.009,2.774,2.774,0,0,0,1.559-.314c.578-.212.745-1.284.106-2.179a7.855,7.855,0,0,1-1.46-4.726c0-2.131.643-3.851,2.792-4.715C220.236,321.991,220.96,321.59,221.969,321.1Z" transform="translate(7.526 -150.757)"/><path d="M402.1,265.083c-.983-.723-2.138-.57-3.245-.611-3.091-.117-6.186-.171-9.276-.31a8.484,8.484,0,0,1-3.288-.461c-2.385-1.183-4.884-1.187-7.414-1.2q-11.384-.033-22.77-.061a12.373,12.373,0,0,1-3.362-.162c-6.589-1.91-13.329-1.4-20.041-1.4a4.6,4.6,0,0,1-4.429-4.221c-.3-3.931,2.244-5.952,5.471-6a26.032,26.032,0,0,1,7.494.752,25.641,25.641,0,0,0,6.606,1.037c3.645.082,7.327-.2,10.775,1.384,2.788.182,5.579.726,8.217-.9a3.1,3.1,0,0,1,2.456-.061,19.723,19.723,0,0,0,6.576,1.154c7.585.472,15.166.6,22.757.321a13.442,13.442,0,0,1,6.589,1.024c.123.061.578-.223.622-.4.115-.5.316-1.191.08-1.512-.821-1.124-1.934-2.04-2.7-3.19a3.8,3.8,0,0,1-.015-4,8.82,8.82,0,0,1,2.9-3,4.28,4.28,0,0,1,5.415.323q5.042,5.094,10.037,10.236a13.6,13.6,0,0,1,2.865,5.064,1.964,1.964,0,0,1-.4,1.531,8.492,8.492,0,0,1-1.817,1.726c-.9.641-1.952,1.018-2.541,2.1a15.271,15.271,0,0,1-5.276,5.311c-2.8,1.854-5.495,3.883-8.2,5.891-3.177,2.363-5.72,5.393-8.492,8.185-1.848,1.863-5.27,1-6.277-1.538a6.511,6.511,0,0,1-.171-4.93,20.913,20.913,0,0,1,6.5-8.672,11.275,11.275,0,0,1,2.309-.962A3.515,3.515,0,0,0,402.1,265.083Z" transform="translate(220.028 -242.454)"/><path d="M554.158,311.877a32,32,0,0,1-8.512,4.273,4.08,4.08,0,0,1-5.447-3.619,6.306,6.306,0,0,1,1.5-4.67c1.7-1.852,3.383-3.712,5.116-5.614-.58-.388-.977-.884-1.378-.888-4.492-.043-8.982-.308-13.476.035a17.876,17.876,0,0,0-5.776.912,9.5,9.5,0,0,1-3.305.381q-4.633.136-9.268.16a18.6,18.6,0,0,0-7.444,1.066,7.175,7.175,0,0,1-2.46.414c-10.388.459-20.78.63-31.176.3a3.722,3.722,0,0,1-1.626-.368,2.58,2.58,0,0,1-1.128-1.159,4.914,4.914,0,0,1,1.568-6.03,32.352,32.352,0,0,1,3.888-1.938,15.5,15.5,0,0,0,7.2,1.265c2.525-.1,5.053-.1,7.578-.108a9.468,9.468,0,0,1,4.921.86,1.482,1.482,0,0,0,1.583-.056,8.832,8.832,0,0,1,4.094-.762q5.474-.162,10.949-.375a5.65,5.65,0,0,0,2.462-.305c2.092-1.215,4.341-.912,6.569-1.04a35.639,35.639,0,0,0,8.33-.986c1.462-.435,3.084,1,4.767-.123,1.46-.977,3.277-.507,4.947-.574q2.105-.081,4.213-.1c1.685-.02,3.374.05,5.055-.045a9.932,9.932,0,0,0,2.164-.611,4.934,4.934,0,0,0-2.411-2.545,31.739,31.739,0,0,1-7.843-6.29c-1.239-1.282-1.176-2.946.067-4.533a6.64,6.64,0,0,1,7.711-2.53c2.59,2.116,5.306,4.583,8.709,6.023a13.566,13.566,0,0,1,4.107,2.887c2.019,1.954,4.031,3.914,6.01,5.906,1.083,1.089,1.245,2.45.821,4.308-2.255,2.369-4.962,4.847-7.215,7.687S555.975,309.109,554.158,311.877Z" transform="translate(384.535 -203.431)"/><path d="M328.265,319.634c2.285.535,4.076,1.271,6.1,1.269,10.126-.007,20.249.091,30.372.149,2.25.013,4.5,0,6.749.028a7.643,7.643,0,0,1,2.512.2c4.906,1.835,9.974,1.172,15.007,1.115,1.406-.017,2.811.043,4.215.054a1.9,1.9,0,0,0,1.51-1.709c-.009-2.118,1.455-3.608,2.075-5.447a10.146,10.146,0,0,1,1.308-1.029c4.262-2.38,4.9-2.367,8.191.5a44.927,44.927,0,0,0,9.532,6.771c2.775,1.369,4.765,3.9,6.8,6.233a4.821,4.821,0,0,1,.069,4.8,33.177,33.177,0,0,1-2.183,2.556c-1.761,1.813-3.569,3.576-5.172,5.172l-1.157,3.619c-.849.537-1.757,1.189-2.731,1.715a3.382,3.382,0,0,1-4.85-1.774c-.446-1.029-.769-2.11-1.215-3.136a4.844,4.844,0,0,1,.477-4.793,3.511,3.511,0,0,0,.355-.764c.234-.7-.383-2.032-.957-2.069-1.956-.128-3.914-.238-5.87-.359-1.122-.069-2.393.169-3.34-.277-3.758-1.767-7.721-1.193-11.618-1.28-5.623-.123-11.25-.123-16.875-.145a13.644,13.644,0,0,1-5.757-.944,7,7,0,0,0-3.3-.349c-1.092.087-2.155.749-3.229.752a16.9,16.9,0,0,1-3.16-.778,2.9,2.9,0,0,0-1.657.043,18.712,18.712,0,0,1-8.222,1.419c-5.341-.084-10.68-.119-16.019-.214a2.946,2.946,0,0,1-2.614-1.767c-2.415-4.384-1.8-6.4,2.718-8.609C326.838,320.343,327.342,320.092,328.265,319.634Z" transform="translate(212.999 -160.738)"/><path d="M314.806,402.466a6.773,6.773,0,0,0-1.7-.559c-11.525-.269-23.047-.225-34.572-.121-3.933.035-7.871-.087-11.8-.225a8.925,8.925,0,0,1-3.262-.639,15.976,15.976,0,0,0-4.917-1.014,19.019,19.019,0,0,1-3.305-.5,23.562,23.562,0,0,1-3.11-1.419c-1.055-.933-1.421-2.335-2.071-3.561-.613-1.155-.1-2.125.667-3.032a3.929,3.929,0,0,1,2.826-1.631,33.242,33.242,0,0,1,5.025.132c2.2.26,4.009,1.977,6.448,1.67a12.461,12.461,0,0,1,5.735,1.115A10.991,10.991,0,0,0,274.1,393c2.809.082,5.618.128,8.43.167,4.213.054,8.428.106,12.642.128a11.021,11.021,0,0,0,4.945-.821c2.766-1.33,5.421-.79,8.066.422a1.062,1.062,0,0,0,1.447-.511,1.992,1.992,0,0,0-.052-1.516,3.546,3.546,0,0,0-1.3-.992,11.893,11.893,0,0,1-4.709-4.663V381.2c.483-.635.817-1.085,1.161-1.525,1.783-2.283,5.707-2.01,7.615-.455,2.389,1.945,4.395,4.275,6.976,6.06a89.626,89.626,0,0,0,12.906,7.784,11.84,11.84,0,0,1,3.905,3.108,4.446,4.446,0,0,1,.188,5.445,13.89,13.89,0,0,1-4.823,4.629c-2.441,1.364-4.973,2.573-7.49,3.8-1.508.734-3.132,1.252-4.572,2.094a47.124,47.124,0,0,0-4.115,3c-2.242,0-4.488.108-6.716-.035a3.745,3.745,0,0,1-3.054-2.584,4.15,4.15,0,0,1,1.146-4.589,39.877,39.877,0,0,1,6.625-3.546C313.961,404.073,314.3,403.149,314.806,402.466Z" transform="translate(128.562 -84.413)"/><path d="M143.853,321.084c-1.936-.266-3.751-1.815-5.233.113-3-1.761-3.463-4.026-2.593-6.74,1.523-2.411,3.775-4.13,5.74-6.125a2.2,2.2,0,0,0,.277-1.421c0-.169-.412-.466-.645-.479-4.473-.247-8.926-.5-13.266,1.15a16.842,16.842,0,0,1-4.148.468c-1.388.147-2.922-.013-4.133.535-2.413,1.092-4.9,1.111-7.41,1.152q-10.53.169-21.059.277a13.375,13.375,0,0,0-4.9.884c-2.367.929-4.94.795-7.466.637a4.968,4.968,0,0,1-3.87-3.9,3.694,3.694,0,0,1,1.607-3.656,40.6,40.6,0,0,1,4.408-2.356c6.511-.074,12.965-.113,19.417-.24,2.5-.05,5,.184,7.425-1.044,1.161-.589,2.736-.459,4.126-.474,4.211-.041,8.423.007,12.636.017a8.775,8.775,0,0,0,4.834-1.169c1.516-.947,3.277-.559,4.923-.8.7-.106,1.031-.5.923-.942a1.306,1.306,0,0,0-.357-.747c-1.141-.788-2.315-1.527-3.912-2.562-.442-.8-1.18-1.99-1.75-3.255a2.154,2.154,0,0,1,.082-1.609,8.855,8.855,0,0,1,3.292-3.734,4.06,4.06,0,0,1,3.249-.42,11.592,11.592,0,0,1,2.233,1.109c3.474,1.793,6.892,3.715,10.446,5.33,2.008.914,4.013,2.016,6.363,2.038,2.019.017,3.712,1.176,5.54,1.854a6.035,6.035,0,0,1,1.319,1.012,2.776,2.776,0,0,1,.8,3.017c-.292.479-.652.918-.925,1.406-1.226,2.19-2.168,4.6-3.712,6.537a59.754,59.754,0,0,1-6.53,6.55,55.629,55.629,0,0,0-5.867,6.023A12.445,12.445,0,0,1,143.853,321.084Z" transform="translate(-75.109 -193.458)"/><path d="M104.075,464.827c5.493.078,11.377.191,17.262.227a13.322,13.322,0,0,1,4.065.881,7.2,7.2,0,0,0,4.956.05,16.56,16.56,0,0,1,6.591-.953c5.889-.067,11.778-.128,17.667-.236a5.815,5.815,0,0,0,1.616-.561,27.935,27.935,0,0,1-1.289-3.715,12.27,12.27,0,0,1-.069-3.348c.26-3.455,4.875-5.675,7.661-3.708a16.494,16.494,0,0,1,1.986,1.549c2.019,1.949,4.05,3.888,5.976,5.926a42.1,42.1,0,0,0,9.571,8.124,4.571,4.571,0,0,1,2.09,5.125,4.735,4.735,0,0,1-.912,2.289c-5.044,5.3-10.483,10.1-17.23,13.182a2.539,2.539,0,0,1-.756.106,5.544,5.544,0,0,1-3.093-1.291,4.594,4.594,0,0,1-1.319-5.885c.483-.687,1.031-1.328,1.568-1.973.888-1.066,2.175-1.8,2.666-3.19-.117-.195-.191-.494-.355-.559-2.863-1.124-6.184.44-8.943-1.533-.338-.24-1.085.013-1.618.143s-1.033.468-1.577.583a8.415,8.415,0,0,1-4.962-.089,14.747,14.747,0,0,0-5.755-.884q-18.1-.01-36.2-.1a4.643,4.643,0,0,1-4.224-3.494,3.609,3.609,0,0,1,.464-3.214A9.8,9.8,0,0,1,104.075,464.827Z" transform="translate(-46.945 2.704)"/><path d="M580.816,424.189c4.338.819,6.695,3.442,9.528,5.2,2.588,1.607,4.715,3.972,6.983,6.071a25.793,25.793,0,0,1,2.159,2.58c-2.582,2.85-4.995,5.575-7.483,8.228a9.218,9.218,0,0,1-2.621,2.1c-2.841,1.339-5.051,3.528-7.672,5.495a25.771,25.771,0,0,1-3.208.037,4.316,4.316,0,0,1-3.86-3.8,4.892,4.892,0,0,1,1.289-4.644,12.582,12.582,0,0,0,1.546-1.951.719.719,0,0,0,.05-.663,1.075,1.075,0,0,0-.7-.429c-2.517-.119-5.034-.23-7.552-.277-3.375-.063-6.749-.048-10.121-.106a14.134,14.134,0,0,1-2.489-.277c-6.97-1.378-8.521-1.395-14.862-.05a3.412,3.412,0,0,1-2.439-.143,8.861,8.861,0,0,0-4.1-.775q-7.589-.14-15.179-.251c-2.519-.041-5.008.065-7.446-1.016a10.737,10.737,0,0,0-4.156-.366c-4.208-.011-8.408-.171-12.118-.433a7.929,7.929,0,0,1-3.556-2.991,2.685,2.685,0,0,1,.338-3.773,5.717,5.717,0,0,1,1.235-1.12c1.232-.643,2.523-1.18,4-1.854a25.975,25.975,0,0,0,3.795,1.248,26.593,26.593,0,0,0,4.2.173c1.969.039,3.938.022,5.9.1a11.5,11.5,0,0,1,4.927.938,9.171,9.171,0,0,0,4.115.713q5.478.107,10.959.158a14.259,14.259,0,0,1,5.761.994,14.154,14.154,0,0,0,3.292.511c2,.338,3.606-1.91,5.651-.931,1.869.9,3.814.793,5.783.8s3.931.128,5.9.13c5.9.011,11.806-.011,17.711-.028a1.524,1.524,0,0,0,1.107-1.861c-.2-.52-.409-1.037-.656-1.536a3.343,3.343,0,0,1,.637-3.873,5.609,5.609,0,0,1,1.185-1.18A23.456,23.456,0,0,1,580.816,424.189Z" transform="translate(411.159 -30.57)"/><path d="M433.1,441.26a3.211,3.211,0,0,1,1.042.015c3.548,1.588,7.351,2.53,10.806,4.364,2.712,1.438,5.688,2.274,8.5,3.5,3.463.182,5.475,2.467,7.336,4.949.048.918.091,1.752.139,2.705-1.094,1.529-2.209,3.119-3.359,4.685a79.925,79.925,0,0,0-6.149,9.959,3.657,3.657,0,0,1-3.5,1.926c-1.391-.046-2.775-.262-3.89-.375-1.843-1.094-2.045-2.928-3.073-4.211.284-1.193.539-2.268.8-3.342-1.547-1.118-3.245-.4-4.884-.4-2.6,1.358-5.415,1.159-8.22,1.161-4.481,0-8.96.108-13.439.2a8.408,8.408,0,0,0-2.5.262,37.808,37.808,0,0,1-11.585,1.561,3.366,3.366,0,0,0-1.62.325c-2.554,1.54-5.417,1.221-8.178,1.419-2.231.16-4.074-1.653-4.392-4.169a12.217,12.217,0,0,1,.074-1.874c1.157-1.681,2.369-3.539,3.71-5.3a1.565,1.565,0,0,1,1.5-.234,8.272,8.272,0,0,0,7.26.68,16.315,16.315,0,0,1,4.9-.946c3.082-.111,6.16-.271,9.242-.347a14.769,14.769,0,0,0,5.755-.9,9.171,9.171,0,0,1,3.292-.405c4.483-.13,8.969-.188,13.45-.327a18.258,18.258,0,0,0,2.651-.5,8.282,8.282,0,0,0-1.572-1.973,6.092,6.092,0,0,0-2.376-.7c-2.779-.422-4.438-2.313-5.7-4.527a3.668,3.668,0,0,1,.381-3.979A11.072,11.072,0,0,1,433.1,441.26Z" transform="translate(288.402 -10.708)"/></g></g></svg>