<svg xmlns="http://www.w3.org/2000/svg" width="454.519" height="403.928" viewBox="0 0 454.519 403.928"><g transform="translate(-83.471 -192.733)"><path d="M282.307,335.178c.942-.067,1.884-.132,2.825-.209a.3.3,0,0,0,.219-.168,1.751,1.751,0,0,0,.021-.541.439.439,0,0,0-.157-.234,3.661,3.661,0,0,0-.66-.544c-1.01-.531-1.942-1.215-2.96-1.706a49.379,49.379,0,0,1-4.808-3.031,8,8,0,0,1-2.436-2.389c-.524-.8-1.187-1.491-1.71-2.28a27.311,27.311,0,0,1-2.346-3.9,18.8,18.8,0,0,0-2.464-4.424,7.861,7.861,0,0,1,.008-2.583,1.787,1.787,0,0,1,1.647-.975,1.471,1.471,0,0,1,1.257.551c.556.769,1.095,1.553,1.595,2.359a5.688,5.688,0,0,0,1.35,1.46,18.082,18.082,0,0,0,6.37,3.038,9.438,9.438,0,0,1,2.2.548,3.073,3.073,0,0,0,.869-.116c-.774-1.163-1.47-2.289-2.248-3.352a21.784,21.784,0,0,0-1.858-2.161c-.725-.757-1.515-1.45-2.263-2.185A17.936,17.936,0,0,1,272.8,306.8a7.041,7.041,0,0,0-.477-.785v-2.489a4.724,4.724,0,0,1,.563-.7,1.385,1.385,0,0,1,1.592-.174c.255.121.512.24.775.336a.31.31,0,0,0,.238-.074c.056-.045.122-.158.1-.2a5.076,5.076,0,0,0-.521-1.012,22.9,22.9,0,0,1-1.969-2.444,8.783,8.783,0,0,0-1.827-2.167,14.577,14.577,0,0,1-2.929-3.836c-.559-.994-1.2-1.934-1.757-2.926-.516-.921-1.481-1.494-1.878-2.5l-1.326-1.121a4.53,4.53,0,0,1-.1-2.73c.348-.507,1.015-.493,1.316-.9a3.764,3.764,0,0,1,.67.142,5.861,5.861,0,0,1,2.1,1.443,12.26,12.26,0,0,0,3.054,2.558,2.891,2.891,0,0,1,.663.541,8.739,8.739,0,0,0,2.607,1.7,3.153,3.153,0,0,0,1.616.476c.6-.034,1.054.443,1.64.415a.4.4,0,0,0,.245-.109.2.2,0,0,0,.014-.2,17.2,17.2,0,0,0-1.7-1.927,16.523,16.523,0,0,1-2.129-2.663,13.684,13.684,0,0,1-1.06-2,21.694,21.694,0,0,1-1.393-3.107c-.335-.982-.782-1.924-1.079-2.929-.349-1.179-.765-2.34-1.225-3.481a5.673,5.673,0,0,1-.137-3.093,1.636,1.636,0,0,1,.426-.733,3.943,3.943,0,0,1,.661-.54.94.94,0,0,1,1.064-.036,34.586,34.586,0,0,1,4.129,3.5.235.235,0,0,0,.219.046.372.372,0,0,0,.14-.506c-.51-1.019-1.074-2.012-1.54-3.05a19.737,19.737,0,0,1-1.815-5.942,2.007,2.007,0,0,0-.065-.566,10.552,10.552,0,0,1-.527-4.214,3.338,3.338,0,0,0-.321-1.664.782.782,0,0,1-.028-.817c.451-.678.071-1.27-.144-1.956,0-.788,0-1.647,0-2.5a2.346,2.346,0,0,1,.048-.852,14,14,0,0,0,.554-3.938c.078-.656.521-1.221.482-1.921-.039-.664-.008-1.334-.008-1.921.245-.618.434-1.153.67-1.669a1.427,1.427,0,0,1,.823-.755c.569-.2,1.2-.1,1.336.593a2.07,2.07,0,0,0,.427,1.03,11.161,11.161,0,0,1,.687.985c0,.446.034.924-.007,1.394a8.369,8.369,0,0,0,.8,3.585,26.53,26.53,0,0,0,1.815,3.547c.123.224.411.357.635.544.471-.789.132-1.767.712-2.481a7.822,7.822,0,0,1,.6-2.481c-.064-1.448.726-2.751.708-4.2a4.237,4.237,0,0,1,.294-1.09,5.9,5.9,0,0,0,.213-.821,13.154,13.154,0,0,1,.133-1.421,9.923,9.923,0,0,0,.474-1.333c.092-.852.7-1.57.663-2.465a1.474,1.474,0,0,1,.186-.526,23.865,23.865,0,0,0,1.536-3.668l1.8-3.064a4.263,4.263,0,0,1,1.38-.737,1.476,1.476,0,0,1,1.729.639,4.862,4.862,0,0,1,.716,2.432,18.353,18.353,0,0,0,.035,2c.007.123.171.238.3.4,1.333-2.549,2.958-4.887,4.266-7.411a6.1,6.1,0,0,0,.432-.737,25.131,25.131,0,0,1,1.975-3.442c.576-1.09,1.246-2.133,1.91-3.173.512-.8,1.13-1.536,1.607-2.354a17.488,17.488,0,0,1,3.149-3.675,34.905,34.905,0,0,1,3.55-2.356c.764-.381,1.535-.75,2.3-1.121a.954.954,0,0,1,1.268.263,3.178,3.178,0,0,1,.335.476,13.6,13.6,0,0,0-.516,1.581,5.38,5.38,0,0,0-.055,1.425,4.164,4.164,0,0,1-.485,1.616.4.4,0,0,0,.147.506.233.233,0,0,0,.216-.048,16.129,16.129,0,0,0,2.675-2.951,1.914,1.914,0,0,1,.6-.6,27.624,27.624,0,0,0,4.223-3.834c1.23-1.209,2.7-2.1,3.99-3.214,2.357-1.425,4.556-3.082,6.8-4.668.621-.439,1.228-.9,1.872-1.3a11.5,11.5,0,0,1,1.526-.765c.506-.217,1.351.575,1.357,1.151.007.7-.526,1.223-.547,1.9a16.182,16.182,0,0,1-.112,1.989c-.073.458-.359.879-.458,1.336a2.272,2.272,0,0,0,.167.828c.647-.362,1.232-.678,1.806-1.012.411-.237.792-.526,1.214-.739,2.632-1.338,4.977-3.135,7.482-4.675,1.574-1.382,3.383-2.448,5.04-3.722a14.45,14.45,0,0,1,3.359-2.115,2.7,2.7,0,0,1,.548-.1,2.276,2.276,0,0,1,1.378,1.407c-.226.371-.453.79-.722,1.179a1.758,1.758,0,0,0-.371,1.055,1.387,1.387,0,0,1-.465,1c-.727.757-1.428,1.544-2.216,2.234a18.941,18.941,0,0,0-2.824,3.571.665.665,0,0,0,.031.521c.077.186.247.111.467.029a15.751,15.751,0,0,1,2.426-.788,16.635,16.635,0,0,1,2.282-.115,8.807,8.807,0,0,0,2.524-.367,7.527,7.527,0,0,1,1.986-.154,7.67,7.67,0,0,0,3.092-.4c.76-.048,1.519-.128,2.279-.136,1.428-.017,2.856,0,4.286.018a.788.788,0,0,1,.593.834,10.562,10.562,0,0,1-.255,1.107c-.168.54-.373,1.068-.611,1.741-1.63.868-3.257,2.005-4.906,3.11a4.4,4.4,0,0,0-1.993,2.328c-.257.855-1.106,1.308-1.352,2.146a.374.374,0,0,0,.206.476,3.812,3.812,0,0,0,2.5-.024,4.4,4.4,0,0,1,1.392-.247c1.048-.017,2.1-.049,3.145-.08a7.415,7.415,0,0,0,3.365-.434l1.952-.088c.482.207.931.37,1.35.589a1.136,1.136,0,0,1,.632.747l-1.853,3.355a40.47,40.47,0,0,0-5.293,3.222,8.228,8.228,0,0,0-.712.471c-.653.554-1.291,1.128-1.934,1.7-.862.241-1.354,1.026-2.112,1.435-.394.213-.647.673-1,.984-.282.251-.635.425-.919.675a8.467,8.467,0,0,1-1.875,1.28c-.224.111-.352.425-.527.65.191.105.342.258.5.263.953.034,1.907.043,2.86.045,2.576,0,5.15.024,7.726-.008a11.988,11.988,0,0,1,3.593.785,1.2,1.2,0,0,1,.632,1.441c-.4.862-.786,1.728-1.232,2.563a2.818,2.818,0,0,1-.751.848,19.575,19.575,0,0,1-3.582,2.324c-1.453.7-2.842,1.5-4.221,2.333-.666.4-1.117,1.043-1.777,1.422-.74.426-1.5.816-2.255,1.215-.668.356-1.35.688-2,1.072-.1.056-.086.334-.084.507,0,.056.122.136.2.163a2.479,2.479,0,0,0,.547.128c.285.027.572.025.858.029q4.719.057,9.439.109a1.682,1.682,0,0,1,1.358.835c.055.924-.943,1.558-.476,2.36a15.214,15.214,0,0,1-3.19,4.182c-1.65,1.584-3.237,3.236-4.793,4.914a17.886,17.886,0,0,1-5.055,3.645,7.618,7.618,0,0,1-3.163,1.2l-1.488.769a2.207,2.207,0,0,0,.363.514,16.6,16.6,0,0,0,4.93,2.112c.711.231,1.526.014,2.24.367a.4.4,0,0,0,.263,0,20.113,20.113,0,0,1,4.248-.4,4.635,4.635,0,0,0,1.1-.254,5.275,5.275,0,0,1,2.261-.149,1.539,1.539,0,0,1,1.205,1.4,3.644,3.644,0,0,1-.265,1.676c-.289.6-.565,1.205-.89,1.785a2.566,2.566,0,0,1-.691.891c-1.107.751-2.007,1.759-3.117,2.489a10.428,10.428,0,0,0-1.394.975c-.453.413-1.082.311-1.579.612a5.4,5.4,0,0,0-2.073,1.459.556.556,0,0,0-.113.258c-.006.156.135.259.362.292.283.041.575.045.851.112a21.389,21.389,0,0,0,2.754.677,7.3,7.3,0,0,0,1.886.61,40.622,40.622,0,0,0,4.835,1.6,1.6,1.6,0,0,1,1.037.912c.126.255.21.531.328.79a1.908,1.908,0,0,1,.088,1.389c-.2.633-.434,1.254-.659,1.892-.45.713-1.222,1.187-1.564,2.012a1.392,1.392,0,0,1-.582.615,27.112,27.112,0,0,1-2.645,1.666,15.863,15.863,0,0,0-3.516,1.858c-1.062.82-2.3,1.33-3.4,2.076-1.254.846-2.586,1.588-3.867,2.4a2.305,2.305,0,0,0-.619.58.893.893,0,0,0-.05.53c0,.064.119.157.195.172.462.088.926.175,1.394.228a6.616,6.616,0,0,1,1.958.335,3.207,3.207,0,0,0,1.118.15c.762.029,1.526.032,2.289.036a4.567,4.567,0,0,0,2.5-.432,10.569,10.569,0,0,0,2.744-.7c.991-.342,2.053-.42,3.019-.775a24.794,24.794,0,0,1,3.27-.5c1.243-.72,2.639-1.528,4.031-2.339a.429.429,0,0,0,.189-.207c.244-.757.971-.841,1.55-1.131a2.177,2.177,0,0,1,1.09.887,1.9,1.9,0,0,1,.3.781,3.573,3.573,0,0,1-.184,1.966,8.057,8.057,0,0,1-1.243,2.532,5.563,5.563,0,0,0-1.558,2.017,17.091,17.091,0,0,1-4.23,3.781,47.249,47.249,0,0,0-4.709,2.661c-1.492.6-2.949,1.284-4.479,1.791a16.789,16.789,0,0,0-3.087,1.427.555.555,0,0,0-.108.938,6.034,6.034,0,0,0,.7.472,5.013,5.013,0,0,0,.53.21c.175.076.343.164.547.264l3.052.179,1.654.732,1.093,1.334a11.2,11.2,0,0,1-.074,1.408c-.064.367-.321.7-.38,1.069-.242,1.512-1.341,1.987-2.633,2.165a5.517,5.517,0,0,0-1.612.461,45.329,45.329,0,0,1-4.918,2.2,3.618,3.618,0,0,0-2.283,2,.3.3,0,0,0,.209.454,2.522,2.522,0,0,0,1.673-.035,6.646,6.646,0,0,1,2.238-.369c2.858-.143,5.716-.128,8.57,0a1.9,1.9,0,0,1,.475.313,1.7,1.7,0,0,1,.418.72,8.484,8.484,0,0,1,.039,1.427,16.835,16.835,0,0,1-.956,2.65,30.229,30.229,0,0,1-5.366,5.9,51.455,51.455,0,0,1-5.471,4.113,2.28,2.28,0,0,0,1.669.151c.275-.032.527-.266.8-.292a36.921,36.921,0,0,1,5.428-.041c.988.631,2.238.371,3.251.982a1.2,1.2,0,0,1,.683,1.121c0,.761,0,1.523,0,2.251a12.922,12.922,0,0,1-4.417,5.576c.163.221.276.547.493.647a42.3,42.3,0,0,0,4.412,1.977,6.271,6.271,0,0,1,2.245,1.209,1.615,1.615,0,0,1,.656,1.49,8.176,8.176,0,0,1-.164,1.118c-.156.538-.376,1.06-.563,1.578a4.9,4.9,0,0,1-2.394.827,6.753,6.753,0,0,0-2.242.374,3.035,3.035,0,0,1-1.124.116c-1.429.015-2.86.011-4.291.02-.381,0-.762.022-1.144.042-.671.035-1.3.79-1.047,1.4a9.551,9.551,0,0,1,.314,3.945.663.663,0,0,1-.115.259,2.712,2.712,0,0,0-.024,2.469c.262.611.307,1.28.636,1.886a16.552,16.552,0,0,1,1.249,2.86c.349,1.086.987,2.043,1.25,3.17.237,1.009.954,1.857,1.127,2.907a47.811,47.811,0,0,0,2.751,5.3,20.644,20.644,0,0,1,1.443,2.776c1.288,3.064,2.816,6.008,4.312,8.969.813,1.609,1.591,3.237,2.37,4.863,1.069,2.228,2.384,4.321,3.6,6.468a12.039,12.039,0,0,0,.855,1.167c.258,1.095-.171,2.3.5,3.351a21.327,21.327,0,0,0-1.558,3.947c-.066.175-.029.4-.126.552a3.171,3.171,0,0,0-.116,3.263,17.589,17.589,0,0,1,.488,2.22c.551,1.71,1.153,3.4,1.7,5.114a15.579,15.579,0,0,0,.552,1.61c.39.866.844,1.7,1.26,2.556a5.55,5.55,0,0,0,1.32,1.84,3.525,3.525,0,0,1,.491.681c-.2.1-.363.185-.528.272-.207.111-.3.329-.175.38,1.023.416,1.06,1.219.88,2.119-.038.185-.092.367-.154.615-.189.129-.432.272-.647.446a5.451,5.451,0,0,0-.619.587,1.205,1.205,0,0,0-.073,1.571c1.507,1.366,2.326,3.237,3.582,4.786.6,1.186,1.211,2.366,1.794,3.56.5,1.022.952,2.069,1.453,3.089a3.5,3.5,0,0,1,.36,1.071,3.2,3.2,0,0,0,.272,1.092c.376.673.405,1.449.778,2.133a24.23,24.23,0,0,1,1.837,4.755c.269.9.709,1.753.966,2.657a10.763,10.763,0,0,1,.8,3.593,5.352,5.352,0,0,0,.38,1.649,11.892,11.892,0,0,1,.781,3.023,1.148,1.148,0,0,0,.188.528c.747,1.327,1,2.856,1.729,4.2.174.322.144.753.31,1.082.464.926.555,2.026,1.316,2.814a1.058,1.058,0,0,1,.293.486,16.769,16.769,0,0,0,1.358,3.432,35.407,35.407,0,0,1,1.536,3.655c.353,1.189.966,2.259,1.31,3.453a9.231,9.231,0,0,0,1.554,3.026,6.644,6.644,0,0,1,.747,1.208c.978,2.063,2.413,3.851,3.554,5.817a5.24,5.24,0,0,0,.521.68c.723.877,1.421,1.778,2.182,2.624a31.136,31.136,0,0,1,2.988,3.452,8.418,8.418,0,0,0,.966,1.052c.853.9,1.7,1.808,2.566,2.692a11.24,11.24,0,0,0,2.8,2.408,3.916,3.916,0,0,1,.855.751q2.26,2.191,4.51,4.389a5.976,5.976,0,0,0,.625.586c.538.387,1.124.713,1.64,1.127a9.914,9.914,0,0,0,1.589,1.2,15.886,15.886,0,0,1,1.415.959c.555.369,1.109.737,1.68,1.078,3.068,1.832,8.264,4.594,11.572,6.128a15.885,15.885,0,0,0,2.106.856c.81.244,1.543.765,2.359.971.744.186,1.439.488,2.15.731,2.682.924,5.379,1.791,8.119,2.527a7.388,7.388,0,0,0,1.386.293,4.282,4.282,0,0,1,1.668.336,1.5,1.5,0,0,0,1.379,0,5.63,5.63,0,0,1,3.089-.258.694.694,0,0,1,.551.565,2.018,2.018,0,0,1,.053.839,5.3,5.3,0,0,1-2.07,2.971c-.642.4-1.277.8-1.927,1.212a1.557,1.557,0,0,1-.554-.008c-1.142-.467-2.406-.514-3.532-1.033a14.079,14.079,0,0,1-3.277-.9c-1.179-.342-2.332-.772-3.5-1.163-.806-.271-1.61-.542-2.419-.806a9.181,9.181,0,0,1-1.088-.325,16.227,16.227,0,0,0-2.614-1.1c-.907-.249-1.7-.811-2.646-1.029a7.233,7.233,0,0,1-1.557-.7c-2.371-1.205-4.749-2.4-7.1-3.641q-2.516-1.333-4.961-2.8c-1.63-.98-3.079-2.221-4.622-3.328a47.664,47.664,0,0,1-4.55-3.9c-.765-.709-1.637-1.306-2.385-2.032q-2.668-2.59-5.254-5.264c-.789-.818-1.455-1.753-2.207-2.608-.692-.788-1.465-1.507-2.134-2.312a56.651,56.651,0,0,1-4.472-6.25c-.6-.963-1.166-1.952-1.749-2.93s-1.159-1.961-1.725-2.947c-.708-1.232-1.24-2.563-1.9-3.822a17.633,17.633,0,0,1-1.746-3.882c-.8-1.509-1.347-3.132-2.071-4.672-1.212-2.574-2.116-5.272-3.247-7.879-.377-.869-.259-1.886-.786-2.715a93.763,93.763,0,0,0-3.511-11.664c-.807-2.321-1.78-4.584-2.451-6.954-1.25-2.558-2.374-5.181-3.819-7.639a27.291,27.291,0,0,0-1.584-2.366,6.412,6.412,0,0,0-1.023-.992.965.965,0,0,0-1.065-.14c-.259.115-.476.325-.736.437a1.39,1.39,0,0,1-1.57-.345c-.932-1.323-2.039-2.514-2.975-3.825a31.878,31.878,0,0,1-2.441-4.174c-.643-1.278-1.515-2.416-2.136-3.7-.583-1.2-1.315-2.31-1.968-3.467a3.031,3.031,0,0,0-1.481-1.446l-5.028-.195a4.817,4.817,0,0,1-2.224-2.521c-.966-1.633-1.851-3.313-2.95-4.866a25.374,25.374,0,0,1-2.993-5.49,65.859,65.859,0,0,0-2.872-6.185,67.426,67.426,0,0,0-3.356-6.278c-.2-.307-.2-.74-.377-1.065a36.918,36.918,0,0,0-2.439-4.51c-1.271-2.549-2.926-4.887-4.122-7.477-.322-.7-.874-1.274-1.137-1.969-.268-.715-.618-1.385-.9-2.087a.435.435,0,0,0-.467-.251.387.387,0,0,0-.42.3,4.948,4.948,0,0,1-.605,2.179,15.465,15.465,0,0,0-.7,3.62,5.731,5.731,0,0,1-.385,2.231,7.615,7.615,0,0,0-.195,2,9.4,9.4,0,0,1-1.694,1.893.894.894,0,0,1-.811.076,1.9,1.9,0,0,1-.654-.534,6.815,6.815,0,0,1-.626-1.568c-.1-.43.324-.856.056-1.359a4.378,4.378,0,0,1-.237-1.109,3.966,3.966,0,0,0-.223-.817,46.094,46.094,0,0,0-2.408-4.836,1.881,1.881,0,0,0-.453-.374,2.92,2.92,0,0,0-.837,1.657c-.186.76-.626,1.385-.869,2.1-.213.626-.4,1.263-.661,1.87-.3.7-.656,1.368-.984,2.052a27.649,27.649,0,0,1-2.632,3.717,1.277,1.277,0,0,1-.432.369c-.753.4-1.508.8-2.276,1.17a1.157,1.157,0,0,1-1.428-.58c-.147-.245-.269-.5-.409-.769a17.468,17.468,0,0,0,.491-2.49c0-.263.217-.52.294-.792a30.128,30.128,0,0,0,.874-2.991,11.837,11.837,0,0,0,.6-3.051,11.7,11.7,0,0,0,.467-4.507,1.614,1.614,0,0,0-.454-1.02.433.433,0,0,0-.7.024c-.052.08-.123.148-.167.233a39.409,39.409,0,0,1-3.055,4.794,18.02,18.02,0,0,1-4.173,4.353c-.409.022-.883.081-1.355.064a1.511,1.511,0,0,1-1.027-.447,1.578,1.578,0,0,1-.481-.674,4.559,4.559,0,0,1,.21-2.8,4.168,4.168,0,0,0,.356-1.652c.025-1.048.062-2.1.094-3.136a2.326,2.326,0,0,0,.283-1.921,4.962,4.962,0,0,1-.311-1.672,14.674,14.674,0,0,0-.2-2.562,11.052,11.052,0,0,1-.5-2.207c-.495-.841-.391-1.839-.713-2.724a.352.352,0,0,0-.457-.245,5.282,5.282,0,0,0-2.953,2.483,11.88,11.88,0,0,1-1.224,1.574,19.238,19.238,0,0,1-1.173,1.609c-.43.5-.761,1.09-1.167,1.616-.291.376-.629.717-.957,1.062a2.838,2.838,0,0,1-1.735.911,3.339,3.339,0,0,0-.7.228c-.549-.146-1.012-.257-1.465-.4a1.844,1.844,0,0,1-.493-.27,1.438,1.438,0,0,1-.507-1.528,5.875,5.875,0,0,1,.911-1.763,5.085,5.085,0,0,0,1.128-1.968,5.487,5.487,0,0,1,.846-1.78c.469-.533.409-1.25.73-1.844a34.033,34.033,0,0,0,1.622-3.634c.455-1.145.893-2.293,1.253-3.481-.108-.083-.234-.256-.383-.279a9.078,9.078,0,0,0-4.169.722,6.394,6.394,0,0,1-1.938.39c-.572,0-1.144.046-1.715.055-.667.011-1.334,0-1.842,0-.335-.15-.506-.233-.682-.3a10.706,10.706,0,0,1-1.567-.642,7.214,7.214,0,0,1-1.857-1.764,1.53,1.53,0,0,1-.352-1.586,3.925,3.925,0,0,0,.419-1.354,4.454,4.454,0,0,1,.891-2.2l1.144-.565a3.876,3.876,0,0,0,2.1.3c.568-.356,1.223-.736,1.842-1.169a3.652,3.652,0,0,0,.807-.8c.341-.455.629-.95.931-1.435a1.108,1.108,0,0,0,.24-.507c-.008-.973.607-1.8.631-2.761a.522.522,0,0,0-.2-.506,2.393,2.393,0,0,0-.495-.255c-1.428-.5-2.816-1.106-4.227-1.654a9.414,9.414,0,0,1-2.259-1.165c-.987-.734-2.042-1.378-3.141-2.108l-1.539-2.206A2.261,2.261,0,0,1,282.307,335.178Zm70.916-122.942a4.7,4.7,0,0,0,2.4-2.514,6.34,6.34,0,0,1,1.484-2.076c.328-.338.635-.7.974-1.072a2.856,2.856,0,0,0-.612-.165c-1.048-.01-2.1,0-3.145.007a1.2,1.2,0,0,0-.284.025,1.227,1.227,0,0,0-.263.108,3.53,3.53,0,0,1-1.666.315c-.858.011-1.715.052-2.412.076-1.984.643-3.415,1.968-5.184,2.818-.235,0-.52-.006-.806,0a1.492,1.492,0,0,1-1.4-.827c-.231-.412-.39-.865-.58-1.3a10.516,10.516,0,0,1,1.48-3.961c.048-.069.022-.185.034-.279a.456.456,0,0,0-.227-.478.391.391,0,0,0-.273,0,1.477,1.477,0,0,0-.514.2,36.372,36.372,0,0,1-5.847,4.015,15.927,15.927,0,0,0-3.031,2.106,20.53,20.53,0,0,1-3.7,2.719h-1.3a1.829,1.829,0,0,1-1.089-1.649c0-.569.055-1.137.086-1.706.555-.922.381-2.045.825-3,.083-.178,0-.335-.216-.411a.4.4,0,0,0-.282.006,16.1,16.1,0,0,0-3.384,2.071,5.765,5.765,0,0,1-1.193.769,14.133,14.133,0,0,0-3.363,2.618c-2.032,2.011-4.068,4.018-6.077,6.051a24.917,24.917,0,0,0-2.279,2.558,16.74,16.74,0,0,1-1.229,1.565,5.756,5.756,0,0,0-.908,1.435,5.27,5.27,0,0,1-2.866,2.995c-.512.179-.9.7-1.389.971a1.024,1.024,0,0,1-.814-.02,1.5,1.5,0,0,1-.991-1.292,9.361,9.361,0,0,1,.434-3.362,34.546,34.546,0,0,1,1.8-4.769.379.379,0,0,0-.144-.507c-.041-.027-.167.029-.224.081-.353.317-.709.632-1.043.97-.537.541-1.086,1.073-1.578,1.654a19.786,19.786,0,0,1-1.389,1.8c-.615.573-.572,1.4-1,2.011a18.245,18.245,0,0,0-1.378,2.493,10.959,10.959,0,0,1-.828,1.493,58.779,58.779,0,0,0-3.5,5.861c-.729,1.33-1.35,2.719-2,4.089a6.259,6.259,0,0,1-2.029,2.608c-.516.188-.957.357-1.406.507a2.6,2.6,0,0,1-.821.2,1.4,1.4,0,0,1-.782-.251,1.59,1.59,0,0,1-.668-1.211c-.025-.666,0-1.333-.022-2a2.766,2.766,0,0,0-.181-1.414c-.489.31-.53.9-.856,1.308a11.733,11.733,0,0,1-1.125,2.916,7.286,7.286,0,0,1-.233,1.966c-.294.725-.3,1.507-.572,2.192a25.271,25.271,0,0,0-.582,2.482,5.579,5.579,0,0,0-.454,1.923c.053.8-.469,1.446-.53,2.207-.043.57-.013,1.149-.109,1.71s-.349,1.076-.457,1.627a17.087,17.087,0,0,1-1.818,5.044.526.526,0,0,1-.2.191.415.415,0,0,1-.261.06,1.449,1.449,0,0,1-.514-.186,13.923,13.923,0,0,1-2.7-3.295c-.283-.377-.5-.8-.767-1.194-.317-.462-.65-.912-.994-1.354-.036-.048-.188-.031-.276-.006s-.223.109-.216.143a11.327,11.327,0,0,1,.2,2.23c.007,1.24.045,2.479.1,3.717a2.617,2.617,0,0,0,.193,1.106,4.878,4.878,0,0,1,.374,1.944,5.942,5.942,0,0,0,.193,1.4,34.878,34.878,0,0,0,2.017,5.29,7.616,7.616,0,0,1,1.287,3.434,3.586,3.586,0,0,0,.418,1.048c.343.88.666,1.77,1.024,2.643a2.292,2.292,0,0,1,.091,1.675c-.234.626-.369,1.27-.559,1.9a5.146,5.146,0,0,1-.4.757c-.272.544-.691.671-1.12.339-.6-.467-1.2-.931-1.8-1.4-.667-.528-1.329-1.064-1.991-1.595-.118.137-.306.258-.311.387a1.781,1.781,0,0,0,.119.837c.709,1.451,1.448,2.886,2.185,4.321a4.267,4.267,0,0,0,.45.723,28.885,28.885,0,0,0,3.3,3.93,7.713,7.713,0,0,1,1.977,2.765c.551,1.273.81,1.236-.034,2.937a4.184,4.184,0,0,1-.3.458l-1.376.61c-.6.021-1.266.069-1.931.062a4.257,4.257,0,0,1-2.49-.47c-.474-.032-.947-.09-1.421-.08a.562.562,0,0,0-.413.3.722.722,0,0,0,.1.535,2.075,2.075,0,0,0,.561.639,4,4,0,0,1,1.172,1.184c.839,1.261,1.82,2.427,2.675,3.679a6.543,6.543,0,0,0,2.587,2.174c.935.462,1.9.856,2.827,1.336a1.346,1.346,0,0,1,.82,1.1,6.169,6.169,0,0,0,.528,2.2.868.868,0,0,1,0,.562,5.846,5.846,0,0,1-1.027,2.018,1.983,1.983,0,0,1-1.722.841,5.628,5.628,0,0,0-1.139.01c-.142.017-.263.2-.451.348.258.282.5.569.767.834a11.187,11.187,0,0,1,2.58,3.383,3.927,3.927,0,0,0,.663.914,13.31,13.31,0,0,0,3.38,3.038A5.433,5.433,0,0,1,290,321.139v2.7a4.808,4.808,0,0,1-2.9,1.012,8.508,8.508,0,0,1-3.651-.446,3.739,3.739,0,0,0-1.118-.163,4.921,4.921,0,0,1-1.124-.156c-1.417-.54-2.939-.719-4.343-1.286-.216-.088-.348-.128-.447.118a.359.359,0,0,0,.025.279,10.078,10.078,0,0,0,3.177,3.216,7.181,7.181,0,0,1,1.141.842,5.532,5.532,0,0,0,1.651,1.1c.6.273,1.153.666,1.743.97a16.415,16.415,0,0,1,3.476,2.453,6.125,6.125,0,0,1,1.855,3.138,11.05,11.05,0,0,0,.378,1.064,4.841,4.841,0,0,1-.419,1.058,6.225,6.225,0,0,1-.98,1.027c-.311.283-.663.523-1.075.841a18.2,18.2,0,0,0,2.66,1.263c1.281.373,2.385,1.158,3.707,1.429a1.184,1.184,0,0,1,.893,1.026,2.6,2.6,0,0,0,.91,1.713,1.145,1.145,0,0,1,.29.774c-.013.758-.1,1.515-.157,2.272-.447.727-.453,1.644-1.041,2.324a7.157,7.157,0,0,0-.715,1.226,9.42,9.42,0,0,1-1.5,2.063,10.709,10.709,0,0,1-2.417,1.962c-.493.273-.935.636-1.415.968.106.1.2.28.321.3a19.4,19.4,0,0,0,5.129-.05.68.68,0,0,0,.273-.07c.682-.4,1.516-.28,2.189-.573.713-.31,1.5-.3,2.172-.67a2.7,2.7,0,0,1,1.387-.24,1.565,1.565,0,0,1,1.392.848,6.332,6.332,0,0,1,.384.984c-.108.628-.174,1.191-.308,1.739-.156.642-.425,1.259-.545,1.9a6.031,6.031,0,0,1-.5,1.621c-.248.5-.251,1.092-.545,1.606a27.786,27.786,0,0,0-1.23,3.164.377.377,0,0,0,.165.5c.039.024.168-.038.213-.1a22.8,22.8,0,0,1,2.535-3.068l2.559-2.28c.292-.049.57-.108.852-.14a1.421,1.421,0,0,1,1.437.73,6.446,6.446,0,0,1,.517,1.013c.5,1.226.681,2.56,1.249,3.768a2.064,2.064,0,0,1,.137.838c0,.6.39,1.072.488,1.627a11.214,11.214,0,0,0,.27,1.973,8.279,8.279,0,0,1,.4,2.813,31.338,31.338,0,0,1-.227,5.412c-.039.254-.242.538.142.646a.592.592,0,0,0,.5-.171,27.95,27.95,0,0,0,3.839-5.966,10.321,10.321,0,0,0,.831-2.994,4.946,4.946,0,0,1,.185-1.39,2.994,2.994,0,0,1,1.23-1.18c.45.116.9.248,1.35.343a1.577,1.577,0,0,1,1.233,1.075c.534,1.718,1.249,3.368,1.819,5.072a8.509,8.509,0,0,1,.482,3.061,7.153,7.153,0,0,1-.443,1.634,1.171,1.171,0,0,0,.226,1.114l.8-1.508c-.011-.877.657-1.579.622-2.471-.034-.876.549-1.593.677-2.45a2.254,2.254,0,0,1,1.055-1.308,1.6,1.6,0,0,1,1.63,0,3.848,3.848,0,0,1,.98,1.016c.314.591.706,1.125,1.034,1.7a12.914,12.914,0,0,1,.744,1.837,22.846,22.846,0,0,1,.908,2.384,1.312,1.312,0,0,0,.338.453.624.624,0,0,0,.235.156c.157.063.3-.034.341-.275.17-1.123.789-2.151.7-3.328a.525.525,0,0,1,.039-.282,6.058,6.058,0,0,0,.465-3.071c.01-1.521.02-3.04.114-4.388a3.077,3.077,0,0,1,1.038-1.2,1.324,1.324,0,0,1,1.347-.223c.692.322,1.46.406,2.134.785a12.086,12.086,0,0,0,1.815.795c.622.226,1.27.378,1.9.573a19.96,19.96,0,0,1,3.956,1.565,3.192,3.192,0,0,0,1.54.673c.071,0,.21-.123.2-.158a11.749,11.749,0,0,0-.9-2.631c-.712-1.351-.87-2.9-1.525-4.274-.084-.754-.151-1.511-.261-2.261-.053-.371-.216-.727-.27-1.1a3.733,3.733,0,0,1-.088-1.4,8.358,8.358,0,0,1,.727-2.426,2.376,2.376,0,0,1,.631-.506,5.221,5.221,0,0,1,3.086.383c1.378.429,2.563,1.233,3.918,1.745a12.641,12.641,0,0,1,3.307.444c.091-.191.24-.356.238-.521-.008-1.047-.06-2.1-.076-3.142-.013-.856-.006-1.715.018-2.572a6.265,6.265,0,0,1,.153-.884c.248-.254.5-.538.779-.789a6.933,6.933,0,0,1,2.045-1.01c1.97-.177,3.974,0,5.988-.191a1.507,1.507,0,0,0-.121-.481.961.961,0,0,0-.419-.369,15.608,15.608,0,0,0-1.847-.739,14.685,14.685,0,0,1-1.886-.619,5.179,5.179,0,0,0-1.886-.586.9.9,0,0,1-.5-.241,7.44,7.44,0,0,1-.848-.764,5.2,5.2,0,0,1-1.358-1.636c0-.144-.007-.426,0-.708a3.859,3.859,0,0,1,.055-.569,1.443,1.443,0,0,1,1.738-1.069,4.927,4.927,0,0,0,1.341.433c.572.02.936.678,1.55.562a12.079,12.079,0,0,0,4.294-3.707c.123-.157-.042-.684-.234-.726a7.147,7.147,0,0,1-.834-.168,7.024,7.024,0,0,0-4.74-.118,1.976,1.976,0,0,1-.554.108c-1.239.045-2.478.059-3.715.123a5.146,5.146,0,0,1-2.476-.517,4,4,0,0,1-1.268-.605,4.186,4.186,0,0,1-.722-.869c-.214-.371.01-.732.192-1.062.228-.416.08-.966.582-1.415.891-.449,1.891-1,2.926-1.462a19.932,19.932,0,0,0,4.717-3.16c1.589-1.359,3-2.932,4.49-4.4a4.5,4.5,0,0,0,.987-1.718c-.08-.049-.156-.132-.241-.143a38.577,38.577,0,0,0-4.848-.014.58.58,0,0,0-.265.1,3.913,3.913,0,0,1-1.947.349c-.762.021-1.523.073-2.286.092a3.022,3.022,0,0,0-1.111.195,3.642,3.642,0,0,1-3.49-.579c-.221-.139-.341-.441-.516-.682.043-.481.087-.954.123-1.343.959-1.394,1.882-2.716,2.782-4.054a6.954,6.954,0,0,1,2.982-2.57,6.736,6.736,0,0,1,1.041-.454c1.387-.346,2.59-1.159,3.966-1.537a1.536,1.536,0,0,0,1.072-.929,23.032,23.032,0,0,0-2.731-.684,3.434,3.434,0,0,1-1.977-1.026,8.672,8.672,0,0,1-1.879-2.49,2.119,2.119,0,0,1,.247-2.4,4.282,4.282,0,0,1,1.01-1,17.747,17.747,0,0,1,3.448-1.949c1.5-.559,2.937-1.319,4.469-1.818a25.084,25.084,0,0,0,6.545-3.391,2.357,2.357,0,0,0,1.127-1.229,4.5,4.5,0,0,0-2.52.028,4.886,4.886,0,0,1-1.372.345,4.427,4.427,0,0,0-2.2.519c-.806-.092-1.41.528-2.181.6a10.4,10.4,0,0,0-3.635.533,2.093,2.093,0,0,1-.848.043q-1.289-.011-2.574-.036a2.015,2.015,0,0,1-.841-.08,4.73,4.73,0,0,0-2.233-.373,10.18,10.18,0,0,1-2.772-.57,3.981,3.981,0,0,1-2.546-2.015c.206-.5.356-.953.576-1.372a7.731,7.731,0,0,1,.9-1.449,9.334,9.334,0,0,1,3.076-2.511,11.058,11.058,0,0,0,1.459-.882c1.579-1.051,3.2-2.043,4.766-3.113a22.064,22.064,0,0,1,4.81-2.441c.355-.13.687-.321,1.045-.434a3.168,3.168,0,0,0,1.857-2.036c.045-.1-.1-.326-.214-.447a.936.936,0,0,0-.469-.311,43.213,43.213,0,0,1-4.614-1.385,9.09,9.09,0,0,0-2.167-.661c-.663-.453-1.484-.338-2.182-.6-.729-.27-1.5-.3-2.2-.545a19.735,19.735,0,0,1-2.317-1.1,1,1,0,0,1-.385-1.237c.237-.514.507-1.013.747-1.486.8-.575,1.557-1.153,2.349-1.675a46.937,46.937,0,0,1,5.861-3.485A18.931,18.931,0,0,0,361,267.79a1.344,1.344,0,0,0,.353-.439.205.205,0,0,0-.062-.182,4.557,4.557,0,0,0-2.511.094,3.176,3.176,0,0,1-.818.217c-1.144.022-2.287,0-3.431,0a4.559,4.559,0,0,1-1.085-.31c-1.205-.3-2.268-.964-3.448-1.3a7.187,7.187,0,0,1-3.359-2.041c-.388-.419-.788-.828-1.158-1.266a1.477,1.477,0,0,1-.259-1.6c.336-.783.744-1.537,1.088-2.235.7-.479,1.327-.908,1.923-1.317a32.638,32.638,0,0,0,3.647-.817,7.32,7.32,0,0,0,3.062-1.42,6.742,6.742,0,0,0,2.04-1.542c1.863-1.91,3.7-3.844,5.547-5.773a.659.659,0,0,0,.115-.249c.071-.219.024-.408-.167-.475a3.106,3.106,0,0,0-.814-.193c-1.32-.087-2.677.151-3.937-.46a5.489,5.489,0,0,0-2.532.226,1.525,1.525,0,0,1-1.38.043,14.245,14.245,0,0,0-2.179-.521,4.7,4.7,0,0,1-1.808-1.825.655.655,0,0,1-.042-.537,18.193,18.193,0,0,1,2.332-3.209,13.383,13.383,0,0,1,2.964-2.2,18.867,18.867,0,0,0,2.776-1.432c1.085-.792,2.345-1.253,3.422-2.036A38.533,38.533,0,0,1,365,232.9a3.045,3.045,0,0,0,.579-.59,2.057,2.057,0,0,0-1.4-.3c-2.574-.008-5.149,0-7.722-.007-.471,0-.943-.078-1.414-.121-.715-.586-1.7-.209-2.552-.741-.2-.167-.495-.406-.776-.661-.213-.191-.411-.4-.607-.607a2.034,2.034,0,0,1-.282-2.137c.126-.257.317-.482.422-.744a2.217,2.217,0,0,1,1.142-1.215c.855-.412,1.734-.778,2.563-1.232a11.243,11.243,0,0,0,2.377-1.561c1.249-1.17,2.677-2.133,3.914-3.323.4-.388.936-.643,1.383-.994a3.343,3.343,0,0,0,1.163-1.233,1.5,1.5,0,0,0-1.073-.181c-1.044.038-2.087.091-3.131.139a15.207,15.207,0,0,1-5.379.325,1.468,1.468,0,0,1-.978-.537,2.831,2.831,0,0,1-.785-1.172c-.128-.447-.324-.874-.481-1.285Zm19.707,195.813c.245-1.8.256-1.8-.388-3.085a46.646,46.646,0,0,0-2.454-4.494,2.461,2.461,0,0,1-.391-.75,11.549,11.549,0,0,0-1.162-2.593c-.462-.933-.905-1.878-1.371-2.81s-.959-1.857-1.425-2.793c-.423-.848-.828-1.7-1.239-2.559-.451-.94-.912-1.878-1.348-2.827a9.517,9.517,0,0,0-1.383-2.785c-.115-.123-.093-.366-.171-.537a21.126,21.126,0,0,0-1.355-2.811,16.307,16.307,0,0,1-1.24-2.541,11.1,11.1,0,0,1-.76-1.837,7.928,7.928,0,0,0-.844-2.108c-.338-.6-.241-1.323-.647-1.878-.432-1.449-1.019-2.846-1.464-4.291a8.858,8.858,0,0,0-.75-1.839,2.028,2.028,0,0,0-1.8-1.236c-.992.055-1.811-.531-2.773-.575a7.352,7.352,0,0,1-2.611-1.078,10.7,10.7,0,0,0-1.033-.475.588.588,0,0,0-.491.146,1.093,1.093,0,0,0-.182.51.457.457,0,0,0,.022.28c.311.7.35,1.491.67,2.158a19.284,19.284,0,0,1,.541,2.2,33.082,33.082,0,0,0,1.638,3.938c.642,1.271,1.288,2.539,1.926,3.812.289.577.251.708-.348,1.118a.854.854,0,0,0-.464.657,3.177,3.177,0,0,1-.153.83,1.078,1.078,0,0,1-1.382.654,18.817,18.817,0,0,0-2.862-1.243,20.917,20.917,0,0,1-2.72-1.533,9.27,9.27,0,0,0-1.023-.495c-1.163-.388-2.336-.744-3.508-1.107a2.38,2.38,0,0,0-.283-.013.421.421,0,0,0-.495.212c-.071.158-.157.391-.092.52a81.45,81.45,0,0,0,4.085,7.815,12.38,12.38,0,0,1,1.352,2.5c.327.932,1.152,1.5,1.469,2.427a19.437,19.437,0,0,1,1.023,2.336c.178.87.945,1.41,1.24,2.23.16.441.325.89.514,1.316.31.7.463,1.442.758,2.134a6.851,6.851,0,0,0,1.141,1.966.918.918,0,0,1,.244.506,5.981,5.981,0,0,0,.869,2.09,42.153,42.153,0,0,1,1.805,3.865,25.13,25.13,0,0,0,1.6,3.63c.621,1.172,1.282,2.321,1.949,3.467s1.221,2.353,1.854,3.52a3.1,3.1,0,0,0,.862,1.092,11.909,11.909,0,0,0,2.192.619c1.7.149,3.421.362,5.049-.419a.678.678,0,0,1,.283-.036,4.9,4.9,0,0,0,2.583-1.079.994.994,0,0,0,.5-.963,1.733,1.733,0,0,1,.933-1.917,3.119,3.119,0,0,0,1.69-1.836A3.56,3.56,0,0,1,372.931,408.049ZM377.5,430.41c-.5-1.089-1.1-2.171-1.5-3.321s-1.174-2.183-1.3-3.445c-.534-1.113-.79-2.322-1.209-3.471-.353-.973-.778-1.924-1.144-2.9-.018-.048-.16-.106-.181-.088a21.778,21.778,0,0,1-3.968,3.214.817.817,0,0,0-.195.779c.828,1.493,1.815,2.891,2.594,4.416a12.3,12.3,0,0,0,1.343,2.5c.611.726.938,1.645,1.588,2.353.252.275.4.645.645.926.436.5.91.966,1.369,1.448A4.6,4.6,0,0,0,377.5,430.41Z" transform="translate(72.125 0)"/><path d="M150.256,303.3c-1.05-.723-2.186-1.42-3.225-2.24a18.673,18.673,0,0,1-4.626-5.373,6.3,6.3,0,0,1-.531-1.008c-.284-.81-1-1.372-1.176-2.263-.142-.733-.629-1.376-.718-2.146-.628-.894-.279-2.077-.876-2.981-.041-.57-.094-1.138-.119-1.708-.029-.667-.042-1.334-.05-2-.006-.477.006-.953.014-1.429s.006-.956.041-1.43a6.566,6.566,0,0,1,.186-1.4,5.866,5.866,0,0,0,.381-1.364,3.933,3.933,0,0,1,.38-1.364c.186-.429.235-.917.4-1.359a31.225,31.225,0,0,1,2.041-4.682c.932-1.651,1.717-3.375,2.776-4.967a37.789,37.789,0,0,1,6-6.845,12.2,12.2,0,0,0,2.216-1.788,20.328,20.328,0,0,1,8.114-4.549c.09-.027.174-.114.259-.111,1.076.028,2-.569,3.043-.706a21.124,21.124,0,0,1,3.345-.639,5.565,5.565,0,0,1,2.937-.439,16.929,16.929,0,0,1,5.174-1.87c1.254-.662,2.6-.383,3.921-.385,1.345.625,2.8.43,4.207.542a2.258,2.258,0,0,1,.825.181,3.152,3.152,0,0,0,1.662.335c.8-.053,1.449.448,2.206.523a7.754,7.754,0,0,1,2.23.426c.6.245,1.331.192,1.923.454.7.311,1.522.227,2.15.718a19.582,19.582,0,0,1,5.352,2.579,15.046,15.046,0,0,1,2.488,1.888,8.979,8.979,0,0,1,1.891,2.485c.47.928,1,1.829,1.546,2.712a3.632,3.632,0,0,0,1.7,1.463,10.441,10.441,0,0,0,4.1,1.023c2.956.01,5.91.055,8.866.056q3.29,0,6.578-.076a8.026,8.026,0,0,0,3.092-.381,3.917,3.917,0,0,1,1.414-.116c2.289-.038,4.576-.062,6.864-.1a5.044,5.044,0,0,0,2.52-.322c.664-.029,1.329-.069,1.993-.086.57-.015,1.142,0,1.783,0a5.937,5.937,0,0,1,3.488,3.083,14.685,14.685,0,0,1,1.7,3.895c.519.817.462,1.837.949,2.666a5.651,5.651,0,0,0,.519,2.207,2,2,0,0,1,.091.846c0,2.573.006,5.146-.015,7.719a4.64,4.64,0,0,1-.411,2.224,2.628,2.628,0,0,0-.091,1.127c-.008,1.144,0,2.286,0,3.375-.226.5-.441.928-.6,1.369a2.722,2.722,0,0,1-1.519,1.63,19.685,19.685,0,0,1-5.935,1.858,2.422,2.422,0,0,0-.835.156,4.4,4.4,0,0,1-1.954.334c-3.62,0-7.241-.007-10.861,0-2.287,0-4.574.032-6.861.035-2.574,0-5.149-.011-7.722-.018a5.78,5.78,0,0,1-1.675-.289,9.033,9.033,0,0,0-2.818-.226,3.681,3.681,0,0,0-1.577,1.616c-.314.584-.583,1.2-.936,1.755a24.729,24.729,0,0,1-4.08,4.735,1.753,1.753,0,0,1-.455.343,7.914,7.914,0,0,0-2.23,1.756A19.885,19.885,0,0,1,194,309.438c-1.324.482-2.694.831-3.983,1.369a6.473,6.473,0,0,0-.69,2.171,1.668,1.668,0,0,1-.219.814c-.381.586-.233,1.322-.583,1.9a5.677,5.677,0,0,0-.383,1.652,4.623,4.623,0,0,1-1,2.02,15.142,15.142,0,0,1-1.406,1.422,4.688,4.688,0,0,1-2.831,1.2c-1.713.057-3.428.062-5.167.09-.524.307-.561.943-.831,1.43a6.646,6.646,0,0,0-.412,1.355c-.133.453-.255.911-.408,1.357a10.294,10.294,0,0,0-.416,1.055c-.1.471-.336.891-.461,1.338a27.54,27.54,0,0,0-.685,2.744,21.054,21.054,0,0,1-.579,2.192,11.542,11.542,0,0,0-.654,3.328,8.274,8.274,0,0,1-1.176,4.054,12.6,12.6,0,0,1-2.532,3.422,8.074,8.074,0,0,1-.712.518c-1.8.128-3.6-.049-5.412-.059-1.341-.7-2.793-.4-4.2-.465a.7.7,0,0,0-.795.638c-.125.753-.664,1.389-.6,2.185s-.52,1.425-.551,2.195c-.041,1.055-.7,1.976-.659,3.048-.521.832-.388,1.86-.785,2.719-.4.875-.2,1.9-.764,2.734a1.78,1.78,0,0,0-.1.839c-.027.57-.036,1.141-.05,1.575-.443.781-.782,1.465-1.208,2.09a3.96,3.96,0,0,1-.866.712,19.8,19.8,0,0,0-2.45.713,1.293,1.293,0,0,0-.877.687,40.91,40.91,0,0,0-3.693,7.983c-.142.456-.3.894-.475,1.336a6.558,6.558,0,0,0-.748,2.432,3.488,3.488,0,0,1-.275.8,13.89,13.89,0,0,0-.832,3.582c0,.769-.572,1.4-.538,2.2a5.551,5.551,0,0,1-.433,1.931c-.2.621-.038,1.372-.283,1.963a10.938,10.938,0,0,0-.538,3.073c-.073.653-.3,1.289-.388,1.942s-.049,1.338-.154,1.994c-.088.554-.353,1.079-.447,1.633a15.075,15.075,0,0,0-.109,1.71c-.769,1.162-.249,2.657-.991,3.826-.038.475-.081.95-.113,1.425a3.421,3.421,0,0,1-.374,1.651,1.047,1.047,0,0,0-.156.54,12.423,12.423,0,0,1-.949,4.129c-.292.9-.46,1.833-.7,2.747a58.1,58.1,0,0,1-1.808,5.645c-.165.443-.38.867-.537,1.313a6.539,6.539,0,0,1-1.476,2.719c-.7,1.238-1.574,2.376-2.19,3.665-.956,1.062-1.941,2.1-2.856,3.2-.425.509-.9.956-1.345,1.435-.378.409-.681.9-1.076,1.32a14.268,14.268,0,0,1-2.586,2.23c-1.315,1.39-3.048,2.272-4.4,3.623a4.3,4.3,0,0,1-.7.484c-3.321,2.2-6.543,4.553-9.772,6.889a5.069,5.069,0,0,0-.891.706c-.956,1.09-2.329,1.63-3.379,2.593a4.807,4.807,0,0,0-1.612,1.151c-.493.444-1.023.848-1.529,1.278-.652.553-1.329,1.083-1.938,1.682-1.834,1.8-3.631,3.645-5.463,5.452a8.264,8.264,0,0,0-1.829,2.171.448.448,0,0,1-.177.216c-.839.371-1.137,1.253-1.745,1.846-.886.863-1.715,1.788-2.518,2.73a11,11,0,0,0-1.114,1.645c-.427.737-.793,1.512-1.2,2.262a1.474,1.474,0,0,1-.374.423,3.27,3.27,0,0,1-.5.271A1.269,1.269,0,0,1,83.477,467a5.563,5.563,0,0,1,.192-1.686,10.085,10.085,0,0,1,1.146-2.583,54,54,0,0,1,4.106-5.1c1.624-1.613,3.194-3.279,4.79-4.918a7.349,7.349,0,0,0,1.452-1.75,35.907,35.907,0,0,1,4.542-4.323,6.245,6.245,0,0,0,.851-.761,51.63,51.63,0,0,1,5.534-4.479c1.285-.975,2.593-1.926,3.84-2.96a47.221,47.221,0,0,1,4.186-2.953c1.741-1.151,3.53-2.228,5.194-3.492a5.672,5.672,0,0,0,1.8-1.383q2.159-2.085,4.276-4.217a23.176,23.176,0,0,0,2.319-2.524,26.8,26.8,0,0,0,2.059-3.4,28.571,28.571,0,0,0,1.741-4.192,61.48,61.48,0,0,0,1.942-5.925c.444-.669.249-1.511.554-2.189a5.983,5.983,0,0,0,.447-2.22c.039-.767.53-1.42.517-2.207a3.926,3.926,0,0,1,.43-1.934,1.113,1.113,0,0,0,.113-.552c-.064-1.448.762-2.75.678-4.2a10.708,10.708,0,0,0,.562-4.209,5.424,5.424,0,0,1,.384-1.942,2.429,2.429,0,0,0,.128-1.124c-.073-.8.4-1.46.509-2.207a22.317,22.317,0,0,1,.266-2.263,7.961,7.961,0,0,0,.411-1.65c.036-.954.618-1.785.586-2.773-.031-.956.654-1.784.608-2.762.554-1.407.9-2.887,1.5-4.28.338-.781.629-1.577.9-2.388a21.329,21.329,0,0,1,2.989-6.1,11.054,11.054,0,0,0,.818-1.494,1.079,1.079,0,0,0-.2-1.064c-.207-.2-.418-.39-.639-.569s-.455-.332-.646-.471a4.066,4.066,0,0,1-.038-2.846,21.588,21.588,0,0,0,.507-2.214c.554-.73.363-1.662.671-2.462a14.991,14.991,0,0,0,.7-2.154c.462-2.133,1.264-4.16,1.895-6.239a.724.724,0,0,0-.628-1.017c-.831-.182-1.676-.317-2.5-.542a17.211,17.211,0,0,1-4.689-1.991,5.367,5.367,0,0,1-.849-.76,1.5,1.5,0,0,1-.44-1.024,4.938,4.938,0,0,1,.448-2.779,25.667,25.667,0,0,1,.79-3.015c.167-1.009.741-1.945.977-2.951.306-1.306.987-2.455,1.4-3.718.317-.981.8-1.917,1.158-2.9.325-.886.772-1.717,1.052-2.635.3-.988.905-1.881,1.273-2.853a40.19,40.19,0,0,0,1.543-3.968c.528-.8.559-1.8,1.02-2.642a11.372,11.372,0,0,0,.884-2.389c.23-.817.615-1.595.8-2.42a20.46,20.46,0,0,1,.555-2.2,2.239,2.239,0,0,0-.227-1.93C150.522,303.869,150.411,303.6,150.256,303.3ZM175.5,253.368c-.091.066-.2.105-.238.181a1.577,1.577,0,0,1-1.6.931c-.758-.043-1.516-.1-2.275-.151a2.257,2.257,0,0,0-2.436,0c-.968.011-1.826.554-2.759.633a21.412,21.412,0,0,0-3.839.964,14.912,14.912,0,0,0-4.336,2.046,41.324,41.324,0,0,0-7.524,6.518,9.431,9.431,0,0,0-.673.915,37.266,37.266,0,0,0-3.017,4.825,6.665,6.665,0,0,0-1.362,2.786,14.892,14.892,0,0,1-.931,2.366c-.423.76-.369,1.679-.884,2.392a12.272,12.272,0,0,1-.519,2.5,8.949,8.949,0,0,0-.1,1.993c-.008.381-.01.762.007,1.144a3.652,3.652,0,0,0,.126,1.411c.45.882.28,1.875.653,2.759a39.564,39.564,0,0,0,1.951,4.412,15.386,15.386,0,0,0,3.925,4.831A18.3,18.3,0,0,0,152,298.442a6.891,6.891,0,0,1,1.581,1.2,4.721,4.721,0,0,1,1.425,3.026,9.8,9.8,0,0,1-.523,5.044,8.59,8.59,0,0,1-.69,2.747,16.818,16.818,0,0,1-1.071,2.923,8.3,8.3,0,0,0-.514,1.322c-1.095,3.533-2.8,6.819-4.109,10.268a12.549,12.549,0,0,0-1.2,2.872A22.107,22.107,0,0,0,145.643,331c-.68,1.863-1.282,3.749-1.891,5.632a4.775,4.775,0,0,0-.136,1.4.62.62,0,0,0,.269.464c.415.23.862.4,1.387.635.667.035,1.428.067,2.188.122a3.769,3.769,0,0,1,1.117.158,4.583,4.583,0,0,0,1.679.268c1.239,0,2.479.029,3.717-.02a11.75,11.75,0,0,0,3.949-.377,2.451,2.451,0,0,1,.852-.042c1.429,0,2.859.011,4.288.013a6.366,6.366,0,0,1,1.955.291,6.741,6.741,0,0,0,3.186.014l1.006-1.277c.063-.862.625-1.6.638-2.467a14.545,14.545,0,0,1,.547-3.062c.17-.736.35-1.465.538-2.2s.339-1.466.573-2.193c.2-.628.471-1.242.618-1.884a11.114,11.114,0,0,1,.492-1.921,16.635,16.635,0,0,1,.664-1.867c.07-.957.772-1.743.73-2.741a1.857,1.857,0,0,1,.224-.809c.844-1.8,1.308-3.739,1.986-5.6.643-1.766,1.039-3.642,2.157-5.219.154-.217.1-.57.223-.82a2.781,2.781,0,0,1,1.825-1.68,2.9,2.9,0,0,0,.469-.185,13.772,13.772,0,0,0,1.7.306q2,.107,4,.108a23.143,23.143,0,0,0,3.707-.153,31.362,31.362,0,0,0,3.235-1.017,19.009,19.009,0,0,0,6.8-4.032,2.594,2.594,0,0,0,.491-.688,3.481,3.481,0,0,1,1.223-1.146,8.448,8.448,0,0,0,2.78-2.814c.687-1.137,1.341-2.293,1.979-3.457a4.332,4.332,0,0,1,1.72-1.847,6.884,6.884,0,0,0,1.037-.828c.9-.324,1.806-.1,2.587-.569a.965.965,0,0,1,.831,0,5.164,5.164,0,0,0,2.782.447q9.432.057,18.868.1a6.051,6.051,0,0,1,2.535.268,1.274,1.274,0,0,0,.816-.105,2.233,2.233,0,0,1,1.666-.02,1.243,1.243,0,0,0,1.092.077,3.32,3.32,0,0,1,1.393-.248c1.142-.052,2.284-.108,3.481-.165.38-.406,1.041-.384,1.427-.875a16.839,16.839,0,0,0,.611-2.738q.269-4.566.146-9.144a20.94,20.94,0,0,0-.611-3.055,6.8,6.8,0,0,0-.516-1.616c-.265-.6-.439-1.247-.678-1.865a5.653,5.653,0,0,0-2.181-3.023c-.39,0-.863,0-1.337,0q-2.857.036-5.715.077c-2,.027-4,.048-6,.083a3.162,3.162,0,0,0-1.123.115,5.974,5.974,0,0,1-2.241.336c-.858.014-1.714.052-2.572.073s-1.72.1-2.57.035c-.835-.065-1.644.542-2.479.064a6.5,6.5,0,0,1-1.365.329c-1.9.042-3.811.034-5.717.025a1.958,1.958,0,0,1-.83-.161,4.472,4.472,0,0,0-1.954-.331c-1.659-.021-3.079-.9-4.643-1.261a.634.634,0,0,1-.241-.149,7.086,7.086,0,0,1-2.062-2.325c-.437-.946-.981-1.843-1.434-2.782a6.638,6.638,0,0,0-2.15-2.624,17.634,17.634,0,0,0-4.186-2.382,33.732,33.732,0,0,0-6.263-1.727,2.2,2.2,0,0,1-.544-.158,3.247,3.247,0,0,0-1.378-.32,5.352,5.352,0,0,1-1.941-.38,10.639,10.639,0,0,0-1.68-.265,11.584,11.584,0,0,0-1.635-.439A30.058,30.058,0,0,0,175.5,253.368ZM149.488,359.2a1.856,1.856,0,0,0,1.9-.775,3.406,3.406,0,0,0,.647-1.254,17.6,17.6,0,0,0,.628-2.169c.056-1.067.75-1.963.688-3.037.371-.975.453-2.031.792-3a22.064,22.064,0,0,1,.81-3,1.363,1.363,0,0,0,.022-.563.618.618,0,0,0-.541-.542c-.757.022-1.515.039-2.268.1a.608.608,0,0,0-.432.327c-.493,1.427-.83,2.9-1.275,4.342.081.991-.59,1.8-.676,2.744-.57.816-.3,1.886-.772,2.7-.5.863-.175,1.9-.7,2.736-.045.071-.018.186-.029.28a1.106,1.106,0,0,0,.576.915A4.611,4.611,0,0,0,149.488,359.2Zm32.095-41.439a22.062,22.062,0,0,0,2.263-.506,1.483,1.483,0,0,0,.931-1.012c.163-.542.376-1.074.5-1.624.1-.461.077-.949.161-1.415.1-.549.28-1.086.37-1.637.018-.111-.2-.363-.331-.38a14.232,14.232,0,0,1-3.356-.4c-.118-.045-.373.119-.485.254a5.952,5.952,0,0,0-.828,1.144,34.394,34.394,0,0,0-1.669,4.789c-.02.064.038.17.086.238a.44.44,0,0,0,.207.189C180.16,317.579,180.956,317.394,181.582,317.758Z" transform="translate(0 22.264)"/><path d="M242.508,299.713a4.919,4.919,0,0,1-1.665-1.928,26.265,26.265,0,0,1-1.612-3.631,15.6,15.6,0,0,0-1.173-2.586,4.877,4.877,0,0,0-2.066-2.074,11.516,11.516,0,0,0-4.4.385,6.065,6.065,0,0,1-1.407.16,4.708,4.708,0,0,0-1.4.2,7.113,7.113,0,0,1-3.3.308,3.679,3.679,0,0,1-1.628-1.645c-.292-.6-.624-1.173-.9-1.779a6,6,0,0,0-2.353-2.757,3.838,3.838,0,0,0-2.776.433c-.24.148-.527.219-.778.352a4.963,4.963,0,0,1-3.069.287,13.289,13.289,0,0,1-2.553-1.211c-.575-.493-1.214-.911-1.82-1.366a3.838,3.838,0,0,1-1.9-2.7c-.022-.254-.322-.471-.423-.733a2.052,2.052,0,0,1,.911-2.464c.411-.228.856-.391,1.253-.569a2.669,2.669,0,0,1,2.031,1.432c.384.751,1.187,1.222,1.581,2.011a1.942,1.942,0,0,0,.619.549c.457.342.926.669,1.435,1.034.436.044.907.114,1.378.129a3.132,3.132,0,0,0,1.648-.362c.751-.4,1.547-.722,2.307-1.11a3.293,3.293,0,0,1,1.671-.238,2.412,2.412,0,0,1,.521.21c.7.493,1.393.992,2.066,1.518a6.5,6.5,0,0,1,1.914,2.448c.276.6.531,1.219.856,1.8a4.929,4.929,0,0,0,.709.81,9.323,9.323,0,0,0,4.287-.43c.6-.238,1.354-.08,1.955-.315a7.83,7.83,0,0,1,3.08-.427,1.986,1.986,0,0,1,.838.139,6.505,6.505,0,0,1,3.358,2.936,41.084,41.084,0,0,1,2.29,5.188,15.328,15.328,0,0,0,1.111,2.276,4.281,4.281,0,0,0,1.5.845,6.047,6.047,0,0,0,2.8-.276,5.857,5.857,0,0,1,1.693-.168,5.4,5.4,0,0,0,2.23-.388,2.112,2.112,0,0,1,.834-.139,12.419,12.419,0,0,0,3.644-.555,1.87,1.87,0,0,1,.636.032c.411.3.856.656,1.338.957a2.424,2.424,0,0,1,.758.814c.614.956,1.446,1.752,2.049,2.729a4.7,4.7,0,0,0,.943.9,9.13,9.13,0,0,1,2.588.643c.119.077.359-.025.54-.062s.376-.171.514-.121c.534.192,1.034.481,1.571.659s1.1.252,1.641.4a.35.35,0,0,1,.241.465.816.816,0,0,1-.256.444,10.324,10.324,0,0,1-1.027.495,33.86,33.86,0,0,1-7.69.1c-.517-.23-1.05-.433-1.551-.7a5.525,5.525,0,0,1-2.523-2.224,6.282,6.282,0,0,0-1.718-1.889.759.759,0,0,0-.8-.128,4.017,4.017,0,0,1-1.648.391,6.519,6.519,0,0,0-3.069.477l-2.279.16a5.8,5.8,0,0,0-2.238.349,1.1,1.1,0,0,1-.835.025A19.676,19.676,0,0,0,242.508,299.713Z" transform="translate(49.65 33.584)"/><path d="M220.388,259.115a2.525,2.525,0,0,1,1.9.413c1.057.811,2.336,1.267,3.386,2.1a2.27,2.27,0,0,0,1.645.31.857.857,0,0,0,.507-.22,5.687,5.687,0,0,0,.938-1.071c1.2-2.048,2.688-3.9,3.924-5.93.545-.894,1.04-1.805,1.529-2.726a1.841,1.841,0,0,1,1.069-.893c.988-.327,1.977-.653,2.97-.968a4,4,0,0,1,2.523-.021,7.27,7.27,0,0,0,1.945.328,8.01,8.01,0,0,1,3.358.52,1.953,1.953,0,0,0,.846.081c.378,0,.755-.025,1.075-.038a15.6,15.6,0,0,0,4.476-5.194,16.95,16.95,0,0,1,1.39-2.147,11.742,11.742,0,0,1,4.532-3.369c.437-.188.876-.369,1.385-.583.4-.032.874-.063,1.347-.112a4.016,4.016,0,0,1,3.106,1.16,11.4,11.4,0,0,1,1.16,1.261,1.827,1.827,0,0,1,.234.507.858.858,0,0,1-.66,1.061,4.96,4.96,0,0,1-2.233-.31,2.751,2.751,0,0,0-2.472.094,2.507,2.507,0,0,1-.538.168,6.242,6.242,0,0,0-2.877,1.752,8.275,8.275,0,0,0-1.037,1.354,20.17,20.17,0,0,1-1.635,2.332c-.729.88-1.553,1.679-2.325,2.523a10.885,10.885,0,0,0-1.1,1.3,3.544,3.544,0,0,1-1.5,1.27c-.6.287-1.179.614-1.809.946a4.946,4.946,0,0,1-2.478-.242,4.483,4.483,0,0,0-1.1-.249,58.459,58.459,0,0,0-6.287-.133,1.54,1.54,0,0,0-1.429.779c-.919,1.666-2.169,3.113-3.143,4.74-.985,1.65-2.464,2.9-3.553,4.457a1.306,1.306,0,0,1-.436.356c-.661.37-1.319.753-2,1.076a2.069,2.069,0,0,1-1.671.006c-.876-.36-1.717-.81-2.566-1.233s-1.69-.861-2.589-1.319l-1.656,1.078c-.973,1.118-1.624,2.511-2.6,3.672A5.632,5.632,0,0,1,214.349,270a9.464,9.464,0,0,0-1.607,1.959,3.554,3.554,0,0,1-2.268.067,9.773,9.773,0,0,1-3.169-1.215,3.911,3.911,0,0,1-1.64-2.577.871.871,0,0,1,.129-.541,2.157,2.157,0,0,1,2.1-1.216c.189.014.376.055.691.1l1.808,1.539c.369.055.649.112.931.136a.942.942,0,0,0,1-.394c.413-.862,1.152-1.5,1.518-2.406a22.988,22.988,0,0,1,1.322-2.192,8.128,8.128,0,0,1,3.937-3.576C219.525,259.488,219.959,259.3,220.388,259.115Z" transform="translate(49.052 18.807)"/><path d="M224.431,268.859a18.37,18.37,0,0,0-5.087,2.439,34.1,34.1,0,0,1-5.845,2.886,3.133,3.133,0,0,1-1.952.121,5.958,5.958,0,0,1-1.833-1.77,3.766,3.766,0,0,1-.845-2.93,1.216,1.216,0,0,1,.6-.9,2.661,2.661,0,0,1,2.424-.493c.544.433.646,1.13.953,1.708a2.387,2.387,0,0,0,1.057,1,7.663,7.663,0,0,0,.758-.228,30.885,30.885,0,0,0,5.96-3.3,16.249,16.249,0,0,1,5.449-2.528,7.545,7.545,0,0,1,3.389,2.35c1,1.022,1.98,2.06,2.981,3.078a8.3,8.3,0,0,0,1.066.946,1.94,1.94,0,0,0,2.148.188,23.594,23.594,0,0,0,2.953-1.707,24.07,24.07,0,0,1,2.919-1.77,33.857,33.857,0,0,0,5.592-3.9,9.056,9.056,0,0,1,3.111-1.511c2.108,1.268,3.348,3.561,5.394,4.956a17.774,17.774,0,0,0,4,.036c.956-.437,2.025-.447,3.006-.807.888-.327,1.806-.57,2.706-.862a9.988,9.988,0,0,1,1.336-.464,14.507,14.507,0,0,1,1.992-.164c.761-.025,1.523,0,2.284,0a2.1,2.1,0,0,1,2.157,1.523c.066.178.142.353.213.53a7.87,7.87,0,0,1-2.645.795,8.188,8.188,0,0,1-1.141.053,12.936,12.936,0,0,0-4.447.8,3.739,3.739,0,0,1-.8.273,9.3,9.3,0,0,0-3.038.621,6.552,6.552,0,0,0-2.957,1.072,17.674,17.674,0,0,1-4.785.07,13.793,13.793,0,0,1-3.572-2.783c-.338-.335-.684-.661-1.029-.989a1.071,1.071,0,0,0-.806-.151c-.247.144-.5.279-.732.444-1.547,1.1-3.232,1.979-4.853,2.957s-3.232,1.987-4.916,2.865c-.5.261-.94.639-1.431.924s-1.01.52-1.493.764a7.249,7.249,0,0,1-3.17-.107,28.555,28.555,0,0,1-3.8-3.354A10.88,10.88,0,0,0,224.431,268.859Z" transform="translate(50.321 28.021)"/><path d="M183.97,474.757c-.594.875-1.1,1.671-1.661,2.43s-1.43,1.264-1.868,2.244c-.761.429-1.554.96-2.413,1.341a10.825,10.825,0,0,1-4.894,1.249,7.661,7.661,0,0,0-1.424.025c-1.2.172-2.185-.527-3.281-.769-.135-.031-.231-.277-.325-.436a.562.562,0,0,1-.067-.275,9.3,9.3,0,0,1,.458-4.2c.02-.963.534-1.825.607-2.758.076-.964.624-1.78.678-2.745.025-.448.419-.872.455-1.322.08-.96.625-1.771.711-2.741a18.063,18.063,0,0,1,.7-2.814,14.055,14.055,0,0,0,1.613-2.217,4.069,4.069,0,0,1,2.076-2,6.756,6.756,0,0,0,1.558.441c1.542.076,2.333,1.111,3.08,2.233a7.106,7.106,0,0,1,.35.778,2.445,2.445,0,0,1,.122,1.934c-.3.891-.687,1.755-1.029,2.633-.125.32.108.886.455.918,1.132.1,1.816.978,2.713,1.481l1.319,1.8A7.327,7.327,0,0,1,183.97,474.757Zm-10.529-2.4a5.543,5.543,0,0,0-.869,2.874c.015.761-.059,1.523-.073,2.284a1.161,1.161,0,0,0,.119.552.738.738,0,0,0,.391.378,8.252,8.252,0,0,0,5.473-1.054,6.362,6.362,0,0,0,1.32-1.08,1.133,1.133,0,0,0,.268-.495,1.973,1.973,0,0,0-.8-2.251c-.841-.439-1.7-.84-2.517-1.239A16.046,16.046,0,0,0,173.44,472.355Zm2.247-7.509c-.168.174-.461.342-.542.582a23.5,23.5,0,0,0-.661,2.436c-.035.161.242.31.432.242a10.245,10.245,0,0,0,1.294-.544.78.78,0,0,0,.311-.45,3.216,3.216,0,0,0,.048-1.686C176.463,465,176.154,464.839,175.687,464.846Z" transform="translate(33.938 107.203)"/><path d="M243.911,461.07a11.1,11.1,0,0,1,3.138-.052,5.653,5.653,0,0,1,1.777,1.452c.415.434.46,1.037.755,1.521a3.273,3.273,0,0,1-.112.528c-.3.792-.142,1.666-.66,2.453a20.953,20.953,0,0,1-2.468,3.453,7.686,7.686,0,0,0-1.579,1.626,1.443,1.443,0,0,0,.771.772c.837.443,1.686.863,2.538,1.277,1.365.662,2.652,1.449,3.948,2.237,1.755,1.067,1.183,1.452.227,2.555a13.6,13.6,0,0,1-1.487,1.329,1.107,1.107,0,0,1-1.323.036c-.244-.146-.495-.282-.727-.446a62.576,62.576,0,0,0-7.243-3.909c-.179-.094-.7.115-.715.312a6.768,6.768,0,0,1-.768,2.13,7.019,7.019,0,0,0-.51,2.113c-.217.6-.8.573-1.135.891s-.692.652-1.05.963a3.776,3.776,0,0,1-.477.313,1.405,1.405,0,0,1-1.088-.066c-.378-.308-.774-.7-.615-1.188.408-1.261.6-2.577,1.045-3.825q.618-1.734,1.31-3.445a10.766,10.766,0,0,0,.823-2.4,16.16,16.16,0,0,1,.715-2.445c.415-1.355.639-2.758,1.089-4.1a2.773,2.773,0,0,1,.512-1A18.463,18.463,0,0,1,243.911,461.07Zm1.847,4.827c-.292-.278-.547-.548-.831-.783-.175-.146-.691.021-.732.209a10.608,10.608,0,0,1-.549,2.455,3.519,3.519,0,0,0-.076,1.383c0,.077.1.156.158.245a2.745,2.745,0,0,0,1.46-1.591C245.43,467.214,245.563,466.569,245.758,465.9Z" transform="translate(60.86 107.668)"/><path d="M340.664,480.286a16.994,16.994,0,0,0,.685-2.717c.1-1.326.021-2.664.017-4-.406-.959-.324-2.056-.828-2.984a2.843,2.843,0,0,1-.167-2.049c.338-.331.73-.743,1.155-1.12a1.9,1.9,0,0,1,1.617-.345,1.054,1.054,0,0,1,.865.666,9.371,9.371,0,0,1,.841,3.564c-.046,1.333.006,2.667,0,4a15.285,15.285,0,0,1-.084,2c-.091.648-.541,1.214-.5,1.906a3.9,3.9,0,0,0-.493,2.462,2.941,2.941,0,0,1-.129.845c-.049.171-.157.415-.291.456a5.722,5.722,0,0,0-2.19,1.778,2.031,2.031,0,0,1-2.157.576,23.489,23.489,0,0,1-2.865-2.659,24.386,24.386,0,0,1-3.774-4.262,8.485,8.485,0,0,0-1.141-1.274c-.258-.272-.538-.523-.83-.8-.83.807-.813,1.9-1.24,2.787-.419.873-.227,1.9-.795,2.719-.064,1.043-.129,2.087-.2,3.207-.279.317-.589.674-.905,1.026a1.711,1.711,0,0,1-1.571.457.836.836,0,0,1-.788-.684,8.7,8.7,0,0,1,.471-4.473,30.147,30.147,0,0,0,.961-2.96,14.562,14.562,0,0,0,.887-3.857,15.492,15.492,0,0,1,.443-2.212,1.362,1.362,0,0,1,.36-.755c.471-.469.96-.922,1.462-1.361a1.467,1.467,0,0,1,1.609.042,15.7,15.7,0,0,1,3.5,3.731c.741,1.225,1.857,2.151,2.667,3.331a10.893,10.893,0,0,0,1.8,1.829A17.905,17.905,0,0,0,340.664,480.286Z" transform="translate(96.883 110.119)"/><path d="M261.829,463.961l1.389.726a6.918,6.918,0,0,1,1.252,1.9l-1.309.711c-.7.031-1.456.06-2.214.1a6.751,6.751,0,0,0-1.672.3,10.832,10.832,0,0,1-1.968.255,1.413,1.413,0,0,0-1.16,1.1,6.161,6.161,0,0,1-.345,1.668,3.482,3.482,0,0,0-.22,1.956c.126.133.228.335.383.385a1.924,1.924,0,0,0,.842.1c1.368-.2,2.605.464,3.927.582a2.117,2.117,0,0,1,1.344,1,.921.921,0,0,1-.139,1.268,3.743,3.743,0,0,1-2.282,1.046c-.666.035-1.33.08-2,.1-.761.017-1.523,0-2.242,0a.978.978,0,0,0-.39,1.271,1.161,1.161,0,0,0,1.033.867c1.523.032,3.05.017,4.573-.031a5.557,5.557,0,0,0,1.079-.329c.649-.161,1.015.01,1.682.739a7.453,7.453,0,0,1-2.549,3.1c-.513.035-1.079.069-1.645.115a5.319,5.319,0,0,0-1.125.133,7.34,7.34,0,0,1-4.745-.088c-1.124.043-1.706-.7-2.219-1.544a4.177,4.177,0,0,1-.242-1.675c.008-1.239.094-2.476.078-3.714-.011-.792.472-1.438.52-2.206a7.877,7.877,0,0,1,.269-2.249,7.7,7.7,0,0,0,.335-2.525,2.143,2.143,0,0,0-.363-1.054,2.1,2.1,0,0,1,.542-2.8c.748-.576,1.563-1.069,2.363-1.574a.766.766,0,0,1,.811,0,2.807,2.807,0,0,0,1.382.279C258.522,463.89,260.235,463.929,261.829,463.961Z" transform="translate(67.202 108.686)"/><path d="M318.286,467.111c1.5.775,3.057.369,4.557.583a3.956,3.956,0,0,1,.531.163c2.94,1.366,2.6.984,4.119,4.471,0,.248.017.629-.006,1.008a3.9,3.9,0,0,1-.16,1.4,23.932,23.932,0,0,1-.853,2.4,20.918,20.918,0,0,1-4.772,5.6,9.416,9.416,0,0,1-1.725.975c-.677.341-1.375.639-2.182,1.01H315.58a5.619,5.619,0,0,1-2.793-1.749,4.411,4.411,0,0,1-.778-1.18c-.3-.7-.664-1.362-1.022-2.084v-3.2c.283-1.2.875-2.08,1.152-3.094a6.066,6.066,0,0,1,1.586-2.659,3.618,3.618,0,0,0,.762-.842c.4-.827,1.24-1.138,1.843-1.721A11.68,11.68,0,0,1,318.286,467.111Zm1.724,4.024c-.762.279-1.169.985-1.791,1.4a20.285,20.285,0,0,1-1.945,1.041,18.056,18.056,0,0,0-.792,2.762,10.792,10.792,0,0,0,.119,2.828,4.6,4.6,0,0,0,2.734,2.125l2.05-.694c.272-.22.563-.464.863-.7a7.953,7.953,0,0,0,2.636-3.962,3.219,3.219,0,0,0,.142-1.114,8.241,8.241,0,0,0-.757-2.409.963.963,0,0,0-.374-.42A3.663,3.663,0,0,0,320.009,471.135Z" transform="translate(91.336 110.149)"/><path d="M147.238,473.967c-.209,1.77-.1,3.481-.14,5.187a.811.811,0,0,1-.6.827c-.727.28-1.1,1.023-1.7,1.476a1.216,1.216,0,0,1-1.065.228c-.235-.057-.573-.343-.584-.545-.029-.472-.084-.946-.077-1.417.036-2.28.09-4.559.136-6.839a1.367,1.367,0,0,1,.017-.285,7.508,7.508,0,0,0,.413-2.214c-.048-.852.029-1.71.049-2.563a12.124,12.124,0,0,1,.073-2.273,5.189,5.189,0,0,1,1.418-2.423c-.057-.547-.474-1.023-.313-1.612a1.207,1.207,0,0,1,.114-.256c.451-.6.908-1.2,1.386-1.832a21.316,21.316,0,0,1,5.674-.038,9.917,9.917,0,0,1,3.421,1.3,1.155,1.155,0,0,1,.411.387,4.425,4.425,0,0,1,.945,2.618,4.825,4.825,0,0,1-.294,1.373A23.27,23.27,0,0,1,154.269,469a5.071,5.071,0,0,1-.971,1.038,13.117,13.117,0,0,1-5.023,3.094,2.006,2.006,0,0,0-1.037.835Zm5.558-9.136a3.679,3.679,0,0,0-2.545-1.431,3.171,3.171,0,0,0-2.458.282c-.017,1.568-.039,3.162-.045,4.754a2.315,2.315,0,0,0,.126.817.719.719,0,0,0,.433.3,1,1,0,0,0,.554.025,10.61,10.61,0,0,0,2.761-1.372,1.358,1.358,0,0,0,.4-.4A3.491,3.491,0,0,0,152.8,464.831Z" transform="translate(23.927 106.98)"/><path d="M280.116,479.038a33.819,33.819,0,0,1-1.983,5.069,2.394,2.394,0,0,1-.783.81,1.2,1.2,0,0,1-.811.171.846.846,0,0,1-.635-.495,8.205,8.205,0,0,1-.14-.841,8.883,8.883,0,0,1,.91-4.129c.732-1.746,1.369-3.533,2.211-5.236.418-.844.624-1.8,1.081-2.615.474-.845.551-1.8.96-2.666a16.863,16.863,0,0,0,.789-2.657,4.611,4.611,0,0,1,2.367-1.664,2.441,2.441,0,0,1,1.242.537,1.74,1.74,0,0,1,.71.852,14.178,14.178,0,0,1,.59,1.889c.052.977.626,1.8.674,2.757s.7,1.776.635,2.759c.287.8.526,1.62.873,2.392a45.026,45.026,0,0,0,1.764,4.185,1.062,1.062,0,0,1,.13.544,1.518,1.518,0,0,1-.151.817,7.284,7.284,0,0,1-1.75,1.808,2.624,2.624,0,0,1-1.71-.039,2.809,2.809,0,0,1-.848-1.445,18.03,18.03,0,0,0-1.54-3.656,1.636,1.636,0,0,0-.177-.224.924.924,0,0,0-.765-.272c-.9.268-1.815.513-2.708.816A5.292,5.292,0,0,0,280.116,479.038Zm2.956-6.333a1.216,1.216,0,0,0-.8.678c-.177.4-.321.825-.474,1.225a1.1,1.1,0,0,0,1.047.242.626.626,0,0,0,.489-.559A2.479,2.479,0,0,0,283.072,472.705Z" transform="translate(77.188 109.216)"/><path d="M209.8,474.552a7.619,7.619,0,0,0,1.989,2.332,5.306,5.306,0,0,0,2.036.973,1.829,1.829,0,0,0,1.4-.043,12.754,12.754,0,0,1,2.183-.579c.619-.234,1.212-.541,1.818-.811a1.069,1.069,0,0,1,.272-.074,1.409,1.409,0,0,1,1.306.377.783.783,0,0,1,.185,1.015,3.862,3.862,0,0,1-.744.855c-.859.583-1.78,1.073-2.639,1.656a16.979,16.979,0,0,1-2.364.946,3.553,3.553,0,0,1-1.109.2,14.479,14.479,0,0,1-3.3-.065,9.642,9.642,0,0,1-5.568-6.281,17.233,17.233,0,0,1-.021-3.392c.426-.858.383-1.853.767-2.719a14.787,14.787,0,0,1,1.836-3.518,30.143,30.143,0,0,1,2.995-3.05,10.257,10.257,0,0,1,1.725-1.052c.462,0,.938.008,1.411,0a4.043,4.043,0,0,1,2.6.994,3.268,3.268,0,0,1,1.1,1.944,1.169,1.169,0,0,1-.024.565c-.158.545-.373,1.073-.521,1.621-.228.845-1.407.879-1.9.5-.524-.4-.952-.931-1.463-1.351a2.279,2.279,0,0,0-.751-.261c-2.172,1.868-1.676,1.3-3.267,4.675A22.677,22.677,0,0,0,209.8,474.552Z" transform="translate(48.855 107.825)"/><path d="M288.457,468.807a4.707,4.707,0,0,1,2.862-2.13,10.112,10.112,0,0,0,3.484-.6c.76-.041,1.518-.084,2.277-.119a5.652,5.652,0,0,0,1.949-.308,5.4,5.4,0,0,1,2.251-.107,4.3,4.3,0,0,0,2.213.412,2.242,2.242,0,0,1,1.689.924,3.474,3.474,0,0,1,.289.482,2.84,2.84,0,0,1-1.445,2.087,19.671,19.671,0,0,0-2.185.084,20.232,20.232,0,0,0-2.178.535c-.088.16-.244.315-.254.481-.055.854-.078,1.708-.1,2.563a3.387,3.387,0,0,1-.332,1.654.726.726,0,0,0-.1.264,10.775,10.775,0,0,1-.562,3.058v2.821a8.138,8.138,0,0,1,.369.8c.272.8.038,1.247-.755,1.481-.45.135-.9.265-1.34.394a4.011,4.011,0,0,1-1.554-.667,3.949,3.949,0,0,1-.813-2.656q.095-1.56.192-3.118a17.433,17.433,0,0,0,.39-6.486.394.394,0,0,0-.08-.261,1.9,1.9,0,0,0-.46-.266.343.343,0,0,0-.276,0c-.835.527-1.868.314-2.733.753a3.68,3.68,0,0,1-1.956.209.833.833,0,0,1-.769-.7C288.486,469.834,288.477,469.27,288.457,468.807Z" transform="translate(82.291 109.494)"/><path d="M357.827,478.383c-.342.685-.633,1.392-1.029,2.032a3.638,3.638,0,0,1-1.882,1.661,5.787,5.787,0,0,1-1.038.427c-.758.1-1.386.635-2.183.579a2.34,2.34,0,0,0-1.323.449,2.206,2.206,0,0,1-1.637.1,2.79,2.79,0,0,1-.87-2.44c.349-.415.76-.933,1.2-1.422a1.512,1.512,0,0,1,1.808-.437,4.516,4.516,0,0,0,2.771.182c.084-.017.2-.1.216-.167a1.01,1.01,0,0,0,0-.533.931.931,0,0,0-.376-.413c-.988-.576-1.805-1.386-2.75-2.01a7.322,7.322,0,0,1-2.953-3.6c-.028-.362-.092-.928-.106-1.494-.01-.474.041-.947.057-1.278a7.835,7.835,0,0,1,5.083-4.53h1.591a6.45,6.45,0,0,1,2.3,1.145c.743.643.921,1,.625,2.284a.911.911,0,0,1-.654.468,2.2,2.2,0,0,1-1.378-.207,2.545,2.545,0,0,0-2.444,0c-1.12.517-1.434,1.051-1.177,2.214a2.133,2.133,0,0,0,.348.764,6.977,6.977,0,0,0,1.846,1.759c.711.468,1.442.907,2.141,1.392a3.161,3.161,0,0,1,1.542,2.277A3.848,3.848,0,0,0,357.827,478.383Z" transform="translate(106.065 109.497)"/><path d="M187.5,463.035a6.008,6.008,0,0,1,.79-.073,6.217,6.217,0,0,1,.8.114,3.523,3.523,0,0,1,.873,1.616,4.682,4.682,0,0,0-.352.971c-.1.656-.116,1.326-.175,1.99-.093,1.03.133,2.1-.408,3.079a1.252,1.252,0,0,0-.085.556q-.048,2.142-.08,4.286a.619.619,0,0,0,.775.582,3.132,3.132,0,0,0,.559-.105,18.233,18.233,0,0,1,2.083-.918,11.572,11.572,0,0,0,2.2-.559c.153-.077.376-.015.566-.022.51-.017.861.384,1.322.5a1.839,1.839,0,0,1,.91.657.893.893,0,0,1,.1.8,2.848,2.848,0,0,1-.327.462c-.489.448-.995.879-1.519,1.337-1.351.01-2.549.74-3.907.732a2.093,2.093,0,0,0-.813.226,36.852,36.852,0,0,1-5.1,1.827,2.474,2.474,0,0,1-1.331-1.438,8.574,8.574,0,0,1,.362-3.327,3.2,3.2,0,0,0,.108-1.128c.036-.953.049-1.906.086-2.859a6.566,6.566,0,0,1,.345-2.241,5.326,5.326,0,0,0,.2-1.689c.041-.856.035-1.714.048-2.462A4.734,4.734,0,0,1,187.5,463.035Z" transform="translate(40.511 108.483)"/><path d="M158.473,461.789c.373,0,.753-.025,1.127.007a.771.771,0,0,1,.687.768,4.921,4.921,0,0,1-.088,1.69,7.252,7.252,0,0,0-.4,2.509c-.013.477-.014.952-.034,1.427a9.62,9.62,0,0,0,1.215,4.611,1,1,0,0,0,.192.21,2.315,2.315,0,0,0,.492-.283,14.262,14.262,0,0,0,3.739-6.271,2.211,2.211,0,0,0-.237-1.924.807.807,0,0,1,.048-1.044c.43-.507.887-.994,1.362-1.459a1.244,1.244,0,0,1,1.336-.216,1.325,1.325,0,0,1,.9,1.022,2.926,2.926,0,0,1-.067,1.4c-.391,1.066-.736,2.144-1.065,3.229a2.911,2.911,0,0,1-.408.741,3.761,3.761,0,0,0-.729,1.526,2.313,2.313,0,0,1-.383.748,11.176,11.176,0,0,0-.753,1.2,13.633,13.633,0,0,1-3.153,4,3.5,3.5,0,0,1-2.849,1.038c-.189-.013-.378-.039-.566-.062a1.342,1.342,0,0,1-.95-.569c-.5-.691-.961-1.4-1.443-2.113-.247-.908-.055-1.9-.526-2.775-.1-1.791-.4-3.586.3-5.344.2-.517.16-1.132.36-1.654A4.427,4.427,0,0,1,158.473,461.789Z" transform="translate(29.027 107.982)"/><path d="M270.185,475.3h4.2c.586.289,1.107.517,1.6.8a1.416,1.416,0,0,1,.726,1.155c.053.568-.294,1.275-.811,1.341-1.208.156-2.307.91-3.585.647l-5.418.154a1.487,1.487,0,0,1-1.6-1.284,35.456,35.456,0,0,1,0-5.415,1.134,1.134,0,0,1,.125-.547c.558-.823.258-1.863.757-2.724a18.986,18.986,0,0,0,1.022-2.573c.37-.387.886-.943,1.421-1.477a1.587,1.587,0,0,1,.495-.273,1.149,1.149,0,0,1,1.243.4c.045.084.077.174.116.261.118.259.234.518.348.771-.067.764-.513,1.41-.53,2.2a18.049,18.049,0,0,1-.465,1.912,19.874,19.874,0,0,0-.123,2.277c-.017.664,0,1.328,0,1.928Z" transform="translate(72.951 109.318)"/><path d="M307.509,466.322c.263-.022.545-.063.827-.069a1.527,1.527,0,0,1,1.465,1.441c0,.1-.006.189,0,.285a3.8,3.8,0,0,1-.325,1.364,7.681,7.681,0,0,0-.17,1.114,9.625,9.625,0,0,1-.272,1.378,4.484,4.484,0,0,0-.284,1.089,6.733,6.733,0,0,1-.516,3.041c-.052.66-.119,1.32-.15,1.982-.038.761-.554,1.4-.474,2.2a12.558,12.558,0,0,1-.062,1.984,2.261,2.261,0,0,1-1.578,1.822,1.233,1.233,0,0,1-1.076-.206,3.368,3.368,0,0,1-1.151-1.319,28.175,28.175,0,0,1-.073-4.468,1.98,1.98,0,0,1,.182-.82,3.687,3.687,0,0,0,.266-1.38,6.68,6.68,0,0,1,.464-2.489c.343-.762.077-1.69.485-2.483s.136-1.686.384-2.475A5.808,5.808,0,0,1,307.509,466.322Z" transform="translate(88.376 109.804)"/><path d="M196.357,478.373a1.612,1.612,0,0,1-.991-1.6,6.351,6.351,0,0,1,.364-2.521c.256-.6.237-1.313.485-1.917a12.5,12.5,0,0,0,.366-1.657,18.964,18.964,0,0,0,.642-3.048,4.464,4.464,0,0,1,1.047-2.311,2.787,2.787,0,0,1,1.914-1.1.761.761,0,0,1,.757.3c.244.405.439.839.625,1.205a4.036,4.036,0,0,1-.241,2.029c-.381.774-.193,1.682-.633,2.475-.362.65-.149,1.508-.568,2.188a1.377,1.377,0,0,0-.133.547,13.378,13.378,0,0,1-.362,2.514c-.024.074.078.182.071.271a1.023,1.023,0,0,1-.1.523A5.224,5.224,0,0,1,196.357,478.373Z" transform="translate(44.92 108.987)"/><path d="M168.678,278.53a23.08,23.08,0,0,1-6.828,9.7,26.6,26.6,0,0,1-5.918,2.521c-1.127,0-2.461-.007-3.8,0a2.676,2.676,0,0,1-1.373-.3,1.025,1.025,0,0,0-.261-.115,17.468,17.468,0,0,1-5.056-1.728,9.942,9.942,0,0,1-4.273-3.627,4.644,4.644,0,0,0-.691-.905,6.183,6.183,0,0,1-1.522-2.694c-1.167-3.368-1.184-3.434-1.174-6.655a7.715,7.715,0,0,1,.474-3.359,4.127,4.127,0,0,0,.136-1.13,2.9,2.9,0,0,1,.17-.831c.561-1.2,1.085-2.431,1.755-3.575a11.4,11.4,0,0,1,1.892-2.485,10.218,10.218,0,0,1,4.493-2.9c.363-.09.7-.3,1.061-.391a12.563,12.563,0,0,1,3.876-.813,1.894,1.894,0,0,0,.834-.133,5.143,5.143,0,0,1,1.963-.293c.572-.017,1.146.042,1.715,0a13.756,13.756,0,0,1,4.445.807c.548.139,1.079.346,1.613.535a5.572,5.572,0,0,1,2.7,2.029,29.01,29.01,0,0,1,3.043,5.457,1.34,1.34,0,0,1,.142.545c-.031.974.576,1.8.593,2.771a5.652,5.652,0,0,0,.418,2.517,1.078,1.078,0,0,1,.02.837,6.686,6.686,0,0,0-.357,2.807C168.746,277.607,168.707,278.08,168.678,278.53Zm-15.593,7.091c.254.018.537.041.82.06.946.063,1.361-.4,1.565-1.288.085-.369-.008-.825.178-1.117.538-.844.4-1.844.758-2.733a24.5,24.5,0,0,0,.94-2.967c.286-1.09.732-2.14,1.114-3.205a7.949,7.949,0,0,1,.328-.782c.844-1.7,1.408-3.511,2.23-5.218a20.643,20.643,0,0,0,.795-2.118.933.933,0,0,0-.867-1.205,1.858,1.858,0,0,0-.584.125,21.225,21.225,0,0,0-1.572,3.588c-.216.718-.75,1.345-.924,2.067a11.35,11.35,0,0,0-.73,2.439,10.323,10.323,0,0,0-.652,1.868,19.007,19.007,0,0,0-.97,2.36,9.48,9.48,0,0,1-1.041,2.332,6.661,6.661,0,0,1-.957,2.356c-.357.685-.238,1.509-.706,2.155a1.218,1.218,0,0,0-.1.554A.751.751,0,0,0,153.085,285.622ZM165.165,275.3a3.084,3.084,0,0,0-.022-1.166c-.5-1.08-.286-2.252-.535-3.356a.676.676,0,0,0-.126-.247c-.053-.072-.126-.175-.193-.178-.172-.008-.451-.031-.506.06a21.963,21.963,0,0,0-2.018,4.353,43.574,43.574,0,0,0-1.874,6.22,4.623,4.623,0,0,0-.362,2.5.582.582,0,0,0,.3.432.685.685,0,0,0,.54-.074,10.3,10.3,0,0,0,2.283-2.13,2.165,2.165,0,0,0,.306-.478,8.1,8.1,0,0,1,1.47-2.416.926.926,0,0,0,.248-.5C164.8,277.286,165.423,276.345,165.165,275.3Zm-19.637,6.873a2.457,2.457,0,0,0,.3-.465,9.185,9.185,0,0,0,.64-1.578,6.057,6.057,0,0,1,.593-1.589,21.614,21.614,0,0,0,1.041-2.935c.352-1.082.936-2.062,1.223-3.177.282-1.09.788-2.119,1.1-3.212.338-1.176.725-2.34,1.127-3.5a13.781,13.781,0,0,0,.5-1.317,2.269,2.269,0,0,0-.142-.827,3.2,3.2,0,0,0-1.359.66,20.025,20.025,0,0,1-1.317,3.064,11.511,11.511,0,0,0-1.295,3.142,19.178,19.178,0,0,0-1.246,3.157,23.453,23.453,0,0,1-.856,2.992,5.042,5.042,0,0,1-1.525,2.981,1.288,1.288,0,0,0-.251,1.107c.226.381.455.795.713,1.191A.828.828,0,0,0,145.528,282.168Zm11.5-17.979a2.2,2.2,0,0,0-.252-.427c-.24-.272-.52-.277-.7-.035-.17.224-.427.443-.468.692a7.153,7.153,0,0,1-.818,2.108c-.519,1.019-.824,2.109-1.256,3.153-.261.633-.123,1.352-.468,1.912-.355.577-.481,1.232-.792,1.816a5.494,5.494,0,0,0-.132.548,27.044,27.044,0,0,1-1.446,3.676,2.289,2.289,0,0,0-.29.786,13.3,13.3,0,0,1-.869,2.685c-.339.887-.207,1.9-.783,2.706a.3.3,0,0,0,.006.276c.091.142.2.324.342.366a.562.562,0,0,0,.5-.1,29.519,29.519,0,0,0,1.84-4.124,27.734,27.734,0,0,0,1.244-3.456c.544-1.8,1.288-3.54,1.787-5.359.15-.544.558-1,.561-1.6a.6.6,0,0,1,.052-.279A25.712,25.712,0,0,0,157.031,264.189ZM142.66,276.881c.387-.482.181-1.117.4-1.624.674-1.557,1.01-3.23,1.7-4.78a16.313,16.313,0,0,0,1-2.631c.252-1.016.886-1.874,1.068-2.9a.265.265,0,0,0-.128-.223c-.16-.065-.392-.175-.5-.109a6.113,6.113,0,0,0-1.591,1.581,14.228,14.228,0,0,0-2.223,4.319,42.97,42.97,0,0,0-.052,5.316,5.069,5.069,0,0,0,.161.827C142.522,276.738,142.6,276.805,142.66,276.881Z" transform="translate(21.804 26.526)"/></g></svg>