<svg xmlns="http://www.w3.org/2000/svg" width="739.12" height="638.223" viewBox="0 0 739.12 638.223"><g transform="translate(-126.662 -190.682)"><path d="M185.463,324.334c4.742,2.452,8.914,4.933,11.672,9.239a24.068,24.068,0,0,0,2.062,2.441c1.384,1.619,3.2,2.957,4.021,4.952.751,1.82,2.485,2.89,3.129,4.786a9.546,9.546,0,0,0,2.072,3.194c4.077,4.423,6.927,9.686,10.187,14.669.44,1.739,1.98,2.729,2.859,4.2,2.829,4.742,5.47,9.606,8.714,14.1,1.367,1.894,2.473,4,3.972,5.774a32.946,32.946,0,0,1,4.151,6.418,17.4,17.4,0,0,0,3.5,5.321c2.005,3.27,4.771,6.015,6.512,9.467a5.587,5.587,0,0,0,1.019,1.609c2.125,1.965,2.928,4.646,4.027,7.171a9.927,9.927,0,0,0,.478,1.172,4.035,4.035,0,0,0,.816.982c2.141,1.833,2.978,4.671,5.122,6.525a17.111,17.111,0,0,1,4.084,4.9,6.48,6.48,0,0,0,.776,1.011c2.154,2.634,4.694,4.952,6.475,7.89,2.6,2.542,5.143,5.145,7.81,7.609,1.716,1.586,3.775,2.76,5.407,4.48a21.273,21.273,0,0,0,5.342,4.564,1.1,1.1,0,0,1,.484.4c1.5,3.048,4.939,3.972,7.009,6.41a16.34,16.34,0,0,0,3.058,2.288c2.236,1.628,4.56,3.127,6.712,4.9,1.957,1.609,4.149,2.976,6.03,4.7,2.051,1.879,4.7,2.968,6.544,5.1,2.427,1.311,4.646,2.955,7.034,4.344a136.674,136.674,0,0,1,12.5,7.7,19.757,19.757,0,0,0,2.173,1.309c5.778,3.186,11.636,6.206,17.662,8.905,1.56.7,3.188,1.187,4.75,1.85a10.1,10.1,0,0,0,3.085.768,12.72,12.72,0,0,1,3.144.411,12.356,12.356,0,0,0,3.742.732c2.752.126,5.568-.235,8.173,1.08a2.97,2.97,0,0,0,1.269.124q4.813,0,9.625-.029a2.681,2.681,0,0,0,1.254-.178c1.976-1.124,4.159-.822,6.271-.979,1.906-.143,3.8-.082,5.646-.919,1.109-.5,2.542-.231,3.788-.495,2.074-.44,4.13-.929,6.229-1.288a39.092,39.092,0,0,0,6.057-1.89c2.013-.7,3.968-1.5,5.9-2.381,4.063-1.854,8.35-3.1,12.536-4.625,2.582-.94,5.323-1.474,7.7-2.945.212-.369.606-.738.594-1.091-.057-1.449,1.523-2.716.466-4.258a12.783,12.783,0,0,0,.923-4.35,9.582,9.582,0,0,1,.533-2.477,7.286,7.286,0,0,0,.575-2.471c.017-1.068.084-2.137.132-3.2q.119-2.564.239-5.126a10.957,10.957,0,0,0,1.206-4.937c1.357-2.034.889-4.564,1.856-6.741.587-1.326.449-2.961.973-4.329a14.211,14.211,0,0,0,.889-4.358,2.692,2.692,0,0,1,.174-1.258c1.38-2.051.944-4.547,1.72-6.774a62.1,62.1,0,0,0,2.068-6.678,63.029,63.029,0,0,1,2.152-6.619,62.23,62.23,0,0,0,2.081-6.678c.046-.2.227-.382.254-.585.482-3.607,1.938-6.923,3.066-10.338,1.061-3.22,2.2-6.416,3.169-9.663.858-2.863,2.345-5.474,3.192-8.322a55.928,55.928,0,0,1,3.364-7.571c.713-1.527,1.695-2.953,1.974-4.69a9.633,9.633,0,0,1,.8-1.735c1.378-3.565,3.349-6.85,4.641-10.482a95.543,95.543,0,0,1,4.9-10.4q2.567-5.144,5.3-10.206c1.206-2.242,2.45-4.474,3.836-6.607s2.179-4.631,3.794-6.657a13.171,13.171,0,0,0,1.248-2.221,108.623,108.623,0,0,1,7.316-11.99c1.577-2.269,2.945-4.679,4.39-7.034,2.112-3.442,4.585-6.665,6.942-9.952,1.739-2.422,3.278-5,5.529-7.022,1.879-3.387,5.092-5.755,6.969-9.144,2.825-2.922,5.09-6.3,7.718-9.4,2.341-2.754,4.723-5.5,6.812-8.461,3.2-4.528,6.881-8.679,10.136-13.161.745-1.028,1.818-1.81,2.664-2.773,1.963-2.236,4.409-4.071,5.738-6.839,1.969-1.053,2.668-3.247,4.2-4.7.927-.881,1.764-1.86,2.641-2.794.583-2.114,2.42-3.454,3.3-5.422a13.532,13.532,0,0,1,2.85-4.222,56.476,56.476,0,0,0,6.739-8.492,17.3,17.3,0,0,1,1.919-2.531c3.987-3.928,6.586-8.882,9.927-13.287.382-1.764,2.1-2.666,2.75-4.272a43.178,43.178,0,0,1,1.934-4.035c.8-1.493,1.678-2.947,2.552-4.4a2.809,2.809,0,0,1,2.378-.594c1.254.52,2.406,2.477,1.951,3.7-1.03,2.771-1.7,5.692-3.435,8.182-1.825,2.615-3.551,5.3-5.327,7.953a9.054,9.054,0,0,0-1.114,1.565c-1.263,3.276-3.542,5.831-5.952,8.247-1.237,1.242-1.9,2.821-2.993,4.121s-2.536,2.326-3.094,4.035c-2.529,2.615-4.184,5.91-6.728,8.536-2.07,2.137-3.37,4.92-5.478,7.06-.625,1.667-1.986,2.75-3.15,3.993a26.855,26.855,0,0,0-2.75,3.5,35.995,35.995,0,0,1-4.23,4.8,36.959,36.959,0,0,0-6.026,7.441,20.184,20.184,0,0,1-3.922,5.04c-1.456,1.338-2.118,3.19-3.387,4.625a46.406,46.406,0,0,0-3.756,4.365,27.8,27.8,0,0,1-2.794,3.488,55.717,55.717,0,0,0-4.849,5.927c-1.741,2.418-3.664,4.708-5.512,7.049-1.714,2.171-3.536,4.264-5.128,6.523-3.435,4.868-7.064,9.591-10.621,14.367a12.029,12.029,0,0,0-.965,1.634,33.376,33.376,0,0,1-4.146,6.418,23.1,23.1,0,0,0-2.443,4.455,57.016,57.016,0,0,1-7.6,11.793,3.658,3.658,0,0,0-.883,1.663c-.388,2.16-1.579,3.922-2.6,5.784-.925,1.676-1.718,3.425-2.561,5.145q-4.212,8.6-8.423,17.2c-1.5,4.679-3.985,8.907-6.078,13.316-1,2.116-2.219,4.149-3.068,6.323s-1.6,4.365-2.269,6.6c-.663,2.219-1.789,4.291-2.448,6.552-.65,2.23-1.518,4.4-2.259,6.613a5.266,5.266,0,0,1-.413,1.2c-2.011,3.127-2.3,6.81-3.245,10.266a21.159,21.159,0,0,1-1.344,4.224,70.768,70.768,0,0,0-3.513,9.528,3.068,3.068,0,0,0-.325,1.221c.359,2.869-1.407,5.323-1.529,8.121-.061,1.441-.914,2.836-1.1,4.289-.266,2.127-1.556,4-1.422,6.2a16.479,16.479,0,0,0-1.311,5.547c-1.636,2.206-.786,5.008-1.766,7.376-.927,2.24-.535,4.637-.774,6.961a5.128,5.128,0,0,1-.344,1.86,7.921,7.921,0,0,0-.7,3.735c-.04,1.921-.01,3.844-.01,5.285-.459,1.485-1.37,2.25-1.3,3.393a1.553,1.553,0,0,0,1.628.7c2.263-.547,4.482-1.244,6.77-1.726a24.741,24.741,0,0,1,3.719-.8,6.47,6.47,0,0,0,2.506-.409,10.753,10.753,0,0,1,4.992-.948c2.4-.015,4.49-1.235,6.8-1.611.485-.078.967-.812,1.242-1.349a5.291,5.291,0,0,0,.415-1.841c.155-1.489.252-2.982.371-4.476,1.261-1.844.724-4.2,1.745-6.118a7.789,7.789,0,0,0,.591-4.356c-1.066-1.047-2.129-2.081-3.173-3.133a2.591,2.591,0,0,1-.317-.686,9.815,9.815,0,0,1,1.248-2.748,93.108,93.108,0,0,0,6.747-9.323,8.34,8.34,0,0,1,.9-.9,1.91,1.91,0,0,1,1.8-.245,4.816,4.816,0,0,1,2.857,3.261c.409,1.644.26,3.423,1.229,4.931a14.881,14.881,0,0,0,2.265,7.221,4.07,4.07,0,0,1,.254,1.214,3.808,3.808,0,0,1-1.716,1.82,2.429,2.429,0,0,1-2.441-.015,27.722,27.722,0,0,1-2.5-1.982c-.942.164-1.284.935-1.67,1.655a1.331,1.331,0,0,0-.222.594c.054,2.406-1.477,4.442-1.575,6.816a4.079,4.079,0,0,1-.365,1.862c-.77,1.294-.4,2.4.185,3.605a6.926,6.926,0,0,1,.281,1.877c.1.652.661,1.292,1.133,1.29,3.207-.01,6.416-.067,9.625-.033,2.349.023,4.7.245,7.047.224,1.969-.019,3.647,1.149,5.615,1.128a40.619,40.619,0,0,1,5.115.359,9.8,9.8,0,0,1,1.791.69c.524.174,1.51-.359,1.571-.795s.155-.843.187-1.269a19.761,19.761,0,0,1,1.011-6.282,10.119,10.119,0,0,0,.4-3.8c-.008-1.3,1.3-2.263.8-3.687l-2.647-2.911a1.41,1.41,0,0,1-.063-1.592,44.02,44.02,0,0,1,9.029-13.077,3.061,3.061,0,0,1,2.343-.816,2.136,2.136,0,0,1,1.7.734,19.579,19.579,0,0,1,2.7,5.763c.745,2.213,1.468,4.434,2.259,6.823a5.01,5.01,0,0,1-1.384,2.559,1.324,1.324,0,0,1-1.143.336,7.491,7.491,0,0,1-4.052-2.92c-.153-.237-.77-.218-1.172-.222-.134,0-.3.277-.4.453a1.194,1.194,0,0,0-.21.579c.084,2.834-.931,5.447-1.791,8.046a13.62,13.62,0,0,0-.879,4.333c-.006,1.925-.124,3.849-.2,5.906-.6.929-1.252,1.938-1.925,2.976,1.68.633,3.486.357,5.023,1.265a5.007,5.007,0,0,0,1.85.417c1.472.2,3,.05,4.373.812,1.533.845,3.364.348,4.96,1.141a25.454,25.454,0,0,0,4.216,1.412c2.23.646,4.333,1.747,6.705,1.911a3.878,3.878,0,0,1,1.235.277c3.326,1.416,6.642,2.854,9.962,4.285,4.09,1.76,8.2,3.471,12.19,5.464.235.117.742-.25,1.086-.453a.927.927,0,0,0,.338-.52c.464-1.648-.048-3.463.772-5.034.833-1.6.606-3.335.868-5.008s1.4-3.135,1.221-4.925c.872-2.177,1.063-4.545,1.8-6.739.747-2.217.686-4.648,1.885-6.724.279-2.349,1.424-4.436,2.014-6.686a46.352,46.352,0,0,1,2.326-7.261,63.558,63.558,0,0,0,2.269-6.607c.774-2.427,1.516-4.876,2.508-7.215,1.741-4.1,3.138-8.335,4.82-12.456.885-2.162,1.646-4.377,2.609-6.5s1.523-4.411,2.387-6.581a47.771,47.771,0,0,1,1.806-4.742c2.078-3.954,3.838-8.075,6.24-11.858.8-1.258,1.6-2.517,2.324-3.815,2.175-3.9,4.314-7.821,6.472-11.73a23.093,23.093,0,0,1,1.269-2.2c3.691-5.21,7.139-10.585,10.65-15.917.583-.887,1.093-1.827,1.625-2.748a12.527,12.527,0,0,1,1.284-2.211c3.607-3.991,5.7-8.985,8.876-13.276,3.156-4.266,5.688-9,8.916-13.209,2.987-3.888,5.558-8.06,8.6-11.909,2.9-3.672,5.543-7.559,8.517-11.185.583-1.9,2.15-3.159,3.142-4.8a112.825,112.825,0,0,1,8.224-11.366,91.015,91.015,0,0,1,6.4-7.982c2.477-3.972,5.671-7.437,8.035-11.51a20.222,20.222,0,0,1,3.733-5.17,19.811,19.811,0,0,1,3.635-5.227c.547-.629.831-1.481,1.321-2.171,3.209-4.511,6.563-8.916,9.706-13.477a62.212,62.212,0,0,0,3.872-5.862,17.4,17.4,0,0,1,1.386-2.125,15.819,15.819,0,0,0,1.953-2.529c1.607-3.551,4.113-6.447,6.525-9.425a3.035,3.035,0,0,1,3.9,1.214,2.242,2.242,0,0,1,.333,2.418c-1.594,2.758-3.236,5.5-4.967,8.169-2.659,4.107-5.579,8.045-7.961,12.332a17.568,17.568,0,0,1-1.506,2.057,12.138,12.138,0,0,0-1.563,2.026c-1.734,3.7-4.448,6.743-6.724,10.076s-4.952,6.424-7.1,9.843c-2.38,3.8-5.5,7.068-7.594,11.047-2.469,2.666-4.107,5.982-6.705,8.545a34.241,34.241,0,0,0-4.518,6.17c-2.292,3.591-5.08,6.818-7.292,10.451-3.274,3.127-4.914,7.45-7.894,10.793a16.954,16.954,0,0,1-2.957,4.151c-1.116,1.265-1.94,2.785-3.037,4.071a29.932,29.932,0,0,0-2.92,4.172,70.79,70.79,0,0,1-5.3,7.221c-1.183,1.51-2.387,3.014-3.433,4.618-1.158,1.776-2.011,3.76-3.247,5.474a37.408,37.408,0,0,0-2.873,4.948,12.848,12.848,0,0,1-1.51,2.066,53.194,53.194,0,0,0-6.181,9.62,36.267,36.267,0,0,1-5.686,8.433,7.437,7.437,0,0,0-1.542,2.03c-1.281,3.2-3.524,5.841-5,8.909a36.039,36.039,0,0,1-4.457,6.965,91.2,91.2,0,0,0-5.707,8.482,14.793,14.793,0,0,0-.759,2.412c-.713,1.768-1.588,3.477-2.221,5.273s-1.112,3.651-1.781,5.4c-.68,1.787-1.076,3.664-1.888,5.413-.434.935-.531,2.028-1.051,2.991-1.009,1.865-1.856,3.815-2.779,5.724a33.986,33.986,0,0,0-1.609,5.5,4.895,4.895,0,0,1-.478,1.179c-1.764,2.934-2.62,6.258-3.991,9.362a63.4,63.4,0,0,0-3.138,9.665c-.424,1.634-1.367,3.07-1.449,4.862-.078,1.67-1.416,3.094-1.39,4.866-1.036,1.439-.95,3.247-1.575,4.836-.612,1.558-.68,3.337-1.326,4.876a11.6,11.6,0,0,0-.8,4.362c-.031,1.539-1.16,2.748-1.08,4.318a31.454,31.454,0,0,1-.176,3.842,3.014,3.014,0,0,1-.31,1.227c-.979,1.762-.929,3.7-1.023,5.61-.061,1.273.147,2.586-.432,3.788-.975,2.024-.472,3.624,1.118,5.159a57.75,57.75,0,0,1,8.136,9.025,28.022,28.022,0,0,0,2.655,2.779c1.705,1.9,3.719,3.559,4.692,6.026,1.768,1.827,2.985,4.109,5.017,5.749a20.431,20.431,0,0,1,2.81,3.463c6.388,8.089,6.462,8.171,14.073,15.531,1.076,1.042,2.2,2.036,3.245,3.106a28.525,28.525,0,0,0,4.5,3.553c3.7,2.517,7.267,5.235,10.782,8.008a20.536,20.536,0,0,0,4.348,2.659c2.712,1.21,5.252,2.777,8.148,3.624a32.559,32.559,0,0,1,4.606,2.187,6.562,6.562,0,0,0,2.334.977c3.312.09,5.908,2.4,9.1,2.785,2.7,1.246,5.627,1.938,8.01,3.431a25.235,25.235,0,0,1,5.239.745c1.636.6,3.438.51,4.922,1.235,1.619.791,3.364.635,4.933,1.208a26.377,26.377,0,0,0,4.971,1.1,30.83,30.83,0,0,1,6.674,2.009c1.179.482,2.332,1.03,3.828,1.695.935.038,2.219.036,3.49.159a6.221,6.221,0,0,1,2.454.556c1.925,1.1,4.32.252,6.147,1.609,1.28.065,2.557.143,3.836.2,1.5.063,2.993.092,4.488.159a7.354,7.354,0,0,1,2.542.229c3.064,1.363,6.307.9,9.478,1.1,1.7.111,3.4-.115,5.019.7a4.838,4.838,0,0,0,1.873.235c2.137.1,4.279.124,6.412.268a15.333,15.333,0,0,1,3.775.57,14.367,14.367,0,0,0,3.765.648c2.116.126,4.26-.151,6.279.912a6.136,6.136,0,0,0,2.519.258c2.565.088,5.132.145,7.7.214.642.017,1.284.036,1.925.048,2.135.034,4.016,1.315,6.244,1.124a61.506,61.506,0,0,1,6.4.042,1.653,1.653,0,0,1,.577.214.77.77,0,0,1,.47,1.055c-.063.191-.069.48-.2.554a22.588,22.588,0,0,1-5.979,1.965c-2.351.092-4.7.191-7.055.214a10.119,10.119,0,0,0-3.744.633,7.281,7.281,0,0,1-5.034.05,16.364,16.364,0,0,0-5.034-.692c-2.779-.107-5.56-.122-8.339-.245-2.54-.115-5.107.153-7.586-.864a9.539,9.539,0,0,0-3.177-.231c-2.779-.088-5.56-.138-8.339-.237a19.4,19.4,0,0,1-5.031-.715,25.464,25.464,0,0,0-5.717-.528c-1.909-.117-3.826.029-5.663-.8a7.953,7.953,0,0,0-2.519-.325c-1.9-.164-3.922.185-5.677-.675-1.609-.786-3.452-.34-4.952-1.145-1.575-.847-3.345-.625-4.941-1.237a43.626,43.626,0,0,0-4.786-1.707c-2.255-.577-4.534-1.093-6.8-1.584-2.3-.5-4.463-1.376-6.745-1.875-1.64-1.174-3.733-.665-5.51-1.525a26.739,26.739,0,0,0-5.422-1.814c-1.871-.447-3.553-1.376-5.457-1.77-1.852-.384-3.555-1.525-5.409-1.864a41.068,41.068,0,0,1-7.9-2.359c-2.561-1.026-5.187-1.888-7.687-3.075-1.531-.726-3.2-1.154-4.727-1.886a32.234,32.234,0,0,1-3.836-2.3c-3.9-2.586-8.152-4.606-11.963-7.339-.518-.373-1.116-.644-1.59-1.061-1.928-1.693-3.656-3.67-5.77-5.074a36.652,36.652,0,0,1-5.365-4.532c-1.833-1.8-3.681-3.58-5.449-5.44a34.522,34.522,0,0,1-2.374-3.012c-.386-.507-.684-1.082-1.093-1.569-5.214-6.2-10-12.758-15.225-18.943-3.716-4.4-7.949-8.372-11.957-12.527a3.726,3.726,0,0,0-.992-.81c-2.345-1.128-3.956-3.228-6.122-4.587-1.263-.793-2.5-1.63-3.786-2.383a11.442,11.442,0,0,0-2.859-1.411,37.327,37.327,0,0,1-8.15-3.614,53.753,53.753,0,0,0-7.112-2.8c-2.789-.982-5.635-1.854-8.479-2.693a30.126,30.126,0,0,0-6.81-1.628c-2.087-.122-4.023-1.336-6.183-1.386-2.026-1.353-4.618-.728-6.72-1.944a6.483,6.483,0,0,0-2.5-.346c-.636-.061-1.376.128-1.9-.136-2.6-1.319-5.39-1.107-8.148-1.227a10.371,10.371,0,0,1-3.746-.717,6.5,6.5,0,0,0-2.5-.421c-5.132-.015-10.264.019-15.4.063a4.245,4.245,0,0,0-1.869.306,10.373,10.373,0,0,1-4.375.805c-2.125.141-4.272.141-6.229,1.17a19.7,19.7,0,0,0-4.966,1.147c-1.588.533-3.324.44-4.952,1.168-1.724.77-3.809.182-5.59,1.145-1.5.812-3.362.65-4.828,1.628-3.066.164-5.738,1.493-8.368,2.9A24.262,24.262,0,0,1,446,501.685c-4,1.405-8.014,2.748-11.957,4.331-4.32,1.735-8.54,3.83-13.152,4.788-1.47,1.047-3.372.631-4.876,1.365a13.594,13.594,0,0,1-4.985.94,6.941,6.941,0,0,0-1.854.43,7.962,7.962,0,0,1-2.454.638c-3.18.2-6.389,0-9.486,1.149a11.149,11.149,0,0,1-3.821.289c-4.706-.021-9.411-.138-14.117-.132-1.961,0-3.618-1.21-5.613-1.126a44.908,44.908,0,0,1-5.1-.329c-1.625-1.34-3.733-.726-5.537-1.365-2.2-.78-4.432-1.46-6.638-2.217a14.422,14.422,0,0,1-1.728-.816c-4.57-2.286-9.167-4.518-13.694-6.886a75.215,75.215,0,0,1-7.7-4.537c-1.592-1.091-3.251-2.035-4.893-3.022a21.214,21.214,0,0,1-2.647-1.768,22.382,22.382,0,0,0-3.7-2.473,17.729,17.729,0,0,1-4.719-3.27c-.9-.954-2.173-1.34-3.211-2.072-4.346-3.064-8.459-6.456-12.985-9.272a130.793,130.793,0,0,0-11.08-8.641c-1.023-.759-1.858-1.768-2.834-2.6-2.6-2.211-4.893-4.742-7.766-6.67a36.477,36.477,0,0,1-5.185-4.774c-3.775-3.786-7.445-7.68-11.273-11.412-1.4-1.365-2.045-3.219-3.473-4.555a17.96,17.96,0,0,1-3.28-3.92c-.994-1.693-2.592-2.871-3.536-4.534a23.573,23.573,0,0,0-3.033-4.1,12.737,12.737,0,0,1-1.355-2.139c-1.281-2.206-2.632-4.379-3.8-6.646-1.174-2.288-3.022-4.128-4.115-6.456a5.149,5.149,0,0,0-.74-1.047,90.637,90.637,0,0,1-9.27-13.754,7.818,7.818,0,0,0-.65-1.1c-4.287-5.34-7.23-11.571-11.319-17.039-4.469-7.762-9.6-15.094-14.686-22.454-2.418-3.5-4.826-7.005-7.29-10.472-.742-1.042-1.665-1.953-2.492-2.934-1.231-1.466-2.794-2.666-3.62-4.461-2.037-2.173-3.821-4.612-6.567-6.028a6.911,6.911,0,0,1-1.412-1.279,2.154,2.154,0,0,1-.166-2.383A8.156,8.156,0,0,1,185.463,324.334Z" transform="translate(60.624 0)"/><path d="M579.948,539.516c-1.162-.956-1.326-2.307-2.045-3.565,0-1.974-.006-4.109,0-6.244a6.74,6.74,0,0,1,.619-3.112,4.452,4.452,0,0,0,.369-1.214c.514-2.714-.317-5.591,1-8.209.147-2.557.31-5.111.432-7.67a6.243,6.243,0,0,0-.738-3.7,4.016,4.016,0,0,1-.2-3.716,13.744,13.744,0,0,0,.982-4.66c.531-1.514,2.55-1.443,2.29-3.354a43.946,43.946,0,0,0-2.555-4.851c-1.074-1.579-2.145-3.169-3.251-4.723-1.231-1.73-2.882-3.156-4.232-4.813-1.2-1.474-2.573-2.787-3.8-4.218-1.294-1.514-3.341-1.94-4.2-3.672-.443.183-.688.206-.742.321a10.02,10.02,0,0,0-1.279,2.894c-.26,2.152-1.437,3.983-1.766,6.13a55.589,55.589,0,0,1-1.621,6.8c-.346,1.219-.568,2.483-1.03,3.672a2.967,2.967,0,0,1-1.8,1.7c-.419.164-1.558-.422-1.59-.807-.084-1.063-.22-2.127-.227-3.19q-.022-4.492.048-8.983a15.725,15.725,0,0,1,.938-5.638c.684-1.739.428-3.758,1.518-5.489.726-1.154.048-2.5-1.225-3.186-.187-.1-.35-.285-.545-.329-2.72-.617-5.031-2.3-7.72-2.968-2.051-.51-3.968-1.55-6.168-1.51a4.061,4.061,0,0,1-1.835-.461,8.067,8.067,0,0,0-3.733-.753c-1.923-.008-3.849,0-5.774.006-4.736.017-4.744-.017-10.006,1.456a27.5,27.5,0,0,1-5.55,1.275,16.649,16.649,0,0,0-5.493,1.512,54.269,54.269,0,0,0-10.923,6.588,8.178,8.178,0,0,0-.914.99c-.755,1.711-.3,3.714-1.17,5.531-.812,1.7-.644,3.735-1.5,5.533-.617,1.294-.247,2.911-1.007,4.314a21,21,0,0,0-1.1,3.635c-.455,1.412-.984,2.8-1.456,4.205a4.84,4.84,0,0,0-.476,1.825c.239,2.534-1.107,4-3.167,5.052a3.027,3.027,0,0,1-2.154-3.437,22.153,22.153,0,0,1,1.172-6.25c.577-1.558.675-3.289,1.265-4.922.566-1.562.562-3.305,1.151-4.952a11.032,11.032,0,0,0,.4-5.7c-.034-.187-.237-.342-.426-.6-2.148.581-4.465.833-6.084,2.718a42.479,42.479,0,0,0-7.72,4.49c-.331.252-.61.575-1.04.981-.08,1.147-.143,2.422-.264,3.694a8.458,8.458,0,0,1-.4,2.5,12.246,12.246,0,0,0-.738,4.392c-.09,1.911.019,3.842-.866,5.655a4.643,4.643,0,0,0-.218,1.879c-.075,3.421-.153,6.841-.178,10.264a13.632,13.632,0,0,1-.858,5.654,5.228,5.228,0,0,0-.277,1.875q-.176,3.844-.294,7.7c-.061,2.127.212,4.3-.883,6.275-.141,2.343-.3,4.683-.413,7.028a17.9,17.9,0,0,1-.77,5.665,14.756,14.756,0,0,0-.384,4.434c-.08,1.915.027,3.826-.824,5.659a6.936,6.936,0,0,0-.3,2.51c-.1,2.135-.161,4.274-.245,6.409-.067,1.707.178,3.513-.31,5.092-.51,1.646-.554,3.41-1.2,4.941a16.9,16.9,0,0,0-.938,5.64c-.117,1.691.042,3.4-.828,5a6.269,6.269,0,0,0-.4,2.492c-.124,1.919-.174,3.844-.279,5.766a4.218,4.218,0,0,1-.254,1.873c-1.1,1.764-.877,3.708-.969,5.61a6.753,6.753,0,0,1-.717,3.083,3.161,3.161,0,0,0-.367,1.208c-.271,2.741-.17,5.537-1.286,8.144.289,3.689-1.3,7.1-1.586,10.722-.147,1.865-1.206,3.624-1.242,5.573-1.181,1.869-.789,4.2-1.724,6.105-.952,1.944-.306,4.316-1.764,6.089.147,2.626-1.42,4.872-1.63,7.439-.153,1.894-1.321,3.545-1.351,5.554-.027,1.665-1.214,3.157-1.168,4.937a3.472,3.472,0,0,1-.642,1.77c-1.625,2.569-1.971,5.585-3,8.36-.086,2.393-1.5,4.4-1.963,6.693a7.937,7.937,0,0,1-3.236,4.608,1.979,1.979,0,0,1-2.865.059,6.82,6.82,0,0,1-.94-.866,13.111,13.111,0,0,1-.8-1.2c.2-.881.5-1.865.646-2.871a16.084,16.084,0,0,1,1.141-2.968,23.241,23.241,0,0,1,.969-3.035,15.36,15.36,0,0,0,1.948-6.026c.1-1.464,1.556-2.586,1.353-4.2-.2-1.583,1.1-2.779,1.091-4.3-.01-1.548.793-2.853,1.158-4.279.417-1.636.2-3.427,1.181-4.939-.107-2.412,1.191-4.5,1.569-6.8s1.38-4.453,1.913-6.724a29.035,29.035,0,0,1,.984-4.329,19.215,19.215,0,0,0,1.028-4.327c.269-1.669.8-3.3,1.1-4.964.26-1.462.155-2.968.818-4.386a8.241,8.241,0,0,0,.464-2.494c.22-1.9.157-3.811.99-5.642a8.945,8.945,0,0,0,.359-3.156,10.388,10.388,0,0,1,.833-4.367,5.6,5.6,0,0,0,.367-1.862c.25-2.106-.052-4.308,1.112-6.252.111-1.491.233-2.982.329-4.476a16.092,16.092,0,0,1,.877-5.654,10.7,10.7,0,0,0,.392-3.161,11.623,11.623,0,0,1,.635-3.765,8.028,8.028,0,0,0,.51-2.479c.241-2.532-.065-5.12,1.1-7.55a6.849,6.849,0,0,0,.2-2.54c.1-2.565.18-5.13.279-7.7a4.837,4.837,0,0,1,.166-1.9c1.135-2.206.8-4.6,1.047-6.919.18-1.686.021-3.385.74-5.042a9.152,9.152,0,0,0,.292-3.163c.092-2.353.145-4.7.222-7.058a5.673,5.673,0,0,1,.124-1.911c1.361-3.276.885-6.732,1.11-10.117.141-2.116-.025-4.243.914-6.29a8.82,8.82,0,0,0,.3-3.171c.071-1.709.038-3.423.151-5.128.126-1.9-.117-3.817.787-5.667a8.774,8.774,0,0,0,.375-3.161,14.143,14.143,0,0,1,.826-4.375,10.217,10.217,0,0,0,.294-3.159c.038-.774-1.093-1.447-1.879-1.17a11.543,11.543,0,0,0-1.206.392c-3.651,1.737-7.318,3.444-10.931,5.256-1.709.858-3.266,2.037-5.258,2.213a8.608,8.608,0,0,1-4.889,1.219c-2.372,1.2-4.962,1.068-7.5,1.237a5.273,5.273,0,0,0-1.9.185c-2.63,1.311-5.453.866-8.2.988-2.347.1-4.7-.025-7.058-.034-3.635-.015-7.269,0-10.9-.025-3.186-.019-6.409.359-9.476-.975a6.012,6.012,0,0,0-1.9-.216c-1.909-.145-3.832-.117-5.61-1.057a4.234,4.234,0,0,0-1.89-.281,13.422,13.422,0,0,1-4.337-.914,20.55,20.55,0,0,0-4.44-.541c-2.009-1.411-4.664-.579-6.705-1.925a2.061,2.061,0,0,0-1.2-.361c-2.852.233-5.323-1.435-8.1-1.586a4.467,4.467,0,0,1-1.8-.549c-2.645-1.4-5.568-2.032-8.329-3.106-.39-.153-.852-.141-1.229-.315a34.21,34.21,0,0,0-6.491-2.588c-2.238-.535-4.35-1.651-6.584-2.347-2.632-.82-5.1-2.064-7.708-2.989a32.459,32.459,0,0,1-6.873-3.36c-4.283-2.806-8.949-4.874-13.385-7.37a119.912,119.912,0,0,1-10.659-7.049,87.627,87.627,0,0,1-10.621-9.241c-1.359-1.347-2.632-2.821-4.457-3.6-.753-1.332-2.049-2.1-3.127-3.11-1.38-1.29-2.385-2.922-4.016-4.031a29.7,29.7,0,0,1-3.75-3.492q-2.07-2.017-4.1-4.071c-2.4-2.441-4.983-4.734-7.116-7.389-3.224-4.012-6.976-7.5-10.453-11.252a33.321,33.321,0,0,1-3.358-3.876,39.7,39.7,0,0,0-4.144-4.868c-2.334-2.5-4.721-4.956-7.089-7.427-2.217-2.315-3.691-5.241-6.1-7.4-2.051-3.289-5.008-5.816-7.4-8.809-2.123-2.655-4.046-5.472-5.971-8.278-1.682-2.454-3.226-5.006-4.864-7.494s-3-5.147-4.616-7.66c-1.718-2.674-2.867-5.7-4.413-8.494-2.372-4.285-4.069-8.928-6.917-12.955-1.309-4.09-4.245-7.353-5.757-11.351a18.824,18.824,0,0,0-1.9-3.322c-3.2-5.027-6.449-10.019-9.608-15.071a58.361,58.361,0,0,1-3.033-5.615,53.02,53.02,0,0,0-8.377-12.022,81.044,81.044,0,0,0-7.2-7.307c-1.6-1.409-3.085-2.961-4.6-4.476-1.594-1.6-1.47-3.2.354-4.954a1.6,1.6,0,0,1,1.764-.365,11.871,11.871,0,0,1,3.41,1.724,48.322,48.322,0,0,0,4.941,4.054,7.441,7.441,0,0,1,2.215,2.29,22.87,22.87,0,0,0,3.693,4.413c3.96,3.96,6.9,8.633,9.715,13.423,2.156,3.668,4.2,7.4,6.623,10.915,1.567,2.274,2.469,4.971,4.339,7.068.958,2.649,2.781,4.78,4.293,7.089,1.288,1.967,2.146,4.136,3.255,6.172,1.015,1.862,2.114,3.689,3.085,5.583,2.137,4.167,4.339,8.305,6.384,12.519a83.448,83.448,0,0,0,6.414,11.021c1.7,2.458,2.8,5.237,4.612,7.651a39.16,39.16,0,0,1,4.448,7.007,8.5,8.5,0,0,0,1.453,2.087,55.1,55.1,0,0,1,5.738,6.881,12.673,12.673,0,0,0,1.288,1.426,77.538,77.538,0,0,1,6.281,7.257,48.133,48.133,0,0,0,5.623,6.145,103.236,103.236,0,0,1,7.662,8.6,105.309,105.309,0,0,0,7.471,7.932c3.6,3.656,7.19,7.332,10.931,10.841,1.73,1.623,2.429,4.115,4.56,5.3,2.11,1.174,3.563,3.047,5.3,4.614s3.343,3.31,5.029,4.952c1.837,1.789,3.675,3.584,5.568,5.315,1.407,1.288,2.611,2.812,4.453,3.616a8.305,8.305,0,0,1,1.961,1.63,84.06,84.06,0,0,0,16.718,11.684,70.156,70.156,0,0,1,6.693,3.7,11.171,11.171,0,0,0,4.052,1.831,3.667,3.667,0,0,1,1.732.74c1.472,1.365,3.41,1.676,5.109,2.51,1.361.669,2.915.6,4.214,1.47a23.3,23.3,0,0,0,3.45,1.632c3.484,1.565,7.2,2.469,10.776,3.794,1.789.665,3.765.908,5.447,1.755,1.537.774,3.23.973,4.753,1.808A17.622,17.622,0,0,0,368.423,483c1.663.355,3.4.384,4.891,1.351,1.525.067,2.842.885,4.274,1.216,2.471.575,4.8,1.737,7.437,1.69,1.269-.023,2.322,1.105,3.662,1.032,1.56-.084,2.84.9,4.3,1.116,1.474.22,2.985.182,4.476.289a2.8,2.8,0,0,1,1.227.279,8.037,8.037,0,0,0,4.323.952c8.555,0,17.11.025,25.665-.042,2.114-.017,4.27,0,6.244-1.1a3.567,3.567,0,0,1,1.892-.212c2.632.191,4.889-1.512,7.49-1.426,1.326-.677,2.714-1.258,3.964-2.055a20.073,20.073,0,0,1,6.273-3.06,95.8,95.8,0,0,1,11.7-5.036c1.583-.6,2.993-1.657,4.572-2.265,2-.77,3.284-2.831,5.6-2.966a63.081,63.081,0,0,1,6.072-3.5c1.934-.887,3.882-1.77,5.732-2.815,2.6-1.464,5.373-2.624,7.724-4.507,4.356-2.194,8.438-4.954,13.249-6.212a31.94,31.94,0,0,0,4.383-1.9c3.192.281,6.3-1.5,9.7-1.793a7.968,7.968,0,0,1,4.344-.816c2.972.1,5.992-.361,8.849.912a4,4,0,0,0,1.273.111c1.279.088,2.561.174,3.84.268a2.334,2.334,0,0,1,.629.1,9.365,9.365,0,0,0,1.187.478,75.216,75.216,0,0,1,8.553,2.443c1,.333,2.022.638,3.024.982a9.849,9.849,0,0,1,2.286,1.135c2.836,1.9,5.917,3.366,8.895,5.01a10.315,10.315,0,0,1,1.611,1.021c2.307,1.9,4.61,3.8,6.873,5.749,3.259,2.8,5.625,6.378,8.211,9.755a119.741,119.741,0,0,1,12.074,20.265,98.856,98.856,0,0,0,5.759,9.922c.233.359.564.659.763,1.032,1.709,3.2,3.5,6.344,6.292,8.771,1.466,3.219,4.237,5.308,6.68,7.672s4.643,5.036,7.662,6.76c3.19,3.217,7.322,5.128,10.864,7.854,1.219.938,2.892.711,4.065,1.783a9.194,9.194,0,0,0,4.012,1.839,20.148,20.148,0,0,1,4,1.974c3.012,1.613,6.477,2.125,9.413,3.909,3.712.189,6.737,2.575,10.306,3.234.61.113,1.162.663,1.76.7a23.612,23.612,0,0,1,5.529,1.458c1.026.315,1.974.8,2.98,1.08a11.523,11.523,0,0,0,3.184.3c1.357-.011,2.364,1.026,3.645,1.112,2.984.2,5.747,1.554,8.79,1.544,1.451-.006,2.72,1.154,4.3,1.089a9.918,9.918,0,0,1,4.344.94,9.423,9.423,0,0,0,2.529.25c1.684.193,3.4.107,5,.929a6.423,6.423,0,0,0,2.5.386c2.135.12,4.276.13,6.407.283,1.9.138,3.637,1.078,5.629.952,2.127-.134,4.274.073,6.414.13a49.6,49.6,0,0,0,5.77.09c1.917-.178,3.672,1.017,5.581.436a7.2,7.2,0,0,0,3.746.587q7.381.164,14.757.333a19.591,19.591,0,0,1,5.684.682,15.624,15.624,0,0,0,4.448.3q15.4.192,30.8.344a10.49,10.49,0,0,1,4.4.568,6.823,6.823,0,0,0,2.506.356c2.779.1,5.56.168,8.339.222a10.837,10.837,0,0,1,4.381.745c1.4.631,2.951.319,4.434.449,1.263.109,2.578-.149,3.769.505,1.869,1.032,4.146.977,5.931,2.246a1.67,1.67,0,0,1,.5,1.68,5.133,5.133,0,0,1-4.4,3.245c-4.5.4-8.972-.046-13.454-.262-2.748-1.709-5.852-.843-8.786-1.183a14.823,14.823,0,0,1-4.383-.7,6.8,6.8,0,0,0-2.521-.233c-3.846-.052-7.693-.073-11.539-.109q-12.191-.11-24.384-.235a6.687,6.687,0,0,1-2.527-.243,14.032,14.032,0,0,0-5.669-.8c-4.274-.061-8.553-.052-12.83-.1q-3.847-.041-7.7-.172a7.579,7.579,0,0,1-2.5-.367,9.94,9.94,0,0,0-3.752-.659q-4.813-.032-9.625-.128c-2.334-.05-4.711.206-6.921-.9a4.028,4.028,0,0,0-1.254-.168c-2.318-.289-4.765.275-6.948-.8-1.957-.958-4.293-.254-6.151-1.607a3.982,3.982,0,0,0-1.875-.313c-1.279-.109-2.561-.174-3.84-.256-2-1.5-4.614-.715-6.728-1.833a5.262,5.262,0,0,0-1.856-.4c-2.108-.229-4.3.046-6.237-1.137a27.873,27.873,0,0,1-10.422-2.657c-2.441.038-4.5-1.139-6.642-2.07a4.8,4.8,0,0,0-1.8-.568c-1.779.006-3.255-1-4.912-1.313-2.552-.472-4.656-2.032-7.158-2.682a28.259,28.259,0,0,1-6.512-2.487c-2.236-1.229-4.593-2.234-6.856-3.417a45.228,45.228,0,0,1-6.091-3.482,16.365,16.365,0,0,0-2.775-1.577,21.324,21.324,0,0,1-3.666-2.519c-5.478-4.142-10.218-9.071-15.061-13.893-.908-.9-1.823-1.8-2.752-2.687a1.064,1.064,0,0,0-.589-.231c-.352-.042-.648.231-.713.751-.266,2.1-.132,4.241-1.068,6.279-.411.9-.138,2.106-.18,3.173-.1,2.563-.206,5.126-.308,7.649l-.937,1.986a18.741,18.741,0,0,1,.805,2.869,30.076,30.076,0,0,1,.113,3.844c.006,5.776-.008,11.55.008,17.326a11.524,11.524,0,0,1-.589,3.754,12.83,12.83,0,0,0-.39,3.777c-.1,5.986-.153,11.974-.218,17.962-.019,1.913.214,3.838-.935,5.6a2.182,2.182,0,0,0-.01,1.869c.688,1.275.271,2.414.013,3.658a16.93,16.93,0,0,0-.126,3.2c-.08,5.774-.164,11.55-.218,17.326a11.937,11.937,0,0,1-.759,4.367,11.056,11.056,0,0,0-.48,3.775c-.065,3.421.057,6.846-.076,10.262-.09,2.309.464,4.734-.889,6.888-.063,1.065-.162,2.131-.18,3.2-.061,3.421-.059,6.844-.151,10.264a8.025,8.025,0,0,1-.493,3.121,10.365,10.365,0,0,0-.774,4.367c-.042,1.925-.155,3.849-.159,5.772,0,1.527-1.086,2.762-.971,4.346a29.169,29.169,0,0,1-.18,4.482,5.051,5.051,0,0,1-.484,1.835,6.577,6.577,0,0,0-.768,3.07,8.272,8.272,0,0,1-.86,4.344,4.738,4.738,0,0,0-.3,1.871c-.182,2.118-.191,4.232-1.12,6.256a9.382,9.382,0,0,0-.315,3.173,12.243,12.243,0,0,1-1.057,3c-.4,1.208-.086,2.582-.745,3.74a11.866,11.866,0,0,0-.977,3.029,16.025,16.025,0,0,1-1.179,2.961c-1.026,2.1-2.32,4.081-2.7,6.451-1.221,2.032-1.6,4.375-2.286,6.586-.388,1.24-1.036,2.324-1.487,3.511-.4,1.065-2.353,1.336-3.352.575a3.1,3.1,0,0,1-1.319-2.1,8.174,8.174,0,0,1,.294-3.786c1.336-3.8,2.511-7.651,3.851-11.445s2.578-7.632,3.821-11.466a32.945,32.945,0,0,0,.9-3.7c.254-1.237.938-2.4,1.074-3.639a30.984,30.984,0,0,1,1.145-4.289,24.394,24.394,0,0,0,.306-4.469,3.166,3.166,0,0,1,.18-1.26c1.166-2.19.866-4.578,1.015-6.907a12.609,12.609,0,0,1,.881-5.008,6.667,6.667,0,0,0,.378-2.51c.1-1.707.138-3.419.182-5.13a22.168,22.168,0,0,1,.648-5.051,32.425,32.425,0,0,0,.535-5.719c.182-2.536-.224-5.122.919-7.573a6.791,6.791,0,0,0,.18-2.542c.1-3.637.138-7.274.287-10.908.1-2.326-.344-4.727.812-6.936.092-2.135.235-4.268.264-6.405.088-6.2.115-12.406.2-18.61.031-2.334-.277-4.719.812-6.934.067-1.491.178-2.982.2-4.476q.179-15.079.327-30.162c.015-1.5.12-3,.021-4.49-.088-1.334.608-2.477.7-3.727s-.818-2.4-.694-3.733c.1-1.059-.182-2.244.2-3.171a14.812,14.812,0,0,0,.686-5.675q.069-6.1.147-12.194a29.327,29.327,0,0,1,.153-3.844c.216-1.462.751-2.875.984-4.337s.214-2.989.42-4.467a11.713,11.713,0,0,1,.707-1.779,4.935,4.935,0,0,0-.608-4.843c-2.46-3.242-3.855-7.1-5.921-10.566-.176-.3-.671-.185-1.032.185a3.288,3.288,0,0,0-.757,1c-.627,1.592-.323,3.4-1.11,4.979-.138.277.216.77.264,1.17.1.837.453,1.814.157,2.494a19.587,19.587,0,0,0-1.072,5.638,18.658,18.658,0,0,1-.457,1.854,20.025,20.025,0,0,0-.533,2.481c-.256,2.531.143,5.162-1.2,7.519-.078,1.281-.138,2.563-.233,3.84a7.591,7.591,0,0,1-.264,1.9,3.471,3.471,0,0,1-.994,1.6A4.563,4.563,0,0,1,579.948,539.516Z" transform="translate(32.925 90.233)"/><path d="M406.743,358.982c.025.237.107.875.159,1.512.484,5.938.333,5.745-5.076,8.268-5.537.115-11.3.262-17.06.329a13.83,13.83,0,0,1-3.131-.472,2.557,2.557,0,0,1-1.563-2.529,2.37,2.37,0,0,1,1.516-1.892,8.269,8.269,0,0,1,2.49-.482c1.919-.059,3.842.023,5.764,0a4.2,4.2,0,0,0,2.548-.487,6.161,6.161,0,0,0-.893-1.571,15.417,15.417,0,0,0-2.982-2.4q-4.181-2.315-8.513-4.346a15.829,15.829,0,0,0-4.8-1.6,19.875,19.875,0,0,1-5.4-1.8c-1.573-.694-3.415-.464-4.845-1.539-1.487-.111-2.972-.287-4.461-.315a14.2,14.2,0,0,1-4.331-.919c-1.781-.6-3.859-.107-5.516-1.342-1.919-.082-3.842-.1-5.755-.26-3.152-.268-6.367.319-9.47-.73-.331-.111-.927.413-1.187.266-1.378-.782-2.926-.5-4.36-.845a4.837,4.837,0,0,1-1.154-.526,2.187,2.187,0,0,1-.237-3.723c1.032-.73,2.173-1.309,3.362-2.011,2.089,0,4.218-.008,6.347.006a5.312,5.312,0,0,1,1.909.134c2.852,1.17,5.887.778,8.83,1.137a9.687,9.687,0,0,1,2.481.5,10.032,10.032,0,0,0,3.11.629c1.9.143,3.857.044,5.612,1.023,3.033-.166,5.786,1.179,8.706,1.655,2.5.409,4.87,1.489,7.471,1.485.382,0,.751.38,1.147.537,2.561,1.015,5.162,1.94,7.685,3.043,2.337,1.021,4.591,2.229,6.936,3.381,1.479-.992,1.33-2.974,2.641-4.367l2.523-1.225c1.638,1.275,3.169,2.424,4.646,3.645a8.167,8.167,0,0,1,1.168,1.449A23.026,23.026,0,0,1,406.743,358.982Z" transform="translate(220.451 163.37)"/><path d="M269.549,358.772c-.1-.549-.254-1.168-.325-1.8-.279-2.46,2.171-3.983,4.144-3.633a14.242,14.242,0,0,1,1.848.436,11.171,11.171,0,0,0,1.772.686c1.265.164,2.561.092,3.823.264,1.2.164,2.336.9,3.616.409a7.571,7.571,0,0,0,3.729.682c1.279.04,2.559.067,3.838.059,4.478-.021,8.953-.019,13.429-.109,2.531-.052,5.13.266,7.5-1.017,1.275-.1,2.55-.18,3.823-.294a1.672,1.672,0,0,0,1.521-1.722c.063-.843.023-1.7.134-2.532a3.34,3.34,0,0,1,2.238-2.078,9.152,9.152,0,0,1,1.907-.128c2.729.306,5.539-.023,8.152,1.235a6.148,6.148,0,0,0,2.527.247c2.2,0,4.06,1.147,6.076,1.758,1.3.392,2.083,2.2,1.881,3.71a8.863,8.863,0,0,1-4.235,6.785c-2.727,1.644-5.168,3.719-7.934,5.266-1.212.677-1.726,1.841-2.682,2.653l-3.792,1.1a8.409,8.409,0,0,1-1.326-1.08,2.846,2.846,0,0,1,.017-3.542c1.382-1.326,2.806-2.611,4.237-3.886a4.237,4.237,0,0,0,1.539-1.974c-.143-.115-.273-.31-.438-.346a11.454,11.454,0,0,0-6.873.331c-1.214.5-2.525.474-3.7.923a21.228,21.228,0,0,1-7.509,1.1c-8.314.094-16.628.073-24.939.159-3.7.04-7.1-1.235-10.669-1.69C271.829,360.049,270.485,359.846,269.549,358.772Z" transform="translate(156.416 172.609)"/><path d="M461.278,408.3c.006-.954-.774-1.367-1.367-1.839a9.807,9.807,0,0,1-3.19-5.367,1.472,1.472,0,0,1,.015-.633c.266-1.5,2.995-2.571,4.205-1.659a6.285,6.285,0,0,1,1,.78,17.063,17.063,0,0,0,8.509,5.348,12.825,12.825,0,0,1,7.125,5.1,1.97,1.97,0,0,1,.065,2.349,30.6,30.6,0,0,1-2.917,4.144c-1.325,1.378-3.222,1.993-4.946,2.81a20.922,20.922,0,0,1-4,1.927c-1.449.329-2.8.973-4.465,1.223-.608-.287-1.378-.627-2.129-1.009a2.308,2.308,0,0,1-.979-3.217,14.157,14.157,0,0,1,1.521-1.873l3.991-.449c-.174-.241-.245-.438-.331-.445-2.536-.205-5.071-.447-7.611-.56a10.068,10.068,0,0,1-3.725-.669,7.156,7.156,0,0,0-2.5-.352c-2.131-.1-4.264-.13-6.395-.2a7.37,7.37,0,0,1-3.693-.831,2.246,2.246,0,0,0-1.206-.359c-1.967.115-3.716-.768-5.575-1.128s-3.815-.323-5.587-1.221a4.975,4.975,0,0,0-1.892-.252,11.784,11.784,0,0,1-3.693-.845,34.6,34.6,0,0,0-4.32-.944A31.389,31.389,0,0,1,413.558,407c-1.187-.457-2.307-1.078-3.48-1.575a9.922,9.922,0,0,1-4.769-4.222,5.921,5.921,0,0,1-.071-1.8c.472-1.818,2.439-2.94,3.947-2.187a62.861,62.861,0,0,0,6.265,3.083,5.463,5.463,0,0,0,2.41.717c2.248-.258,4.079.944,6.07,1.584a19.082,19.082,0,0,0,2.4.807c1.663.294,3.377.153,4.977.967,1.705.868,3.742.411,5.541,1.376,1.439.774,3.32.367,4.925,1.154a10.088,10.088,0,0,0,3.123.453c2.515.3,5.149-.245,7.521,1.059A40.277,40.277,0,0,0,461.278,408.3Zm9.228,4.136c-.021-.478-.229-.793-.629-.812a.849.849,0,0,0-.573.256c-.627.646-.856,1.4-.484,1.56a1.8,1.8,0,0,0,1.147.048A.848.848,0,0,0,470.507,412.437Z" transform="translate(305.628 226.373)"/><path d="M349.5,356.512c.006-1.661-1.275-2.311-2.016-3.31a4.217,4.217,0,0,1-.743-3.024,3.894,3.894,0,0,1,1.544-2.693,2.623,2.623,0,0,1,2.98-.268c.673.52,1.3,1.093,1.955,1.644a7.563,7.563,0,0,0,3.943,1.942c1.456.2,2.718,1.191,4.268,1.2,1.374.01,2.334.908,3.347,1.7,2.051,1.611,1.625,5.065.466,6.353a23.779,23.779,0,0,1-7.569,5.772c-2.5,1.177-4.964,2.425-7.443,3.639a2.62,2.62,0,0,1-2.859-.839,9.521,9.521,0,0,1-.795-1.72,1.545,1.545,0,0,0-1.617-.652c-.369.21-.751.4-1.1.642a115.473,115.473,0,0,1-15.667,8.488c-.963.449-1.879,1-2.852,1.426-1.777.776-3.165,2.272-4.906,2.951a53.69,53.69,0,0,0-5.285,2.129,37.816,37.816,0,0,1-5.866,2.416A15.628,15.628,0,0,1,305,385.384c-1.065.034-2.131.088-3.2.12a3.648,3.648,0,0,1-3.79-4.121,2.319,2.319,0,0,1,1.716-2.357c2.213-.736,4.394-1.554,6.814-1.311,1.294.128,2.441-.6,3.656-.931,3.293-.906,6.294-2.506,9.48-3.651a34.937,34.937,0,0,0,4.61-2.169c1.686-.9,3.27-2,4.966-2.875,1.5-.776,3.146-1.271,4.635-2.062,2.246-1.2,4.451-2.483,6.6-3.842,2.339-1.477,4.727-2.85,7.165-4.157A11.512,11.512,0,0,0,349.5,356.512Z" transform="translate(188.005 171.386)"/><path d="M387.241,371.407a3.814,3.814,0,0,1,.7.453c1.59,1.76,8.93,8.964,10.577,10.134a46.155,46.155,0,0,0,5.382,3.389c5.3,2.75,10.159,6.221,15.327,9.18a17.913,17.913,0,0,1,2.98,2.4,10.888,10.888,0,0,0,3.935,2.076c.6-.717.369-1.6.5-2.418.283-1.816,1.063-2.424,3.106-2.4a9.359,9.359,0,0,1,1.479.279,36.308,36.308,0,0,1,3.475,3.463c1.164,1.485,1.875,3.285,3.37,4.581a42.569,42.569,0,0,1,3.536,3.708,2.829,2.829,0,0,1-.029,3.538c-2.129,2.232-4.56,3.838-7.8,3.779a16.707,16.707,0,0,0-4.973.969,20.232,20.232,0,0,1-7.494.466,3.573,3.573,0,0,1-2.135-2.383.969.969,0,0,1,.313-1.133c.91-.541,1.858-1.019,2.93-1.6l4.761-.367a.77.77,0,0,0-.013-1.189,10.78,10.78,0,0,0-2.429-2.049c-4.442-2.131-8.264-5.222-12.335-7.911-2.143-1.418-4.549-2.318-6.609-3.859-1.873-1.4-3.851-2.672-5.826-3.932-.893-.568-1.94-.9-2.831-1.474a45.537,45.537,0,0,1-7.748-5.621,16.54,16.54,0,0,0-3.356-2.951,9.592,9.592,0,0,1-3.677-4.3,3.3,3.3,0,0,1,2.515-4.815A19.934,19.934,0,0,1,387.241,371.407Z" transform="translate(280.165 198.281)"/><path d="M196.576,218.024,198,215.369a3.448,3.448,0,0,1,2.483-.736,2.949,2.949,0,0,1,3.037,1.869c.092.191.18.386.338.719.082,1.986.124,4.119.287,6.244a3.921,3.921,0,0,0,.726,1.707c.214.325.8.774.994.684,1.8-.822,3.79-.516,5.617-1a28.242,28.242,0,0,0,4.071-1.726,2.177,2.177,0,0,0,.74-1.632c-1.019-2.259-.329-4.641-.606-6.8.526-1.118.927-2.108,1.458-3.026a1.5,1.5,0,0,1,1.04-.623,13.971,13.971,0,0,1,2.527.078,1.523,1.523,0,0,1,1.206,1.3,32.825,32.825,0,0,0,1.563,8.083c1.1.975,2.718,1.21,3.624,2.475.357.5.69,1.013,1,1.474l-1.124,2.425c-.887.529-1.818,1.017-2.668,1.621-.3.216-.667.835-.562,1.061.933,2,.417,4.285,1.168,6.244.682,1.785.912,3.706,1.854,5.415a4.747,4.747,0,0,1,.245,2.5,3.443,3.443,0,0,1-2.2,2.9,2.207,2.207,0,0,1-2.412-.346c-.933-.858-1.791-1.8-2.494-2.511-.615-1.9-.623-3.6-1.3-5.218-.552-1.323-.409-2.926-.663-4.388a6.907,6.907,0,0,0-.688-1.755,2.107,2.107,0,0,0-2.127-1.042c-1.72.182-3.027,1.638-4.83,1.51a9.353,9.353,0,0,1-5.445,1.061c-.31.48-.7.814-.734,1.181-.268,2.563-.3,5.1.979,7.477a3.424,3.424,0,0,1,.264,1.244,3.923,3.923,0,0,1-1.072,3.521c-.619.573-1.275,1.105-2.009,1.737-.818-.373-1.59-.673-2.309-1.072-.352-.2-.812-.541-.864-.875-.327-2.087-1.487-3.918-1.414-6.17.149-4.688-.017-9.386-.084-14.079a43.515,43.515,0,0,0-.239-4.469C197.214,220.964,196.861,219.528,196.576,218.024Z" transform="translate(76.72 22.316)"/><path d="M293.637,379.73c-2.127.126-3.828.229-5.157.306a7.949,7.949,0,0,1-4.159-2.292,4.139,4.139,0,0,1,.646-3.658,6.373,6.373,0,0,0-3.11-.562c-1.7-.141-3.425-.113-4.983-.977a2.1,2.1,0,0,0-.615-.155c-1.867-.348-3.832-.059-5.6-1.091-1.491-.868-3.333-.371-4.946-1.149a38.5,38.5,0,0,0-5.415-1.81,46.558,46.558,0,0,1-12.089-5.558c-2.29-1.516-4.87-2.586-7.259-3.966a2.763,2.763,0,0,1-1.51-2.733c.363-.642.751-1.405,1.216-2.118a1.951,1.951,0,0,1,1.565-.956c.633-.029,1.269-.006,1.766-.006a4.96,4.96,0,0,1,1.273.6,23.522,23.522,0,0,0,5.222,3.635c2.445,1.286,4.925,2.492,7.422,3.662a6.565,6.565,0,0,0,1.728.8,12.218,12.218,0,0,1,4.872,1.428c1.529.031,2.844.988,4.283,1.139,2.58.275,4.836,1.558,7.336,2.022a14.338,14.338,0,0,0,1.8.575c2.127.086,4.26.065,6.391.057.18,0,.361-.214.564-.346-.241-.254-.434-.613-.726-.732a2.332,2.332,0,0,1-1.43-1.955,3.275,3.275,0,0,1,.726-2.982,16.683,16.683,0,0,1,1.56-1.277c2.607.755,5.241,1.518,7.88,2.278a3.434,3.434,0,0,1,.621.138q5.109,2.621,10.2,5.271a2.164,2.164,0,0,1,.7,2.294,7.4,7.4,0,0,1-1.191,2.217c-1.449,1.571-3.605,2.213-5.08,3.834C296.856,377.064,295.31,378.237,293.637,379.73Z" transform="translate(123.74 178.112)"/><path d="M483.3,408.577c1.017-2.609,4.018-2.267,5.6-3.964-.069-.138-.109-.367-.212-.4-4.679-1.521-4.681-1.527-8.677-1.693-1.913-.08-3.821.04-5.635-.889a7.181,7.181,0,0,0-2.515-.344c-2.731-.262-5.575.3-8.146-1.124-1.491-.107-2.982-.258-4.476-.31a10.659,10.659,0,0,1-3.744-.638,10.781,10.781,0,0,0-3.133-.449c-2.112-.17-4.274.1-6.269-.967a4.688,4.688,0,0,0-1.885-.262c-1.493-.086-3.005-.011-4.478-.229-1.244-.182-2.426-.753-3.664-1.028-.824-.182-1.705-.1-2.55-.22a5.906,5.906,0,0,1-4.123-2.729,1.929,1.929,0,0,1,.218-2.349,3.562,3.562,0,0,1,2.785-1.336,9.14,9.14,0,0,1,3.167.344c2.024.929,4.136.927,6.254,1.084s4.255-.071,6.273.958a6.8,6.8,0,0,0,2.529.258c2.122.128,4.264.036,6.267,1.021a5.547,5.547,0,0,0,1.894.239,20.348,20.348,0,0,1,5.646.967c1.338.508,2.945.329,4.434.428a17.724,17.724,0,0,1,5.654.83,12.742,12.742,0,0,0,3.788.386c2.129.147,4.258.266,6.386.4,2.418,1.206,4.994.845,7.462.862.344-.415.734-.694.856-1.061a3.846,3.846,0,0,1,4.419-2.836c.843.069,1.686.172,2.38.243a19.6,19.6,0,0,1,4.329,4.037,2.567,2.567,0,0,1,.417,2.435,25.687,25.687,0,0,1-1.56,3.484,2.1,2.1,0,0,1-.885.9,117.427,117.427,0,0,1-16.512,6.6,1.29,1.29,0,0,1-1.093-.459A19.2,19.2,0,0,1,483.3,408.577Z" transform="translate(331.866 218.326)"/><path d="M354.035,512.124c-.971,2.041-1.693,3.58-2.435,5.107a2.152,2.152,0,0,1-2.594,1.29,1.494,1.494,0,0,1-1.277-1.2,3.987,3.987,0,0,1,.319-3.1c1.072-1.663,1.042-3.658,1.835-5.418.5-1.114.321-2.517.585-3.763s.812-2.414,1.019-3.654a33.114,33.114,0,0,0,.216-3.828,1.741,1.741,0,0,1,.073-.633c1.286-2.8,1.145-5.8,1.288-8.769,1.351-3.458,1.112-7.106,1.267-10.707,1.143-2.393,1.089-4.95.971-7.5-.015-.315-.378-.615-.577-.916l-3.918,1.737c-.518-.258-.9-.438-1.277-.642-1.877-1.019-2.311-2.368-1.246-4.115a24.35,24.35,0,0,1,2.177-3.142,23.894,23.894,0,0,0,3.742-6.611c1.286-3.131,2.8-6.174,4.3-9.209a3.554,3.554,0,0,1,4.461-1.468,1.968,1.968,0,0,1,1.013.7c.531.917.944,1.9,1.395,2.844.082,1.506.258,3,.224,4.488a25.922,25.922,0,0,0,1.376,8.121,25.027,25.027,0,0,1,1.369,6.181,12.943,12.943,0,0,0,.69,2.609,10.3,10.3,0,0,1-1.03,1.334,1.856,1.856,0,0,1-2.338-.015,29.106,29.106,0,0,1-2.368-2.991c-.774-1.2-1.372-2.506-2.1-3.865-.2.367-.378.547-.39.742-.157,2.122-.269,4.247-.434,6.37-.132,1.688.378,3.469-.386,5.052s-.447,3.4-1.135,4.956a11.719,11.719,0,0,0-.768,4.36c-.088,1.909-.287,3.811-.438,5.715-1.038,1.5-1.028,3.2-.99,4.918.015.64-.01,1.282-.013,1.921a8.946,8.946,0,0,1-.652,3.09A24.669,24.669,0,0,0,354.035,512.124Z" transform="translate(242.406 279.43)"/><path d="M260.334,352.949c.843-1.212,1.206-2.672,2.009-3.907a2.685,2.685,0,0,1,3.463-.373,11.688,11.688,0,0,1,2.641,3.559,36.327,36.327,0,0,0,4.451,7.714c1.292,1.546.881,3.651,1.961,5.05a6.816,6.816,0,0,1-3.612,2.141,30.144,30.144,0,0,0-3.62-.944,14.644,14.644,0,0,1-3.643-1.065,66.732,66.732,0,0,0-7.752-2.806,25.422,25.422,0,0,1-3.561-1.342c-1.846-.818-2.422-2.2-1.827-4.182.061-.2.229-.365.3-.564.136-.373.239-.759.357-1.139-.117-.18-.193-.424-.357-.529a59.689,59.689,0,0,1-8.375-6.877c-.935-.862-2.009-1.571-2.995-2.38-.824-.677-1.651-1.361-2.414-2.1q-8.724-8.491-17.414-17.018a14.711,14.711,0,0,1-1.2-1.485,1.957,1.957,0,0,1,.038-1.814,3.56,3.56,0,0,1,3.163-1.82c.635.017,1.269.151,2.064.252,4.174,3.811,8.209,7.92,12.242,12.032,3.14,3.2,6.258,6.42,9.423,9.6,2.422,2.429,5.327,4.258,8.029,6.338C256.106,350.157,257.746,352.4,260.334,352.949Z" transform="translate(100.827 143.07)"/><path d="M388.812,269.087a9.226,9.226,0,0,1,.738-1.036,76.058,76.058,0,0,0,5.25-5.615c1.416-1.852,3.1-3.452,4.5-5.3a27.326,27.326,0,0,1,2.143-2.378,13.076,13.076,0,0,0,2.752-3.507,8.036,8.036,0,0,1,1.5-2.055c3.672-3.886,6.464-8.433,9.576-12.737,1.867-2.582,3.54-5.3,5.3-7.964a1.336,1.336,0,0,0-.583-1.611c-1.191-.466-2.408-.875-3.578-1.386-.969-.422-1.269-2.521-.535-3.427,1.091-1.351,2.288-2.525,4.163-2.678,3.3-.268,6-2,8.693-3.687s5.321-3.5,7.97-5.25l2.689,1.474a7.814,7.814,0,0,1,.552,4.633,13.6,13.6,0,0,1-.986,2.649c-.145,2.039-.31,4.381-.47,6.628a5.719,5.719,0,0,1-2.6,1.936,2.055,2.055,0,0,1-2.777-.778c-.363-.518-.61-1.116-.935-1.663-.535-.9-1.567-1.122-1.961-.319-.963,1.963-3.305,2.674-4.111,4.732a28.522,28.522,0,0,0-4.937,6.661c-2.657,4.369-5.82,8.349-8.87,12.422q-.953,1.277-1.89,2.567a8.159,8.159,0,0,1-1.105,1.558c-3.131,2.628-4.767,6.525-7.88,9.188a14.271,14.271,0,0,0-3.286,3.9c-1.258,2.328-3.209,3.97-4.948,5.835a6.968,6.968,0,0,1-1,.8,1.728,1.728,0,0,1-1.81.117,2.606,2.606,0,0,1-1.732-2.445A9.219,9.219,0,0,1,388.812,269.087Z" transform="translate(287.487 21.694)"/><path d="M319.4,472c-1.214,1.034-2.309,2-3.444,2.907a3.853,3.853,0,0,1-1.135.514,3.169,3.169,0,0,1-.755.05l-2.485-1.43c-.826-.862-.606-1.732-.568-2.821.585-.64,1.29-1.424,2.011-2.194a27.382,27.382,0,0,0,3.207-3.951c1.894-2.963,3.5-4.388,7.286-7.328a15.215,15.215,0,0,1,2.391-.111,3.4,3.4,0,0,1,1.737.654,6.884,6.884,0,0,1,2.374,2.959c.424,1.2,1.235,2.211,1.393,3.547.195,1.672,1.542,3.029,1.37,4.86-.143,1.525,1.112,2.743,1.057,4.306a36.135,36.135,0,0,0,.174,3.834,16.531,16.531,0,0,0,.613,3.121,25.889,25.889,0,0,1,.424,10.143,1.424,1.424,0,0,1-2.024.8c-.508-.361-1.219-.784-1.326-1.288-.436-2.068-1.5-3.974-1.51-6.152-.006-1.277-.172-2.555-.266-3.83-1.346-2.022-.692-4.631-1.978-6.684-.562-.9-.164-2.146-1.105-3.081l-1.806,3.161c-.134,2.42-.136,4.776-1.24,6.928a28.752,28.752,0,0,1-1.221,4.925c-.434,1.617-.365,3.32-1.091,4.948-.495,1.105-.308,2.517-.413,3.792-.088,1.063-.155,2.127-.231,3.19-1.426,2-.635,4.652-1.971,6.676-.237,2.135-1.636,3.937-1.76,6.107a2.173,2.173,0,0,1-.254.579,2.894,2.894,0,0,1-3.127,1.64,1.88,1.88,0,0,1-1.663-1.648,13.456,13.456,0,0,1,.325-3.777,28.321,28.321,0,0,0,1.216-4.266,21.214,21.214,0,0,1,1.29-4.241,14.1,14.1,0,0,0,1.21-5.56c-.034-1.737,1.254-3.144,1.214-4.92a9.429,9.429,0,0,1,.8-4.358,7.578,7.578,0,0,0,.38-2.5,12.169,12.169,0,0,1,.789-3.723A8.578,8.578,0,0,0,319.4,472Z" transform="translate(202.236 292.913)"/><path d="M396.817,387.378c.107,2.9.2,5.455.294,7.943a43.393,43.393,0,0,1,3.362,8.322,4.066,4.066,0,0,1-1.2,4.606c-.153.147-.315.287-.478.424-1.059.881-2.288,1.351-3.519.606-1.485-.9-3.194-1.107-4.727-1.844a19.794,19.794,0,0,0-3.068-.68A3.13,3.13,0,0,1,386.087,402c.262-.329.627-.577.914-.889s.537-.654.866-1.063c-1.37-2.785-2.5-5.757-4.857-8a1.925,1.925,0,0,1-.4-.493,41.256,41.256,0,0,0-7.1-9.748,10.876,10.876,0,0,0-4.36-4.532,8.462,8.462,0,0,1-1.5-1.193,38.127,38.127,0,0,0-11.026-7.465,4.976,4.976,0,0,1-1.9-1.625,1.787,1.787,0,0,1,.122-2.313,2.879,2.879,0,0,1,.432-.47c.333-.26.688-.491,1.149-.814h3.729a40.274,40.274,0,0,1,14.715,9.8c1.657,1.657,3.226,3.4,4.931,5.01,1.89,1.781,2.919,4.174,4.564,6.126.814.969,1.38,2.143,2.164,3.142a8.367,8.367,0,0,0,1.648,1.229l.646-2.536c.68-1.238,2.208-1.2,2.857-2.083.919,0,1.558.122,1.9.719C396.008,385.547,396.326,386.342,396.817,387.378Z" transform="translate(252.055 189.526)"/><path d="M204.838,302.4c.518,2.24.57,4.149,1.174,6,.583,1.789.264,3.777,1.049,5.631a10.313,10.313,0,0,1,.342,3.79,8.36,8.36,0,0,1-1.841,4.662,2.468,2.468,0,0,1-1.575,1c-1.906.187-3.84.319-5.6-.774-.722-.449-1.56-.717-2.248-1.2-2.947-2.091-5.856-4.23-8.681-6.282a2.891,2.891,0,0,1,.12-3.14,3.355,3.355,0,0,1,3.458-1.149,2.8,2.8,0,0,1,1.177.468c.472.359.8.371,1.047-.168a.724.724,0,0,0-.017-.591,54.346,54.346,0,0,0-3.524-5.287,50.058,50.058,0,0,1-3.689-5.214c-3.18-5.04-6.953-9.681-9.933-14.853-1.063-1.848-2.75-3.2-3.878-5.053a35.352,35.352,0,0,0-4.146-4.767,9.662,9.662,0,0,1-.375-1.292c-.153-1.086-.138-2.223.885-2.867a4.037,4.037,0,0,1,4.2.5,6.683,6.683,0,0,1,.914.889c2.351,3.287,4.6,6.651,7.213,9.742a4.486,4.486,0,0,1,.768,1.019,32.214,32.214,0,0,0,5.3,7.926c1.8,2.118,2.716,4.83,4.692,6.831,1.8,1.82,2.819,4.253,4.746,6,.935.847,1.076,2.33,2.146,3.142.172.128.373.373.52.346.4-.073.577-.432.539-.914a1.324,1.324,0,0,0-.113-.617c-1.208-1.755-.2-3.24.558-4.753a1.906,1.906,0,0,1,1.669-.679,4.214,4.214,0,0,1,.594.245C203.074,301.4,203.808,301.819,204.838,302.4Z" transform="translate(44.953 88.057)"/><path d="M214.01,313.406c.164-1,.306-1.613.354-2.236a1.775,1.775,0,0,1,.933-1.539c.747-.386,1.552-.652,2.359-.981a11.317,11.317,0,0,1,1.577,1.139,8.8,8.8,0,0,1,.969,1.391,7.588,7.588,0,0,1,.434,3.352,25,25,0,0,0,1.638,8.075c1.38,4.31,1.426,4.3.562,9.291a2.121,2.121,0,0,1-.434.451c-.747.411-1.51.793-2.28,1.191a15.95,15.95,0,0,1-4.788-3.066,23.462,23.462,0,0,0-3.928-3.228c-2.661-1.776-4.742-4.26-6.965-6.552a2.848,2.848,0,0,1,.006-3.014c.671-.82,1.42-1.579,2.148-2.376-.023-.382.086-.868-.1-1.183a28.242,28.242,0,0,0-3.091-4.824,57.239,57.239,0,0,1-5.025-7.326c-2.19-3.391-4.046-6.978-6.235-10.369-1.034-1.6-1.835-3.352-2.722-5.044-.988-1.881-1.951-3.775-2.926-5.663-.935-1.808-.644-2.722,1.344-4.172a7.379,7.379,0,0,1,2.867,1.16,52.824,52.824,0,0,1,5.621,9.985c1.047,2.366,2.718,4.312,3.939,6.548a20.4,20.4,0,0,0,4.006,5.738c1.938,3.289,4.933,5.864,6.342,9.524C211.162,311.09,212.345,312.078,214.01,313.406Z" transform="translate(65.101 94.413)"/><path d="M227.984,352.882a43.553,43.553,0,0,1-4.635-5.239,35.576,35.576,0,0,0-4.188-4.788c-5.42-5.847-5.373-5.877-12.183-14.715-2.334-3.031-4.425-6.225-6.753-9.245a19.161,19.161,0,0,1-2.326-4.459c1.762-2.1,1.762-2.1,5.115-1.573,1.619,2.3,3.075,4.878,4.7,7.345a98.069,98.069,0,0,0,9.088,12.28c.854.94,1.548,2.026,2.332,3.031a22.364,22.364,0,0,0,2.005,2.464c1.659,1.6,4.023,2.471,4.954,4.824,1.611,1.7,3.188,3.435,4.845,5.09a29.545,29.545,0,0,0,3.362,2.93,1.941,1.941,0,0,0,2.794-.568c.378-.5.728-1.019,1.179-1.653.816,0,1.653-.031,2.485.008a1.41,1.41,0,0,1,1.361,1.145,50.63,50.63,0,0,0,1.451,5.51,12.334,12.334,0,0,0,2.8,5.627c1.349,1.428,1.393,2.995.818,4.92l-2.536,1.521a6.549,6.549,0,0,1-1.26-.283c-.965-.441-1.925-.9-2.848-1.426a52.137,52.137,0,0,0-9.956-4.111,25.767,25.767,0,0,1-4.681-1.942,2.862,2.862,0,0,1-.443-4.828,17.749,17.749,0,0,1,1.575-1.036A12.407,12.407,0,0,0,227.984,352.882Z" transform="translate(78.17 133.751)"/><path d="M358.337,274.076c-.94,0-1.785-.008-2.63,0a1.155,1.155,0,0,1-1.084-.577,3.772,3.772,0,0,1,.05-4.174,12.419,12.419,0,0,1,4.016-3.068c3.886-1.718,7.3-4.3,11.072-6.246,1.124-.579,2.045-1.556,3.169-2.133a4.261,4.261,0,0,1,3.7-.059,2.514,2.514,0,0,1,1.584,1.883,8.255,8.255,0,0,1-.143,3.761c-.625,1.615-.631,3.364-1.286,4.9-.6,1.418-.56,2.93-1.024,4.312a22.5,22.5,0,0,0-1.158,8.236c-.382.711-.742,1.481-1.189,2.194a2.461,2.461,0,0,1-3.807.656,11.25,11.25,0,0,1-1.363-1.456l-.147-4.927c-.3-.1-.524-.233-.575-.185a16.311,16.311,0,0,0-2.7,2.68c-4.134,6.414-8.979,12.334-12.962,18.859a56.468,56.468,0,0,0-3.079,5.552,4.367,4.367,0,0,1-1.286,1.388,2.422,2.422,0,0,1-3.733-.791c-.315-.554-.579-1.137-.877-1.724a21.3,21.3,0,0,1,1.932-3.284c2.764-3.249,4.822-6.98,7.315-10.413,2.114-2.911,4.014-5.977,6.019-8.968a14.512,14.512,0,0,1,1.139-1.527c1.554-1.756,3.4-3.324,4.623-5.279,1.145-1.825,2.655-3.3,3.846-5.05a.483.483,0,0,0-.1-.449,1.138,1.138,0,0,0-1.158-.119,27.486,27.486,0,0,1-4.176,2.88A29.467,29.467,0,0,0,358.337,274.076Z" transform="translate(237.28 73.241)"/><path d="M383.093,262.236a9.219,9.219,0,0,1,3.7-1.879A11.782,11.782,0,0,0,391.969,258c2.733-2.118,5.894-3.385,8.855-5.04a2.5,2.5,0,0,1,3.249,1.135c.575,1.363,1.036,2.775,1.479,4.188a1.788,1.788,0,0,1-.061,1.237,7.877,7.877,0,0,0-.74,3.712c-.027,1.7-.191,3.391-.3,5.109-.749.845-1.432,1.659-2.166,2.427-1.015,1.063-2.295.912-3.2-.4a7.8,7.8,0,0,1-.812-1.7c-.214-.583-.336-1.2-.5-1.827-.252.132-.474.178-.577.315-1.936,2.536-4.1,4.874-6.164,7.3s-3.857,5.078-6.051,7.406a7.208,7.208,0,0,0-1.013,1.615c-1.89,3.578-4.434,6.741-6.466,10.227-1.183,2.032-3.1,3.5-4.18,5.633-.665,1.309-1.888,2.255-2.5,3.683a8.342,8.342,0,0,1-2.085,2.389,3.1,3.1,0,0,1-5.055-1.588,1.756,1.756,0,0,1,.01-1.24,46.58,46.58,0,0,1,3.817-5.839c3.576-4.222,7.06-8.509,10.413-12.909,1.546-2.026,3.15-4.012,4.742-6,2.668-3.326,4.862-6.961,7.337-10.407a.528.528,0,0,0-.067-.482.865.865,0,0,0-.516-.342,5.677,5.677,0,0,0-3.058.755c-1.858.952-3.987-1.074-3.735-2.947C382.714,263.786,382.892,263.165,383.093,262.236Z" transform="translate(259.975 68.082)"/><path d="M343.171,222.478c.283.262.571.768.889.786,2.343.145,4.692.159,7.034.3.315.021.749.48.875.828a4.1,4.1,0,0,1-1.3,4.6,12.341,12.341,0,0,1-4.591,2.143,23.091,23.091,0,0,0-3.576,1.319c-.407.157-.6,1.258-.289,1.741a6,6,0,0,0,.789,1c.464.464,1.1.9,1.7.61,2.433-1.156,5-.887,7.548-.862a2.671,2.671,0,0,1,2.32,2.617,5.881,5.881,0,0,1-.006.64c-.063.64-.14,1.277-.214,1.921a6.514,6.514,0,0,1-4.337,2.353,18.494,18.494,0,0,0-4.413.642c-1.112.424-2.374-.222-3.612.382-.973.476-2.045-.027-2.972-.69a8.693,8.693,0,0,1-3.574-7.19c-.117-3.419.013-6.844.042-10.266,0-.428.046-.856.061-1.281.1-2.987.438-6-1.317-8.415,1.16-2.12,2.427-3.4,4.44-3.979,1.825-.522,3.649-1.12,5.42-1.779,1.667-.621,3.389-.445,5-.912a23.4,23.4,0,0,1,6.9-1.051,3.637,3.637,0,0,1,3.32,1.848c-.371.856-.78,1.8-1.124,2.6-1.216.791-2.265,1.51-3.349,2.175a13.473,13.473,0,0,1-5.856,2.334c-1.682.151-3.127,1.29-4.862,1.5-.575.071-.933.814-.948,1.5C343.159,220.754,343.171,221.607,343.171,222.478Z" transform="translate(227.768 18.939)"/><path d="M348.334,234.386a3.3,3.3,0,0,1-3.708-1.009,7.856,7.856,0,0,1-1.741-2.613c-.5-1.839-1.665-3.44-1.755-5.434-.038-.843-.831-1.439-1.676-1.762-.235.34-.472.684-.711,1.026a35.34,35.34,0,0,0-2.156,3.161c-.495.91-.663,1.992-1.1,2.943a3.048,3.048,0,0,1-4.386.958,22.109,22.109,0,0,1-4.455-5.5c-1.558,2.829-2.236,5.887-3.1,8.847a27.563,27.563,0,0,1-1.674,4.107,4.953,4.953,0,0,1-1.342,1.334,1.713,1.713,0,0,1-2.292-.164,17.157,17.157,0,0,1-1.179-1.483,3.445,3.445,0,0,1-.237-.591c-.271-.579-.554-1.151-.921-1.909.854-2,1.271-4.274,2.223-6.416,1.374-3.083,2.248-6.372,3.406-9.547.453-1.237.336-2.527.7-3.737a5.011,5.011,0,0,1,2.827-3.276,1.911,1.911,0,0,1,1.814.124,6.741,6.741,0,0,1,2.666,2.685c.791,1.493,1.527,3.014,2.3,4.516.348.673,1.093,1.179,1.414.971a2.715,2.715,0,0,0,.96-.8c.8-1.487,1.527-3.014,2.28-4.528.472-.948.883-1.934,1.426-2.838a14.571,14.571,0,0,1,1.565-2.016,3.254,3.254,0,0,1,5.332.91,2.055,2.055,0,0,1,.245.579,36.333,36.333,0,0,0,2.506,8.492c.227,3.1,2.4,5.394,3.368,8.186.071.2.216.375.273.577a1.739,1.739,0,0,1-.277,1.783C350.045,232.857,349.087,233.692,348.334,234.386Z" transform="translate(207.668 21.643)"/><path d="M415.009,257.672c.189,2.84.268,5.371-.887,7.792a3.846,3.846,0,0,0-.191,1.89c.21,2.431-1.33,4.444-1.552,6.762-.612.575-1.223,1.149-1.7,1.6-1.957.271-2.785-1.177-4.1-2.078a13.768,13.768,0,0,0-2.477,2.829c-1.483,3.1-3.687,5.688-5.592,8.49-3.213,4.73-6.4,9.478-9.509,14.274-1.032,1.59-1.8,3.356-2.794,5.25l-2.714,2.175h-1.965c-1.076-.663-1.3-1.76-1.8-2.622a11.564,11.564,0,0,1,3.228-5.369,28.46,28.46,0,0,0,4.948-6.623c.858-1.493,2.062-2.689,2.907-4.17a44.075,44.075,0,0,1,2.55-3.645,5.154,5.154,0,0,0,.394-.5c1.772-3.379,4.086-6.441,5.8-9.855a.848.848,0,0,0-.2-1.135.6.6,0,0,0-.5-.082,56.236,56.236,0,0,0-5.625,2.947c-1.619.889-3.119.782-4.379-1.107a1.816,1.816,0,0,1-.218-1.776,7.592,7.592,0,0,1,2.664-2.7,21.786,21.786,0,0,1,2.8-1.5,6.558,6.558,0,0,0,2.674-1.68c1.556-1.823,3.953-2.485,5.575-4.207,1.466-1.554,3.53-2.336,5.027-3.905.841-.883,2.215-1.065,3.211-1.959C412.316,255.195,412.576,255.335,415.009,257.672Z" transform="translate(277.689 71.375)"/><path d="M367.421,330.909c0,.961.015,2.242-.006,3.523a4.215,4.215,0,0,1-.168,1.9c-1.151,1.992-.644,4.186-.9,6.2a8.728,8.728,0,0,1-2.454,3,1.1,1.1,0,0,1-1.651-.122c-.736-.761-1.437-1.556-1.955-2.12-.946-3.612.371-6.6,1.229-9.644a7.562,7.562,0,0,0,.617-1.781,12.928,12.928,0,0,1,1.42-6.149,21.725,21.725,0,0,1,1.256-4.912c.392-1.435.982-2.81,1.284-4.26.394-1.875,1.6-3.528,1.491-5.533.73-1.762,1.491-3.513,2.165-5.3.122-.327-.117-.789-.2-1.237-1.07.6-2.1,1.244-3.192,1.758a1.59,1.59,0,0,1-1.206-.161,5.1,5.1,0,0,1-2.33-2.855,23.4,23.4,0,0,1,5.141-8.043,27.3,27.3,0,0,0,2.288-3.062c1.191-1.5,2.433-2.966,3.526-4.293l3.272-1.349,2.641,1.275c2.07,2.146,1.932,4.774,2.026,7.305.673,1.376,1.263,2.75,2,4.042.824,1.453-.61,3.115-1.879,3.4a8.51,8.51,0,0,1-1.846.023c-.6-.413-1.126-.782-1.661-1.135-.357-.233-.728-.44-1.093-.661-.138.088-.38.155-.4.266-.214,1.038-.3,2.114-.608,3.117A28.549,28.549,0,0,1,374.94,307c-.763,1.745-1.911,3.389-2.116,5.29-.189,1.751-1.227,3.251-1.347,4.9-.159,2.2-1.3,4.031-1.718,6.124-.327,1.646-.961,3.242-1.2,4.945A12.114,12.114,0,0,1,367.421,330.909Z" transform="translate(256.007 105.107)"/><path d="M341.452,369.614c.8.443,1.573.807,2.273,1.279a2.271,2.271,0,0,1,.73.994,3.7,3.7,0,0,1,.205,1.256c.031,1.279.036,2.561.034,3.842-.008,5.195-.008,5.195,2.328,11.068a4.169,4.169,0,0,1,.319,1.229,2.04,2.04,0,0,1-.608,1.737,14.4,14.4,0,0,1-1.592,1.072c-1.164-.585-2.3-1.147-3.433-1.732a1.3,1.3,0,0,0-1.961.795c-.3,2.307-.8,4.574-1.275,6.852a43.454,43.454,0,0,0-.411,6.443c-.688,1.5-1.395,3.047-2.169,4.734-.122,2.194-.277,4.539-.371,6.883a9.029,9.029,0,0,1-.631,3.742,4.548,4.548,0,0,0-.31,1.86c-.034,2.345-.013,4.692-.013,6.892-.658,1.089-1.158,2.032-1.77,2.894a2.485,2.485,0,0,1-3.437.264,3.116,3.116,0,0,1-1.105-3.448,18.675,18.675,0,0,0,.952-4.964c.157-2.521-.065-5.115,1.118-7.527a6.641,6.641,0,0,0,.292-2.527,11.782,11.782,0,0,1,.885-4.99,8.909,8.909,0,0,0,.489-3.14,9.961,9.961,0,0,1,.856-4.346,1.507,1.507,0,0,0,.17-.608c.126-1.489.313-2.978.336-4.467.023-1.519,1.093-2.779.908-4.348-.084-.717-.52-1.376-1.114-1.172s-1.151.5-1.739.719a2.406,2.406,0,0,1-2.357-.505,1.86,1.86,0,0,1-.82-2.215c.686-1.315,1.449-2.6,2.263-3.838a86.541,86.541,0,0,0,5.409-8.622A15.268,15.268,0,0,1,341.452,369.614Z" transform="translate(221.037 196.348)"/><path d="M325.8,486.108c-.333.5-.547.864-.807,1.2a2.039,2.039,0,0,1-2.244.843,2.586,2.586,0,0,1-1.9-2.353c-.145-4.04-.466-8.1.667-12.072a9.4,9.4,0,0,0,.26-1.883c.063-.852.067-1.707.1-2.563.069-1.707.262-3.421.182-5.12-.1-2.2.946-4.14,1.124-6.252.162-1.913.214-3.838.315-5.757,1.227-2.6,1.034-5.407,1.057-8.163,0-.547-.476-1.1-.675-1.525-1.233-.191-2.294-.292-3.318-.547a1.377,1.377,0,0,1-.824-.87,6.551,6.551,0,0,1,.174-3.767c1.015-2.785,1.932-5.606,2.888-8.412a5.262,5.262,0,0,0,.382-1.206c.216-2.618,1.42-4.87,2.565-7.148a2.732,2.732,0,0,1,3.813-.99c1.428.994,2.636,2.129,2.718,4.081a19.8,19.8,0,0,0,.52,4.425,16.506,16.506,0,0,0,3.236,6.837,16.178,16.178,0,0,1,1.057,1.512c.1,1.571-.816,2.4-1.955,3.094a7.665,7.665,0,0,1-4.853-.847,6.853,6.853,0,0,0-.443,1.386c-.208,3.175-.019,6.382-1.177,9.467a11.935,11.935,0,0,0-.258,3.175,16.3,16.3,0,0,1-.946,5.638,9.529,9.529,0,0,0-.321,3.148c-.155,2.341-.292,4.681-.434,7.022-.805,1.588-.573,3.333-.784,5.015C325.385,477.731,325.829,481.995,325.8,486.108Z" transform="translate(211.655 250.658)"/><path d="M327.059,330.118c1.273-5.008,3.068-9.738,4.717-14.516.342-.994.856-1.93,1.231-2.915.973-2.561,2.647-4.876,2.729-7.752.587-1.359,1.13-2.741,1.776-4.073a6.626,6.626,0,0,0,.6-2.443c.076-.946-.619-1.5-1.628-1.179-.587.187-1.147.457-1.64.659a4.509,4.509,0,0,1-2.433-2.127,2.341,2.341,0,0,1-.365-1.768,56,56,0,0,1,5.795-9.849,40.973,40.973,0,0,0,4.543-6.886,3.327,3.327,0,0,1,2.345-2,12.1,12.1,0,0,1,2.313.04,8.205,8.205,0,0,1,2.712,4.432,5.934,5.934,0,0,1-.317,3.763c-.638,1.567-1.514,3.037-2.16,4.6a3.95,3.95,0,0,0,.084,3.115c.516,1.16,1.25,2.221,1.854,3.343a3.079,3.079,0,0,1-.646,4.035c-.315.281-.671.516-1.135.866l-3.379-1.122c-.852.585-.9,1.5-1.235,2.253-.342.774-.577,1.592-.9,2.374a50.772,50.772,0,0,0-2.169,5.285c-.518,1.82-.856,3.677-1.521,5.482-.434,1.181-.891,2.364-1.294,3.559-.333.99-.474,2.034-.849,3.045-.581,1.567-.7,3.308-1.307,4.864-.554,1.428-.426,2.938-.9,4.4-1.3,1.015-2.613,2.064-3.949,3.087a1.407,1.407,0,0,1-1.7-.4C327.843,331.536,327.428,330.8,327.059,330.118Z" transform="translate(219.903 92.762)"/><path d="M350.447,306.619c-1.049-1.137-2.716-1.026-3.937-1.881a2.654,2.654,0,0,1-.992-2.775c.619-1.349,1.267-2.687,1.972-3.991a5.365,5.365,0,0,1,2-2.381,9.8,9.8,0,0,0,3.58-3.593,21.214,21.214,0,0,1,4.648-4.925c2.926-.7,4.1,1.116,5.187,2.852.719,2.167.564,4.323,1.216,6.4a22.589,22.589,0,0,1,.68,6.326,2.2,2.2,0,0,1-3.211,1.961,19.654,19.654,0,0,1-2.513-1.938c-.306-.224-.724-.08-1.036.325a18.05,18.05,0,0,0-2.479,5.12c-.994,2.787-1.732,5.671-3.23,8.272-.849,1.474-.541,3.379-1.628,4.8.031,2.179-1.172,4.094-1.4,6.179-.233,2.15-1.43,4.016-1.481,6.189-.034,1.529-1,2.781-1.5,4.174a3.223,3.223,0,0,1-1.336,1.317,2.8,2.8,0,0,1-3.018.117,2.949,2.949,0,0,1-1.535-3.232c.965-3.022,1.877-6.068,3.039-9.014,2.332-5.914,4.3-11.969,6.833-17.8A3.417,3.417,0,0,0,350.447,306.619Z" transform="translate(234.477 105.606)"/><path d="M354.152,416.139c-.768,2.137-.029,4.184-1.044,5.929-.992,1.7-.2,3.857-1.418,5.514a2.039,2.039,0,0,0-.338,1.2c.1,2.743-.262,5.47.65,8.222.8,2.406.514,5.036.344,7.657-.956.912-1.865,1.8-2.8,2.662a1.355,1.355,0,0,1-2.118-.516c-.109-.182-.2-.375-.3-.566-.283-.573-.566-1.145-.9-1.825-.3-4.591-.069-9.281.082-13.966.055-1.69,1.137-3.173,1.03-4.966a11.376,11.376,0,0,1,.831-5.006,9.858,9.858,0,0,0,.4-4.419,4.55,4.55,0,0,0-.474-1.208c-.652.573-1.269,1.156-1.93,1.682a3.127,3.127,0,0,1-2.4.6,1.8,1.8,0,0,1-1.676-1.567,8.471,8.471,0,0,1,.606-4.371c2.443-4.7,3.922-9.851,6.862-14.683a33.953,33.953,0,0,1,3.469-2.257,3.215,3.215,0,0,1,4.551,2.857c-.006,2.557-.09,5.115-.04,7.672a12.362,12.362,0,0,0,1.141,5.581,6.006,6.006,0,0,1,.168,2.508,1.694,1.694,0,0,1-.958,1.539C356.765,415,355.587,415.484,354.152,416.139Z" transform="translate(236.368 223.046)"/><path d="M141.592,223.668c.2-.577.455-1.164.612-1.776a3.762,3.762,0,0,1,1.407-2.064c.625-.493,1.116-.6,3.047-.392a7.391,7.391,0,0,1,2.07,3.3c.061,1.806.124,3.725.2,5.642.021.547.929,1.143,1.393.929a24.6,24.6,0,0,0,2.863-1.342,8.117,8.117,0,0,1,4.237-1.158c.891-.029,1.4-.77,1.42-1.764a7.045,7.045,0,0,0-.323-3.152,6.392,6.392,0,0,1-.451-3.274l1.4-2.622a3.428,3.428,0,0,1,3.081-.659,1.928,1.928,0,0,1,1.124.505c1.172,1.567,2.123,3.268,1.4,5.3a2.7,2.7,0,0,0,.084,2.4,1.358,1.358,0,0,1,.168.61c.05,5.34.1,10.682.124,16.024a4.27,4.27,0,0,1-1.267,2.861,2.989,2.989,0,0,1-3,.422c-.178-.115-.4-.235-.487-.411a10.373,10.373,0,0,1-1.435-4.163c-.044-2.125-.208-4.241-.271-6.049-.48-.581-.812-.549-1.29-.3a12.957,12.957,0,0,0-3.593,2.636,16.576,16.576,0,0,1-4.954,3.725c-.774,1.81-.2,3.526-.317,5.206a3.552,3.552,0,0,1-1.542,2.662,2.711,2.711,0,0,1-2.987.361,2.851,2.851,0,0,1-1.865-2.4c-.086-1.919-.013-3.844-.008-5.766.008-3.849.021-7.7.017-11.544A7.57,7.57,0,0,0,141.592,223.668Z" transform="translate(16.384 26.943)"/><path d="M309.289,244.241c-1.107-.661-1.777-1.315-1.936-2.137-.447-2.284-1.24-4.493-1.185-6.9.107-4.7.031-9.4.013-14.109a15.14,15.14,0,0,0-.168-2.544.71.71,0,0,0-.9-.606,9.521,9.521,0,0,1-3.735.715c-1.919-.082-3.842-.021-5.678-.021a13.461,13.461,0,0,1-1.711-1.109c-2.106-1.888-2.781-3.354-.9-6.1.235-.346.459-.7.734-1.12a6.466,6.466,0,0,1,4.914-.224c1.491.464,2.8.816,4.266.048.31-.164.828.019,1.235.107s.908.487,1.189.359c2.454-1.114,5.057-.665,7.592-.782,2.343-.111,4.694-.025,6.854-.025,1.172.573,2.162.982,3.073,1.523a2.037,2.037,0,0,1,.977,2.177c-.17,1.135-.78,2.284-1.848,2.353-2.588.166-4.851,1.51-7.4,1.755a1.3,1.3,0,0,0-.831.854c-.352,1.441-.126,3-.9,4.36a1.879,1.879,0,0,0-.042,1.833,6.906,6.906,0,0,1,.675,3.091c.065,3.847.149,7.693.229,11.54.029,1.365-.13,2.59-1.89,2.7Z" transform="translate(181.421 20.885)"/><path d="M341.283,455.107l-3.949,2c-.818-.413-1.584-.78-2.33-1.183a1.669,1.669,0,0,1-.638-1.657c.635-1.349,1.372-2.657,1.911-4.042.612-1.575,1.053-3.215,1.569-4.828.451-1.409.868-2.831,1.361-4.226.352-.994.8-1.955,1.212-2.926,1.154-2.718,2.37-2.867,5.126-2.523a2.5,2.5,0,0,1,1.917,1.539c.719,1.527.768,3.307,1.749,4.746.021,2.655,1.233,4.9,2.366,7.2A7.007,7.007,0,0,1,352,451.69a1.866,1.866,0,0,1-1.363,1.883c-1,.321-2.141-.178-3.035.516a1.226,1.226,0,0,0-.526,1.137c-.073,2.563-.191,5.126-.294,7.689a6.379,6.379,0,0,1-.092,1.911c-1.16,3.068-1.074,6.267-1.141,9.457q-.091,4.486-.174,8.977c-.015.854,0,1.707,0,2.351a7.4,7.4,0,0,1-2.4,3.215,1.694,1.694,0,0,1-2.3-.038c-.461-.43-.847-.944-1.248-1.4a38.115,38.115,0,0,1,.006-7.089c1.24-2.177.757-4.581.927-6.9.264-3.6-.285-7.28,1.107-10.761.031-2.339.482-4.671.084-7.014A1.761,1.761,0,0,0,341.283,455.107Z" transform="translate(227.861 268.741)"/><path d="M390.948,246.91a10.736,10.736,0,0,1-2.59,1.56c-2.135-.709-1.68-2.81-2.422-4.281-.344.111-.77.126-.992.346a28.122,28.122,0,0,0-3.519,3.7,23.837,23.837,0,0,1-5.8,5.829,20.6,20.6,0,0,0-4.461,4.543c-1.019,1.386-2.175,2.617-3.278,3.914-1.791,2.1-3.949,3.87-5.352,6.338a14.273,14.273,0,0,1-2.729,2.722,23.846,23.846,0,0,1-2.567.185,2.961,2.961,0,0,1-2.517-1.711,1.643,1.643,0,0,1,.036-1.8,8.57,8.57,0,0,1,1.6-1.978,70.772,70.772,0,0,0,6.9-6.674q8.368-8.39,16.672-16.852a6.726,6.726,0,0,0,1.078-1.55.7.7,0,0,0-.294-1.057c-.589-.216-1.235-.277-1.823-.5a6.988,6.988,0,0,1-1.669-.86,2.173,2.173,0,0,1,.256-3.723,2.473,2.473,0,0,1,1.145-.493,14.225,14.225,0,0,0,6.661-1.965c1.714-.847,3.406-1.735,5.111-2.6a6.866,6.866,0,0,1,1.149-.535c2.5-.709,4.671.338,5.021,3.3a3.911,3.911,0,0,1-.161,1.9c-.9,2.156-1.894,4.279-2.9,6.391C392.6,242.961,392.471,245.23,390.948,246.91Z" transform="translate(249.984 42.321)"/><path d="M409.28,202.247c-.208,1.661-.915,3.2-.807,4.975.239,3.92-1.422,7.437-2.831,10.969a6.787,6.787,0,0,1-2.989,3.232,1.955,1.955,0,0,1-1.781-.25,3.668,3.668,0,0,1-1.483-2.71,6.175,6.175,0,0,1,.81-3.681,1.327,1.327,0,0,0-.149-1.737,3.655,3.655,0,0,0-.963.738,24.284,24.284,0,0,1-3.819,5.076,2.557,2.557,0,0,0-.791.992c-1.089,3.576-3.9,6.047-5.81,9.09-1.013,1.617-2.2,3.123-3.329,4.667a2.691,2.691,0,0,1-2.194,1.116c-.847.017-1.7-.092-2.548-.151a1.649,1.649,0,0,1-1.487-1,2.523,2.523,0,0,1,.22-2.441,5.951,5.951,0,0,1,.772-1.013c4.117-3.781,6.886-8.6,10.1-13.079.294-.411-.182-1.535-.648-1.55-.85-.029-1.7-.046-2.55-.04a2.814,2.814,0,0,1-2.523-1.644,2.229,2.229,0,0,1,.619-2.836c.726-.426,1.489-.791,2.229-1.193,3.163-1.718,6.621-2.911,9.411-5.294a51.2,51.2,0,0,0,7.221-4.035c1.514-1.074,3.574-.453,5.036,1.246A2.636,2.636,0,0,1,409.28,202.247Z" transform="translate(276.787 10.127)"/><path d="M186.4,216.366c.522-1.023.923-1.776,1.294-2.544.661-1.37,3.05-1.292,3.83-.176.849,1.212,1.544,2.532,2.326,3.836a20.1,20.1,0,0,1-.369,3.828,13.428,13.428,0,0,0-.673,3.75,19.386,19.386,0,0,1-1.365,6.187,53.109,53.109,0,0,1-6.7,12.941,12.98,12.98,0,0,1-5.533,4.2,2.778,2.778,0,0,1-2.469-.109,29.115,29.115,0,0,1-3.792-2.372c-2.4-1.883-4.383-4.128-4.566-7.372-.1-1.739-1.193-3.184-1.181-4.948.023-3.631-.115-7.261-.065-10.891.027-1.936,1.156-3.607,1.659-5.441.189-.686,1.237-1.273,2.714-1.634.721.635,1.548,1.3,2.288,2.051.26.264.541.847.422,1.1-1.076,2.229-.74,4.614-.807,6.936a44.767,44.767,0,0,0,.247,8.96c.889,1.919,1.632,3.914,3.192,5.472a3.07,3.07,0,0,0,4.526-.08c1.156-1.523,2.284-3.073,3.322-4.675a7.888,7.888,0,0,0,1.344-2.878c.327-2.116,1.644-3.93,1.669-6.13a8.223,8.223,0,0,1,.661-2.448,4.686,4.686,0,0,0-.294-3.708C187.531,219.078,187.062,217.9,186.4,216.366Z" transform="translate(44.403 24.272)"/><path d="M403.538,240.2c1.3-2.1,2.659-3.358,4.822-3.4,1.827-1.074,3.67-2.122,5.476-3.234,1.265-.778,2.464-1.659,3.714-2.464a3.011,3.011,0,0,1,4.052.474c.153.145.279.317.42.476.656,4.165.659,4.3.141,13.329-.43,1.053-1.414,1.556-2.217,2.242a2.125,2.125,0,0,1-2.865.132c-1.072-.69-1.7-.539-2.148.227-.43.73-.787,1.508-1.25,2.215-3.15,4.795-6.338,9.564-9.474,14.367-1.032,1.584-2.565,2.92-2.632,5.015-.585.893-1.162,1.8-1.76,2.68s-.363,2.127-1.135,2.727c-1.355.535-2.527,1.015-3.712,1.462a1.416,1.416,0,0,1-1.888-1.166,4.184,4.184,0,0,1,.247-3.1,38.936,38.936,0,0,1,4.488-6.953c1.617-2.007,2.936-4.186,4.371-6.29,1.791-2.626,3.3-5.445,4.92-8.186a68.209,68.209,0,0,0,3.752-7.362.7.7,0,0,0-.126-.549c-.1-.153-.39-.373-.459-.333a5.991,5.991,0,0,1-3.685.826,2.2,2.2,0,0,1-2.062-1.231C404.272,241.532,403.943,240.978,403.538,240.2Z" transform="translate(292.153 43.729)"/><path d="M232,238.659c-1.032,1.109-2.007,2.19-3.016,3.236a2.137,2.137,0,0,1-2.89-.006l-1.307-.994a16.267,16.267,0,0,1-.325-2.259c.036-2.559.1-5.12.22-7.678a10.8,10.8,0,0,1,.413-2.494,23.744,23.744,0,0,0,.487-8.868,1.584,1.584,0,0,0-1.2-1.288c-2.343-.088-4.685-.17-7.028-.26a3.62,3.62,0,0,1-3.11-3.492,11.6,11.6,0,0,1,.145-1.911,3.727,3.727,0,0,1,2.2-2.15,9.741,9.741,0,0,1,1.271-.143c7.464.055,14.929.12,22.135.178,1.527.648,2.4,1.485,2.42,2.97.008.64.017,1.277.015,1.917-.008,1.806-.518,2.458-2.078,2.561-1.7.109-3.408.166-5.111.25a1.683,1.683,0,0,0-1.734,1.491c-.111,1.273-.214,2.546-.3,3.823a6.64,6.64,0,0,1-.078,1.906C231.4,229.76,232.215,234.275,232,238.659Z" transform="translate(96.11 21.585)"/><path d="M399.176,252.948c-.7,1.407-1.34,1.971-2.167,2.244a2.662,2.662,0,0,1-2.951-.524c-.594-.606-1.139-1.258-1.764-1.955a8.455,8.455,0,0,0-1.405,1.235,50.808,50.808,0,0,0-4.31,6.281c-1.468,2.848-3.49,5.308-5.094,8.054a30.688,30.688,0,0,1-4.125,5.663c-1.164,1.229-2.127,2.645-3.184,3.983q-.853.406-1.714.818c-2.154,1.028-3.488.3-4.016-2.2a4.69,4.69,0,0,1,.065-.944,18.492,18.492,0,0,1,3.949-4.585,35.453,35.453,0,0,0,5.581-6.928,37.579,37.579,0,0,1,3.412-4.587,2.144,2.144,0,0,0,.417-.482c1.894-4.048,4.853-7.439,6.961-11.353a.84.84,0,0,0-.212-1.145c-.713-.424-1.537-.667-2.227-1.12a13.683,13.683,0,0,1-1.923-1.653,1.957,1.957,0,0,1,.008-2.347,10.1,10.1,0,0,1,1.363-1.332c.323-.245.82-.252,1.168-.476,1.458-.938,3.245-.927,4.761-1.779,1.489-.837,2.888-1.785,4.289-2.745a1.915,1.915,0,0,1,1.776.308,4.132,4.132,0,0,1,.94.854c1.139,1.844,2.171,3.907,1.451,6.011-1,2.92-.833,5.862-.95,8.819C399.252,251.706,399.21,252.344,399.176,252.948Z" transform="translate(265.304 48.591)"/><path d="M147.08,249.147c-.6.721-1.233,1.579-1.961,2.351a2.088,2.088,0,0,1-3.312-.092,11.31,11.31,0,0,1-.833-1.153,52.1,52.1,0,0,1-.344-7.54c-.044-1.911.271-3.857-.464-5.707a2.225,2.225,0,0,1,.034-1.216,55.365,55.365,0,0,0,.281-13.316c-.363-.185-.719-.512-1.089-.529q-3.844-.182-7.693-.247a8.622,8.622,0,0,1-3.607-1.2,2.269,2.269,0,0,1-1.409-1.961,17.333,17.333,0,0,1,.151-3.177,1.575,1.575,0,0,1,.654-1.038c.91-.537,1.894-.948,2.964-1.464a18.546,18.546,0,0,0,2.949.975,28.7,28.7,0,0,0,4.472.34c2.993.008,5.988-.086,8.981-.134,2.135-.036,4.272-.126,6.4-.061.547.015,1.08.524,1.537.761a8.535,8.535,0,0,1-1.575,6.405,10.989,10.989,0,0,1-1.617.384c-1.059.1-2.127.1-3.19.172a1.621,1.621,0,0,0-1.233,1.258c-.26,1.462-.092,2.972-.747,4.4a6.145,6.145,0,0,0-.361,2.5c.01,3.851.052,7.7.149,11.548a12.223,12.223,0,0,0,.5,2.494A17.727,17.727,0,0,1,147.08,249.147Z" transform="translate(0 24.333)"/><path d="M314.394,435.232a5.01,5.01,0,0,0-1.634-.688,8.035,8.035,0,0,1-2.961-1.055c-1.242-.528-1.474-2.341-1-3.3a2.9,2.9,0,0,1,.292-.568,27.516,27.516,0,0,0,2.477-3.7,7.142,7.142,0,0,1,5.17-3.521,7.222,7.222,0,0,1,3.119,2.892c2.4,4,5.155,7.79,7.213,12a2.413,2.413,0,0,1-.858,3.326,1.675,1.675,0,0,1-1.8.21c-1.334-.659-2.6-1.449-3.905-2.192-.636.073-1.376.273-1.493.921a27.644,27.644,0,0,1-1.248,4.933c-.505,1.353-.1,3.047-.619,4.394a20.644,20.644,0,0,0-1.126,6.892c-.044,1.539-1.141,2.748-1.1,4.3.036,1.275-.117,2.555-.191,3.832a1.443,1.443,0,0,1-.094.627c-1.317,2.143-.933,4.541-1.059,6.865a18.8,18.8,0,0,1-.226,1.9,3.6,3.6,0,0,1-2.72,2.389,2.714,2.714,0,0,1-3.06-1.72,3.027,3.027,0,0,1-.224-1.233,9.018,9.018,0,0,1,.413-1.841,39.706,39.706,0,0,0,2.215-9.9c.122-2.29,1.271-4.482,1.219-6.858a20.465,20.465,0,0,0,1.328-6.85c1.158-2.169.931-4.555,1.086-6.883A14.988,14.988,0,0,1,314.394,435.232Z" transform="translate(198.268 254.266)"/><path d="M318.035,441.592c-.921.967-1.768,1.917-2.685,2.794a1.731,1.731,0,0,1-1.793.329,2.8,2.8,0,0,1-1.711-3.073,18.418,18.418,0,0,0,.791-2.4c.277-1.879.046-3.83,1.1-5.587a4.564,4.564,0,0,0,.229-1.881,15.772,15.772,0,0,1,1.057-5.6,8.731,8.731,0,0,0,.4-3.14,8.507,8.507,0,0,1,.9-4.314,2.195,2.195,0,0,0,.277-1.221c-.268-4.285,1.841-8.322,1.292-12.628a1,1,0,0,0-.361-.516c-.252-.231-.554-.078-.833.413a4.036,4.036,0,0,1-.271.577,2.568,2.568,0,0,1-2.794.912,3.15,3.15,0,0,1-2.087-2.894c.044-1.753,1.353-3.129,1.351-4.879a75.864,75.864,0,0,1,4.367-8.473,2.766,2.766,0,0,1,2.649-1.451,4.528,4.528,0,0,1,1.793.531c2.511,1.483,3.815,3.956,5.027,6.454a2.757,2.757,0,0,1-.4,3c-.524.665-1.107,1.281-1.64,1.938a.893.893,0,0,0-.226.577c.264,2.028-1.435,3.517-1.458,5.485a12.35,12.35,0,0,1-.805,4.354,13.334,13.334,0,0,0-.43,3.771c-.122,1.695-.044,3.412-.86,4.992a4.7,4.7,0,0,0-.317,1.223c-.411,2.066.206,4.274-.958,6.244-1,1.695-.3,3.773-1.219,5.562a7.7,7.7,0,0,0-.331,3.127C318.042,437.718,318.054,439.627,318.035,441.592Z" transform="translate(202.887 217.121)"/><path d="M392.571,289.611c.029,1.648.078,3.563.1,5.478q.038,3.835.034,7.668a3.635,3.635,0,0,1-1.361,2.773A1.987,1.987,0,0,1,389,305.6a7.362,7.362,0,0,1-2.11-3c-.793-.078-1.565-.036-1.718.644-.652,2.907-2.263,5.524-2.7,8.45a27.954,27.954,0,0,1-1.5,5.5,20.107,20.107,0,0,0-1.374,8.094,8.376,8.376,0,0,1-.927,4.931c-.2.346-.134.841-.262,1.244a10.5,10.5,0,0,1-.545,1.179c-.677.424-1.384.891-2.116,1.313a2.431,2.431,0,0,1-3.442-1.649,6.7,6.7,0,0,1,.063-3.146,29.407,29.407,0,0,0,1.158-5.591,37.841,37.841,0,0,1,1.615-5.466c2.039-5.774,3.807-11.642,6.017-17.332-.375-.629-.711-1.158-1.015-1.7a3.972,3.972,0,0,1-.2-3.679,41.356,41.356,0,0,1,6.621-9.291,2.918,2.918,0,0,1,3.008-.107A8.58,8.58,0,0,1,392.571,289.611Z" transform="translate(269.386 104.19)"/><path d="M156.66,219.494a19.408,19.408,0,0,0,1.112-2.257,3.944,3.944,0,0,1,3.754-2.9,37.205,37.205,0,0,0,3.712-.635c3.647,1.231,7.039,2.913,9.212,6.955a22.1,22.1,0,0,1,.147,7.167,3.426,3.426,0,0,1-.568,1.776c-1.13,1.317-.529,2.865-.8,4.543-.677,1.286-1.479,2.779-2.255,4.283a8.9,8.9,0,0,1-5.057,4.585,11.23,11.23,0,0,0-1.147.547,5.405,5.405,0,0,1-3.515-1.286,7.743,7.743,0,0,1-3.4-4.425,20.459,20.459,0,0,1-1.206-6.177C156.68,227.631,156.66,223.592,156.66,219.494Zm8.62.514a2.386,2.386,0,0,0-2.064,2.127,47.647,47.647,0,0,0-.006,11.451,2.9,2.9,0,0,0,2.282,2.38c2.439-3.433,4.482-7.022,3.92-11.661l-1.753-3.215Z" transform="translate(32.908 25.261)"/><path d="M426.616,226.575l-2.171-2.926c3.815-4.9,6.21-7.171,14.667-11.875a16.138,16.138,0,0,1,1.485,1.145,19.459,19.459,0,0,1,1.336,1.6,80.714,80.714,0,0,1-.025,11.126,8.62,8.62,0,0,1-3.026,3.482,2.208,2.208,0,0,1-3.1-1.2c-.147-.617-.174-1.258-.285-1.883-.071-.409-.2-.81-.308-1.252-.325.1-.786.109-.944.329a71.228,71.228,0,0,0-4.49,6.886c-.82,1.493-1.7,2.93-2.662,4.333-1.074,1.56-2.032,3.2-3,4.83a43.5,43.5,0,0,0-2.5,4.428,13.8,13.8,0,0,1-3.972,4.891,2.243,2.243,0,0,1-2.389.063c-1.638-1.219-2.045-2.934-.883-4.4,1.711-2.162,3.234-4.448,4.759-6.741q2.47-3.709,4.553-7.636C424.546,230.107,425.525,228.486,426.616,226.575Z" transform="translate(314.959 23.145)"/><path d="M194.832,235.9a6.253,6.253,0,0,0,3.022-2.2,2.2,2.2,0,0,0,.367-1.776c-.885-.589-1.814-1.109-2.626-1.776a2.512,2.512,0,0,1-.969-2.84,2.983,2.983,0,0,1,2.7-2.341c.426-.025.854,0,1.391,0,1.607.877,3.305,1.77,4.966,2.727a1.9,1.9,0,0,1,.946,1.573,9.988,9.988,0,0,1-2.5,7.668c-1.873,2.053-3.645,4.2-6.214,5.715h-4.446a15.476,15.476,0,0,1-7.087-8.706c-.029-1.875-.44-3.8.558-5.629a4.769,4.769,0,0,0,.371-1.852c.1-1.277.141-2.561.2-3.721,1.531-4.172,3.341-7.993,7.2-10.392,1.586-.075,2.834.812,4.1,1.546.453.262.65.967.961,1.464a30.294,30.294,0,0,0-3.276,4.056c-1.346,2.4-2.393,4.971-3.538,7.483a4.629,4.629,0,0,0-.12,3.142c.43,1.621,1.055,3.19,1.579,4.729Z" transform="translate(63.228 23.772)"/><path d="M408.089,213.482a5.454,5.454,0,0,1,3.459,3.144c-1.047,1.963-.363,4.3-1.237,6.227-.933,2.053-.48,4.214-1.051,6.558a10.952,10.952,0,0,1-1.688,1.5,5.052,5.052,0,0,1-1.806.409,1.016,1.016,0,0,1-1.095-.535,6.294,6.294,0,0,1-.906-3.517c.04-.487.006-.787-.539-.881a1.032,1.032,0,0,0-.631.048,4.805,4.805,0,0,0-1.024.736c-4.734,4.625-9.446,9.268-14.186,13.886-1.063,1.036-2.2,1.993-3.129,2.825-.694.136-1.114.216-1.531.3-1.734.359-2.871-.4-3.666-2.041a16.328,16.328,0,0,1,1.47-1.967c3.173-3.165,6.412-6.265,9.57-9.44a21.133,21.133,0,0,1,3.566-2.655,5.632,5.632,0,0,0,1.105-1.409c-.348-.224-.7-.44-1.049-.673a14.352,14.352,0,0,1-1.554-1.105,3.569,3.569,0,0,1-.422-4.153,1.814,1.814,0,0,1,.975-.753c1.638-.386,3.423-.231,4.853-1.361a13.951,13.951,0,0,0,6.315-2.894C405.285,214.7,406.888,214.243,408.089,213.482Z" transform="translate(276.964 25.019)"/><path d="M360.689,331.863c3.3-4.3,7.288-7.836,10.963-11.674a3.244,3.244,0,0,1,5.235,1.353c.673,2.422,1.722,4.753,1.5,7.422a62.279,62.279,0,0,0,.155,7.014,3.552,3.552,0,0,1-1.682,3.226c-.711.275-1.2-.191-1.6-.6-1.957-1.986-3.192-1.252-3.211.858-.015,1.535-.86,2.846-1.015,4.31s-.046,2.976-.134,4.459a3.28,3.28,0,0,1-1.676,2.561,1.555,1.555,0,0,1-1.774.094,15.34,15.34,0,0,1-1.762-1.537c-.617-4.016.212-7.831-.071-11.489-1.1-1.053-2.412-1.206-3.538-1.732a2.368,2.368,0,0,1-1.6-2.433C360.5,333.06,360.62,332.431,360.689,331.863Z" transform="translate(256.572 141.188)"/><path d="M315.333,234.7c-1.145,1.095-1.881,1.86-2.685,2.546a2.556,2.556,0,0,1-3.467-.2,13.071,13.071,0,0,1-1.246-1.447c0-2.578-.006-5.132.006-7.685a5.165,5.165,0,0,1,.141-1.9c1.544-3.683.728-7.576,1.1-11.359a6.521,6.521,0,0,1,2.255-3.02,2.962,2.962,0,0,1,3.024-.411,2.869,2.869,0,0,1,2.013,2.295c.178,2.741.422,5.48-.518,8.2a15.388,15.388,0,0,0-.491,4.4C315.371,228.884,315.375,231.646,315.333,234.7Z" transform="translate(198.907 22.28)"/></g></svg>