<svg xmlns="http://www.w3.org/2000/svg" width="1268.21" height="1901.235" viewBox="0 0 1268.21 1901.235"><g transform="translate(-768.342 -279.386)"><g transform="translate(768.342 279.386)"><path d="M952.56,1016.629l-5.865-8.234.681-11.415,11.062-10.263,4.269-17.516c-5.434-3.351-10.879-1.152-16.272-2.356-5.59-2.7-8.928-7.894-11.926-14.321a27.8,27.8,0,0,1,11.9-13.235c9.871-5.72,19.492-11.886,28.185-19.387,2.422-22.843,8.182-44.9,14.321-66.736,4.464-15.893,9.085-31.719,12.646-47.834,4.124-18.707,10.564-36.785,15.12-55.374,1.846-7.541,4.215-15.028,5.224-22.673a56.719,56.719,0,0,1,5.21-17.882c2.762-5.642.5-12.58,4.229-18.078,2.29-13.8,4.149-27.687,7.017-41.354,2.212-10.577,2.788-21.691,8.862-31.261,2.134-3.377,4.765-5.315,8.666-5.852,5.105-.707,10.185-1.61,16.678-2.657,10.773,1.008,20.055,10.027,32.033,12.148,12.226,2.187,24.205,5.511,36.72,6.415,11.9.851,23.589,4.581,36.916,1.872a73.623,73.623,0,0,0,4.607-6.48c4.2-7.147,8.143-14.452,12.345-21.6,2.84-4.857,5.157-9.779,10.512-13.13,3.6-2.239,5.459-7.423,7.8-11.468a42.384,42.384,0,0,0,2.881-7.213,81.523,81.523,0,0,1,18.535-30.226,14.911,14.911,0,0,0,4.557-10.656c5.393-4.2,10.656-5.734,17.751-3.639l5.223,9.975c.891.314,1.938,1.113,2.763.9,8.064-1.937,16.01-4.817,24.4-1.126,1.112.484,2.84-.589,4.28-.628,8.339-.249,16.7-.9,25-.406a21.123,21.123,0,0,1,12.763,5.21c2.278,2.029,4.923,3.639,7.776,5.708v19.793c-1.676,3.521-3.626,6.69-4.739,10.119-1.61,5-3.679,9.438-7.409,13.379-2.762,2.919-4.634,6.925-6.1,10.76a83.542,83.542,0,0,0-3.455,13.575c-.263,1.335.589,2.893,1.073,4.961,4.621-5.707,9.045-10.774,13-16.206,2.448-3.365,4.334-6.886,8.366-8.994,1.938-1.021,2.879-4.1,4.1-6.336,4.49-8.273,9.19-16.416,16.848-22.712l.839-9.242c-4.622-3.731-9.229-7.1-13.432-10.9a61.285,61.285,0,0,1-15.722-22.713c-7.764-18.876-12.41-33.132-12.24-50.465.052-5-3.3-8.562-3.051-13.471.406-7.815-.575-15.7-.262-23.524.5-11.912-1.256-24.021,2.8-35.7.668-1.9.38-4.163.327-6.244-.17-7.4,1.506-14.465,3.94-21.338a146.763,146.763,0,0,0,6.113-22.5c1.506-8.064,5.42-15.552,9.438-22.791,1.506-2.723,3.325-5.263,5.342-8.417,4.489-2.566,9.347-5.616,14.438-8.182,4.176-2.082,8.47-3.744,13.392-3.9,7.632-.249,13.719-3.142,17.673-10.525,4.2-7.854,12.541-10.918,20.265-13.9a17.294,17.294,0,0,1,13.758,1.008c6.6,3.246,12.855,7.082,17.542,12.777,11.717,14.229,19.729,30.515,25.357,47.978,1.753,5.406,2.447,11.193,4.372,16.534a46.656,46.656,0,0,1,2.265,12.2c.628,7.226-.655,14.727,2.958,21.534-.916,15,2.121,29.965-1.989,45.111a396.132,396.132,0,0,1-13.523,41.354c-2.422,6.178-6.231,11.926-10.066,17.41-7.449,10.682-14.819,21.508-23.223,31.418-8.745,10.3-17.869,20.487-30.789,26.142-2.7,1.178-4.727,3.849-7.527,6.205l4.438,6c-3.73,12.7-7.436,25.017-10.893,37.4-.51,1.781.171,3.9.354,6.676a72.528,72.528,0,0,0,23.131-26.011,92.559,92.559,0,0,1,22.254-27.739c2.37-2.042,5.185-3.574,7.423-5.734a70.427,70.427,0,0,0,5.682-7.056l11.859,4.373c.59,1.1,1.493,2,1.454,2.88-.406,9.268,2.422,18.746-1.624,27.818a6.14,6.14,0,0,0,0,2.84c.616,6.074,1.257,12.148,1.99,19.2,5.563-7.645,10.395-14.256,15.186-20.88,3.3-4.556,3.691-10.656,8.482-14.6,3.914-3.22,6.99-7.475,10.6-11.442-3.024-5.982-11.062-6.545-13.247-13.706l5.209-4.149-.55-4.307c1.716-.969,3.836-3.181,6.035-3.26,15.067-.576,30.306-1.689,44.2,6.244,15.853,3.783,29.833,12.057,44.456,18.746,14.164,6.467,28.066,13.51,42.086,20.291,5.145,2.487,10.158,5.092,16.259,4.647,2.422-.17,4.909,1.506,7.436,1.846,14.872,2.042,20.4,12.685,23.694,25.422,1.035,4.019,1.925,8.064,3.1,13.025-.406,1.126-1.676,3.024-1.754,4.974-.432,10.014-6.859,17.2-11.638,25.147a10.055,10.055,0,0,1-7.54,5.066c-4.11.524-7.03-1.256-10.106-5.524.458-15.525-.209-32.072-5.406-48.03-.275-.851-1.492-1.4-2.854-2.592-3.3,2.841-6.677,5.76-10.315,8.915-6.389-3.443-12.541-6.258-18.131-9.91-5.2-3.377-11.3-4.4-16.481-8.391-5.9-4.555-13.837-6.48-21.194-9.674-3.771,12.659-6.964,24.65-10.97,36.366-2.7,7.828-6.218,15.368-7.907,23.55a89.407,89.407,0,0,0-1.479,22.595c4,2.841,7.579,2.33,12.58,1.113,3.024-3.338,7.252-7.279,10.591-11.86,4.333-5.956,8.744-11.677,15.027-15.748a10.328,10.328,0,0,0,3.143-3.286c3.691-6.153,9.529-9.373,16.7-12.135h11.3c1.348.563,2.316.956,3.272,1.348,10.643,4.228,14.491,13.13,15.237,23.5.642,8.823.131,17.725.131,25.841,2.174,3.377,4.948,2.762,7.462,3.076,11.887,1.505,23.655,4.137,35.751,3.116,7.344,2.553,15.29,2.841,22.358,6.441a180.621,180.621,0,0,0,17.032,7.671c14.348,5.524,14.387,5.42,23.38,16.677,2.762-.942,5.6-2.317,8.574-2.8,3.051-.5,6.231-.118,8.758-.118,6.794,3.43,8.758,9.124,10.394,15.368,2.5,9.569,5.185,19.008,4.752,29.088a53.534,53.534,0,0,0,2.736,18.405c6,19.23,11.912,38.513,16.966,58.005,5.21,20.055,12.854,39.3,18.5,59.2,2.539,8.967,5.721,17.7,5.878,27.242.065,4.005,2.173,7.933,3.1,11.952,2.134,9.085,4.123,18.2,6.113,27.32.341,1.519-.145,3.456.628,4.608,5.132,7.553,4.909,16.874,8.588,24.951,3,6.559,4.8,13.667,7.082,20.553a12.933,12.933,0,0,1,.956,4.267c-.039,1.493-.733,2.972-1.257,4.909,7.775,9.556,7.278,22.254,11.938,33.185.248,12.227,5.733,23.04,9.438,34.311,4.372,13.287,9.177,26.43,13.811,39.626.681,1.937,2.239,3.927,2.042,5.76-.72,6.99,1.663,13.339,3.208,19.911,1.427,6.048,2.5,12.174,3.7,18.261.105.511-.039,1.113.171,1.558,3.508,7.514,6.375,15.028,7.068,23.577a80.972,80.972,0,0,0,5.328,22.66c5.864,14.976,6.52,31.523,14.177,45.91a7.7,7.7,0,0,1,.786,2.985c1.19,16.651,7.017,32.308,11.311,48.187,5.93,21.953,11,44.116,16.4,66.2,2.3,9.465,2.461,19.453,3.613,29.206.3,2.592.014,5.433,1.021,7.71,5.524,12.462,6.677,26.024,10.146,39a37.409,37.409,0,0,1,1.61,9.164c.183,14.19,4.189,27.608,7.618,41.2,4.2,16.56,9.256,32.871,11.625,49.94,1.257,9.072,2.632,18.5,6.6,27.1.654,1.427,1.858,2.828,1.9,4.268.354,10.577,6.126,18.641,12.044,26.639,9.529,12.855,12.7,28.185,16.821,43.108,2.618,9.464,4.517,19.125,6.965,28.629.5,1.938,2.016,3.613,3.063,5.419.786,1.335,2.017,2.6,2.252,4.032,1.335,8.182,2.7,16.389,3.443,24.65.261,2.88-1.218,5.93-2.135,9.949,1.532,8.195,4.7,16.861,11.507,23.511v11.4l-4.123,1.977c-2.593-3.142-3.849-8.339-9.465-4.9-.341.38-1.034.812-.982,1.113.341,2,1.283,3.993,1.179,5.93-.118,2.513-1.453,4.974-1.453,7.461,0,1.82,1.322,3.64,2.029,5.433-2.37,3.482-5.943,5.092-9.5,3.521-3.063-1.348-5.93-.628-8.836-.9-2.331-.223-4.8.838-7.2,1.387-14.1,3.247-28.642,4.87-41.745,11.664-12.489,1.44-23.733,6.991-35.411,11-9.295,3.194-18.157,7.631-27.831,9.8a78.994,78.994,0,0,1-10.616,2.16c-5.2.433-10.656-.6-15.578.655-4.569,1.152-9.124,1.6-13.653,2.5-12.633,2.526-25.764,3.613-37.335,9.9-6.153,3.338-12.974,3.967-19.427,5.027-8.286,1.361-16.128,3.129-23.864,6.506-4.15,1.807-8.575,2.971-12.646,5.458.8,1.689,1.375,3.129,2.121,4.478,7.684,13.8,10.839,29.035,13.929,44.272,2.788,13.706,5.223,27.491,8.076,41.184.668,3.194.9,6.048-.405,9.111a6.434,6.434,0,0,0-.393,4.438c3.705,8.562,2.12,17.568,1.989,26.326-.13,9.478,1.912,18.588,2.814,27.87.9,9.059,4.608,16.952,7.58,25.226,3,8.313,6.219,16.416,11.716,23.537,2.514,3.26,3.98,7.318,5.537,10.3,1.361,6.4-2.526,11.913-.025,17.528-1.388,2.736-2.095,6.847-4.294,7.946-5.93,2.959-9.176,8.444-14.19,12.567-3.142.89-6.559,2-10.054,2.854a24.281,24.281,0,0,0-14.111,9.111c-8.064,10.8-19.034,17.292-31.34,21.966-1.453.563-3.168.969-4.229,2-6.833,6.624-16.284,8.928-23.891,15-8.3-.8-16.4,1.414-24.048,4.555-8.652,3.561-17.646,5.76-26.482,8.614-6.375,2.068-12.8,3.861-18.837,7.239a35.925,35.925,0,0,1-16.259,4.713c-7.973.144-15.067,4.124-22.936,3.94-8.247,4.739-17.385,3.024-26.1,3.024-8.155-.013-14.9-4.28-19.557-11.074-1.453-5.354-1.062-10.539-.288-15.723.235-1.531.118-3.4.955-4.5,6.271-8.273,9.386-18.628,17.241-25.868,3.835-3.547,7.265-7.527,10.931-11.258,7.331-7.449,14.047-15.709,22.254-22.032s15.474-13.706,23.864-19.793a138.394,138.394,0,0,0,11.782-10.263c1.139-1.035,2.579-2.356,2.762-3.7.772-5.472,5.079-9.033,6.99-13.785,5.6-13.916,11.547-27.739,13.064-42.925.314-3.076,1.467-6.048,2-9.111,1.938-11.009,2.029-21.665-4.15-31.784-4.607-7.527-8.679-15.3-13.771-22.634-6.453-9.282-13.038-18.655-16.376-29.965a74.8,74.8,0,0,0-10.3-20.932,47.2,47.2,0,0,1-5.891-12.489c-3.142-9.4-7.488-18.209-11.887-27.058-6.257-12.555-12.357-25.252-17.528-38.278-3.417-8.6-9.609-16.154-10.276-25.841-7.16-6.938-7.174-16.979-10.459-25.514-4.059-10.538-5.865-21.979-8.1-33.146-2.029-10.119-3.73-20.343-3.771-30.737,0-.367-.6-.72-.955-1.126-2.657,4.5-4.936,9.02-5.105,14.479-.079,2.448-1.546,4.831-2.135,7.3-1.544,6.532-4.332,12.816-3.783,19.78a12.875,12.875,0,0,1-.746,6.139c-4.594,10.041-1.622,21.94-7.841,31.522-1.7,9.648-8.1,18.013-7.566,28.263a2.54,2.54,0,0,1-.223,1.532c-7.252,9.491-6.231,21.6-10.119,32.216-3.469,9.478-7.462,19.557-2.749,30.174.733,1.676.157,4.15-.354,6.1-1.715,6.506-3.679,12.947-4.673,16.363-3.757,7.593-12.437,4.883-12.41,13.13l5.681,5.485c1.152,3.338-1.139,5.328-1.754,7.737.668,2.958,1.152,6,2.055,8.9s2.239,5.708,3.1,7.894c-1.872,7.043-7.814,7.357-12.527,10.08a36.233,36.233,0,0,0-5.445-2.448,119.49,119.49,0,0,0-12.083-2.749,12.615,12.615,0,0,0-6.1.275c-3.062,1.125-5.655.707-8.862.249-8.85-1.283-16.77-4.974-25.147-7.422-13.339-3.9-26.443-8.993-40.568-10.08a78.522,78.522,0,0,1-19.819-3.757c-4.176-1.479-7.775,1.466-12.069-.655-3.94-1.937-9.164-1.387-13.837-1.662-4.177-.249-8.378-.144-12.554-.17s-8.2,0-12.254-1.846c-2.684-1.217-6.126-.942-9.242-1.008-8.364-.2-16.729-.327-25.108-.274a149.16,149.16,0,0,1-39.756-4.713c-2.474-.655-5.145-.471-7.7-.877-6.086-.969-12.16-2.055-17.776-3.024-3.168,1.361-4.727,3.547-4.817,6.257-.327,10.42-5.263,20.251-3.836,30.881-2.3,4.778-2.186,10.132-3.508,15.081-3.613,13.549-4.844,27.53-8.353,41.053-3.508,13.562-4.555,27.53-6.847,41.3a45.418,45.418,0,0,1-2.028,7.5c-2.631,7.37-2.7,15.434-5.42,22.607-2.54,6.715-7.645,12.423-10.643,19.008-3.652,8.024-6.271,16.521-12.357,23.891-5.773,5.76-13.641,5.786-21.679,5.119-6.624,4.438-13.1,8.731-19.544,13.1-6.389,4.346-10.762,11.153-19.479,15.211-4.568.38-10.485.773-16.795-1.244a29.107,29.107,0,0,0-15.355-.34,46.92,46.92,0,0,1-26.064-.314c-3.416-1.034-7.252-.707-10.891-.93s-7.292.118-10.63-1.963a9.179,9.179,0,0,0-4.478-1.1c-23.406-.314-44.9-7.488-65.978-18.131-5.786-.523-11.808-.471-18.026,1.624-6.531,2.186-12.985.537-19.675-2.016-13.68-5.223-25.736-13.4-38.905-19.518-11-5.119-18.589-15-28.421-21.835-3.8-6.14-9.556-11.141-10.917-18.982l6.7-15.041c4.621-4.543,10.329-2.54,15.7-3.98l12.463-8.09c4.254-7.449,8.339-14.583,11.886-20.8,4.308-2.068,7.109-.942,10.041.393,8.012,3.653,15.84,7.933,24.428,10.028,11.493,2.814,22.713,6.912,34.795,7.3,2.894.092,5.342.943,8.535-.065,2.959-.942,6.886,1.506,10.08.891,3.155-.615,5.97-1.558,8.954.078,4.411,2.422,9.15,1.624,13.823,1.466,3.928-.118,7.345,1.924,11.821.891,9.6-2.2,19.846.379,29.494-2.867,5.969,2.592,12.252,1.924,18.6,1.938,6.009-8.758,8-19.06,10.551-28.97,1.925-7.449,5.342-14.753,4.5-22.817a6.866,6.866,0,0,1,.537-3.05c5.733-14.177,6.1-29.389,8.875-44.142,1.35-7.174,2.252-14.308,3.037-21.521.839-7.829,4.164-14.923,7.816-21.888-2.1-3.469-5.643-4.568-9.086-4.8-14.046-.982-27.228-6.415-41.235-7.593a34.533,34.533,0,0,1-10.446-3c-7.7-3.325-15.525-5.838-24-6.061-1.5-.04-2.984-.773-4.5-1.021-8.705-1.44-15.8-7.37-25-8.077-8.143-.628-16.05-3.927-24.179-5.328-17.45-3-34.01-9.006-50.636-14.714-7.265-2.487-14.963-3.246-21.939-7.37-6.532-3.862-14.452-5.394-21.758-7.946-1.95-.681-3.861-1.715-5.864-1.951-7.068-.812-14.151-1.427-21.246-1.977-6.729-.537-13.5-.8-20.225-1.349-5.146-.432-10.264-.222-15.435-1.95-4.294-1.427-9.255-.812-13.928-1.113-2.579-.157-5.159-.3-7.776-.458-6.689-6.4-9.727-12.92-6.284-22.411a270.058,270.058,0,0,0,14.178-57.154,24.825,24.825,0,0,1,1.964-5.852c1.95-4.817,4.7-9.373,4.411-14.845,6.127-14.989,7.082-31.3,12.018-46.6,1.112-3.443,2.016-6.951,3.037-10.433.746-2.474,2.095-4.922,2.2-7.422.432-11.6,5.066-22.189,7.475-33.3,2.3-10.643,4.241-21.352,6.532-31.981.864-4.058,1.585-8.378,3.548-11.913,5.419-9.727,8.012-20.356,9.9-31.038,2.16-12.306,6.362-24.009,9.347-36.065,2-8.077,1.336-16.429,4.4-24.479,2.355-6.153,3.874-12.829,5.916-19.243a276.64,276.64,0,0,0,10.944-48.436c1.609-12.332,4.83-24.427,6.912-36.707,2.592-15.329,7.409-30.135,9.465-45.647,1.832-13.771,6.375-27.2,9.962-40.725,2.514-9.518,3.011-19.388,6.349-28.839,3.246-9.2,5.275-18.981,7.121-28.577,4.411-22.909,10.3-45.4,16.678-67.8,1.3-4.529,1.846-9.15,2.827-13.667,2.2-10.093,2.7-20.448,5.512-30.449,1.532-5.446,1.6-11.3,2.618-16.914,2.579-14.295,6.925-28.21,9.818-42.388C945.595,1042.928,948.92,1029.955,952.56,1016.629Zm766.975,827.362c-.013,1.558-.511,3.3.026,4.634,2.984,7.449,2.944,15.238,3.011,23.04.092,11.467.458,22.961.17,34.429s3.718,22.542,2.8,34.063c-.1,1.151,1.062,2.408,1.689,3.718l20.893-17.319c-.3-4.4.314-9.4-1.191-13.641-1.806-5.08-2.068-10.132-2.723-15.264a52.291,52.291,0,0,0-2.238-8.967c-2.435-7.894-4.359-16.036-7.685-23.537-3.5-7.868-6.781-16.259-14.779-21.129-.314-1.989-.275-4.124-1.021-5.956a232.492,232.492,0,0,0-14.438-28.983q-9.681-16.808-20.173-33.054c-.878-1.349-1.663-3.666-4.556-2.8.5,2.474,2.082,5.367,1.256,7.134-2.343,5.027-1.387,10.237-2.12,15.3a307.878,307.878,0,0,0-3.4,32.321c-.092,2.461-1.479,4.869-2.095,6.781,2.92,6.087,2.042,13.064,7.71,17.711l15.33-14.439h14.884C1714.834,1838.52,1715.044,1844.436,1719.534,1843.991Zm-68.976,25.016c.288,2,.065,4.255.943,5.957,5.668,11.062,11.7,21.953,17.384,33.015,3.548,6.912,6.755,13.955,12.92,19.139,1.507,1.256,2.409,3.364,3.26,5.223,3.443,7.527,8.471,14.308,10.028,22.739.327,1.806,1.675,4.621,5.314,3.849,0-4.9-.065-9.557.014-14.217q.333-20.363.759-40.712c3.783-5.21.354-10.931.917-16.416.589-5.852-1.454-11.978-2.383-18.327-9.06.628-13.313,8.443-21.338,12.227-2.475-.445-6-1.008-9.478-1.714-7.318-1.506-11.913-7.881-18.589-10.525,1.426-6.087-3.286-10.852-3.588-16.56l-2.081-19.125c3.391-3.574.484-7.907,1.44-11.729,1.126-4.5,2.539-8.941,3.939-13.746l-3.81-3.547-8.718,1.82-11.729-9.988c-1.768-15.055-.445-29.664-.839-44.6-4.607-4.372-6.571-10.2-7.841-16.389a20.222,20.222,0,0,0,1.165-2.854c3.7-15.5,5.655-31.443,12.985-45.975a10.394,10.394,0,0,0-1.479-11.742c-3.613-.3-5.538,2.487-7.8,4.477-11.716,10.315-21.586,22.621-34.323,31.85-1.191.864-1.846,2.475-2.894,3.967,0,1.4-.419,3.1.065,4.49,5.59,16.075,8.614,33,16.587,48.3,6.466,12.436,12.278,25.226,18.64,37.728,5.172,10.159,7.842,21.456,14.388,30.959,1.767,11.6,9.7,20.526,13.641,31.2C1648.294,1868.405,1649.7,1868.615,1650.559,1869.007ZM1517.767,693.941c-9.688,0-20.173-.393-30.606.1-11.023.537-21.744-1.3-32.557-2.788-11.848-1.636-23.643-3.757-35.7-3.652-3,.013-6.39-2.212-8.916-1.375-4.045,1.348-7.017-1.257-10.59-1.3-2.972-.013-5.917-2.291-8.889-2.317-7.894-.065-15.3-2.932-22.987-3.534-9.36-.733-18.8-.118-28.2-.38-6.741-.17-13.692.039-20.146-1.558a75.022,75.022,0,0,0-12.187-1.793c-8.745-.746-17.765,1.662-26.261-2.291a3.775,3.775,0,0,0-2.958.523c-4.333,2.749-9.151,1.9-13.771,1.741-7.266-.223-14.885.275-21.679-1.793-7.082-2.147-14.937,1.3-21.3-3.718-4.66-.183-9.295-.877-13.876.956-3.771,1.505-7.736,2.526-11.887,3.862-2.644-1.846-5.17-3.587-7.671-5.341-1.662-1.165-3.233-3.207-4.975-3.377-6.191-.563-11.808-3.509-18.366-3.089-9.792.628-19.767,1.479-29.324-2.579-2.237-.956-5.157-.354-7.775-.445-5.223-.17-10.459-.471-15.683-.445-8.024.065-15.172-2.16-22.229-6.14-6.6-3.731-13.614-7.684-21.966-5.537-.994,1.322-2.33,2.422-2.788,3.823-3.967,12.266-4.451,25.5-10.381,37.256-.655,1.3-.445,3.1-.367,4.66.3,5.354-1.648,10.211-3.1,15.186-.863,2.971-2.605,5.93-2.605,8.888.04,11.048-5.17,21.377-4.1,32.5a8.722,8.722,0,0,1-.6,3.037c-1.624,5.458-3.443,10.852-4.884,16.363s-1.348,11.847-4.137,16.508c-2.932,4.9-3.691,10.119-5.642,15.093a50.857,50.857,0,0,0-3.469,13.483c-.93,8.745-1.453,17.8-4.189,26.051-4.386,13.235-8.116,26.692-13.144,39.73-1.832,4.752-2.565,9.949-3.613,14.989-.17.812.59,1.833,1.061,3.142,1.322,0,3.3.615,4.124-.1,3.862-3.377,7.724-6.572,12.92-7.632,6.245-6.1,14.492-7.75,22.059-10.289l12.476,4.058-3.993,27.8a414.061,414.061,0,0,1-49.548,82.013c-4.2,2.082-9.308,4.621-14.91,7.4-2.213,4.451-5.734,8.875-6.585,13.758-2.408,13.85-7.711,26.941-9.962,40.765a18.12,18.12,0,0,1-3.85,8.391c-1.9,2.448-3.953,4.765-6.021,7.226,0,4.961-.394,9.688.091,14.334.838,8.012-2.408,15.382-3.076,23.131-7.121,13.274-5.275,28.407-8.574,42.506-1.4,6.009-1.951,12.462-4.163,18.157a43.05,43.05,0,0,0-2.893,15.2c-.079,4.176-.014,8.365-.014,12.279-2.369,6.062-5.171,11.494-6.6,17.764-2.173,9.543-6.624,18.576-6.126,28.721a3.961,3.961,0,0,1-.459,1.466c-5.039,13.1-7.042,26.98-10.446,40.5-1.649,6.558.38,13.732-3.6,19.819-2.683,14.243-5.733,28.394-10.275,42.218-3.443,10.512-2.526,21.639-4.045,32.386-1.978,4.8-4.229,9.635-4.922,14.675-.917,6.69-1.951,13.405-2.619,20.068a88.371,88.371,0,0,1-9.9,32.6c-1.9,3.652-3.521,7.488-3.521,11.873-.014,8.967-2.933,17.228-6.022,25.566-2.866,7.736-4.517,15.932-6.649,23.943-2.933,11.022-5.668,22.084-8.758,33.054-3.076,10.931-5.747,22.019-11.219,32.125a14.822,14.822,0,0,0-1.663,4.333c-1.688,9.687-3.26,19.4-5.014,29.964-5.171,5.826-8.666,13.091-8,22.071.185,2.435-1.361,4.948-1.885,7.475-2.893,14.177-7.238,28.093-7.187,42.558-6.4,9.059-6.9,19.715-9.347,29.69-3.076,12.528-5.276,25.252-8.326,37.819-2.029,8.391-6.388,16.651-4.071,25.579,3,4.045,7.147,4.15,11.376,4.49,11.873.969,23.76-.144,35.686,2.814,11.952,2.972,24.729,2.5,35.987,8.627a6.552,6.552,0,0,0,3.023.6c7.029.026,13.078,2.958,19.243,5.891,12.214,5.8,25.566,8.431,38.317,12.737,4.241,1.44,8.888,3.168,13.339,3.521,14.178,1.086,27.334,6.218,40.556,10.368,25.684,8.051,51.773,13.771,78.2,18.5,8.143,1.453,16.35,2.474,24.44,4.176,11.664,2.461,23.223,5.537,35.293,5.21,2.094-.052,4.49-.5,6.218.34,6.925,3.325,14.518,1.584,21.481,3.234a122.283,122.283,0,0,0,21.587,2.8c1.558.091,3.352-.288,4.66.327,6.925,3.272,14.361,2.173,21.587,2.867,7.736.733,15.447,1.859,23.184,2.566,5.7.511,11.271,1.414,16.888,2.409,8.626,1.532,17.331,3.456,26.115,3.888,14.545.72,29.063.04,43.632,2.422,13.222,2.16,27.085-.641,40.175,3.98a158.539,158.539,0,0,1,29.376,2.709c5.563,1.047,11.063,2.645,16.626,3.351a94.146,94.146,0,0,1,16.756,3.417c7.867,2.513,15.7,5.184,23.59,7.671a45.372,45.372,0,0,0,23.681,1.2c4.948-17.332,6.009-34.546,11.913-50.662a18.776,18.776,0,0,0,.981-6.1c.144-10.629,3.94-20.264,7.488-30.1,4.372-12.135,8.679-24.427,11.323-37.021,2.763-13.143,6.677-26.024,8.6-39.351s7.658-25.867,8.051-39.56c.079-3,1.427-6.087,2.7-8.9,7.213-16.141,11.873-33.106,16.428-50.111,2.8-10.5,6.166-20.88,8.393-31.5,3.285-15.7,5.445-31.6,9.412-47.179a87.167,87.167,0,0,0,2.84-18.314c.367-11.062,3.286-21.442,6.088-32.007,2.644-9.988,7.946-19.335,7.605-30.122-.039-1.375,1.165-2.867,1.964-4.2,3.115-5.119,3.73-10.787,3.81-16.586a37.551,37.551,0,0,1,2.382-12.2c1.9-5.328,2.108-11.3,4.163-16.547,3.181-8.195,2.762-17.62,8.758-24.427.458-12.894,4.542-24.833,5.97-37.112,2.238-19.165,7.238-37.728,11.389-56.421,3.836-17.188,7.959-34.337,11.532-51.6,1.48-7.108,3.143-14.151,3.155-21.5a33.031,33.031,0,0,1,1-6.126c1.833-9.687,4.1-19.256,5.263-29.088a228.075,228.075,0,0,1,5-25.919c2.383-10.054,4.727-20.2,6.362-30.305,1.729-10.669,1.688-21.691,4.163-32.046-2.081-3.613-3.822-6.808-5.721-9.923-7.7-12.606-13.287-26-13-41,.131-7.161-4.582-14.046-.942-21.272-4.307-11.9-1.178-23.642,1.008-35.306,2.108-11.219,3.993-22.608,13.68-30.567,1.859-1.519,2.92-4.019,4.359-6.074h14.937c.956-2.121,1.938-3.927,2.579-5.838a24.275,24.275,0,0,0,1.387-6.035c.629-10.446,3.418-20.474,5.616-30.632,1.741-8.1,3.8-16.3,4.085-24.519.366-10.015,2.894-19.558,4.607-29.231,3.155-17.856,7.854-35.45,10.748-53.345,1.662-10.315,4.451-20.291,7.121-30.252,2.814-10.5,4.032-21.3,7.54-31.719,4.189-12.476,6.4-25.605,10.617-38.081-4.766.353-8.823.628-12.869.982-3.6.314-7.618-.183-10.682,1.3-5.668,2.736-10.931,2.435-16.6.667-5.406-1.7-10.905-4.11-16.43-4.281-10.943-.353-21.338-4.922-32.412-3.691a8.93,8.93,0,0,1-4.647-.458c-7.462-3.587-15.421-2.134-23.184-2.592-9.831-.6-19.583-.275-29.415-2.814-13.038-3.352-26.521-5.132-40.162-3.43a12.773,12.773,0,0,1-3.076-.419Zm213.261,99.713-5.092,7.017c-.314,8.286.537,16.363-1.165,23.864-2.985,13.1-3.312,26.758-8.091,39.469.615,5.865-1.636,11.206-2.906,16.756-1.4,6.048-.065,13.025-3.56,18.235-3.535,5.275-1.48,11.376-3.941,16.219-3,5.917-2.094,12.24-3.744,18.209-1.5,5.459-2.553,11.036-3.8,16.56,3.757,6.218-1.374,11.978-.9,18.052.394,5.132-1.36,10.42,1.179,15.225,2.146,4.2,6.584,2.671,9.752,4.215,1.729.825,3.076,2.409,4.242,3.364-.8,7.318-6.389,8.273-10.957,10.407-2.226-1.126-4.451-3.273-7,.354-.223,8.443,1.034,17.672-1.073,26.063-2.618,10.394-1.715,20.709-2.539,31.039-.2,2.566-.472,5.589.642,7.7,3.142,5.956,2.133,12.279,2.447,18.458a34.482,34.482,0,0,1-8.365,24.48c-4.883,5.813-7.317,12.266-8.6,19.728-.576,3.312,1,6.009.327,8.967-.681,3.011-2.356,6.009-2.213,8.954.734,14.779-4.044,28.7-6.728,42.885-1.257,6.637-2.121,13.261-3.168,19.9-1.571,10.158-2.3,20.408-5.433,30.436-3.364,10.839-4.844,22.294-6.769,33.539-1.558,9.164-2.383,18.458-3.888,27.647-.746,4.569-1.4,9.517-3.64,13.418-5.354,9.373-6.14,19.833-7.37,29.913-2.735,22.319-7.919,43.815-17.109,64.341-1.047,2.317-2.592,4.935-2.291,7.213.707,5.458-3.129,9.7-3.534,14.033l12.148,13.353c.209,8.051,4.477,15.146,3.966,23.144,5.105,16.364,7.659,33.159,9.923,50.151,1.977,14.91,5.368,29.637,5.9,44.757a32.124,32.124,0,0,0,.655,4.608c1.728,9.15,3.939,18.248,5.092,27.464,1.218,9.831,3.757,19.334,5.537,29.009,2.146,11.716,6.428,22.883,7.763,34.861.97,8.627,4.216,17.188,7.554,25.121,3.587,8.509,7.737,16.966,11.375,25.5,3.876,9.137,9.19,17.424,13.746,26.155,7.685,14.714,13.522,30.5,24.31,43.5a8.093,8.093,0,0,1,2,4.163c.38,5.158,4.582,8.1,6.78,12.161,2.409,4.464,5.734,8.417,8.811,12.8l20.8-6.768c2.774.838,5.642,2.8,7.605,2.121,6.009-2.069,12.528-1.152,18.287-3.352,11.206-4.28,22.923-6.205,34.533-8.679,3.535-.76,7.018-2.317,10.539-2.37,10.434-.17,20.226-5.053,30.776-3.993,6.428-4.124,14.661-.759,21.023-5.119,10.329-1.427,19.715-6.1,29.717-8.692,3.966-1.021,8.875-.877,11.715-3.246,6.062-5.027,13.472-5.9,20.278-7.226,8.365-1.624,15.408-6.022,23.406-8.221,8.431-2.317,16.547-5.8,24.794-8.81.433-.17.72-.733,1.388-1.453a71.82,71.82,0,0,0-1.729-16.625c-5.825-26.836-13.745-53.135-21.481-79.421-6.729-22.831-13.444-45.661-19.558-68.661q-5.577-21.01-11.088-42.034c-7.344-28.028-14.858-56.029-20.657-84.422-3.535-17.241-8.325-34.207-11.127-51.63a174.593,174.593,0,0,0-6.062-25.58,67.245,67.245,0,0,1-2.905-13.627,60.263,60.263,0,0,0-1.82-9.125c-3.73-13.981-7.553-27.949-11.375-41.9-1.637-6-4.6-11.939-4.766-17.961-.393-13.732-5.708-26.247-8.811-39.207-3.691-15.513-8.836-30.8-12.842-46.289-2.841-11.009-7.685-21.625-7.828-33.277-3.8-8.613-3.207-18.654-7.278-26.849-7.7-15.512-9.4-32.923-16.914-48.37-1.57-10.354-6.034-19.793-9.32-29.611-3.455-10.3-6.283-20.814-9.4-31.222-4.909-16.376-10.459-32.583-14.491-49.156-2.344-9.608-6.833-18.379-8.744-28.158-3.247-16.73-8.025-33.146-11.939-49.731a734.088,734.088,0,0,0-23.405-78.833c-2.789-7.815-5.931-15.6-7.515-23.681a36.011,36.011,0,0,0-6.009-13.3l-1.728-16.4-7.986,11.86Zm-315.343-309.78a128.711,128.711,0,0,0,21.966-24.061,98.879,98.879,0,0,0,15.748-36.825c2.88-13.483,4.177-26.456-.523-39.756-1.872-5.3-2.265-11.114-3.521-16.638a14.759,14.759,0,0,0-2.29-5.655c-6.3-8.234-12.673-16.416-19.336-24.349-1.532-1.807-4.333-2.54-6.244-3.6-6.31,4.15-12.7-1.872-19.413,2.252-5.485,5.367-11.782,11.533-17.5,17.136-1.087,11.428-4.424,21.377-4.844,31.8-3.154,3.665,1.3,7.986-1.139,11.874-2.565,4.1.223,7.959,1.021,11.965.353,1.754-1.191,3.836-1.6,5.825a29.753,29.753,0,0,0-.287,4.542c.876,1.466,1.636,2.828,2.486,4.137,1.113,1.728,2.3,3.4,3.26,4.8.537,5.576.341,10.511,2.526,15.63,3.024,7.095,4.281,14.936,9.36,21.167.851,7.514,5.446,13.261,9.242,19.754Zm-224.336,1468.5c-3.837-2.749-5.918-1.074-6.926,1.414-2.54,6.271-4.294,13.064-9.072,17.987-4.516,4.661-6.677,10.185-9.308,15.905-3.573,7.763-6.492,16.73-15.918,20.173-3.1,5.223-8.116,8.954-8.889,16.01-1.112,10.3-5.079,20.029-9.778,29.362-2.121,4.229-6.795,6.925-8.051,11.049-2.252,7.4-8.091,12.109-12.109,18.013-3.9,5.734-9.386,11.3-17.712,13.1l-15.067-.694c-4.242-1.9-8.758-3.43-12.75-5.825-6.179-3.731-13.091-7.108-17.7-12.384-6.559-7.54-14.046-10.119-23.3-9.53-5.576,2.972-10.643,7.017-17.411,6.388-9.66,3.94-19.845,5.472-30.082,6.978-3.771.563-7.317,2.552-11.782,4.189l35.294,17.358c3.181,0,7.356.131,11.532-.04,4.8-.183,9.125,1.624,13.667,2.618,7.068,1.558,14.295,3.076,21.481,3.234,18.813.445,37.637.157,56.972.157,6.493-1.924,11.716-7.292,18.772-9.766,6.571-2.291,12.03-7.737,18.405-12.083h13.823c1.663-4.137,3.272-7.907,4.688-11.742,1.439-3.875,2.617-7.841,4.058-11.716,4.477-12.148,9.373-24.139,13.393-36.432,2.395-7.331,4.62-14.871,4.855-22.751.105-3.129-.444-6.716.9-9.269,2.592-4.935,1.126-10.617,3.181-15.159,2.539-5.629,1.793-11.193,2.383-16.822C1189.214,1959.059,1190.366,1956.126,1191.349,1952.37Zm524.6,23.537-10.158-6.6a22.414,22.414,0,0,0-2.069,3.1c-3.455,8.09-4.109,17.07-8.5,24.977-1.872,3.365-.654,8.3-1.885,12.188-2.5,7.854-5.066,15.67-7.018,23.682a43.1,43.1,0,0,1-6.99,15.46c-6.021,8.391-11.493,17.188-16.232,24.362,3.142,13.47,5.576,25.854,15.5,34.7,5.25,1.571,9.021-.6,12.737-6.192,0-2.88.171-7.03-.039-11.167-.471-9.53,2.736-18.458,5.433-27.216,2.239-7.266,6.689-14.06,11.1-20.409,3.64-5.25,8.914-8.9,16.063-6.31a24.982,24.982,0,0,1,5.721,12.541c.405,2.658,2.657,5.839,7.605,4.687a52.883,52.883,0,0,0,1.27-14.976c-.3-5.341,3.325-9.556,2.894-15.172-.668-8.784-1.021-18.078,1.112-26.5,2.539-9.962,1.885-19.623,1.623-29.48-.078-2.605-1.584-3.574-4.319-3.757q-6.048,5.5-12.686,11.546Zm-636.538,70.311c-2.854.969-6.82,1.178-7.436,2.723-2.069,5.21-7.266,4.843-11.245,7.356,8.221,10.315,18.262,15.33,30.933,13.994,8.588-9.059,11.455-20.251,15.422-30.855a57.259,57.259,0,0,0,2.8-10.394c.864-5.118,1.27-10.3,1.911-15.46.576-4.634,2.108-9.36,1.571-13.863-.668-5.629,2.684-9.87,3.561-14.95,1.833-10.643,2.723-21.547,6.165-31.9,1.807-5.393,4.412-10.616,5.42-16.141,2.618-14.269,5.145-28.5,11.232-41.8,7-4.215,9.4-4.215,13.692-.236a21.781,21.781,0,0,1,7.318,16.652c-.026,5.2-.145,10.564-1.454,15.525-1.085,4.071-2.237,7.985-2.081,12.214.184,4.621.354,9.255.551,14.033,1.466-.445,2.735-.445,3.128-1.021,8.915-13.379,24.99-47.4,27.085-57.311-3.312-1.166-6.61-2.985-10.08-3.417-11.336-1.44-22.712-2.566-34.114-3.456-7.227-.576-14.452-.17-21.561-2.67-3.129-1.1-7.16-1.584-10.6.6a12.055,12.055,0,0,0,.851,2.618c4.02,6.611,5.066,13.143,1.872,20.71-1.74,4.136-1.3,9.229-3.861,13.326-1.087,16.036-6.323,31.483-6.821,47.6-.064,2.094.3,4.372-.4,6.231-5.512,14.492-4.792,30.894-13.654,44.338a5.882,5.882,0,0,0-1.073,2.893C1088.389,2031.778,1083.925,2038.271,1079.409,2046.217Zm499.622-452.325c-.576,7.462-.354,13.327-1.624,18.837-2.212,9.53-5.314,18.864-8.129,28.25-1.087,3.626-1.244,7.213.471,10.6.825,1.624,1.768,3.691,4.347,3.089,4.255-6.021,6.742-12.671,8.482-19.806,1.336-5.485,3.928-10.656,6-15.958,4.5-11.559,10.459-22.464,15.683-33.669,2.356-5.066,4.935-10.158,7.592-15.133,2.632-4.922,6.1-9.4,8.563-13.1-2.146-10.7-.59-20.683-1.833-30.449a261.771,261.771,0,0,0-4.988-27.229c-2.146-9.242-2.225-18.981-5.433-28.263-1.19.864-2.251,1.3-2.788,2.082a9.769,9.769,0,0,0-1.885,4.176c-1.034,12.449-5.263,24.191-7.776,36.3-1.675,8.064-3.927,16.023-5.223,24.139-.89,5.577.472,11.468-2.121,16.861,2.068,6.205-.956,12.135-1.047,18.262A30.559,30.559,0,0,1,1579.031,1593.892Zm-151.526-1001c-9.739,8.326-15.512,17.2-22.791,24.467-7.618,7.592-9.766,18.235-17.633,25.147,5.327,4.66,5.327,4.765,8.064,4.9,5.707.275,11.284.655,16.9,2.422,5.852,1.833,12.58-.157,18.274,3.351,10.421.118,20.37,4.189,30.934,3.561,5.734-.354,11.507.144,17.254.379,5.707.236,11.4.812,17.109.89a72.547,72.547,0,0,1,16.364,1.624c1.753.432,3.861-.55,5.746-.864,1.676-6.716,3.194-12.737,4.7-18.759,1.44-5.786,6.886-10.538,4.831-18.222-10.473,8.326-15.774,20.369-26.208,27.752-8.09,3.05-16.363,6.192-25.593,2.566l-6.911-13.615a81.6,81.6,0,0,1,.078-9.661c.354-2.919,1.414-5.747,2.514-9.949-9.465,7.7-17.777,14.452-25.632,20.84-8.521-1.427-13.287-6.781-18-13.994Zm118.707-23.079c-7.632-2.854-11.166-10.119-19.27-11.323-6.729-1.008-12.266-8.077-20.265-4.555,3.758,10.106,3.758,12.947.812,23.917-3.469,12.907-5.707,26.129-10.484,38.709-.982,2.6-1.677,6.126,2.041,9.006,1.44-.824,3.535-1.427,4.778-2.814,6.231-6.912,12.842-13.615,18.184-21.181C1529.43,591.035,1537.873,581.334,1546.212,569.815Zm43.043,1117.009c7.828-9.294,18.563-14.832,24.729-24.951,4.673-7.684,10.066-14.269,18.17-18.405.812-.419,1.218-1.649,1.558-2.121-.89-4.831-2.056-9.308-2.462-13.863-.522-5.8-2.722-11.009-4.816-16.272-.825-2.055-2.539-3.168-5.826-2.094-6.4,7.187-8.692,17.516-14.1,26.09a60.621,60.621,0,0,0-7.58,16.8,214.375,214.375,0,0,1-10.813,32.046C1587.984,1684.362,1588.456,1684.938,1589.255,1686.823Zm46.721,430.032-8.94-8.431c-11.612,9.452-19.283,21.338-28.5,31.863a6.978,6.978,0,0,0-1.034,2.814c-.092.406.17.9.393,1.911,9.818,3.312,18.851-3.338,28.577-3.024,5.132.157,31.038-11.6,36.366-15.015a31.6,31.6,0,0,0-11.167-15.5C1648.386,2116.973,1643,2117.8,1635.976,2116.855ZM1280.3,584.28c7.841-.026,7.934.039,9.792-2.081,5.472-6.218,12.3-11.389,15.957-19.047,1.977-4.15,7.658-5.668,7.737-11.926-2.017-.275-4.137-1.178-5.8-.655-3.442,1.113-7.043,1.7-10.381,2.775-6.493,2.082-13.313,1.964-19.688,3.98-8.836,2.8-17.594,5.9-26.194,9.347-3.208,1.283-5.878,3.914-9.256,6.244,2.422,1.571,4.425,2.356,5.682,3.8,1.662,1.924,2.632,4.425,4.137,6.506.5.681,1.715.838,2.618,1.244,5.3-.485,5.065-6.009,8.535-9.321,3.142-1.073,6.964-2.749,10.944-3.574,1.662-.354,3.7,1.126,5.367,1.7ZM901.257,2052.161c-1.912,3.927-1.9,6.6.642,8.155,3.036,1.859,6.061,3.77,10.066,3.679,8.85-.209,17.7.157,26.548.131,3.115-.013,6.533.235,9.255-.93,5-2.133,10.119-2.055,15.29-2.435,2.566-.2,5.42.065,7.619-.982,8.037-3.77,16.809-4.542,26.456-6.257-4.489-2.893-8.457-4.333-12.161-3.691-10.865,1.872-21.743,1.387-32.636,1.439-7.775.04-15.591-.72-23.092,2.357a6.3,6.3,0,0,1-4.568.2C917.188,2050.066,909.451,2052.252,901.257,2052.161Zm381.02-1410.949c3.6-6.82,5.105-13.313,7.409-19.505,2.487-6.742,6.886-12.908,8.549-19.78,1.544-6.375,9.347-9.648,7.906-18.209-2.316,1.505-4.568,2.2-5.5,3.691a223.019,223.019,0,0,1-22.817,30.79c-5.825,6.519-7.657,13.968-10.747,21.233,1.453.811,2.3,1.676,3.194,1.715C1273.859,641.3,1277.472,641.212,1282.276,641.212Zm325.424,3.5c-5.446-2.4-8.667,1.309-12.123,3.037-5.092,2.566-11.9,11.062-15.591,17.646l6.951,3.639c2.984.17,6.087.38,9.189.5,3.627.131,7.266.118,10.879.314,2.736.157,5.354,3.823,8.745-.393C1609.964,662.641,1614.86,652.313,1607.7,644.707ZM1030.24,908.093c-5.066-.942-6.7,5.105-10.6,5.511-6.572.694-10.25,5.354-13.771,9.5-3.562,4.176-6.56,9.268-6.035,15.552.157,1.833-1.61,3.757-2.042,5.747-.235,1.06.484,2.33.89,4.032l13.471-14.74,8.364-1.178C1032.347,915.11,1032.347,915.11,1030.24,908.093ZM1371.9,537.769c7.646,0,13.9.1,20.147-.026,4.2-.1,7.736-1.584,10.027-6.585h-13.6c-11.848-4.372-19.27-12.135-30.279-14.845C1359.315,526.026,1368.191,529.626,1371.9,537.769Zm-25.8,102.579c-2.095-9.268,5.746-17.031,1.688-27.045-6.493,10.459-17.018,17.253-19.885,29.4C1335.071,643.882,1335.071,643.882,1346.094,640.348ZM1653.963,1749l9.517-4.621c-3.94-7.566-3.757-16.193-8.705-23.013-.681-.942-2.147-1.309-3.26-1.951-2.92,5.472.444,9.386,1.531,13.811C1654.224,1738.047,1653.713,1743.271,1653.963,1749ZM1404.832,508.524c-16.036-5.839-16.036-5.839-21.221-4.255,6.205,4.647,13.354,6.336,20.278,7.854,4.987,1.1,10.459.3,13.706-4.975C1413.315,504.413,1409.662,507.607,1404.832,508.524Zm257.194,490.445c-6.7,10.656-4.647,22.346-7.646,33.381l4.975.851c.55-5.982.314-11.756,1.78-17.058A36.868,36.868,0,0,0,1662.026,998.969ZM1367.877,489.045c-.131,3.691,2.683,5.289,5.235,6.807.8.485,2.436-.432,3.823-.733C1373.191,487.055,1373.218,487,1367.877,489.045Z" transform="translate(-768.343 -279.387)"/><path d="M843.155,521.172l-8.09-7.449a20.366,20.366,0,0,1-.812-3.7c-.026-4.726.288-9.333,2.474-13.745.813-1.636.38-3.9.55-6.506l-10.721-1.191c-1.388-3.8-2.71-7.147-3.822-10.564-4.909-15.054-4.753-20.631-1.126-38,3.3-15.748,7.487-31.248,11.311-46.839,3.181-12.947,6.375-26.378,4.385-40.346l10.3-10.983h12.62c6.035,9.5,6.676,18.968,3.351,28.865-.5,1.479-1.257,3.05-1.125,4.517.942,10.171-2.881,19.3-5.342,28.878-3.338,12.986-6.126,26.234-7.042,39.744-.132,2.055-.145,4.307-.97,6.114-2.762,5.982-1.846,12.148-2.12,18.693,4.176-2.343,5.132-6.153,6.479-9.412,5.354-12.895,10.434-25.907,15.421-38.958,1.244-3.233,3.979-6.441,1.44-10.276,1.924-4.674,3.417-9.583,5.891-13.929,2.017-3.521,5.2-6.375,7.462-9.045,4.358-.184,7.959-1.493,10.983.8,4.124,3.128,8.562,6.074,9.778,11.743.851,4.032,2.029,7.985,3.143,12.266,3.089-.942,1.885-3.862,2.592-5.773,3.076-8.26,5.877-16.639,8.587-24.977,2.933-9.02,8-15.526,15.932-20.985l15.826,4.281c5.826,5.079,1.4,11.1,3.168,16.783l-8.09,5.236c-1.977,4.7-3.076,10.184-6.191,13.994-4.557,5.577-6.074,12.018-7.4,18.458-1.545,7.514-5.026,14.806-3.47,22.9.367,1.885-.536,4.11-1.2,6.061-1.977,5.877-3.992,11.769-6.3,17.528-.706,1.768-2.422,3.129-3.3,4.2-4.438.406-4.072-3.6-6.781-5.184l-12.594,20.867c-6.585,1.6-9.138-3.849-13.234-7.4l-4.451-19.244c-2.684-.929-3.665,1.23-4.543,2.762-3.089,5.38-5.942,10.9-9.49,17.489.38,10.08-7.147,18.864-10.708,29.022C854.06,513.2,849.844,517.455,843.155,521.172Z" transform="translate(-156.345 475.751)"/><path d="M797.7,561.825l-7.92-3.116-8.3-12.174c4.687-13.287,8.967-26.548,14.138-39.456a120.307,120.307,0,0,0,6.375-19.113c1.886-8.64,6.769-16.18,9.046-24.754a190.289,190.289,0,0,0,5.236-25.723c1.57-12.881,3.953-25.566,6.769-38.2,1.793-8.063,7.369-13.588,13.876-18.864H848.65a17.024,17.024,0,0,1,2.264,2.749,139.556,139.556,0,0,0,9.53,17.725c3.037,4.608,4.778,10.342,6.022,15.813,3.351,14.74,10.014,28.263,14.793,42.466.287.851,1.452,1.4,2.826,2.671,3.535-7.527,8.156-14.5,10.146-22.176,4.294-16.495,12.555-31.889,13.575-49.3.21-3.5,1.689-7.03,3.155-10.3a151.307,151.307,0,0,0,8.444-24.977,18.973,18.973,0,0,1,4.267-8.143c1.662-1.924,2.814-4.307,4.53-7.029h15.381a7.5,7.5,0,0,1,4.451,7.383c-.04,4.7.3,9.478-.5,14.06a21.979,21.979,0,0,0,.117,8.863c.563,2.618-1.218,5.747-1.924,8.482l-8.758,2.252c-2.266,4.712-6.31,9.661-6.847,14.976-1.243,12.266-7.239,22.542-11.56,33.539-1.139,2.906-3.142,5.524-3.966,8.482-1.794,6.4-4.582,12.41-4.255,19.558.432,9.294-2.905,18.393-3.129,27.844-.1,4.386-2.749,8.719-4.229,13.026l-7.068-1.964A231.967,231.967,0,0,1,879.06,523.56c-4.294-3.312-10.708-10.59-11.965-14.007q-11.055-29.847-21.888-59.786c-.863-2.409-.523-5.25-1.4-7.658-.654-1.781-2.37-3.168-3.757-4.909-2.147,6.506-4.085,12.384-6.022,18.261-.654,1.951-1.846,3.875-1.95,5.852-.433,8.627-4.177,16.01-8.116,23.367-2.735,5.092-4.752,10.316-4.883,16.259a19.893,19.893,0,0,1-2.095,8.954c-5.145,9.216-7.3,19.335-9.74,29.4-.365,1.519-.234,3.273-.955,4.569-1.754,3.167-4.084,6.021-5.786,9.216C799.153,555.646,801.549,559.39,797.7,561.825Z" transform="translate(-609.478 452.549)"/><path d="M848.588,363.184c6.3-1.859,9.752,1.938,14.269,3.469a61.337,61.337,0,0,1-1.139,21.953c-4.817,21.155-11.206,41.891-16.089,63.006-.93,4.019-1.021,8.234-1.3,12.371-.157,2.514-1.009,5.21,1.6,7.959,16.573-3.561,33.435-9.753,51.316-2.527a94.584,94.584,0,0,0,9.817-29.82,34.162,34.162,0,0,1,3.142-10.237c3.129-6.532,5.2-13.588,8.457-20.068a43.09,43.09,0,0,0,4.831-19.061l7.3-10.747c6.454-4.137,12.974-6.781,19.99.288,1.178,5.433,1.282,10.931-1.021,16.507-2.776,6.69-5.853,13.366-7.7,20.33-2.251,8.5-5.668,16.586-7.5,25.265-1.6,7.475-3.286,15.225-7.068,22.241-1.4,2.579-1.244,6.009-1.729,8.666,4.137,9.727,13.405,9.583,21.024,12.135,2.382.812,5.2.537,7.788.419,9.688-.458,18.3,2.736,27.36,8.025l1.178,11.769c-14.217,11.86-30.75,12.541-47.336,10.839-16.285-1.688-31.418-6.977-41.629-20.16-9.8-3.469-18.405.537-26.522,2.867-10.969,3.155-22.293,4.32-33.185,7.619-3.325,1.008-7.2.157-10,.157-6.532-3.129-8.234-8.941-10.656-14.007a11.23,11.23,0,0,1-.366-7.632c4.582-13.785,7.3-27.949,10.08-42.166,1.374-7.043,5.38-13.536,5.655-20.971,6.152-13.876,7.958-28.917,11.441-43.488C842.553,370.057,842.107,369.939,848.588,363.184Z" transform="translate(-229.247 727.731)"/><path d="M856.906,423.755,867,426.138c5.288-1.545,10.669-3.783,16.246-4.568,5.223-.733,10.314-1.31,15.6-4.766,1.9-7.239,1.151-15.643,3.548-23.694,2.8-9.36,6.571-18.628,6.741-28.643,2.933-4.857,5.852-9.713,8.352-13.863l10.028-4.5c6.23,2.016,12.331,4.608,15.774,12.018-1.061,2.434-2.369,5.2-3.5,8.037-3.247,8.2-6.153,16.442-5.59,25.54.864,14.112-4.045,27.713-3.914,41.852.052,4.935-2.906,9.9-4.608,15.172,3.391,11.311-.93,21.718-4.843,31.366-6.022,4.634-11.271,8.679-16.953,13.052l-10.25-10.709c-1.23-13.025.746-25.513-.379-38.447-15.448,4.66-30.712,6.742-45.465,12.2-1.872,5.734-2.631,11.167.863,17.476l-15.146,19.217c-2.422,5.315-4.347,13.065-10.446,18.8H817.4c-5.275-4.87-5.366-11.6-8.011-17.175,1.531-7.083,2.893-14.2,4.607-21.233,3.325-13.549,7.3-26.954,10.158-40.595a299.108,299.108,0,0,1,9.884-37.426c4.438-12.7,8.077-25.658,12.528-38.343,2.016-5.747,5.288-11.049,7.933-16.416,9.177-1.021,9.177-1.021,18.721,3.077l4.253,7.291c-2.552,4.949-5.562,9.295-7.134,14.112-3.024,9.347-6,18.837-7.579,28.512a124.789,124.789,0,0,1-6.258,22.346C855.609,418.31,855.1,420.8,856.906,423.755Z" transform="translate(-272.086 452.485)"/><path d="M840.456,446.4l-7.8-1.78-12.673,11.022c-4.79.563-7.618-1.217-9.11-3.927-2.226-4.032-4.87-8.143-4.02-13.183a15.81,15.81,0,0,1,.72-3.024c7.633-19.872,11.913-40.739,18.341-60.951,4.856-15.3,8.862-30.79,13.183-46.878l9.11-9.871c4.32.511,8.038.367,11.377,1.453,8.155,2.644,11.179,11.389,9.674,17.463-.982,4.019-1.7,8.129-3.063,12s-3.391,7.527-5.145,11.336c12.135,3.195,24.231,2.566,31.759-1.937,3.246-1.95,5.563-4.8,4.528-9.347-.536-3.194-7.409-2.54-5.184-7.841,3.011-.249,7.488,2.212,8.208-2.919,1.034-7.41,6.062-11.743,11.035-16.979l9.949.5L930,330.242,926.868,355.9c1.073,3.3,7.161,5.014,5.472,10.931-1.27,4.438-3.665,7.318-8,8.889-4.791,9.255-4.32,19.924-7.527,29.69-1.911,5.838-2.409,12.161-3.587,18.249a12.155,12.155,0,0,1-.838,2.984c-6.938,15.172-13.784,30.423-27.752,40.8a12.36,12.36,0,0,1-2.3.8c-5.118-3.063-7.632-8.248-5.956-14.06,2.068-7.161,2.3-14.334,2.945-21.574a29.71,29.71,0,0,1,1.637-5.97c2.264-7.448,4.621-14.779,5.118-22.738.341-5.394,2.71-10.643,4.4-16.822-3.324,0-6.191-.8-8.247.157-4.909,2.278-9.949,2.553-15.172,3.024-5.054.445-9.975,2.238-15.525,3.587l-5.97,13.549Z" transform="translate(-304.699 185.138)"/><path d="M829.645,340.627h8.679c9.334,5.563,19.047,11.362,27.949,16.677,5.629,7.554,8.719,15.172,11.389,23.092a24.336,24.336,0,0,1,1.165,12.266q-2.769,15.257-6.361,30.345a62.5,62.5,0,0,1-4.452,11.533C860.578,450.5,852.789,466.3,845,482.086c-6.7,13.575-18.393,20.709-30.895,27.242-2.54,1.322-6.571.078-8.588-2.16a42.264,42.264,0,0,1-10.63-27.006c-.444-11.847-2.094-23.969,2.108-35.62,1.113-18.3,7.894-35.214,12.292-52.73,3.023-12.057,9.661-22.909,10.761-35.45Zm10.25,112.305c3.417-9.059,5.982-16.913,9.294-24.414,6.074-13.785,6.794-27.909,4.294-42.9l-6.859-3.482c-2.042,2.553-3.666,5.25-5.943,7.2s-5.21,3.129-7.894,4.661c-1.27,4.241-2.631,8.116-3.587,12.1-2.866,12-5.747,23.956-7.724,36.2a109.769,109.769,0,0,0-1.374,26.234c.2,2.526,1.741,3.482,4.777,3.561C830.024,465.539,835.43,458.627,839.895,452.932Z" transform="translate(-455.755 461.061)"/><path d="M821.412,511.4c-3.561-2.042-5.511-2.893-7.161-4.136-7.8-5.826-10.171-12.686-7.356-21.823,6.872-22.267,12.934-44.744,18.458-67.365,2.565-10.512,2.7-10.472.812-19.191l5.864-1.807a14.759,14.759,0,0,0-.026-2.867c-2.514-12.148-.628-17.987,9.281-23.76,13.065-7.619,27.229-9.609,42.062-6.231,4.045,3.377,9.124,1.479,14.5,2.932,2.172,1.7,5.2,3.783,7.866,6.244a95.667,95.667,0,0,1,6.533,7.292c-.812,2.029-1.479,3.927-2.317,5.733-.654,1.388-1.544,2.67-2.514,4.32-4.019-.9-7.933-1.859-11.873-2.645-4-.811-8.051-1.426-12.593-2.225l-3.94,4.739-8.89,1.165c-1.086.825-2.631,1.545-3.508,2.75-3.378,4.621-6.559,9.4-10.434,15.028-.209,2.121-.366,5.236-.876,8.287s-1.336,6.009-2.2,9.792c2.016.523,3.875,1.374,5.747,1.414,6.768.17,13.536.065,19.78.065,7.239,3.94,6.127,9.426,4.346,15.316-7.107,5.655-15.644,8.417-23.118,12.58l-11.664.8c-4.975,3.5-7.265,11.075-6.873,20.684,8.366-2.723,16.626-5.407,25.449-8.273l12.449,3.98c4.621,5.6,5.721,11.4,3.416,17.764-.876.681-1.636,1.741-2.526,1.885-10.917,1.676-20.788,6.035-30.239,11.507a10.076,10.076,0,0,1-2.7,1.544C838.548,508.468,829.895,509.934,821.412,511.4Z" transform="translate(-316.013 727.153)"/><path d="M840.64,459.646l-6.689-5.276-4.215-15.316c5.105-19.27,9.831-39.966,16.22-60.139,3.744-11.808,9.241-23.092,11.82-35.358a7.771,7.771,0,0,1,1.532-2.67c4.8-6.755,9.647-13.5,14.884-20.8,6.755-.942,13.837-2.54,20.566,1.872,9.425-.851,18.1,4.556,27.634,3.194,6.925-.995,12.895,2.75,19.191,4.006.262,1.466.929,2.893.522,3.365-2.355,2.736-4.581,5.838-7.565,7.658-4.4,2.7-9.413,4.373-14.125,6.559-3.744,1.741-7.423,3.587-13.2,6.375H881.182c-5.772,11.664-4.477,24.912-10.983,35.5,1.375,1.1,2.108,2.186,2.894,2.239,6.781.445,13.563.694,20.3.995,5.485,2.121,10.538,4.726,13.641,10.132l-3.534,8.614c-11.258,7.868-24.074,9.164-38.107,9.216l-4.333,9.294,4.058,5.3c13.274-2.684,25.2,4.294,37.99,4.255,7.291,7.226,7.252,8.6-1.021,20.264-13.405,5.184-27.6,5.563-42.191,2.553C853.835,460.235,847.513,460.261,840.64,459.646Z" transform="translate(-26.051 199.719)"/><path d="M836.24,438.8c-1.661,4.517-3.429,9.334-5.21,14.178h-6.6l-8.639-12.07c.431-2.788.117-6.271,1.53-8.784,3.627-6.428,5.538-13.418,8-20.251a110.492,110.492,0,0,1,4.726-11.533,74.469,74.469,0,0,0,5.721-14.374c1.571-5.982,4.373-11.677,7.017-17.306,5.249-11.219,11.717-21.8,14.3-34.3,1.06-5.184,5.772-9.622,8.626-14.085,6.82-3.325,12.5-1.479,17.908,2.3,5.446,7.371,8.339,15.435,7.566,24.794-.418,5.184-.262,10.433,2.187,15.342a13.948,13.948,0,0,1,.955,4.529c2.174,18.065,4.268,36.13,6.533,54.169a25.671,25.671,0,0,0,2.2,7.383c1.833,3.979-.222,7.056-1.846,10.42l2.985,10.892c-4.49,5.315-6.834,12.528-14.191,14.937-4.659-3.652-9.137-7.161-14.032-11-1.729-3.691-3.705-7.946-6.114-13.1-.353-6.27-.745-13.5-1.139-20.827-2.173-.537-3.822-1.545-4.987-1.152C853.206,422.584,843.716,427.834,836.24,438.8Zm21.482-42.571c3.352-2.278,7.226-2.16,7.854-5.8.314-1.793-.393-3.757-.654-5.747C857.592,386.808,856.662,388.143,857.723,396.233Z" transform="translate(-194.62 194.118)"/><path d="M837.132,361.979c23.851-.314,35.567,14.439,43.6,35.044.026.55.171,2.107.21,3.679.642,26.077-8.51,48.685-24.218,69.067-5.434,7.043-10.617,14.282-17.659,19.793-8.313,6.519-17.241,11.664-28.932,9.727-2.592-2.212-5.236-4.752-8.169-6.912-11.559-8.47-16.494-20.277-14.491-33.918,1.794-12.214,2.959-24.611,7.881-36.393,3.221-7.7,6.65-15.237,10.486-22.595,3.129-5.982,6.807-11.677,10.236-17.5C820.925,373.722,827.144,366.862,837.132,361.979Zm1.086,32.072c-.707,1.584-1.047,2.553-1.531,3.456-4.8,9.072-12.8,16.638-13,27.87a1.7,1.7,0,0,1-.955,1.178c-5.185,2.278-5.315,7.658-6.454,11.834-3.285,12.1-1.139,23.3,8.143,33.682,6.859-5.433,14.06-10.067,18.013-17.437,5.6-10.447,11.114-20.972,14.911-32.4,4.137-12.437,2.055-22.412-8.286-30.5a10.518,10.518,0,0,0-3.012-1.074Z" transform="translate(-542.232 719.17)"/><path d="M839.358,480.238l9.281,7.75c13.522-9.046,18.785-14.309,24.951-25.933,3.875-7.331,7.554-14.805,10.722-22.477,4-9.7,3.324-20.408,5.6-30.515a11.533,11.533,0,0,0-.969-7.58c-2.867-5.066-2.081-10.015-.629-16.023,2.055-1.977,4.647-4.464,7.2-6.925H909.97l5.341,7.291c1.493,5.367-2.081,11.075,3.037,15.4l-4.948,7.37c-2.2,29.219-10.734,55.727-27.975,78.728-9.988,13.339-21.574,25.619-38.134,31.8-15-.8-26.312-7.776-33.434-20.723-5.066-9.189-9.569-18.549-8.6-29.506a7.5,7.5,0,0,0-.157-3.115c-4.647-12.044.209-23.459,2.173-35.083.694-4.084,1.165-8.221,1.584-12.345.537-5.406,2.736-9.949,7.331-14.348l13.287-1.021,7.54,8.391c-.131,2.775.615,5.852-.537,7.828-3.1,5.354-2.8,11-2.826,16.7-.014,4.176.3,8.378.052,12.542C833.1,458.442,833.769,468.208,839.358,480.238Z" transform="translate(-347.508 919.41)"/><path d="M803.01,388.643c2.58-6.69,6.152-12.267,14.976-13.641a4.11,4.11,0,0,1,1.794.249c9.779,3.5,12.371,7.58,9.164,17.816-.314.969-.943,2.147-.655,2.972,3.979,11.638.733,23.865,3.051,35.62.092.458.6.838,1.2,1.637,1.179-.144,2.972.183,3.953-.563,9.1-6.846,19.191-12.384,26.85-21.155a163.362,163.362,0,0,1,16.612-16.521c3.849-3.3,8.666-5.485,12.789-8,4.857,2.068,9.884,2.3,13.2,8.221,1.23,5.406-.052,12.057-.183,19.27-2.553,1.178-4.831,3.155-7,3.05-6.362-.327-10.944,2.894-15.382,6.533A144.208,144.208,0,0,0,870.546,435.6c-4.7,4.909-9.452,9.556-15.251,13.274a28.822,28.822,0,0,0-10.931,12.921c-1.637,3.757-4.15,7.134-6.244,10.7-9.818,16.716-15.474,34.952-19.637,53.725-.955,4.293.785,8.116,3.115,11.821l-10.08,11.14-8.325.968c-5.852-3.01-9.661-7.213-12.973-11.716-1.283-9.177-.563-17.725,3.744-26.011,2.094-4.019,2.2-9.072,4.188-13.169,3.849-7.881,6.034-16.533,11.259-23.812,1.452-2.016,1.938-4.726,3.063-7.645-.943-2.212-2.018-4.49-2.907-6.847-2.762-7.317-4.922-14.714-4.529-22.712.262-5.21-.1-10.446-.144-15.657-.053-6.728.563-13.392-1.663-20.107C801.977,398.709,803.01,394.206,803.01,388.643Z" transform="translate(-510.729 876.406)"/><path d="M818.6,508.648l-9.7-4.7-4.031-13.012a24.167,24.167,0,0,1,.393-2.723c1.283-4.988,2.343-10.067,3.993-14.937,3.835-11.245,8.051-22.359,11.965-33.591,4.595-13.2,9.046-26.443,13.562-39.665-.288-8.312,4.674-15.918,3.666-24.545-9.465-4.176-20.33,1.571-30.41-6.52L801.977,356.9c3.233-5.328,6.441-10.629,10.027-16.534,3.836,0,8.418-1.191,11.913.249,7.147,2.945,14.387,1.99,21.613,2.422,7.2.418,14.491-.9,21.534,2.3,2.645,1.2,6.271,1.047,9.281.55,8.1-1.322,15.133,3,22.8,3.967,4.83.6,9.255,4.425,13.521,6.637,1.376,11.3,1.376,11.3-4.175,20.88H866.685c-1.008,1.073-2.2,1.741-2.317,2.566a69.476,69.476,0,0,1-5.3,19.361c-2.959,6.48-3.613,13.968-5.7,20.893-4.176,13.863-8.784,27.6-12.934,41.458-2.383,7.933-4.163,15.984-8.194,23.367-1.964,3.587-2.409,8.012-4.437,11.546C825.5,500.584,822.2,504.014,818.6,508.648Z" transform="translate(-361.665 452.315)"/><path d="M849.2,361.22c15.853-3.39,28.6-.013,38.212,13.955v12.031c-1.218.523-2.566,1.5-3.967,1.584-2.043.13-4.49.222-6.113-.747-9.086-5.419-16.782-1.663-22.359,4.857-6.322,7.4-13.641,14.452-16.782,25.16a40.141,40.141,0,0,1,1.112,5.263c1.179,12.213,8.9,20.565,16.861,28.813,5.42,5.616,10.825,11.271,15.525,16.154,1.676,8.849-.693,15.29-4.869,21.77-7.476,11.585-16.233,21.468-28.9,27.517-3.26,1.545-6.153,3.862-9.112,5.773H811.175a66.87,66.87,0,0,1-5.97-4.988,73.285,73.285,0,0,1-4.987-6.44,29.881,29.881,0,0,1,10.46-15.774c12.043-.694,24.938-.236,33.918-12.515-5.354-5.891-10.224-11.86-15.735-17.162-6.1-5.878-10.722-12.764-15.159-19.806-4.268-6.768-5.838-14.74-6.427-22.267-.485-6.389,1.754-13.353,4.2-19.506,5.669-14.255,14.256-26.561,27.138-35.462C842.462,366.758,846.036,363.682,849.2,361.22Z" transform="translate(-382.933 695.306)"/><path d="M819.966,502.329c-7.423,3.1-11.689,11.677-22.123,9.321l-5.538-8.5c-.274-9.647-.065-19.321,2.566-29.14,2.526-9.452,2.8-19.492,4.229-29.258.824-5.642,2-11.232,3-16.861,1.78-10.132,3.533-20.265,5.393-30.92-5.3-2.658-11.113-.039-17.829-.982l-8.457-6.729c-2.2-5.3-.877-9.295,1.152-13.9,2.7-6.1,7.763-8.012,14.543-10.97,9.412,0,20.4.079,31.38-.053A22.656,22.656,0,0,0,835.871,363a8.661,8.661,0,0,1,7.4.2,11.856,11.856,0,0,0,6.021.772c11.586-1.178,24.4,1.859,33.748,11.847v12.266c-14.779,8.116-31.443,5.982-47.127,9.438-5.053,8.365-7.331,17.359-8.155,26.667-.706,7.8-.732,15.656-1,23.5-.183,5.694.668,11.494-2.369,16.848-.721,1.283-.668,3.05-.785,4.608q-.57,7.619-.969,15.25c-.066,1.505.483,3.089.209,4.542C822.021,493.427,820.935,497.891,819.966,502.329Z" transform="translate(-626.586 722.753)"/><path d="M843.326,483.11H826.5c-7.2-4.752-12.986-9.216-19.348-12.542a30.979,30.979,0,0,1-12.935-11.821c.851-11.52,8.051-21.73,9.517-32.766,5.983-7.449,11.651-14.19,16.966-21.207,8.653-11.4,19.283-20.016,32.439-24.271l18.942,3.352c11.152,10.852,16.4,25.566,16.39,42.257,0,5.629-.615,11.323-3.011,16.743-1.859,4.215-2.75,8.875-4.281,14.073C870.2,466.249,859.834,477.284,843.326,483.11Zm-4.843-28.525c9.045-3.691,18.3-7.919,24.636-17.41.157-8.811,2.029-18.157-6.3-27.164-12.267,8.26-23.747,16.979-28.826,32.713C831.754,446.337,831.977,452.4,838.483,454.584Z" transform="translate(-455.43 943.204)"/><path d="M865.561,434.112h15.984l5.394,9.438-5.538,8.09,7.554,2.828c-3.076,6.754-6.074,13.169-12.267,17.816-2.644,1.977-3.494,6.231-5.432,9.281a62.209,62.209,0,0,1-5.6,7.344c-2.763,3.167-7.92,2.212-10.446,6.4-1.833,3.011-5.027,5.21-7.671,7.841h-8.483l-8-10.891c-.8-3.77-1.609-7.3-2.29-10.853-.484-2.539-1.479-5.223-1.073-7.645,2.959-17.293,4.215-34.926,9.438-51.8,1.061-3.43,3.232-6.493,4.817-9.766,4.11-8.417,8.286-16.808,12.227-25.3,9.688-20.945,15.094-26.221,33.093-41.838H899.19l6.049,6.427c-3.4,11.952-10.5,20.919-17.084,30.188a84.5,84.5,0,0,0-6.729,10.407c-2.33,4.569-3.05,10.407-6.362,13.9-3.7,3.914-3.587,8.535-5.25,12.75C867.982,423.43,867.066,428.483,865.561,434.112Z" transform="translate(-51.94 514.611)"/><path d="M824.44,340.4c4.411-4.4,6.271-9.753,11.571-11.716,7.148,1.034,12.751,4.28,16.076,10.878,1.439,12.279,2.867,24.571,4.386,37.571,3.7-1.768,2.12-5.459,3.718-7.593,1.531-2.029,2.2-4.673,3.363-7,1.389-2.788,2.933-5.511,4.347-8.287,1.178-2.317,2.684-4.568,3.3-7.042,1.061-4.189,3.247-7.436,5.943-10.761,3.22-3.966,5.459-8.758,8.535-13.863l6.479-3.285c4.229,1.138,8.627,2.316,13.013,3.508,5.314,6.31,3.953,14.767,7.2,21.561-1.687,5.066-6.073,5.3-10.59,6.257-.916,1.44-1.937,3.208-3.115,4.87-5.42,7.619-11.441,14.9-13.653,24.31-8.968,15.264-13.628,32.387-20.7,48.75l-6.493-6.008c-4.844,5.838-5.877,14.53-13.758,17.672-3.914,1.217-7.043-.354-9.059-3.81-1.559-2.657-3.457-5.55-3.691-8.457-.747-9.321-4.255-18.183-3.744-27.739.444-8.26.6-16.625-2.239-24.755-.981-2.8-.222-6.218-.287-9.347C824.858,357.808,824.649,349.5,824.44,340.4Z" transform="translate(-90.071 203.141)"/><path d="M844.51,367.862c-1.519,8.509-2.422,13.588-3.325,18.667a33.872,33.872,0,0,0-.969,6.074c.249,20.487-2.866,40.372-11.035,59.393l4.908,11.7-5.275,8.941c-4.673,1.178-4.11-3.037-6.676-4.8-6.087,5.943-12.279,11.991-18.916,18.484-6.611-8.182-9.976-15.657-5.59-26.051,5.21-12.331,8.155-25.487,11.35-38.591,3.063-12.594,4.817-25.41,7.842-38a175.792,175.792,0,0,0,3.939-27.713c.785-9.818,4.647-19.322,2.475-29.637l7.253-8.889,11.637-1.1a17.328,17.328,0,0,1,12.318,11.611c-.667,10.29-5.838,19.715-6.166,30.266C848.162,362.1,845.321,365.9,844.51,367.862Z" transform="translate(-438.129 167.376)"/></g></g></svg>