<svg xmlns="http://www.w3.org/2000/svg" width="797.852" height="709.046" viewBox="0 0 797.852 709.046"><g transform="translate(-83.471 -192.733)"><path d="M296.791,442.777c1.653-.118,3.306-.231,4.959-.367a.527.527,0,0,0,.384-.3,3.075,3.075,0,0,0,.037-.95.772.772,0,0,0-.276-.411,6.424,6.424,0,0,0-1.159-.954c-1.774-.932-3.41-2.133-5.2-2.994-3.031-1.456-5.629-3.55-8.441-5.321a14.05,14.05,0,0,1-4.276-4.194c-.92-1.412-2.084-2.618-3-4a47.949,47.949,0,0,1-4.118-6.839,33,33,0,0,0-4.325-7.766,13.8,13.8,0,0,1,.015-4.534,3.138,3.138,0,0,1,2.891-1.712,2.582,2.582,0,0,1,2.207.967c.977,1.351,1.921,2.726,2.8,4.14a9.983,9.983,0,0,0,2.369,2.563,31.739,31.739,0,0,0,11.181,5.333c1.39-.079,2.554.733,3.857.962a5.392,5.392,0,0,0,1.525-.2c-1.358-2.042-2.581-4.017-3.946-5.885a38.236,38.236,0,0,0-3.262-3.793c-1.272-1.328-2.659-2.546-3.973-3.835a31.484,31.484,0,0,1-6.937-9.717,12.369,12.369,0,0,0-.836-1.378v-4.369a8.294,8.294,0,0,1,.989-1.228,2.432,2.432,0,0,1,2.795-.305c.448.212.9.421,1.36.59a.545.545,0,0,0,.418-.13c.1-.079.214-.278.18-.357a8.907,8.907,0,0,0-.915-1.776,40.211,40.211,0,0,1-3.456-4.29,15.417,15.417,0,0,0-3.208-3.8,25.588,25.588,0,0,1-5.142-6.733c-.982-1.744-2.108-3.395-3.085-5.137-.905-1.616-2.6-2.622-3.3-4.384l-2.327-1.968c-.563-2-.563-2-.182-4.792.61-.891,1.781-.866,2.31-1.584a6.61,6.61,0,0,1,1.176.248,10.288,10.288,0,0,1,3.68,2.534,21.52,21.52,0,0,0,5.361,4.49,5.076,5.076,0,0,1,1.164.95,15.338,15.338,0,0,0,4.576,2.984,5.535,5.535,0,0,0,2.837.836c1.053-.059,1.85.777,2.878.728a.7.7,0,0,0,.431-.192.355.355,0,0,0,.025-.349,30.186,30.186,0,0,0-2.982-3.383,29,29,0,0,1-3.737-4.674,24.019,24.019,0,0,1-1.86-3.515,38.085,38.085,0,0,1-2.445-5.454c-.588-1.724-1.373-3.378-1.894-5.142-.613-2.069-1.343-4.108-2.15-6.111a9.959,9.959,0,0,1-.241-5.429,2.871,2.871,0,0,1,.748-1.287,6.917,6.917,0,0,1,1.161-.947,1.649,1.649,0,0,1,1.867-.064,60.709,60.709,0,0,1,7.247,6.135.413.413,0,0,0,.384.081.653.653,0,0,0,.246-.888c-.9-1.788-1.884-3.533-2.7-5.353a34.645,34.645,0,0,1-3.186-10.431,3.523,3.523,0,0,0-.113-.994c-1.063-2.376-.866-4.9-.925-7.4a5.861,5.861,0,0,0-.563-2.92,1.373,1.373,0,0,1-.049-1.434c.792-1.191.125-2.229-.253-3.434,0-1.383,0-2.891,0-4.4a4.119,4.119,0,0,1,.084-1.5c.935-2.229.7-4.6.972-6.913.138-1.151.915-2.143.846-3.373-.069-1.166-.015-2.342-.015-3.373.43-1.085.763-2.025,1.176-2.93a2.505,2.505,0,0,1,1.444-1.326c1-.359,2.1-.182,2.344,1.041a3.634,3.634,0,0,0,.75,1.808,19.592,19.592,0,0,1,1.205,1.729c0,.782.059,1.621-.012,2.448-.189,2.249.674,4.3,1.407,6.293a46.567,46.567,0,0,0,3.186,6.226c.217.394.721.627,1.114.955.827-1.385.231-3.1,1.25-4.354a13.729,13.729,0,0,1,1.053-4.354c-.113-2.541,1.274-4.829,1.242-7.368a7.437,7.437,0,0,1,.517-1.914,10.359,10.359,0,0,0,.374-1.442,23.1,23.1,0,0,1,.234-2.495,17.424,17.424,0,0,0,.832-2.339c.162-1.5,1.225-2.755,1.164-4.327a2.587,2.587,0,0,1,.327-.923c.868-2.16,2.187-4.13,2.7-6.438l3.164-5.378a7.484,7.484,0,0,1,2.423-1.294A2.591,2.591,0,0,1,309.2,256.1a8.533,8.533,0,0,1,1.257,4.268,32.215,32.215,0,0,0,.061,3.513c.012.217.3.418.519.7,2.34-4.475,5.193-8.578,7.488-13.009a10.693,10.693,0,0,0,.758-1.294c.767-2.241,2.381-3.985,3.466-6.042,1.011-1.914,2.187-3.744,3.353-5.57.9-1.407,1.983-2.7,2.822-4.133a30.7,30.7,0,0,1,5.528-6.45,61.274,61.274,0,0,1,6.231-4.135c1.341-.669,2.694-1.316,4.044-1.968a1.675,1.675,0,0,1,2.226.462,5.578,5.578,0,0,1,.588.836,23.879,23.879,0,0,0-.905,2.775,9.445,9.445,0,0,0-.1,2.5c.074,1.073-.544,1.9-.851,2.836a.7.7,0,0,0,.258.888.409.409,0,0,0,.379-.084c1.634-1.663,3.486-3.124,4.7-5.181a3.36,3.36,0,0,1,1.058-1.055c2.849-1.83,5.036-4.4,7.412-6.731,2.16-2.123,4.733-3.683,7-5.641,4.138-2.5,8-5.41,11.944-8.194,1.09-.77,2.155-1.577,3.287-2.281a20.184,20.184,0,0,1,2.679-1.343c.888-.381,2.371,1.009,2.381,2.02.012,1.235-.923,2.148-.959,3.343a28.4,28.4,0,0,1-.2,3.491c-.128.8-.63,1.542-.8,2.344a3.988,3.988,0,0,0,.293,1.454c1.137-.635,2.162-1.191,3.171-1.776.721-.416,1.39-.923,2.13-1.3,4.62-2.349,8.736-5.5,13.134-8.207,2.763-2.426,5.939-4.3,8.846-6.534a25.366,25.366,0,0,1,5.9-3.712,4.74,4.74,0,0,1,.962-.17,4,4,0,0,1,2.418,2.47c-.4.652-.795,1.387-1.267,2.069a3.087,3.087,0,0,0-.652,1.852,2.435,2.435,0,0,1-.817,1.764c-1.277,1.328-2.507,2.711-3.889,3.921a33.251,33.251,0,0,0-4.957,6.268,1.168,1.168,0,0,0,.054.915c.135.327.433.194.819.052a27.652,27.652,0,0,1,4.258-1.383,29.2,29.2,0,0,1,4.005-.2,15.46,15.46,0,0,0,4.431-.645,13.212,13.212,0,0,1,3.486-.271c1.825-.106,3.7.148,5.427-.7,1.333-.084,2.667-.224,4-.239,2.507-.03,5.014,0,7.523.032a1.384,1.384,0,0,1,1.04,1.464,18.537,18.537,0,0,1-.448,1.943c-.3.947-.654,1.875-1.073,3.055-2.861,1.523-5.717,3.52-8.613,5.459a7.725,7.725,0,0,0-3.5,4.086c-.45,1.5-1.941,2.3-2.374,3.766a.656.656,0,0,0,.362.836,6.691,6.691,0,0,0,4.394-.042,7.718,7.718,0,0,1,2.443-.433c1.84-.03,3.68-.086,5.52-.14,2-.059,4.032.209,5.907-.763l3.427-.155c.846.364,1.633.649,2.369,1.033a1.994,1.994,0,0,1,1.109,1.311l-3.252,5.889a71.036,71.036,0,0,0-9.292,5.656,14.449,14.449,0,0,0-1.25.827c-1.146.972-2.266,1.98-3.395,2.977-1.513.423-2.376,1.8-3.707,2.519-.691.374-1.137,1.181-1.749,1.727-.494.44-1.114.745-1.614,1.186a14.864,14.864,0,0,1-3.292,2.246c-.394.194-.618.745-.925,1.141.335.185.6.453.876.462,1.673.059,3.348.076,5.021.079,4.522.007,9.041.042,13.562-.015a21.042,21.042,0,0,1,6.308,1.378,2.112,2.112,0,0,1,1.109,2.529c-.694,1.513-1.38,3.033-2.162,4.5a4.945,4.945,0,0,1-1.319,1.488,34.361,34.361,0,0,1-6.288,4.079c-2.551,1.225-4.989,2.637-7.41,4.1-1.169.7-1.961,1.83-3.119,2.5-1.3.748-2.635,1.432-3.958,2.133-1.173.625-2.369,1.208-3.513,1.882-.172.1-.15.585-.148.891,0,.1.214.239.354.285a4.35,4.35,0,0,0,.959.224c.5.047,1,.044,1.506.052q8.284.1,16.569.192a2.953,2.953,0,0,1,2.384,1.466c.1,1.621-1.656,2.736-.836,4.143a26.707,26.707,0,0,1-5.6,7.341c-2.9,2.78-5.683,5.68-8.413,8.625a31.4,31.4,0,0,1-8.873,6.4c-1.754.9-3.466,2.037-5.552,2.111l-2.613,1.351a3.875,3.875,0,0,0,.637.9c2.593,1.909,5.663,2.738,8.654,3.707,1.247.406,2.679.025,3.931.645a.7.7,0,0,0,.462-.007c2.436-.78,4.974-.453,7.457-.7a8.139,8.139,0,0,0,1.936-.445,9.258,9.258,0,0,1,3.968-.261,2.7,2.7,0,0,1,2.116,2.46,6.4,6.4,0,0,1-.465,2.942c-.507,1.05-.991,2.116-1.562,3.134a4.5,4.5,0,0,1-1.213,1.565c-1.943,1.319-3.523,3.087-5.471,4.369a18.307,18.307,0,0,0-2.448,1.712c-.795.726-1.9.546-2.773,1.075-1.277.77-2.77,1.215-3.638,2.561a.977.977,0,0,0-.2.453c-.01.273.236.455.635.512.5.071,1.009.079,1.493.2a37.544,37.544,0,0,0,4.834,1.188c.987.716,2.224.654,3.311,1.07a71.3,71.3,0,0,0,8.487,2.817,2.8,2.8,0,0,1,1.82,1.6c.221.448.369.932.576,1.387a3.349,3.349,0,0,1,.155,2.438c-.347,1.112-.763,2.2-1.156,3.321-.79,1.252-2.145,2.084-2.745,3.533a2.443,2.443,0,0,1-1.021,1.08c-1.592.9-2.92,2.189-4.642,2.925A27.844,27.844,0,0,0,432,361.853c-1.865,1.439-4.032,2.335-5.971,3.643-2.2,1.486-4.539,2.787-6.787,4.221a4.047,4.047,0,0,0-1.087,1.018,1.567,1.567,0,0,0-.089.93c.007.113.209.276.342.3.812.155,1.626.307,2.448.4a11.613,11.613,0,0,1,3.437.588,5.627,5.627,0,0,0,1.963.263c1.338.052,2.679.057,4.017.064a8.018,8.018,0,0,0,4.389-.758,18.552,18.552,0,0,0,4.817-1.237c1.739-.6,3.6-.738,5.3-1.36,1.793-.659,3.638-.438,5.739-.883,2.182-1.265,4.632-2.682,7.075-4.106a.753.753,0,0,0,.332-.364c.428-1.328,1.7-1.476,2.721-1.985a3.821,3.821,0,0,1,1.914,1.557,3.334,3.334,0,0,1,.534,1.37,6.272,6.272,0,0,1-.322,3.452c-.709,1.483-.932,3.181-2.182,4.445a9.765,9.765,0,0,0-2.736,3.54c-2.226,2.49-4.433,4.952-7.424,6.637-2.755,1.555-5.69,2.8-8.266,4.672-2.62,1.048-5.176,2.253-7.862,3.144a29.469,29.469,0,0,0-5.42,2.5.974.974,0,0,0-.189,1.646,10.587,10.587,0,0,0,1.225.829,8.8,8.8,0,0,0,.93.369c.308.133.6.288.959.463l5.358.315,2.9,1.284,1.919,2.342a19.665,19.665,0,0,1-.13,2.472c-.113.645-.563,1.232-.667,1.877-.426,2.654-2.354,3.488-4.622,3.8a9.686,9.686,0,0,0-2.829.809,79.56,79.56,0,0,1-8.632,3.86,6.351,6.351,0,0,0-4.007,3.51.523.523,0,0,0,.367.8,4.428,4.428,0,0,0,2.937-.061,11.665,11.665,0,0,1,3.929-.647c5.016-.251,10.035-.224,15.043,0a3.333,3.333,0,0,1,.834.549,2.979,2.979,0,0,1,.733,1.264,14.894,14.894,0,0,1,.069,2.5,29.55,29.55,0,0,1-1.678,4.652,53.063,53.063,0,0,1-9.42,10.362,90.315,90.315,0,0,1-9.6,7.22,4,4,0,0,0,2.93.266c.482-.057.925-.467,1.407-.512a64.824,64.824,0,0,1,9.528-.071c1.734,1.107,3.929.652,5.707,1.725a2.1,2.1,0,0,1,1.2,1.968c0,1.336,0,2.674,0,3.951a22.684,22.684,0,0,1-7.754,9.789c.285.389.485.959.866,1.137a74.272,74.272,0,0,0,7.744,3.471,11.007,11.007,0,0,1,3.941,2.123,2.835,2.835,0,0,1,1.151,2.615,14.351,14.351,0,0,1-.288,1.963c-.273.945-.659,1.86-.989,2.77a8.6,8.6,0,0,1-4.2,1.451,11.854,11.854,0,0,0-3.936.657,5.328,5.328,0,0,1-1.973.2c-2.509.027-5.021.02-7.533.034-.669,0-1.338.039-2.007.074-1.178.062-2.281,1.388-1.838,2.455.94,2.276.581,4.6.551,6.925a1.163,1.163,0,0,1-.2.455,4.76,4.76,0,0,0-.042,4.335c.46,1.073.539,2.246,1.117,3.311a29.061,29.061,0,0,1,2.192,5.021c.613,1.907,1.732,3.587,2.194,5.565.416,1.771,1.675,3.26,1.978,5.1a83.924,83.924,0,0,0,4.829,9.3,36.239,36.239,0,0,1,2.534,4.873c2.261,5.378,4.942,10.546,7.57,15.744,1.427,2.824,2.792,5.683,4.16,8.536,1.877,3.911,4.185,7.584,6.317,11.353a21.132,21.132,0,0,0,1.5,2.049c.453,1.921-.3,4.039.873,5.882-1.351,2.14-1.847,4.61-2.736,6.928-.116.307-.052.711-.221.969a5.566,5.566,0,0,0-.2,5.727c.585,1.255.44,2.613.856,3.9.967,3,2.025,5.973,2.991,8.977a27.346,27.346,0,0,0,.969,2.827c.684,1.52,1.481,2.989,2.212,4.487a9.742,9.742,0,0,0,2.317,3.23,6.185,6.185,0,0,1,.861,1.2c-.347.177-.637.325-.927.477-.364.194-.529.578-.308.667,1.8.731,1.86,2.14,1.545,3.72-.066.325-.162.645-.271,1.08-.332.226-.758.477-1.137.782a9.566,9.566,0,0,0-1.087,1.031,2.116,2.116,0,0,0-.128,2.758c2.645,2.4,4.084,5.683,6.288,8.4,1.053,2.081,2.126,4.153,3.149,6.249.876,1.793,1.67,3.631,2.551,5.422a6.147,6.147,0,0,1,.632,1.879,5.617,5.617,0,0,0,.477,1.916c.659,1.181.711,2.544,1.365,3.744a42.532,42.532,0,0,1,3.225,8.347c.472,1.584,1.245,3.078,1.695,4.664.59,2.069,1.53,4.074,1.4,6.308a9.4,9.4,0,0,0,.667,2.9c.448,1.769,1.388,3.412,1.37,5.306a2.016,2.016,0,0,0,.33.927c1.311,2.33,1.764,5.014,3.036,7.365.305.566.253,1.321.544,1.9.814,1.626.974,3.557,2.31,4.94a1.858,1.858,0,0,1,.514.854c.406,2.165,1.535,4.037,2.384,6.025a62.162,62.162,0,0,1,2.7,6.416c.62,2.086,1.7,3.966,2.3,6.062a16.2,16.2,0,0,0,2.728,5.311,11.664,11.664,0,0,1,1.311,2.121c1.717,3.621,4.236,6.76,6.239,10.212a9.2,9.2,0,0,0,.915,1.193c1.269,1.54,2.494,3.122,3.83,4.605a54.659,54.659,0,0,1,5.245,6.059,14.774,14.774,0,0,0,1.695,1.847c1.5,1.579,2.977,3.174,4.5,4.726s2.923,3.213,4.92,4.226a6.873,6.873,0,0,1,1.5,1.319q3.967,3.845,7.916,7.7a10.489,10.489,0,0,0,1.1,1.028c.945.679,1.973,1.252,2.878,1.978a17.4,17.4,0,0,0,2.79,2.106,27.878,27.878,0,0,1,2.485,1.683c.974.647,1.946,1.294,2.95,1.892,5.385,3.215,14.507,8.064,20.313,10.758a27.881,27.881,0,0,0,3.7,1.5c1.422.428,2.709,1.343,4.14,1.7,1.306.327,2.527.856,3.774,1.284,4.709,1.621,9.442,3.144,14.251,4.436a12.979,12.979,0,0,0,2.433.514,7.517,7.517,0,0,1,2.927.59,2.636,2.636,0,0,0,2.421.007c1.759-.893,3.594-.576,5.422-.453a1.218,1.218,0,0,1,.967.992,3.544,3.544,0,0,1,.094,1.474c-.736,2.054-1.666,4-3.634,5.215-1.127.694-2.241,1.41-3.383,2.128a2.734,2.734,0,0,1-.972-.015c-2-.819-4.224-.9-6.2-1.813-2.034-.089-3.843-1.023-5.752-1.577-2.069-.6-4.094-1.356-6.138-2.042-1.415-.475-2.827-.952-4.246-1.415a16.128,16.128,0,0,1-1.909-.571,28.484,28.484,0,0,0-4.588-1.939c-1.592-.438-2.989-1.424-4.645-1.806a12.7,12.7,0,0,1-2.733-1.225c-4.162-2.116-8.337-4.2-12.46-6.391q-4.417-2.34-8.709-4.91c-2.861-1.72-5.4-3.9-8.113-5.843a83.661,83.661,0,0,1-7.988-6.844c-1.343-1.245-2.873-2.293-4.187-3.567q-4.683-4.546-9.223-9.24c-1.385-1.437-2.554-3.078-3.875-4.578-1.215-1.383-2.571-2.645-3.747-4.059a99.436,99.436,0,0,1-7.85-10.972c-1.053-1.69-2.047-3.427-3.07-5.144s-2.034-3.442-3.028-5.174c-1.242-2.162-2.177-4.5-3.341-6.709a30.953,30.953,0,0,1-3.065-6.814c-1.4-2.65-2.364-5.5-3.636-8.2-2.128-4.519-3.715-9.255-5.7-13.831-.662-1.525-.455-3.311-1.38-4.765-3.545-13.334-2.524-10.017-6.162-20.475-1.417-4.074-3.124-8.047-4.3-12.207-2.194-4.49-4.167-9.095-6.7-13.41a47.921,47.921,0,0,0-2.78-4.152,11.254,11.254,0,0,0-1.8-1.742,1.694,1.694,0,0,0-1.87-.246c-.455.2-.836.571-1.292.768a2.439,2.439,0,0,1-2.755-.605c-1.636-2.322-3.579-4.413-5.223-6.713a55.96,55.96,0,0,1-4.285-7.326c-1.129-2.244-2.659-4.241-3.749-6.487-1.023-2.106-2.307-4.054-3.454-6.086a5.32,5.32,0,0,0-2.6-2.539c-2.807-.108-5.806-.224-8.827-.342-1.732-1.137-3.26-2.379-3.9-4.426-1.7-2.866-3.25-5.816-5.178-8.541a44.54,44.54,0,0,1-5.255-9.636,115.6,115.6,0,0,0-5.041-10.856,118.361,118.361,0,0,0-5.892-11.021c-.352-.539-.349-1.3-.662-1.87-1.444-2.63-2.47-5.486-4.281-7.917-2.231-4.475-5.137-8.578-7.235-13.124-.566-1.227-1.535-2.236-2-3.456-.47-1.255-1.085-2.431-1.587-3.663a.764.764,0,0,0-.819-.44.679.679,0,0,0-.738.519c-.261,1.3-.212,2.686-1.063,3.825-.418,2.113-1.311,4.118-1.228,6.354a10.059,10.059,0,0,1-.677,3.917,13.369,13.369,0,0,0-.342,3.5,16.5,16.5,0,0,1-2.974,3.324,1.568,1.568,0,0,1-1.424.133,3.343,3.343,0,0,1-1.149-.937,11.962,11.962,0,0,1-1.1-2.753c-.182-.755.568-1.5.1-2.386a7.685,7.685,0,0,1-.416-1.946,6.966,6.966,0,0,0-.391-1.434,80.923,80.923,0,0,0-4.226-8.49,3.3,3.3,0,0,0-.795-.657,5.126,5.126,0,0,0-1.469,2.908c-.327,1.333-1.1,2.431-1.525,3.693-.374,1.1-.708,2.217-1.161,3.282-.519,1.225-1.151,2.4-1.727,3.6-1.171,2.435-3.09,4.342-4.62,6.524a2.242,2.242,0,0,1-.758.647c-1.321.706-2.647,1.4-4,2.054a2.03,2.03,0,0,1-2.507-1.018c-.258-.431-.472-.883-.718-1.351.2-1.469.873-2.846.861-4.372,0-.463.381-.913.517-1.39a52.887,52.887,0,0,0,1.535-5.25c.322-1.788,1.205-3.469,1.058-5.355,1.036-2.559.814-5.247.819-7.912a2.834,2.834,0,0,0-.8-1.791.76.76,0,0,0-1.225.042c-.091.14-.217.261-.293.408a69.173,69.173,0,0,1-5.363,8.416,31.631,31.631,0,0,1-7.326,7.641c-.718.039-1.55.143-2.379.113a2.652,2.652,0,0,1-1.8-.785,2.769,2.769,0,0,1-.844-1.183,8,8,0,0,1,.369-4.918,7.315,7.315,0,0,0,.625-2.9c.044-1.84.108-3.683.165-5.506a4.083,4.083,0,0,0,.5-3.373,8.709,8.709,0,0,1-.546-2.935,25.758,25.758,0,0,0-.357-4.5,19.405,19.405,0,0,1-.881-3.875c-.868-1.476-.686-3.228-1.252-4.782a.617.617,0,0,0-.8-.43c-2.1.991-4.131,2.02-5.183,4.359a20.852,20.852,0,0,1-2.148,2.763,33.781,33.781,0,0,1-2.059,2.824c-.755.883-1.336,1.914-2.049,2.836-.512.659-1.1,1.259-1.68,1.865a4.983,4.983,0,0,1-3.046,1.6,5.86,5.86,0,0,0-1.235.4c-.964-.256-1.776-.45-2.571-.7a3.236,3.236,0,0,1-.866-.475,2.524,2.524,0,0,1-.891-2.681c.544-1.026.706-2.253,1.6-3.095a8.926,8.926,0,0,0,1.98-3.454,9.631,9.631,0,0,1,1.486-3.124c.824-.935.718-2.194,1.282-3.237a59.735,59.735,0,0,0,2.846-6.379c.8-2.01,1.567-4.025,2.2-6.111-.189-.145-.411-.45-.672-.489-2.571-.384-4.957.5-7.319,1.267a11.222,11.222,0,0,1-3.4.684c-1,.007-2.007.081-3.011.1-1.171.02-2.342,0-3.233,0-.588-.263-.888-.408-1.2-.534a18.8,18.8,0,0,1-2.75-1.127,12.663,12.663,0,0,1-3.26-3.1,2.686,2.686,0,0,1-.617-2.785,6.888,6.888,0,0,0,.736-2.376,7.819,7.819,0,0,1,1.565-3.862l2.007-.991a6.8,6.8,0,0,0,3.685.531c1-.625,2.148-1.292,3.233-2.052a6.41,6.41,0,0,0,1.417-1.407c.6-.8,1.1-1.668,1.633-2.519a1.946,1.946,0,0,0,.421-.891c-.015-1.707,1.065-3.156,1.107-4.846a.917.917,0,0,0-.352-.888,4.2,4.2,0,0,0-.868-.448c-2.507-.881-4.942-1.941-7.42-2.9a16.525,16.525,0,0,1-3.966-2.044c-1.732-1.289-3.584-2.418-5.513-3.7l-2.7-3.872C294.247,444.971,295.263,443.759,296.791,442.777Zm124.484-215.81a8.255,8.255,0,0,0,4.221-4.413,11.128,11.128,0,0,1,2.605-3.643c.576-.593,1.114-1.225,1.71-1.882a5.01,5.01,0,0,0-1.075-.29c-1.84-.017-3.68,0-5.52.012a2.109,2.109,0,0,0-.5.044,2.152,2.152,0,0,0-.462.189,6.2,6.2,0,0,1-2.925.554c-1.506.02-3.011.091-4.234.133-3.483,1.129-6,3.454-9.1,4.947-.413,0-.913-.01-1.415,0a2.62,2.62,0,0,1-2.453-1.451c-.406-.723-.684-1.518-1.018-2.28a18.46,18.46,0,0,1,2.6-6.952c.084-.121.039-.325.059-.49a.8.8,0,0,0-.4-.839.686.686,0,0,0-.48.007,2.593,2.593,0,0,0-.9.359,63.846,63.846,0,0,1-10.263,7.048,27.958,27.958,0,0,0-5.321,3.7,36.039,36.039,0,0,1-6.495,4.772h-2.28a3.211,3.211,0,0,1-1.911-2.9c0-1,.1-2,.15-2.994.974-1.619.669-3.589,1.449-5.265.145-.312,0-.588-.379-.721a.7.7,0,0,0-.494.01,28.253,28.253,0,0,0-5.941,3.636,10.122,10.122,0,0,1-2.094,1.351,24.809,24.809,0,0,0-5.9,4.6c-3.567,3.53-7.142,7.053-10.667,10.623a43.731,43.731,0,0,0-4,4.49,29.4,29.4,0,0,1-2.157,2.748,10.1,10.1,0,0,0-1.594,2.519c-1.146,2.256-2.416,4.342-5.031,5.257-.9.315-1.572,1.223-2.438,1.7a1.8,1.8,0,0,1-1.429-.034,2.628,2.628,0,0,1-1.739-2.268,16.433,16.433,0,0,1,.763-5.9,60.648,60.648,0,0,1,3.166-8.372.665.665,0,0,0-.253-.891c-.071-.047-.293.052-.394.143-.62.556-1.245,1.109-1.83,1.7-.942.95-1.907,1.884-2.77,2.9a34.718,34.718,0,0,1-2.438,3.161c-1.08,1.006-1,2.46-1.759,3.53a32.021,32.021,0,0,0-2.418,4.376,19.234,19.234,0,0,1-1.454,2.62,103.18,103.18,0,0,0-6.14,10.288c-1.279,2.335-2.369,4.773-3.515,7.178a10.987,10.987,0,0,1-3.562,4.578c-.905.33-1.68.627-2.467.891a4.57,4.57,0,0,1-1.442.347,2.463,2.463,0,0,1-1.373-.44,2.792,2.792,0,0,1-1.173-2.125c-.044-1.169-.007-2.34-.039-3.508a4.855,4.855,0,0,0-.317-2.482c-.859.544-.93,1.587-1.5,2.3-.236,1.867-1.279,3.419-1.975,5.119a12.791,12.791,0,0,1-.408,3.452c-.517,1.272-.524,2.645-1,3.848a44.367,44.367,0,0,0-1.021,4.357,9.794,9.794,0,0,0-.8,3.375c.094,1.4-.824,2.539-.93,3.875-.076,1-.022,2.017-.192,3s-.613,1.889-.8,2.856a30,30,0,0,1-3.191,8.854.923.923,0,0,1-.359.335.728.728,0,0,1-.458.106,2.544,2.544,0,0,1-.9-.327c-2.086-1.508-3.242-3.786-4.738-5.784-.5-.662-.876-1.412-1.346-2.1-.556-.812-1.141-1.6-1.744-2.376-.064-.084-.33-.054-.485-.01s-.391.192-.379.251a19.884,19.884,0,0,1,.347,3.914c.012,2.177.079,4.352.167,6.524a4.594,4.594,0,0,0,.339,1.941,8.562,8.562,0,0,1,.657,3.412,10.432,10.432,0,0,0,.34,2.465c1.122,3.114,1.907,6.342,3.54,9.287,1.033,1.862,2.187,3.744,2.258,6.027a6.293,6.293,0,0,0,.733,1.84c.6,1.545,1.169,3.107,1.8,4.64a4.024,4.024,0,0,1,.16,2.94c-.411,1.1-.647,2.229-.982,3.341a9.028,9.028,0,0,1-.7,1.328c-.477.954-1.213,1.178-1.966.6-1.053-.819-2.106-1.634-3.151-2.463-1.171-.927-2.332-1.867-3.5-2.8-.207.241-.536.453-.546.679a3.127,3.127,0,0,0,.209,1.469c1.245,2.546,2.541,5.065,3.835,7.584a7.49,7.49,0,0,0,.79,1.269c1.87,2.349,3.511,4.9,5.786,6.9a13.539,13.539,0,0,1,3.471,4.854c.967,2.234,1.422,2.17-.059,5.156a7.351,7.351,0,0,1-.531.8l-2.416,1.07c-1.05.037-2.221.121-3.39.108-1.5-.017-3.036.081-4.371-.824-.832-.057-1.663-.157-2.495-.14a.986.986,0,0,0-.726.529,1.267,1.267,0,0,0,.182.94,3.641,3.641,0,0,0,.984,1.122,7.021,7.021,0,0,1,2.057,2.079c1.474,2.214,3.2,4.261,4.7,6.458a11.484,11.484,0,0,0,4.541,3.816c1.641.812,3.338,1.5,4.962,2.344a2.363,2.363,0,0,1,1.439,1.929,10.83,10.83,0,0,0,.927,3.857,1.523,1.523,0,0,1,0,.986,10.264,10.264,0,0,1-1.8,3.543,3.481,3.481,0,0,1-3.023,1.476,9.881,9.881,0,0,0-2,.017c-.248.03-.462.344-.792.61.453.495.881,1,1.346,1.464a19.637,19.637,0,0,1,4.529,5.939,6.9,6.9,0,0,0,1.164,1.6,23.364,23.364,0,0,0,5.934,5.333,9.537,9.537,0,0,1,3.761,3.793v4.741a8.439,8.439,0,0,1-5.087,1.776c-2.155-.074-4.345.229-6.408-.782a6.561,6.561,0,0,0-1.963-.285,8.639,8.639,0,0,1-1.973-.273c-2.487-.947-5.159-1.262-7.624-2.258-.379-.155-.61-.224-.785.207a.63.63,0,0,0,.044.489,17.691,17.691,0,0,0,5.577,5.646,12.607,12.607,0,0,1,2,1.478,9.711,9.711,0,0,0,2.9,1.931c1.06.48,2.025,1.169,3.06,1.7a28.813,28.813,0,0,1,6.1,4.305,10.751,10.751,0,0,1,3.257,5.508,19.409,19.409,0,0,0,.664,1.867,8.5,8.5,0,0,1-.736,1.857,10.927,10.927,0,0,1-1.72,1.8c-.546.5-1.164.918-1.887,1.476a31.95,31.95,0,0,0,4.669,2.217c2.249.654,4.187,2.032,6.507,2.509a2.078,2.078,0,0,1,1.567,1.8,4.556,4.556,0,0,0,1.6,3.006,2.01,2.01,0,0,1,.509,1.358c-.022,1.331-.175,2.659-.276,3.988-.785,1.277-.795,2.886-1.828,4.079a12.567,12.567,0,0,0-1.255,2.153,16.537,16.537,0,0,1-2.632,3.621,18.8,18.8,0,0,1-4.244,3.444c-.866.48-1.641,1.117-2.485,1.7.187.182.352.492.563.526a34.057,34.057,0,0,0,9-.089,1.193,1.193,0,0,0,.48-.123c1.2-.706,2.662-.492,3.843-1.006,1.252-.544,2.63-.526,3.813-1.176a4.748,4.748,0,0,1,2.436-.421,2.746,2.746,0,0,1,2.443,1.488,11.114,11.114,0,0,1,.674,1.727c-.189,1.1-.3,2.091-.541,3.053-.273,1.127-.745,2.209-.957,3.343a10.589,10.589,0,0,1-.873,2.846c-.435.881-.44,1.916-.957,2.819a48.782,48.782,0,0,0-2.16,5.555.662.662,0,0,0,.29.876c.069.042.3-.066.374-.167a40.018,40.018,0,0,1,4.45-5.385q2.247-2,4.492-4c.512-.086,1-.189,1.5-.246a2.494,2.494,0,0,1,2.522,1.282,11.318,11.318,0,0,1,.908,1.779c.881,2.153,1.2,4.495,2.192,6.615a3.624,3.624,0,0,1,.241,1.471c.007,1.048.684,1.882.856,2.856a19.683,19.683,0,0,0,.475,3.464,14.531,14.531,0,0,1,.694,4.937,55.006,55.006,0,0,1-.4,9.5c-.069.445-.426.945.248,1.134a1.039,1.039,0,0,0,.883-.3,49.065,49.065,0,0,0,6.738-10.472,18.118,18.118,0,0,0,1.459-5.255,8.682,8.682,0,0,1,.325-2.44,5.256,5.256,0,0,1,2.16-2.071c.79.2,1.572.435,2.369.6a2.768,2.768,0,0,1,2.165,1.887c.937,3.016,2.192,5.911,3.193,8.9a14.937,14.937,0,0,1,.846,5.373,12.557,12.557,0,0,1-.777,2.869,2.055,2.055,0,0,0,.4,1.956l1.41-2.647c-.02-1.54,1.154-2.772,1.092-4.337-.059-1.538.964-2.8,1.188-4.3a3.957,3.957,0,0,1,1.853-2.3,2.817,2.817,0,0,1,2.861.007,6.755,6.755,0,0,1,1.72,1.784c.551,1.038,1.24,1.975,1.816,2.982a22.667,22.667,0,0,1,1.306,3.225,40.091,40.091,0,0,1,1.594,4.185,2.3,2.3,0,0,0,.593.795,1.1,1.1,0,0,0,.413.273c.276.111.534-.059.6-.482.3-1.97,1.385-3.776,1.23-5.843a.922.922,0,0,1,.069-.494c.95-1.7.8-3.557.817-5.39.017-2.669.034-5.336.2-7.7a5.4,5.4,0,0,1,1.823-2.113,2.324,2.324,0,0,1,2.364-.391c1.215.566,2.563.713,3.747,1.378a21.215,21.215,0,0,0,3.186,1.395c1.092.4,2.229.664,3.338,1.006a35.039,35.039,0,0,1,6.945,2.748,5.6,5.6,0,0,0,2.7,1.181c.125,0,.369-.216.354-.278a20.625,20.625,0,0,0-1.587-4.618c-1.25-2.371-1.528-5.092-2.677-7.5-.148-1.323-.266-2.652-.458-3.968-.093-.652-.379-1.277-.475-1.929a6.553,6.553,0,0,1-.155-2.465,14.671,14.671,0,0,1,1.277-4.258,4.171,4.171,0,0,1,1.107-.888c2.989-.28,2.942-.1,5.417.672,2.418.753,4.5,2.165,6.878,3.063,1.907.246,3.924.015,5.806.78.16-.335.421-.625.418-.915-.015-1.838-.106-3.678-.133-5.516-.022-1.5-.01-3.011.032-4.514a11,11,0,0,1,.268-1.552c.435-.445.876-.945,1.368-1.385a12.168,12.168,0,0,1,3.589-1.774c3.459-.31,6.977,0,10.512-.335a2.647,2.647,0,0,0-.212-.844,1.687,1.687,0,0,0-.736-.647,27.4,27.4,0,0,0-3.242-1.3,25.774,25.774,0,0,1-3.311-1.087c-1.09-.384-2.076-1.065-3.311-1.028a1.582,1.582,0,0,1-.886-.423,13.058,13.058,0,0,1-1.488-1.341c-.787-.854-1.825-1.491-2.384-2.871,0-.253-.012-.748,0-1.242a6.772,6.772,0,0,1,.1-1,2.532,2.532,0,0,1,3.051-1.877,8.649,8.649,0,0,0,2.354.76c1,.034,1.643,1.191,2.721.987a21.2,21.2,0,0,0,7.538-6.507c.217-.276-.074-1.2-.411-1.274a12.56,12.56,0,0,1-1.464-.3,12.33,12.33,0,0,0-8.32-.207,3.472,3.472,0,0,1-.972.19c-2.175.079-4.349.1-6.522.216a9.032,9.032,0,0,1-4.347-.908,7.018,7.018,0,0,1-2.226-1.063,7.347,7.347,0,0,1-1.267-1.525c-.376-.652.017-1.284.337-1.865.4-.731.14-1.695,1.021-2.485,1.565-.787,3.319-1.749,5.137-2.566a34.988,34.988,0,0,0,8.281-5.547c2.79-2.386,5.26-5.146,7.882-7.729a7.89,7.89,0,0,0,1.732-3.016c-.14-.086-.273-.231-.423-.251-2.834-.384-5.673,0-8.509-.025a1.018,1.018,0,0,0-.465.18,6.869,6.869,0,0,1-3.417.613c-1.338.037-2.674.128-4.012.162a5.305,5.305,0,0,0-1.951.342c-2.239.925-4.241.175-6.126-1.016-.389-.244-.6-.775-.905-1.2.076-.844.152-1.675.216-2.357,1.683-2.448,3.3-4.768,4.883-7.117a12.206,12.206,0,0,1,5.235-4.512,11.824,11.824,0,0,1,1.828-.8c2.436-.608,4.546-2.034,6.962-2.7a2.7,2.7,0,0,0,1.882-1.631,40.437,40.437,0,0,0-4.795-1.2,6.028,6.028,0,0,1-3.471-1.8,15.223,15.223,0,0,1-3.3-4.372,3.719,3.719,0,0,1,.433-4.217,7.516,7.516,0,0,1,1.774-1.747,31.153,31.153,0,0,1,6.052-3.422c2.64-.982,5.156-2.315,7.845-3.191a44.035,44.035,0,0,0,11.489-5.953,4.138,4.138,0,0,0,1.978-2.157,7.906,7.906,0,0,0-4.423.049,8.576,8.576,0,0,1-2.408.605,7.77,7.77,0,0,0-3.855.91c-1.414-.162-2.475.928-3.828,1.055-2.135.2-4.337-.03-6.381.935a3.673,3.673,0,0,1-1.488.076q-2.262-.018-4.519-.064a3.536,3.536,0,0,1-1.476-.14,8.3,8.3,0,0,0-3.919-.654,17.869,17.869,0,0,1-4.866-1,6.989,6.989,0,0,1-4.47-3.538c.362-.873.625-1.673,1.011-2.408a13.569,13.569,0,0,1,1.574-2.544,16.384,16.384,0,0,1,5.4-4.408,19.408,19.408,0,0,0,2.561-1.547c2.773-1.845,5.614-3.587,8.367-5.464a38.733,38.733,0,0,1,8.443-4.285c.622-.229,1.205-.563,1.835-.763,1.786-.566,2.578-2.03,3.26-3.574.079-.177-.182-.573-.376-.785a1.644,1.644,0,0,0-.824-.546c-2.807-.46-5.385-1.67-8.1-2.431-1.277-.359-2.43-1.119-3.8-1.161-1.164-.795-2.605-.593-3.83-1.046-1.279-.475-2.627-.526-3.87-.957a34.633,34.633,0,0,1-4.066-1.929,1.761,1.761,0,0,1-.676-2.172c.416-.9.891-1.779,1.311-2.608,1.41-1.009,2.733-2.025,4.123-2.94a82.379,82.379,0,0,1,10.288-6.118,33.241,33.241,0,0,0,3.05-1.69,2.358,2.358,0,0,0,.62-.77.36.36,0,0,0-.108-.32,8,8,0,0,0-4.408.165,5.574,5.574,0,0,1-1.437.381c-2.007.039-4.015.007-6.022,0a8,8,0,0,1-1.9-.544c-2.116-.519-3.98-1.693-6.052-2.288a12.616,12.616,0,0,1-5.9-3.582c-.681-.736-1.382-1.454-2.032-2.221a2.593,2.593,0,0,1-.455-2.809c.59-1.375,1.306-2.7,1.909-3.924,1.228-.841,2.33-1.594,3.375-2.312a57.306,57.306,0,0,0,6.4-1.434c1.855-.632,3.889-1.014,5.375-2.492a11.835,11.835,0,0,0,3.582-2.706c3.269-3.353,6.5-6.748,9.737-10.133a1.157,1.157,0,0,0,.2-.438c.125-.384.042-.716-.293-.834a5.453,5.453,0,0,0-1.429-.339c-2.317-.153-4.7.266-6.91-.807-1.5-.027-3.009-.273-4.445.4a2.676,2.676,0,0,1-2.423.076c-1.225-.647-2.617-.485-3.825-.915a8.252,8.252,0,0,1-3.174-3.2,1.151,1.151,0,0,1-.074-.942c1.353-1.884,2.315-4.027,4.094-5.634a23.491,23.491,0,0,1,5.2-3.867,33.115,33.115,0,0,0,4.873-2.514c1.9-1.39,4.116-2.2,6.008-3.574a67.641,67.641,0,0,1,6.529-3.665,5.344,5.344,0,0,0,1.016-1.036,3.61,3.61,0,0,0-2.455-.519c-4.519-.015-9.038.007-13.555-.012-.827,0-1.656-.138-2.482-.212-1.255-1.028-2.979-.367-4.48-1.3-.347-.293-.868-.713-1.363-1.161-.374-.335-.721-.7-1.065-1.065a3.571,3.571,0,0,1-.495-3.752c.221-.45.556-.846.741-1.306a3.892,3.892,0,0,1,2-2.133c1.5-.723,3.043-1.365,4.5-2.162a19.737,19.737,0,0,0,4.172-2.741c2.192-2.054,4.7-3.744,6.871-5.833.711-.681,1.643-1.129,2.428-1.744a5.867,5.867,0,0,0,2.042-2.165,2.626,2.626,0,0,0-1.884-.317c-1.833.066-3.663.16-5.5.244-3.1,1.006-6.278.689-9.442.571a2.577,2.577,0,0,1-1.717-.942A4.97,4.97,0,0,1,419.9,233.6c-.224-.785-.568-1.535-.844-2.256Zm34.594,343.726c.43-3.156.45-3.166-.681-5.415a81.9,81.9,0,0,0-4.308-7.889,4.32,4.32,0,0,1-.686-1.316,20.273,20.273,0,0,0-2.039-4.551c-.812-1.639-1.589-3.3-2.406-4.932s-1.683-3.26-2.5-4.9c-.743-1.488-1.454-2.991-2.175-4.492-.792-1.651-1.6-3.3-2.367-4.962s-1.129-3.491-2.428-4.888c-.2-.216-.162-.642-.3-.942a37.086,37.086,0,0,0-2.379-4.935,28.627,28.627,0,0,1-2.177-4.46,19.484,19.484,0,0,1-1.333-3.225,13.916,13.916,0,0,0-1.481-3.7c-.593-1.058-.423-2.322-1.137-3.3-.758-2.544-1.788-5-2.571-7.533a15.547,15.547,0,0,0-1.316-3.228c-.682-1.173-1.673-2.253-3.156-2.17-1.742.1-3.178-.932-4.869-1.009-1.71-.074-3.075-1.208-4.583-1.892a18.8,18.8,0,0,0-1.813-.834,1.032,1.032,0,0,0-.861.256,1.919,1.919,0,0,0-.32.9.8.8,0,0,0,.039.492c.546,1.22.615,2.618,1.176,3.789.605,1.265.509,2.62.95,3.87a58.076,58.076,0,0,0,2.876,6.913c1.127,2.231,2.261,4.458,3.38,6.691.507,1.014.44,1.242-.61,1.963a1.5,1.5,0,0,0-.814,1.154,5.577,5.577,0,0,1-.268,1.456,1.892,1.892,0,0,1-2.426,1.149,33.023,33.023,0,0,0-5.023-2.182c-1.764-.541-3.122-1.9-4.775-2.691a16.273,16.273,0,0,0-1.8-.868c-2.042-.681-4.1-1.306-6.158-1.943a4.173,4.173,0,0,0-.5-.022.739.739,0,0,0-.868.372c-.125.278-.276.686-.162.913,2.3,4.618,4.372,9.356,7.171,13.717a21.734,21.734,0,0,1,2.374,4.381c.573,1.636,2.022,2.632,2.578,4.261.477,1.4,1.488,2.6,1.8,4.1.312,1.528,1.658,2.475,2.177,3.914.28.775.571,1.562.9,2.31.544,1.223.812,2.531,1.331,3.747a12.025,12.025,0,0,0,2,3.451,1.61,1.61,0,0,1,.428.888c.091,1.4.972,2.467,1.525,3.668a73.994,73.994,0,0,1,3.169,6.785,44.11,44.11,0,0,0,2.8,6.372c1.09,2.057,2.251,4.074,3.422,6.086s2.143,4.13,3.255,6.18a5.444,5.444,0,0,0,1.513,1.916,20.9,20.9,0,0,0,3.848,1.087c2.977.261,6.005.635,8.864-.736a1.19,1.19,0,0,1,.5-.064c1.784.022,3.122-1.036,4.534-1.894a1.744,1.744,0,0,0,.881-1.69,3.042,3.042,0,0,1,1.638-3.365,5.476,5.476,0,0,0,2.967-3.223A6.249,6.249,0,0,1,455.869,570.693Zm8.012,39.253c-.881-1.911-1.931-3.811-2.632-5.83-.709-2.039-2.062-3.833-2.283-6.047-.937-1.953-1.388-4.076-2.123-6.094-.62-1.707-1.365-3.378-2.007-5.085-.032-.084-.28-.187-.317-.155-2.253,1.963-4.266,4.222-6.964,5.641a1.434,1.434,0,0,0-.342,1.368c1.454,2.62,3.186,5.075,4.554,7.752a21.58,21.58,0,0,0,2.357,4.384c1.073,1.274,1.646,2.888,2.787,4.13.443.482.7,1.132,1.132,1.626.765.878,1.6,1.695,2.4,2.541C462.289,613.292,463.028,611.617,463.881,609.946Z" transform="translate(262.32 0)"/><path d="M200.7,344.924c-1.843-1.269-3.838-2.492-5.661-3.931a32.777,32.777,0,0,1-8.121-9.432,11.057,11.057,0,0,1-.932-1.769c-.5-1.422-1.761-2.408-2.064-3.973-.248-1.287-1.1-2.416-1.26-3.766-1.1-1.57-.49-3.646-1.538-5.233-.071-1-.165-2-.209-3-.052-1.171-.074-2.342-.089-3.513-.01-.836.01-1.673.025-2.509s.01-1.678.071-2.509a11.527,11.527,0,0,1,.327-2.465,10.3,10.3,0,0,0,.669-2.394,6.9,6.9,0,0,1,.667-2.394c.327-.753.413-1.609.7-2.386a54.815,54.815,0,0,1,3.582-8.219c1.636-2.9,3.014-5.924,4.873-8.718A66.335,66.335,0,0,1,202.267,266.7a21.423,21.423,0,0,0,3.889-3.139,35.683,35.683,0,0,1,14.244-7.985c.157-.047.305-.2.455-.194,1.889.049,3.518-1,5.341-1.24,1.975-.261,3.83-1.176,5.872-1.122a9.769,9.769,0,0,1,5.156-.77,29.718,29.718,0,0,1,9.083-3.282c2.2-1.161,4.568-.672,6.883-.677,2.362,1.1,4.908.755,7.385.952a3.963,3.963,0,0,1,1.449.317,5.533,5.533,0,0,0,2.918.588c1.407-.094,2.544.787,3.872.918a13.611,13.611,0,0,1,3.914.748c1.06.43,2.337.337,3.375.8,1.233.546,2.672.4,3.774,1.26,3.439.873,6.413,2.7,9.4,4.527a26.411,26.411,0,0,1,4.367,3.314,15.762,15.762,0,0,1,3.319,4.362c.824,1.629,1.749,3.21,2.713,4.76a6.375,6.375,0,0,0,2.979,2.568,18.328,18.328,0,0,0,7.2,1.8c5.188.017,10.374.1,15.562.1q5.775,0,11.548-.133c1.82-.042,3.656.086,5.427-.669a6.876,6.876,0,0,1,2.482-.2c4.017-.066,8.032-.108,12.049-.167,1.493-.022,3.023.212,4.423-.566,1.166-.052,2.332-.121,3.5-.15,1-.027,2.005-.007,3.129-.007a10.421,10.421,0,0,1,6.123,5.412c1.151,2.207,2.5,4.337,2.987,6.837.91,1.434.812,3.225,1.665,4.679a9.919,9.919,0,0,0,.91,3.875,3.509,3.509,0,0,1,.16,1.486c0,4.517.01,9.033-.027,13.55a8.145,8.145,0,0,1-.721,3.9,4.613,4.613,0,0,0-.16,1.978c-.015,2.007,0,4.012,0,5.924-.4.886-.775,1.629-1.06,2.4a4.777,4.777,0,0,1-2.667,2.861c-3.373,1.383-6.694,2.982-10.418,3.262a4.252,4.252,0,0,0-1.466.273,7.731,7.731,0,0,1-3.429.586c-6.354,0-12.711-.012-19.066,0-4.015,0-8.03.056-12.045.061-4.519,0-9.038-.02-13.555-.032a10.147,10.147,0,0,1-2.94-.507,15.856,15.856,0,0,0-4.947-.4,6.462,6.462,0,0,0-2.768,2.836c-.551,1.026-1.023,2.1-1.643,3.08a43.41,43.41,0,0,1-7.161,8.313,3.077,3.077,0,0,1-.8.6,13.891,13.891,0,0,0-3.914,3.083,34.907,34.907,0,0,1-13.525,8.239c-2.325.846-4.728,1.459-6.992,2.4a11.363,11.363,0,0,0-1.21,3.811,2.927,2.927,0,0,1-.384,1.429c-.669,1.028-.408,2.32-1.023,3.333-.549.908-.418,1.946-.672,2.9a8.115,8.115,0,0,1-1.747,3.545,26.579,26.579,0,0,1-2.467,2.5,8.229,8.229,0,0,1-4.969,2.108c-3.006.1-6.017.108-9.07.158-.92.539-.984,1.656-1.459,2.509a11.668,11.668,0,0,0-.723,2.379c-.234.795-.448,1.6-.716,2.381a18.066,18.066,0,0,0-.731,1.852c-.18.827-.59,1.565-.809,2.349a48.345,48.345,0,0,0-1.2,4.817,36.956,36.956,0,0,1-1.016,3.848,20.26,20.26,0,0,0-1.149,5.843,14.523,14.523,0,0,1-2.064,7.117,22.124,22.124,0,0,1-4.445,6.008,14.166,14.166,0,0,1-1.25.91c-3.154.224-6.327-.086-9.5-.1-2.354-1.23-4.9-.7-7.38-.817a1.234,1.234,0,0,0-1.395,1.119c-.219,1.321-1.166,2.438-1.053,3.835s-.913,2.5-.967,3.852c-.071,1.852-1.225,3.469-1.156,5.351-.915,1.461-.681,3.264-1.378,4.772-.709,1.535-.357,3.336-1.341,4.8a3.126,3.126,0,0,0-.172,1.474c-.047,1-.064,2-.089,2.765-.777,1.37-1.373,2.571-2.121,3.668a6.948,6.948,0,0,1-1.52,1.25c-1.54.047-2.807,1.018-4.3,1.252a2.27,2.27,0,0,0-1.54,1.206A71.813,71.813,0,0,0,193,466.336c-.249.8-.524,1.57-.834,2.344a11.511,11.511,0,0,0-1.314,4.268,6.122,6.122,0,0,1-.482,1.4c-.561,2.079-1.456,4.074-1.461,6.288,0,1.351-1,2.465-.945,3.865a9.744,9.744,0,0,1-.76,3.39c-.352,1.09-.066,2.408-.5,3.447a19.2,19.2,0,0,0-.945,5.395c-.128,1.146-.526,2.263-.681,3.41s-.086,2.349-.271,3.5c-.155.972-.62,1.894-.785,2.866a26.463,26.463,0,0,0-.192,3c-1.351,2.039-.438,4.664-1.739,6.716-.066.834-.143,1.668-.2,2.5a6,6,0,0,1-.657,2.9,1.839,1.839,0,0,0-.273.947c.069,2.561-.905,4.881-1.665,7.247-.512,1.582-.807,3.218-1.235,4.822a101.982,101.982,0,0,1-3.173,9.909c-.29.777-.667,1.523-.942,2.3a11.479,11.479,0,0,1-2.59,4.773c-1.237,2.172-2.763,4.17-3.845,6.433-1.678,1.865-3.407,3.688-5.014,5.611-.745.893-1.584,1.678-2.362,2.519-.664.718-1.2,1.587-1.889,2.317a25.048,25.048,0,0,1-4.539,3.914c-2.308,2.44-5.351,3.988-7.72,6.359a7.544,7.544,0,0,1-1.232.849c-5.83,3.87-11.486,7.993-17.154,12.094a8.9,8.9,0,0,0-1.565,1.24c-1.678,1.914-4.089,2.861-5.931,4.551a8.44,8.44,0,0,0-2.829,2.02c-.866.78-1.8,1.488-2.684,2.244-1.144.972-2.332,1.9-3.4,2.952-3.22,3.166-6.374,6.4-9.589,9.57a14.506,14.506,0,0,0-3.21,3.811.786.786,0,0,1-.31.379c-1.474.652-2,2.2-3.063,3.24-1.555,1.515-3.011,3.139-4.421,4.792a19.321,19.321,0,0,0-1.956,2.888c-.75,1.294-1.392,2.654-2.108,3.97a2.588,2.588,0,0,1-.657.743,5.742,5.742,0,0,1-.873.475,2.228,2.228,0,0,1-1.525-2.325,9.765,9.765,0,0,1,.337-2.959c.64-1.513.92-3.149,2.012-4.534,2.374-3.006,4.467-6.224,7.208-8.945,2.851-2.832,5.606-5.757,8.409-8.632A12.9,12.9,0,0,0,104,604.135c2.618-2.571,4.91-5.481,7.973-7.589a10.964,10.964,0,0,0,1.493-1.336,90.632,90.632,0,0,1,9.715-7.862c2.256-1.712,4.551-3.38,6.741-5.2a82.886,82.886,0,0,1,7.348-5.183c3.055-2.02,6.2-3.912,9.117-6.131a9.956,9.956,0,0,0,3.164-2.428q3.79-3.661,7.506-7.4a40.674,40.674,0,0,0,4.071-4.431,47.036,47.036,0,0,0,3.614-5.976,50.151,50.151,0,0,0,3.055-7.358,107.92,107.92,0,0,0,3.41-10.4c.78-1.173.438-2.652.972-3.843a10.5,10.5,0,0,0,.785-3.9c.069-1.346.93-2.492.908-3.875a6.893,6.893,0,0,1,.755-3.395,1.953,1.953,0,0,0,.2-.969c-.113-2.541,1.338-4.827,1.191-7.368,1.09-2.359.883-4.9.986-7.388a9.522,9.522,0,0,1,.674-3.41,4.263,4.263,0,0,0,.224-1.973c-.128-1.41.709-2.563.893-3.875a39.18,39.18,0,0,1,.467-3.973,13.974,13.974,0,0,0,.721-2.9c.064-1.675,1.085-3.134,1.028-4.868-.054-1.678,1.149-3.132,1.068-4.849.972-2.47,1.584-5.068,2.637-7.513.593-1.37,1.1-2.768,1.579-4.192a37.442,37.442,0,0,1,5.247-10.709,19.4,19.4,0,0,0,1.437-2.622,1.893,1.893,0,0,0-.349-1.867c-.364-.344-.733-.684-1.122-1s-.8-.583-1.134-.827a7.138,7.138,0,0,1-.066-5,37.891,37.891,0,0,0,.891-3.887c.972-1.282.637-2.918,1.178-4.322a26.317,26.317,0,0,0,1.237-3.781c.812-3.744,2.219-7.3,3.326-10.952a1.271,1.271,0,0,0-1.1-1.786c-1.459-.32-2.942-.556-4.381-.952a30.21,30.21,0,0,1-8.231-3.5,9.422,9.422,0,0,1-1.491-1.333,2.635,2.635,0,0,1-.772-1.8,8.668,8.668,0,0,1,.787-4.878c.079-1.857,1.087-3.464,1.387-5.292.293-1.771,1.3-3.415,1.715-5.181.536-2.293,1.732-4.31,2.45-6.527.556-1.722,1.4-3.365,2.032-5.082.571-1.555,1.355-3.014,1.848-4.625.529-1.734,1.589-3.3,2.234-5.009a70.545,70.545,0,0,0,2.709-6.964c.927-1.412.982-3.154,1.791-4.637a19.963,19.963,0,0,0,1.552-4.194c.4-1.434,1.08-2.8,1.4-4.249a35.919,35.919,0,0,1,.974-3.862,3.93,3.93,0,0,0-.4-3.388C201.17,345.926,200.976,345.461,200.7,344.924Zm44.311-87.647c-.16.116-.352.185-.418.317a2.769,2.769,0,0,1-2.817,1.633c-1.331-.076-2.662-.177-3.993-.266a3.961,3.961,0,0,0-4.276,0c-1.7.02-3.205.972-4.844,1.112a37.584,37.584,0,0,0-6.738,1.693,26.176,26.176,0,0,0-7.611,3.592A72.539,72.539,0,0,0,201.109,276.8a16.542,16.542,0,0,0-1.181,1.606,65.412,65.412,0,0,0-5.3,8.47c-1.378,1.341-1.793,3.2-2.391,4.891a26.143,26.143,0,0,1-1.633,4.153c-.743,1.333-.647,2.947-1.552,4.2a21.543,21.543,0,0,1-.91,4.381,15.709,15.709,0,0,0-.17,3.5c-.015.669-.017,1.338.012,2.007a6.41,6.41,0,0,0,.221,2.477c.79,1.547.492,3.292,1.146,4.844a69.447,69.447,0,0,0,3.424,7.744,27.007,27.007,0,0,0,6.891,8.48,32.109,32.109,0,0,0,4.1,2.846,12.1,12.1,0,0,1,2.775,2.1,8.288,8.288,0,0,1,2.5,5.311c.285,3.006.352,6-.918,8.854.066,1.722-.745,3.242-1.21,4.822a29.524,29.524,0,0,1-1.88,5.132,14.564,14.564,0,0,0-.9,2.32c-1.921,6.2-4.918,11.971-7.213,18.025-.645,1.7-1.875,3.159-2.106,5.041a38.807,38.807,0,0,0-2.209,5.545c-1.193,3.269-2.251,6.581-3.319,9.887a8.383,8.383,0,0,0-.239,2.465,1.088,1.088,0,0,0,.472.814c.728.4,1.513.7,2.435,1.114,1.171.062,2.507.118,3.84.214a6.616,6.616,0,0,1,1.961.278,8.045,8.045,0,0,0,2.947.47c2.175,0,4.352.052,6.524-.034,2.317-.091,4.677.217,6.932-.662a4.3,4.3,0,0,1,1.5-.074c2.509,0,5.019.02,7.528.022a11.174,11.174,0,0,1,3.432.512c1.606.509,2.738.379,5.592.025l1.766-2.241c.111-1.513,1.1-2.807,1.119-4.33a25.533,25.533,0,0,1,.959-5.375c.3-1.292.615-2.571.945-3.855s.6-2.573,1.006-3.85c.357-1.1.827-2.18,1.085-3.306a19.511,19.511,0,0,1,.863-3.373,29.2,29.2,0,0,1,1.166-3.277c.123-1.68,1.355-3.06,1.282-4.812a3.261,3.261,0,0,1,.394-1.419c1.481-3.166,2.3-6.563,3.486-9.828,1.129-3.1,1.823-6.394,3.786-9.161.271-.381.175-1,.391-1.439a4.882,4.882,0,0,1,3.2-2.95,5.09,5.09,0,0,0,.824-.325,24.189,24.189,0,0,0,2.989.536q3.506.188,7.021.189A40.631,40.631,0,0,0,271,349.5a55.046,55.046,0,0,0,5.678-1.786c4.615-1.3,8.325-4.106,11.939-7.078a4.555,4.555,0,0,0,.861-1.208,6.111,6.111,0,0,1,2.148-2.012,14.829,14.829,0,0,0,4.881-4.94c1.205-2,2.354-4.025,3.474-6.069A7.6,7.6,0,0,1,303,323.16a12.087,12.087,0,0,0,1.82-1.454c1.574-.568,3.171-.175,4.541-1a1.693,1.693,0,0,1,1.459,0c1.545.92,3.223.775,4.883.785q16.558.1,33.12.18a10.622,10.622,0,0,1,4.45.47,2.236,2.236,0,0,0,1.432-.184,3.919,3.919,0,0,1,2.925-.034,2.183,2.183,0,0,0,1.916.135,5.828,5.828,0,0,1,2.445-.435c2-.091,4.01-.189,6.111-.29.667-.713,1.828-.674,2.5-1.535a29.559,29.559,0,0,0,1.073-4.807q.472-8.015.256-16.052c-.052-1.887-.763-3.57-1.073-5.363a11.926,11.926,0,0,0-.905-2.836c-.465-1.06-.77-2.189-1.191-3.274a9.924,9.924,0,0,0-3.828-5.306c-.684,0-1.515-.007-2.347,0q-5.015.063-10.032.135c-3.511.047-7.024.084-10.534.145a5.549,5.549,0,0,0-1.971.2,10.487,10.487,0,0,1-3.934.59c-1.506.025-3.009.091-4.514.128s-3.019.175-4.512.061c-1.466-.113-2.886.952-4.352.113a11.4,11.4,0,0,1-2.4.578c-3.343.074-6.689.059-10.035.044a3.437,3.437,0,0,1-1.456-.283,7.85,7.85,0,0,0-3.429-.581c-2.913-.037-5.4-1.584-8.15-2.214a1.113,1.113,0,0,1-.423-.261,12.439,12.439,0,0,1-3.619-4.081c-.768-1.661-1.722-3.235-2.517-4.883a11.652,11.652,0,0,0-3.774-4.605,30.955,30.955,0,0,0-7.348-4.182A59.213,59.213,0,0,0,268.6,260.04a3.87,3.87,0,0,1-.955-.278,5.7,5.7,0,0,0-2.418-.561,9.394,9.394,0,0,1-3.407-.667,18.678,18.678,0,0,0-2.95-.465A20.336,20.336,0,0,0,256,257.3C252.335,257.088,248.66,256.723,245.014,257.277ZM199.355,443.049a3.257,3.257,0,0,0,3.338-1.36,5.979,5.979,0,0,0,1.137-2.2c.253-1.321,1.033-2.514,1.1-3.808.1-1.872,1.316-3.447,1.208-5.331.652-1.712.795-3.565,1.39-5.274.6-1.729.573-3.614,1.422-5.27a2.391,2.391,0,0,0,.039-.989,1.085,1.085,0,0,0-.95-.952c-1.328.039-2.659.069-3.98.177a1.066,1.066,0,0,0-.758.573c-.866,2.5-1.456,5.09-2.239,7.621.143,1.739-1.036,3.151-1.186,4.817-1,1.432-.522,3.311-1.355,4.748-.878,1.515-.308,3.338-1.235,4.8-.079.125-.032.327-.052.492a1.942,1.942,0,0,0,1.011,1.606A8.093,8.093,0,0,0,199.355,443.049Zm56.338-72.742a38.711,38.711,0,0,0,3.973-.888,2.6,2.6,0,0,0,1.634-1.776c.285-.952.659-1.884.873-2.851.182-.809.135-1.665.283-2.485.175-.964.492-1.907.649-2.873.032-.194-.349-.637-.581-.667-1.958-.246-3.975.012-5.892-.7-.207-.079-.654.209-.851.445a10.45,10.45,0,0,0-1.454,2.007,60.373,60.373,0,0,0-2.93,8.406c-.034.113.066.3.15.418a.772.772,0,0,0,.364.332C253.2,369.993,254.593,369.668,255.693,370.307Z" transform="translate(0 80.974)"/><path d="M269.217,317.329a8.634,8.634,0,0,1-2.923-3.385,46.1,46.1,0,0,1-2.829-6.374,27.391,27.391,0,0,0-2.059-4.539,8.562,8.562,0,0,0-3.626-3.641c-2.485-.057-5.134-.283-7.732.677a10.648,10.648,0,0,1-2.47.28,8.263,8.263,0,0,0-2.465.347c-1.941.9-3.921.571-5.8.541a6.459,6.459,0,0,1-2.859-2.888c-.512-1.046-1.095-2.059-1.572-3.122a10.53,10.53,0,0,0-4.13-4.839,6.737,6.737,0,0,0-4.873.76c-.421.261-.925.384-1.365.617-1.729.923-3.555.726-5.388.5-1.447-.8-3.169-1-4.482-2.126-1.009-.866-2.13-1.6-3.2-2.4-1.619-1.22-3.139-2.49-3.343-4.743-.039-.445-.566-.827-.743-1.287a3.6,3.6,0,0,1,1.6-4.325c.721-.4,1.5-.686,2.2-1a4.686,4.686,0,0,1,3.565,2.514c.674,1.319,2.084,2.145,2.775,3.53a3.409,3.409,0,0,0,1.087.964c.8.6,1.626,1.173,2.519,1.815.765.076,1.592.2,2.418.226a5.5,5.5,0,0,0,2.893-.635c1.319-.709,2.716-1.267,4.049-1.948a5.78,5.78,0,0,1,2.932-.418,4.236,4.236,0,0,1,.915.369c1.223.866,2.445,1.742,3.626,2.664a11.408,11.408,0,0,1,3.36,4.3c.485,1.058.932,2.14,1.5,3.151a8.651,8.651,0,0,0,1.245,1.422,16.367,16.367,0,0,0,7.525-.755c1.05-.418,2.376-.14,3.432-.553a13.744,13.744,0,0,1,5.407-.75,3.486,3.486,0,0,1,1.471.244c2.4,1.2,4.679,2.536,5.894,5.154a72.122,72.122,0,0,1,4.02,9.107,26.905,26.905,0,0,0,1.951,4,7.515,7.515,0,0,0,2.64,1.483,10.616,10.616,0,0,0,4.923-.485,10.282,10.282,0,0,1,2.972-.3,9.479,9.479,0,0,0,3.914-.681,3.709,3.709,0,0,1,1.464-.243,21.8,21.8,0,0,0,6.4-.974,3.283,3.283,0,0,1,1.117.057c.721.522,1.5,1.151,2.349,1.68a4.254,4.254,0,0,1,1.331,1.429c1.077,1.678,2.539,3.075,3.6,4.79a8.241,8.241,0,0,0,1.656,1.577c1.643.463,3.215.273,4.544,1.129.209.135.63-.044.947-.108s.659-.3.9-.212c.937.337,1.816.844,2.758,1.156s1.926.443,2.881.7a.614.614,0,0,1,.423.817,1.433,1.433,0,0,1-.45.78,18.133,18.133,0,0,1-1.8.868c-5.4.573-5.712.578-13.5.175-.908-.4-1.843-.76-2.723-1.22a9.7,9.7,0,0,1-4.428-3.9,11.028,11.028,0,0,0-3.016-3.316,1.332,1.332,0,0,0-1.4-.224,7.052,7.052,0,0,1-2.893.686c-1.82.1-3.7-.135-5.388.836l-4,.28a10.188,10.188,0,0,0-3.929.613,1.931,1.931,0,0,1-1.466.044C272.164,317.568,270.6,317.789,269.217,317.329Z" transform="translate(180.578 122.147)"/><path d="M231.514,273.871a4.432,4.432,0,0,1,3.338.726c1.855,1.424,4.1,2.224,5.944,3.69a3.985,3.985,0,0,0,2.888.544,1.5,1.5,0,0,0,.89-.386,9.982,9.982,0,0,0,1.646-1.879c2.108-3.594,4.718-6.851,6.888-10.409.957-1.57,1.825-3.169,2.684-4.785a3.231,3.231,0,0,1,1.877-1.567c1.734-.573,3.471-1.146,5.213-1.7a7.03,7.03,0,0,1,4.428-.037,12.762,12.762,0,0,0,3.415.576c1.985.135,4.02-.069,5.894.913a3.428,3.428,0,0,0,1.486.143c.664,0,1.326-.044,1.887-.066a27.377,27.377,0,0,0,7.857-9.117,29.756,29.756,0,0,1,2.44-3.769,20.611,20.611,0,0,1,7.956-5.914c.768-.33,1.538-.647,2.431-1.023.7-.057,1.535-.111,2.364-.2a7.05,7.05,0,0,1,5.452,2.037,20.008,20.008,0,0,1,2.037,2.214,3.207,3.207,0,0,1,.411.891,1.506,1.506,0,0,1-1.159,1.862,8.707,8.707,0,0,1-3.919-.544,4.829,4.829,0,0,0-4.34.165,4.4,4.4,0,0,1-.945.3,10.956,10.956,0,0,0-5.051,3.075,14.524,14.524,0,0,0-1.82,2.376,35.413,35.413,0,0,1-2.871,4.094c-1.279,1.545-2.726,2.947-4.081,4.428a19.109,19.109,0,0,0-1.931,2.285,6.221,6.221,0,0,1-2.627,2.229c-1.053.5-2.069,1.077-3.176,1.661a8.682,8.682,0,0,1-4.349-.426,7.87,7.87,0,0,0-1.926-.438,102.624,102.624,0,0,0-11.036-.234,2.7,2.7,0,0,0-2.509,1.368c-1.614,2.925-3.808,5.464-5.518,8.32-1.729,2.9-4.325,5.082-6.236,7.823a2.292,2.292,0,0,1-.765.625c-1.161.65-2.315,1.321-3.518,1.889a3.633,3.633,0,0,1-2.932.01c-1.538-.632-3.014-1.422-4.5-2.165s-2.967-1.511-4.544-2.315l-2.908,1.892c-1.707,1.963-2.851,4.408-4.568,6.445a9.886,9.886,0,0,1-2.792,3.5,16.613,16.613,0,0,0-2.822,3.439,6.238,6.238,0,0,1-3.98.118c-1.9-.546-3.914-.94-5.562-2.133a6.865,6.865,0,0,1-2.878-4.524,1.529,1.529,0,0,1,.226-.95,3.787,3.787,0,0,1,3.68-2.135c.332.025.659.1,1.213.18l3.174,2.7c.647.1,1.139.2,1.633.239a1.653,1.653,0,0,0,1.752-.691c.726-1.513,2.022-2.627,2.664-4.224a40.343,40.343,0,0,1,2.32-3.848,14.268,14.268,0,0,1,6.91-6.278C230,274.525,230.761,274.2,231.514,273.871Z" transform="translate(178.403 68.4)"/><path d="M236.223,273.638a32.246,32.246,0,0,0-8.93,4.281,59.87,59.87,0,0,1-10.261,5.065,5.5,5.5,0,0,1-3.427.212,10.458,10.458,0,0,1-3.218-3.107,6.611,6.611,0,0,1-1.483-5.144,2.135,2.135,0,0,1,1.046-1.582c1.328-.822,2.645-1.444,4.256-.866.955.76,1.134,1.983,1.673,3a4.19,4.19,0,0,0,1.855,1.752,13.438,13.438,0,0,0,1.331-.4,54.214,54.214,0,0,0,10.463-5.791,28.522,28.522,0,0,1,9.565-4.438c2.394.605,4.2,2.33,5.948,4.126s3.476,3.616,5.233,5.4a14.576,14.576,0,0,0,1.872,1.661,3.405,3.405,0,0,0,3.771.33,41.421,41.421,0,0,0,5.183-3,42.252,42.252,0,0,1,5.124-3.107,59.433,59.433,0,0,0,9.816-6.846c1.215-1.011,2.118-1.422,5.461-2.652,3.7,2.226,5.877,6.251,9.469,8.7a31.2,31.2,0,0,0,7.024.064c1.678-.768,3.555-.785,5.277-1.417,1.56-.573,3.171-1,4.75-1.513a17.537,17.537,0,0,1,2.344-.814,25.459,25.459,0,0,1,3.5-.288c1.336-.044,2.674.007,4.01,0a3.693,3.693,0,0,1,3.786,2.674c.116.312.248.62.374.93a13.813,13.813,0,0,1-4.642,1.395,14.368,14.368,0,0,1-2,.093c-2.723-.182-5.252.674-7.806,1.407a6.56,6.56,0,0,1-1.407.48,16.325,16.325,0,0,0-5.333,1.09c-1.929-.01-3.483,1.018-5.191,1.882a31.023,31.023,0,0,1-8.4.123,24.21,24.21,0,0,1-6.271-4.886c-.593-.588-1.2-1.161-1.806-1.737a1.879,1.879,0,0,0-1.415-.266c-.433.253-.878.49-1.284.78-2.716,1.934-5.673,3.474-8.519,5.191s-5.673,3.488-8.63,5.028c-.881.458-1.651,1.122-2.512,1.621s-1.774.913-2.62,1.341a12.725,12.725,0,0,1-5.565-.187,50.122,50.122,0,0,1-6.664-5.887A19.1,19.1,0,0,0,236.223,273.638Z" transform="translate(183.018 101.913)"/><path d="M196.025,486.075c-1.043,1.535-1.934,2.932-2.915,4.266s-2.509,2.219-3.279,3.938c-1.336.753-2.728,1.685-4.236,2.354-2.728,1.206-5.5,2.337-8.591,2.192a13.449,13.449,0,0,0-2.5.044c-2.106.3-3.835-.925-5.759-1.351-.236-.054-.406-.487-.571-.765a.986.986,0,0,1-.118-.482c-.012-2.485-.312-5,.8-7.365.034-1.69.937-3.2,1.065-4.841.133-1.693,1.095-3.124,1.191-4.819.044-.787.736-1.53.8-2.32.14-1.685,1.1-3.11,1.247-4.812a31.708,31.708,0,0,1,1.233-4.94c.854-1.235,2.113-2.31,2.832-3.892a7.142,7.142,0,0,1,3.643-3.508,11.859,11.859,0,0,0,2.736.775c2.706.133,4.1,1.951,5.407,3.919a12.469,12.469,0,0,1,.615,1.365,4.292,4.292,0,0,1,.214,3.395c-.534,1.565-1.205,3.08-1.806,4.622-.219.561.189,1.555.8,1.611,1.988.18,3.188,1.717,4.763,2.6.787,1.073,1.572,2.145,2.315,3.159A12.862,12.862,0,0,1,196.025,486.075Zm-18.483-4.216a9.73,9.73,0,0,0-1.525,5.046c.027,1.336-.1,2.674-.128,4.01a2.037,2.037,0,0,0,.209.969,1.3,1.3,0,0,0,.686.664c3.454.733,6.591-.357,9.607-1.85a11.169,11.169,0,0,0,2.317-1.9,1.988,1.988,0,0,0,.47-.868,3.464,3.464,0,0,0-1.412-3.951c-1.476-.77-2.989-1.474-4.418-2.175A28.169,28.169,0,0,0,177.542,481.858Zm3.944-13.181c-.3.305-.809.6-.952,1.021a41.241,41.241,0,0,0-1.161,4.276c-.061.283.426.544.758.426a17.99,17.99,0,0,0,2.271-.954,1.37,1.37,0,0,0,.546-.79,5.646,5.646,0,0,0,.084-2.959C182.849,468.945,182.3,468.665,181.486,468.677Z" transform="translate(123.433 389.899)"/><path d="M250.587,461.174a19.475,19.475,0,0,1,5.508-.091,9.924,9.924,0,0,1,3.119,2.549c.728.763.807,1.821,1.326,2.669a5.746,5.746,0,0,1-.2.927c-.529,1.39-.248,2.925-1.159,4.305a36.781,36.781,0,0,1-4.332,6.062c-.937.94-2.121,1.643-2.773,2.854a2.534,2.534,0,0,0,1.353,1.355c1.469.777,2.959,1.516,4.455,2.241,2.4,1.161,4.654,2.544,6.93,3.926,3.08,1.872,2.076,2.549.4,4.485a23.857,23.857,0,0,1-2.61,2.332,1.943,1.943,0,0,1-2.322.064c-.428-.256-.868-.494-1.277-.782-3.963-2.8-8.45-4.622-12.714-6.861-.315-.165-1.23.2-1.255.549a11.882,11.882,0,0,1-1.348,3.739,12.32,12.32,0,0,0-.9,3.71c-.381,1.055-1.407,1.006-1.993,1.565-.6.576-1.215,1.144-1.843,1.69a6.622,6.622,0,0,1-.836.549,2.467,2.467,0,0,1-1.909-.116c-.664-.541-1.358-1.22-1.08-2.086.716-2.214,1.058-4.524,1.835-6.714q1.085-3.044,2.3-6.047a18.9,18.9,0,0,0,1.444-4.219,28.364,28.364,0,0,1,1.255-4.293c.728-2.379,1.122-4.841,1.911-7.206a4.867,4.867,0,0,1,.9-1.754A32.408,32.408,0,0,1,250.587,461.174Zm3.242,8.473c-.512-.487-.959-.962-1.459-1.375-.308-.256-1.213.037-1.284.367a18.618,18.618,0,0,1-.964,4.31,6.178,6.178,0,0,0-.133,2.428c0,.135.172.273.278.431a4.819,4.819,0,0,0,2.563-2.792C253.254,471.959,253.487,470.827,253.829,469.646Z" transform="translate(221.349 391.589)"/><path d="M352.645,490.294a29.824,29.824,0,0,0,1.2-4.77c.18-2.327.037-4.677.03-7.016-.713-1.683-.568-3.609-1.454-5.238a4.99,4.99,0,0,1-.293-3.6c.593-.581,1.282-1.3,2.027-1.966A3.343,3.343,0,0,1,357,467.1a1.85,1.85,0,0,1,1.518,1.169,16.451,16.451,0,0,1,1.476,6.256c-.081,2.339.01,4.681,0,7.021a26.833,26.833,0,0,1-.148,3.505c-.16,1.137-.95,2.13-.881,3.346a6.848,6.848,0,0,0-.866,4.322,5.163,5.163,0,0,1-.226,1.483c-.086.3-.276.728-.512.8-1.71.531-2.672,1.961-3.845,3.122a3.566,3.566,0,0,1-3.786,1.011,41.231,41.231,0,0,1-5.028-4.667c-2.349-2.367-4.854-4.591-6.625-7.481a14.9,14.9,0,0,0-2-2.236c-.453-.477-.945-.918-1.456-1.412-1.456,1.417-1.427,3.331-2.177,4.893-.736,1.533-.4,3.341-1.395,4.773-.113,1.83-.226,3.663-.347,5.629-.49.556-1.033,1.183-1.589,1.8a3,3,0,0,1-2.758.8,1.467,1.467,0,0,1-1.383-1.2,15.265,15.265,0,0,1,.827-7.852,52.923,52.923,0,0,0,1.688-5.2,25.562,25.562,0,0,0,1.557-6.77,27.189,27.189,0,0,1,.777-3.882,2.39,2.39,0,0,1,.632-1.326c.827-.824,1.685-1.619,2.566-2.389a2.575,2.575,0,0,1,2.824.074,27.553,27.553,0,0,1,6.14,6.549c1.3,2.15,3.26,3.776,4.681,5.848a19.12,19.12,0,0,0,3.161,3.21A31.438,31.438,0,0,0,352.645,490.294Z" transform="translate(352.363 400.504)"/><path d="M270.108,464.334l2.438,1.274c.708,1.08,1.8,1.921,2.2,3.336l-2.3,1.247c-1.223.054-2.556.106-3.887.17a11.849,11.849,0,0,0-2.935.519,19.012,19.012,0,0,1-3.454.448,2.481,2.481,0,0,0-2.037,1.934,10.815,10.815,0,0,1-.605,2.927,6.113,6.113,0,0,0-.386,3.434c.221.234.4.588.672.676a3.377,3.377,0,0,0,1.478.18c2.4-.347,4.573.814,6.893,1.021a3.717,3.717,0,0,1,2.359,1.749,1.617,1.617,0,0,1-.243,2.226,6.571,6.571,0,0,1-4,1.835c-1.169.061-2.335.14-3.5.167-1.336.029-2.674,0-3.936,0a1.717,1.717,0,0,0-.684,2.231,2.037,2.037,0,0,0,1.813,1.523c2.674.057,5.353.029,8.027-.054a9.752,9.752,0,0,0,1.894-.578c1.139-.283,1.781.017,2.952,1.3a13.082,13.082,0,0,1-4.475,5.442c-.9.061-1.894.12-2.888.2a9.337,9.337,0,0,0-1.975.234,12.884,12.884,0,0,1-8.33-.155c-1.973.076-2.994-1.22-3.894-2.711a7.334,7.334,0,0,1-.426-2.94c.015-2.175.165-4.347.138-6.519-.02-1.39.829-2.524.913-3.872a13.826,13.826,0,0,1,.472-3.948,13.514,13.514,0,0,0,.588-4.433,3.761,3.761,0,0,0-.637-1.85,3.7,3.7,0,0,1,.952-4.92c1.314-1.011,2.743-1.877,4.148-2.763a1.345,1.345,0,0,1,1.424.007,4.927,4.927,0,0,0,2.426.49C264.3,464.209,267.309,464.278,270.108,464.334Z" transform="translate(244.414 395.292)"/><path d="M323.8,467.111c2.625,1.36,5.365.647,8,1.023a6.96,6.96,0,0,1,.932.285c5.161,2.4,4.568,1.727,7.23,7.848,0,.435.03,1.1-.01,1.769a6.844,6.844,0,0,1-.28,2.455c-.64,1.365-.7,2.893-1.5,4.219a36.718,36.718,0,0,1-8.376,9.826,16.524,16.524,0,0,1-3.028,1.712c-1.188.6-2.413,1.122-3.83,1.774h-3.889a9.864,9.864,0,0,1-4.9-3.07,7.741,7.741,0,0,1-1.365-2.071c-.529-1.22-1.166-2.391-1.793-3.658v-5.611c.5-2.108,1.535-3.651,2.022-5.432a10.648,10.648,0,0,1,2.785-4.667,6.353,6.353,0,0,0,1.338-1.479c.7-1.452,2.177-2,3.235-3.021C321.368,468.041,322.724,467.837,323.8,467.111Zm3.026,7.063c-1.338.49-2.052,1.729-3.144,2.46a35.6,35.6,0,0,1-3.415,1.828c-.327,1.727-1.346,3.136-1.39,4.849a18.941,18.941,0,0,0,.209,4.964,8.082,8.082,0,0,0,4.8,3.729c1.05-.354,2.3-.777,3.6-1.218.477-.386.989-.814,1.515-1.223a13.961,13.961,0,0,0,4.627-6.955,5.651,5.651,0,0,0,.248-1.956,14.465,14.465,0,0,0-1.328-4.229,1.691,1.691,0,0,0-.657-.738C330.35,474.658,328.768,473.741,326.825,474.174Z" transform="translate(332.189 400.611)"/><path d="M150.385,485.11c-.367,3.107-.167,6.111-.246,9.1a1.424,1.424,0,0,1-1.046,1.452c-1.277.492-1.929,1.8-2.989,2.591a2.134,2.134,0,0,1-1.87.4c-.413-.1-1.006-.6-1.026-.957-.052-.829-.148-1.66-.135-2.487.064-4,.157-8,.239-12.005a2.4,2.4,0,0,1,.03-.5,13.179,13.179,0,0,0,.726-3.887c-.084-1.5.052-3,.086-4.5a21.286,21.286,0,0,1,.128-3.99,9.108,9.108,0,0,1,2.49-4.253c-.1-.959-.832-1.8-.549-2.829a2.121,2.121,0,0,1,.2-.45c.792-1.06,1.594-2.111,2.433-3.215a37.418,37.418,0,0,1,9.961-.066,17.409,17.409,0,0,1,6.005,2.285,2.029,2.029,0,0,1,.721.679c.861,1.414,1.781,2.812,1.658,4.6a8.471,8.471,0,0,1-.517,2.411c-.94,2.526-2.573,4.642-3.956,6.9a8.9,8.9,0,0,1-1.7,1.823,23.026,23.026,0,0,1-8.817,5.432,3.521,3.521,0,0,0-1.82,1.466Zm9.757-16.037c-.927-1.592-2.731-2.086-4.467-2.512a5.566,5.566,0,0,0-4.315.495c-.03,2.753-.069,5.55-.079,8.344a4.064,4.064,0,0,0,.221,1.434,1.263,1.263,0,0,0,.76.524,1.748,1.748,0,0,0,.972.044,18.624,18.624,0,0,0,4.846-2.408,2.384,2.384,0,0,0,.7-.694C159.736,472.75,160.762,471.21,160.142,469.072Z" transform="translate(87.022 389.085)"/><path d="M283.417,489.8a59.365,59.365,0,0,1-3.481,8.9,4.2,4.2,0,0,1-1.375,1.422,2.1,2.1,0,0,1-1.424.3,1.486,1.486,0,0,1-1.114-.868,14.4,14.4,0,0,1-.246-1.476,15.594,15.594,0,0,1,1.6-7.247c1.284-3.065,2.4-6.2,3.882-9.191.733-1.481,1.095-3.156,1.9-4.591.831-1.483.967-3.161,1.685-4.679a29.6,29.6,0,0,0,1.385-4.664,8.094,8.094,0,0,1,4.155-2.92,4.285,4.285,0,0,1,2.18.942,3.054,3.054,0,0,1,1.247,1.5c.239,1.159.974,2.182,1.036,3.316.091,1.715,1.1,3.156,1.183,4.839s1.225,3.117,1.114,4.844c.5,1.4.922,2.844,1.533,4.2,1.09,2.423,1.759,5.023,3.1,7.346a1.864,1.864,0,0,1,.229.955,2.664,2.664,0,0,1-.266,1.434,12.785,12.785,0,0,1-3.073,3.173,4.606,4.606,0,0,1-3-.069,4.931,4.931,0,0,1-1.488-2.536c-.463-2.342-1.776-4.293-2.7-6.418a2.869,2.869,0,0,0-.31-.393,1.622,1.622,0,0,0-1.343-.477c-1.587.47-3.186.9-4.753,1.432A9.291,9.291,0,0,0,283.417,489.8Zm5.188-11.117a2.134,2.134,0,0,0-1.412,1.191c-.31.711-.563,1.449-.831,2.15a1.923,1.923,0,0,0,1.838.425,1.1,1.1,0,0,0,.859-.982A4.351,4.351,0,0,0,288.605,478.686Z" transform="translate(280.734 397.218)"/><path d="M213.306,484.546a13.375,13.375,0,0,0,3.491,4.094,9.314,9.314,0,0,0,3.575,1.707,3.21,3.21,0,0,0,2.45-.076c1.208-.7,2.6-.549,3.833-1.016,1.087-.411,2.128-.95,3.191-1.424a1.878,1.878,0,0,1,.477-.13,2.474,2.474,0,0,1,2.293.662,1.374,1.374,0,0,1,.325,1.781,6.778,6.778,0,0,1-1.306,1.5c-1.508,1.023-3.124,1.884-4.632,2.908-1.274.861-2.8,1.011-4.15,1.661a6.235,6.235,0,0,1-1.946.357,25.411,25.411,0,0,1-5.8-.113c-4.9-1.956-8.02-5.835-9.774-11.026a30.251,30.251,0,0,1-.037-5.953c.748-1.505.672-3.252,1.346-4.773a25.958,25.958,0,0,1,3.223-6.175,52.912,52.912,0,0,1,5.257-5.353,18.006,18.006,0,0,1,3.028-1.848c.812,0,1.646.015,2.477,0a7.1,7.1,0,0,1,4.571,1.744,5.737,5.737,0,0,1,1.929,3.412,2.052,2.052,0,0,1-.042.991c-.278.957-.654,1.884-.915,2.846-.4,1.483-2.47,1.543-3.333.876-.92-.709-1.67-1.633-2.568-2.371a4,4,0,0,0-1.319-.458c-3.813,3.279-2.942,2.285-5.734,8.207A39.808,39.808,0,0,0,213.306,484.546Z" transform="translate(177.685 392.158)"/><path d="M288.457,471.32a8.263,8.263,0,0,1,5.023-3.739c1.9-.189,4.1-.1,6.116-1.048,1.333-.071,2.664-.148,4-.209a9.922,9.922,0,0,0,3.422-.541c1.252-.509,2.625-.231,3.951-.187a7.541,7.541,0,0,0,3.884.723,3.936,3.936,0,0,1,2.964,1.621,6.1,6.1,0,0,1,.507.846c-.448,1.432-.844,2.893-2.536,3.663a34.517,34.517,0,0,0-3.835.148,35.513,35.513,0,0,0-3.823.94c-.155.28-.428.553-.445.844-.1,1.5-.138,3-.177,4.5a5.946,5.946,0,0,1-.583,2.9,1.274,1.274,0,0,0-.18.463,18.913,18.913,0,0,1-.986,5.368v4.952a14.276,14.276,0,0,1,.647,1.4c.477,1.407.066,2.189-1.326,2.6-.79.236-1.582.465-2.352.691A7.042,7.042,0,0,1,300,496.083a6.933,6.933,0,0,1-1.427-4.662q.166-2.738.337-5.474c1.24-3.734.871-7.565.684-11.385a.691.691,0,0,0-.14-.458,3.336,3.336,0,0,0-.807-.467.6.6,0,0,0-.485.007c-1.466.925-3.279.551-4.8,1.321a6.459,6.459,0,0,1-3.434.367,1.461,1.461,0,0,1-1.351-1.223C288.509,473.123,288.491,472.132,288.457,471.32Z" transform="translate(299.294 398.23)"/><path d="M365.494,488.123c-.6,1.2-1.112,2.443-1.806,3.567a6.386,6.386,0,0,1-3.3,2.915,10.164,10.164,0,0,1-1.823.75c-1.331.175-2.433,1.114-3.833,1.016a4.107,4.107,0,0,0-2.322.787,3.871,3.871,0,0,1-2.873.177c-.957-1.223-1.914-2.386-1.528-4.283.613-.728,1.333-1.638,2.111-2.5a2.653,2.653,0,0,1,3.173-.768,7.928,7.928,0,0,0,4.864.32c.148-.03.357-.175.379-.293a1.772,1.772,0,0,0,0-.935,1.634,1.634,0,0,0-.659-.726c-1.734-1.011-3.169-2.433-4.827-3.528a12.854,12.854,0,0,1-5.183-6.322c-.049-.635-.162-1.629-.187-2.622-.017-.831.071-1.663.1-2.244,1.7-4.249,4.881-6.492,8.923-7.951h2.792a11.321,11.321,0,0,1,4.037,2.01c1.3,1.129,1.616,1.754,1.1,4.01a1.6,1.6,0,0,1-1.149.822,3.859,3.859,0,0,1-2.418-.364,4.467,4.467,0,0,0-4.29,0c-1.966.908-2.517,1.845-2.066,3.887a3.745,3.745,0,0,0,.61,1.341,12.246,12.246,0,0,0,3.24,3.087c1.247.822,2.531,1.592,3.759,2.443a5.549,5.549,0,0,1,2.706,4A6.755,6.755,0,0,0,365.494,488.123Z" transform="translate(385.758 398.242)"/><path d="M189.858,463.091a10.541,10.541,0,0,1,1.388-.128,10.914,10.914,0,0,1,1.4.2A6.184,6.184,0,0,1,194.175,466a8.217,8.217,0,0,0-.617,1.7c-.18,1.151-.2,2.327-.307,3.493-.162,1.808.234,3.69-.716,5.4a2.2,2.2,0,0,0-.15.977q-.085,3.76-.14,7.523a1.086,1.086,0,0,0,1.36,1.021,5.5,5.5,0,0,0,.982-.185,32.01,32.01,0,0,1,3.656-1.611,20.313,20.313,0,0,0,3.867-.981c.268-.135.659-.027.994-.039.9-.03,1.51.674,2.32.876a3.229,3.229,0,0,1,1.6,1.154,1.568,1.568,0,0,1,.182,1.407,5,5,0,0,1-.573.812c-.859.787-1.747,1.542-2.667,2.347-2.371.017-4.475,1.3-6.859,1.284a3.675,3.675,0,0,0-1.427.4,64.688,64.688,0,0,1-8.955,3.208,4.344,4.344,0,0,1-2.337-2.524c.064-1.9-.209-3.907.635-5.84a5.625,5.625,0,0,0,.189-1.98c.064-1.673.086-3.346.15-5.019a11.525,11.525,0,0,1,.605-3.934,9.349,9.349,0,0,0,.357-2.964c.071-1.5.061-3.009.084-4.322C187.523,465.2,187.434,465.194,189.858,463.091Z" transform="translate(147.34 394.553)"/><path d="M160.51,461.845c.654,0,1.321-.044,1.978.012a1.354,1.354,0,0,1,1.205,1.348,8.638,8.638,0,0,1-.155,2.967,12.728,12.728,0,0,0-.7,4.4c-.022.836-.025,1.67-.059,2.5a16.887,16.887,0,0,0,2.133,8.094,1.75,1.75,0,0,0,.337.369,4.067,4.067,0,0,0,.863-.5,25.035,25.035,0,0,0,6.563-11.009,3.881,3.881,0,0,0-.416-3.378,1.416,1.416,0,0,1,.084-1.833c.755-.891,1.557-1.744,2.391-2.561a2.183,2.183,0,0,1,2.344-.379,2.325,2.325,0,0,1,1.584,1.793,5.137,5.137,0,0,1-.118,2.465c-.686,1.872-1.292,3.764-1.87,5.668a5.11,5.11,0,0,1-.716,1.3,6.6,6.6,0,0,0-1.279,2.679,4.06,4.06,0,0,1-.672,1.314,19.62,19.62,0,0,0-1.321,2.113c-1.247,2.824-3.41,4.9-5.535,7.023a6.151,6.151,0,0,1-5,1.823c-.332-.022-.664-.069-.994-.108a2.356,2.356,0,0,1-1.668-1c-.873-1.213-1.688-2.465-2.534-3.71-.433-1.594-.1-3.343-.923-4.871-.17-3.144-.7-6.3.524-9.38.359-.908.28-1.988.632-2.9A7.771,7.771,0,0,1,160.51,461.845Z" transform="translate(105.572 392.731)"/><path d="M273.958,483.043h7.365c1.028.507,1.944.908,2.807,1.4a2.486,2.486,0,0,1,1.274,2.027c.093,1-.517,2.239-1.424,2.354-2.121.273-4.049,1.6-6.293,1.136q-4.757.137-9.511.271a2.611,2.611,0,0,1-2.8-2.253,62.23,62.23,0,0,1,0-9.506,1.99,1.99,0,0,1,.219-.959c.979-1.444.453-3.269,1.328-4.782a33.33,33.33,0,0,0,1.793-4.517c.649-.679,1.555-1.656,2.494-2.593a2.785,2.785,0,0,1,.868-.48,2.017,2.017,0,0,1,2.182.7c.079.148.135.305.2.458.207.455.411.91.61,1.353-.118,1.341-.9,2.475-.93,3.862-.027,1.122-.657,2.219-.817,3.356a34.9,34.9,0,0,0-.217,4c-.03,1.166,0,2.332,0,3.385Z" transform="translate(265.322 397.59)"/><path d="M310.452,466.374c.462-.039.957-.111,1.451-.121a2.681,2.681,0,0,1,2.571,2.529c0,.167-.01.332,0,.5a6.664,6.664,0,0,1-.571,2.394,13.486,13.486,0,0,0-.3,1.956,16.905,16.905,0,0,1-.477,2.418,7.872,7.872,0,0,0-.5,1.911c-.106,1.811.027,3.666-.905,5.338-.091,1.159-.209,2.317-.263,3.479-.066,1.336-.972,2.458-.832,3.87a22.042,22.042,0,0,1-.108,3.483,3.968,3.968,0,0,1-2.77,3.2,2.165,2.165,0,0,1-1.889-.362,5.913,5.913,0,0,1-2.02-2.315c-.433-2.531-.108-5.193-.128-7.843a3.476,3.476,0,0,1,.32-1.439,6.472,6.472,0,0,0,.467-2.423,11.727,11.727,0,0,1,.814-4.369c.6-1.338.135-2.967.851-4.359.7-1.37.239-2.96.674-4.345A10.2,10.2,0,0,1,310.452,466.374Z" transform="translate(321.423 399.358)"/><path d="M197.105,489.067a2.83,2.83,0,0,1-1.739-2.809,11.149,11.149,0,0,1,.64-4.426c.45-1.05.416-2.305.851-3.365a21.945,21.945,0,0,0,.642-2.908,33.3,33.3,0,0,0,1.127-5.351,7.836,7.836,0,0,1,1.838-4.057,4.892,4.892,0,0,1,3.36-1.924,1.335,1.335,0,0,1,1.328.529c.428.711.77,1.474,1.1,2.116a7.084,7.084,0,0,1-.423,3.562c-.669,1.358-.339,2.952-1.112,4.345-.635,1.141-.261,2.647-1,3.84a2.417,2.417,0,0,0-.234.959,23.485,23.485,0,0,1-.635,4.413c-.042.13.138.32.125.475a1.8,1.8,0,0,1-.172.918A9.169,9.169,0,0,1,197.105,489.067Z" transform="translate(163.374 396.385)"/><path d="M192.014,293.428a40.514,40.514,0,0,1-11.985,17.026c-3.26,1.656-6.445,3.471-10.389,4.426-1.978,0-4.32-.012-6.662,0a4.7,4.7,0,0,1-2.411-.524,1.8,1.8,0,0,0-.458-.2c-5.363-1.269-5.311-1.378-8.876-3.033a17.452,17.452,0,0,1-7.5-6.367,8.152,8.152,0,0,0-1.213-1.589,10.854,10.854,0,0,1-2.672-4.728c-2.049-5.912-2.079-6.027-2.062-11.683a13.542,13.542,0,0,1,.831-5.9,7.243,7.243,0,0,0,.239-1.983,5.093,5.093,0,0,1,.3-1.459c.984-2.113,1.9-4.268,3.08-6.276a20.012,20.012,0,0,1,3.321-4.362c2.28-2.177,4.674-4.285,7.887-5.082.637-.157,1.225-.522,1.862-.686,2.244-.585,4.4-1.56,6.8-1.427a3.324,3.324,0,0,0,1.464-.234,9.028,9.028,0,0,1,3.447-.514c1-.03,2.012.074,3.011,0,2.731-.2,5.238.763,7.8,1.417.962.243,1.894.608,2.832.94a9.781,9.781,0,0,1,4.733,3.562,50.924,50.924,0,0,1,5.341,9.579,2.353,2.353,0,0,1,.248.957c-.054,1.71,1.011,3.159,1.041,4.864a9.921,9.921,0,0,0,.733,4.418,1.892,1.892,0,0,1,.034,1.469c-.775,1.592-.558,3.269-.627,4.927C192.134,291.806,192.065,292.638,192.014,293.428Zm-27.371,12.448c.445.032.942.071,1.439.106,1.661.111,2.389-.694,2.748-2.261.15-.647-.015-1.449.312-1.961.945-1.481.7-3.238,1.331-4.8a43.007,43.007,0,0,0,1.651-5.208c.5-1.914,1.284-3.757,1.956-5.626a13.949,13.949,0,0,1,.576-1.373c1.481-2.977,2.472-6.162,3.914-9.159a36.23,36.23,0,0,0,1.395-3.717,1.637,1.637,0,0,0-1.523-2.116,3.261,3.261,0,0,0-1.026.219,37.262,37.262,0,0,0-2.76,6.3c-.379,1.26-1.316,2.362-1.621,3.629-.349,1.459-1.257,2.738-1.282,4.281-.686.986-.669,2.224-1.144,3.279a33.367,33.367,0,0,0-1.7,4.143,16.642,16.642,0,0,1-1.828,4.094,11.692,11.692,0,0,1-1.68,4.135c-.627,1.2-.418,2.65-1.24,3.784a2.138,2.138,0,0,0-.175.972A1.319,1.319,0,0,0,164.643,305.875Zm21.206-18.126a5.414,5.414,0,0,0-.039-2.047c-.886-1.9-.5-3.953-.94-5.892a1.187,1.187,0,0,0-.221-.433c-.093-.126-.221-.307-.339-.312-.3-.015-.792-.054-.888.106a38.551,38.551,0,0,0-3.543,7.641c-1.2,3.609-2.632,7.147-3.289,10.918-.792,1.38-.659,2.9-.635,4.391a1.022,1.022,0,0,0,.522.758,1.2,1.2,0,0,0,.947-.13,18.078,18.078,0,0,0,4.007-3.739,3.8,3.8,0,0,0,.536-.839,14.21,14.21,0,0,1,2.581-4.241,1.626,1.626,0,0,0,.435-.883C185.2,291.243,186.3,289.592,185.849,287.75Zm-34.471,12.064a4.313,4.313,0,0,0,.534-.817,16.121,16.121,0,0,0,1.124-2.77,10.632,10.632,0,0,1,1.041-2.79,37.942,37.942,0,0,0,1.828-5.151c.618-1.9,1.643-3.619,2.148-5.577.494-1.914,1.383-3.72,1.936-5.638.593-2.064,1.272-4.108,1.978-6.14a24.193,24.193,0,0,0,.878-2.312,3.983,3.983,0,0,0-.248-1.451,5.617,5.617,0,0,0-2.386,1.159A35.152,35.152,0,0,1,157.9,273.7c-.861,1.8-1.958,3.5-2.273,5.515a33.667,33.667,0,0,0-2.187,5.543c-.622,1.72-.649,3.6-1.5,5.252a8.851,8.851,0,0,1-2.677,5.233,2.261,2.261,0,0,0-.44,1.943c.4.669.8,1.395,1.252,2.091A1.453,1.453,0,0,0,151.378,299.814Zm20.192-31.56a3.868,3.868,0,0,0-.443-.75c-.421-.477-.913-.487-1.235-.061-.3.394-.75.777-.822,1.215a12.558,12.558,0,0,1-1.437,3.7c-.91,1.788-1.447,3.7-2.2,5.535-.458,1.112-.216,2.374-.822,3.355-.622,1.014-.844,2.162-1.39,3.188a9.641,9.641,0,0,0-.231.962c-.856,2.148-1.368,4.428-2.539,6.453a4.018,4.018,0,0,0-.509,1.38,23.342,23.342,0,0,1-1.525,4.714c-.6,1.557-.364,3.331-1.375,4.75a.535.535,0,0,0,.01.485c.16.248.354.568.6.642a.987.987,0,0,0,.871-.18c1.461-2.236,2.135-4.832,3.23-7.24a48.687,48.687,0,0,0,2.185-6.067c.955-3.166,2.261-6.214,3.137-9.407.263-.955.979-1.752.984-2.8a1.055,1.055,0,0,1,.091-.49A45.134,45.134,0,0,0,171.571,268.254Zm-25.228,22.278c.679-.846.317-1.961.7-2.851,1.183-2.733,1.774-5.671,2.986-8.391a28.637,28.637,0,0,0,1.764-4.618c.443-1.784,1.555-3.289,1.875-5.092a.465.465,0,0,0-.224-.391c-.28-.113-.689-.308-.876-.192a10.731,10.731,0,0,0-2.792,2.775,24.976,24.976,0,0,0-3.9,7.582,75.429,75.429,0,0,0-.091,9.331,8.9,8.9,0,0,0,.283,1.451C146.1,290.281,146.247,290.4,146.342,290.532Z" transform="translate(79.301 96.475)"/></g></svg>