<svg xmlns="http://www.w3.org/2000/svg" width="306.839" height="108.93" viewBox="0 0 306.839 108.93"><g transform="translate(2167.292 -824.471)"><path d="M-2152.081,879.029v30.424h-15.212V828.911h15.212v8.749a18.021,18.021,0,0,1,6.3-7.6,16.416,16.416,0,0,1,9.175-2.552,17.782,17.782,0,0,1,15.524,8.021q5.522,8.028,5.522,22.608,0,14.8-5.6,22.716t-15.967,7.913a15.059,15.059,0,0,1-8.411-2.418A20.879,20.879,0,0,1-2152.081,879.029Zm21.259-21q0-8.429-2.812-13.23t-7.76-4.792q-4.948,0-7.815,4.792t-2.872,13.23q0,8.442,2.872,13.238t7.815,4.792q4.945,0,7.76-4.792T-2130.822,858.029Z" transform="translate(0.001 23.948)" fill="#161615"/><path d="M-2144.949,881.841V836.836h-15.469V825.109h30.735v56.732q0,6.881,2.135,9.744t7.236,2.864h12.191v11.726h-16.458q-10.9,0-15.631-5.628T-2144.949,881.841Z" transform="translate(54.241 5.034)" fill="#161615"/><path d="M-2148.819,852.859h30.211v46.624h18.963v11.726h-53.238V899.483h19.008V864.577h-14.945Zm14.945-28.388h15.266v17.817h-15.266Z" transform="translate(113.698 0)" fill="#161615"/><path d="M-2099,884.386a31.968,31.968,0,0,1-8.275,3.361,39.263,39.263,0,0,1-9.541,1.111q-13.482,0-21.1-8.126t-7.6-22.5q0-14.429,7.656-22.582t21.15-8.153a37,37,0,0,1,9.043,1.093,38.5,38.5,0,0,1,8.667,3.387v13.959a24.978,24.978,0,0,0-7.318-4.4,22.785,22.785,0,0,0-8.259-1.538q-7.443,0-11.46,4.747t-4.008,13.486q0,8.75,4.008,13.443t11.46,4.686a22.731,22.731,0,0,0,8.286-1.485,24.14,24.14,0,0,0,7.291-4.507Z" transform="translate(171.861 23.854)" fill="#161615"/><path d="M-2085.9,853.965v33.3h-15.159v-6.517a18.38,18.38,0,0,1-7.084,5.939,21.672,21.672,0,0,1-9.531,2.081q-9.95,0-15.5-5.254t-5.55-14.7q0-10.2,6.614-15.078t20.475-4.873h10.571V846.31a6.414,6.414,0,0,0-2.685-5.6c-1.788-1.263-4.417-1.9-7.887-1.9a40.483,40.483,0,0,0-10.606,1.387,49.449,49.449,0,0,0-10.7,4.4V831.569a52.817,52.817,0,0,1,10.26-3.076,59.4,59.4,0,0,1,11.05-.987q14.219,0,19.979,5.78T-2085.9,853.965Zm-21.248,5.9q-8.55,0-11.931,2.186t-3.388,7.5a8.494,8.494,0,0,0,2.348,6.3,8.557,8.557,0,0,0,6.346,2.347,10.933,10.933,0,0,0,9.38-4.561q3.334-4.547,3.333-12.732v-1.04Z" transform="translate(225.45 23.948)" fill="#161615"/></g></svg>