<svg xmlns="http://www.w3.org/2000/svg" width="710.818" height="252.346" viewBox="0 0 710.818 252.346"><g transform="translate(-1456.474 1076.817) rotate(180)"><path d="M-2132.051,946.863v70.48h-35.241V830.761h35.241v20.268c3.708-7.785,8.565-13.676,14.6-17.61a38.032,38.032,0,0,1,21.255-5.913q23.168,0,35.961,18.58,12.8,18.6,12.794,52.375,0,34.294-12.979,52.624-12.976,18.351-36.988,18.33a34.885,34.885,0,0,1-19.486-5.6Q-2125.544,958.191-2132.051,946.863Zm49.246-48.649q0-19.526-6.513-30.648-6.518-11.091-17.976-11.1t-18.106,11.1q-6.639,11.121-6.652,30.648,0,19.557,6.652,30.666,6.643,11.094,18.106,11.1t17.976-11.1Q-2082.791,917.759-2082.805,898.215Z" transform="translate(0 59.474)" fill="#161615"/><path d="M-2124.584,956.533V852.275h-35.834V825.109h71.2V956.533q0,15.94,4.946,22.573t16.764,6.633h28.241v27.165H-2077.4q-25.244,0-36.209-13.038T-2124.584,956.533Z" transform="translate(134.705 12.502)" fill="#161615"/><path d="M-2143.469,890.234h69.985V998.243h43.931v27.166h-123.33V998.243h44.033V917.379h-34.619Zm34.619-65.763h35.366v41.274h-35.366Z" transform="translate(282.361 0)" fill="#161615"/><path d="M-2037.753,959.289a74.068,74.068,0,0,1-19.173,7.785,90.932,90.932,0,0,1-22.1,2.575q-31.233,0-48.877-18.825-17.609-18.814-17.608-52.13,0-33.426,17.735-52.313t49-18.887a85.7,85.7,0,0,1,20.949,2.533,89.237,89.237,0,0,1,20.079,7.846V870.21a57.9,57.9,0,0,0-16.953-10.194,52.791,52.791,0,0,0-19.133-3.562q-17.243,0-26.548,11-9.3,10.966-9.285,31.243,0,20.27,9.285,31.143,9.3,10.846,26.548,10.855a52.653,52.653,0,0,0,19.195-3.44,55.952,55.952,0,0,0,16.891-10.442Z" transform="translate(426.807 59.24)" fill="#161615"/><path d="M-2016.361,888.8v77.133h-35.118v-15.1a42.575,42.575,0,0,1-16.411,13.758,50.192,50.192,0,0,1-22.08,4.82q-23.049,0-35.9-12.172-12.855-12.2-12.856-34.046,0-23.634,15.323-34.931,15.326-11.277,47.431-11.287h24.49v-5.911c0-5.706-2.056-10.031-6.218-12.974-4.142-2.925-10.233-4.408-18.271-4.408a93.8,93.8,0,0,0-24.569,3.213,114.614,114.614,0,0,0-24.8,10.194V836.919a122.373,122.373,0,0,1,23.769-7.127,137.625,137.625,0,0,1,25.6-2.287q32.941,0,46.283,13.389Q-2016.375,854.3-2016.361,888.8Zm-49.223,13.656q-19.806,0-27.64,5.065-7.854,5.068-7.848,17.365c0,6.117,1.811,11,5.44,14.6,3.6,3.624,8.522,5.437,14.7,5.437q14.034,0,21.73-10.566,7.726-10.534,7.723-29.494v-2.409Z" transform="translate(559.887 59.474)" fill="#161615"/></g></svg>